<?xml version="1.0" encoding="UTF-8" standalone="no"?>
<!-- Created with Inkscape (http://www.inkscape.org/) -->

<svg
   width="72.73632mm"
   height="81.548157mm"
   viewBox="0 0 274.90893 308.21351"
   version="1.1"
   id="svg1823"
   inkscape:version="1.2.2 (732a01da63, 2022-12-09)"
   sodipodi:docname="rss-dragon-logo.svg"
   inkscape:export-filename="rss-dragon-logo.png"
   inkscape:export-xdpi="600"
   inkscape:export-ydpi="600"
   xmlns:inkscape="http://www.inkscape.org/namespaces/inkscape"
   xmlns:sodipodi="http://sodipodi.sourceforge.net/DTD/sodipodi-0.dtd"
   xmlns="http://www.w3.org/2000/svg"
   xmlns:svg="http://www.w3.org/2000/svg"
   xmlns:rdf="http://www.w3.org/1999/02/22-rdf-syntax-ns#"
   xmlns:cc="http://creativecommons.org/ns#"
   xmlns:dc="http://purl.org/dc/elements/1.1/">
  <defs
     id="defs1817" />
  <sodipodi:namedview
     id="base"
     pagecolor="#ffffff"
     bordercolor="#000000"
     borderopacity="0.30"
     inkscape:pageopacity="0.0"
     inkscape:pageshadow="2"
     inkscape:zoom="0.98994949"
     inkscape:cx="-4.5456865"
     inkscape:cy="72.730983"
     inkscape:document-units="px"
     inkscape:current-layer="layer1"
     inkscape:showpageshadow="2"
     inkscape:pagecheckerboard="0"
     inkscape:deskcolor="#d1d1d1"
     showgrid="false"
     inkscape:window-width="1920"
     inkscape:window-height="991"
     inkscape:window-x="-9"
     inkscape:window-y="-9"
     inkscape:window-maximized="1" />
  <metadata
     id="metadata1820">
    <rdf:RDF>
      <cc:Work
         rdf:about="">
        <dc:format>image/svg+xml</dc:format>
        <dc:type
           rdf:resource="http://purl.org/dc/dcmitype/StillImage" />
      </cc:Work>
    </rdf:RDF>
  </metadata>
  <g
     inkscape:label="Layer 1"
     inkscape:groupmode="layer"
     id="layer1"
     transform="translate(-211.11697,-205.89324)">
    <path
       style="fill:#000000;stroke-width:3.77952"
       d="m 248.42449,465.66319 c -0.1347,-16.85431 0.2679,-33.73398 -0.2026,-50.57246 3.9864,-2.77001 4.1883,-3.02982 7.5577,-6.46023 13.5518,-13.45814 22.8601,-31.6255 25.169,-50.63131 2.2156,-18.95607 -7.5127,-36.37965 -18.2437,-51.1759 -4.4889,-7.15506 -11.0473,-17.40431 -3.7524,-24.97999 2.9268,-3.40437 7.9098,-8.61441 3.9962,-1.32526 -3.0424,9.13716 2.4475,17.84247 8.8299,23.97744 4.8378,5.44173 9.8147,11.04631 14.82,16.16803 5.6065,-4.96774 8.9996,-12.031 13.7654,-17.59688 9.0503,13.29396 18.4779,26.7337 27.646,40.12811 6.9543,-9.42674 13.824,-20.03062 20.8303,-28.7328 45.9007,66.40816 91.9538,132.83592 137.1856,199.64482 -23.6041,0 -47.2082,0 -70.8123,0 -19.6104,-29.28 -39.2208,-58.56 -58.8312,-87.84 -15.7722,0 -31.5443,0 -47.3165,0 0,29.28 0,58.56 0,87.84 -20.2134,0 -40.4269,0 -60.6403,0 -4e-4,-16.14784 -7e-4,-32.29572 0,-48.44357 z m 124.2882,-109.44 c -7.6343,-12.17854 -16.0778,-24.358 -24.7522,-35.46807 -3.8414,10.51276 -7.6455,21.03954 -11.51,31.54367 6.42,-1.85873 12.8562,-3.66432 19.2666,-5.55499 2.3335,2.19114 7.5309,13.46649 6.5914,5.27554 -1.418,-8.14919 4.7985,1.26168 7.4794,2.84477 1.8871,1.68809 7.14,7.08182 3.0713,1.58555 z m -56.0909,-24.08001 c -5.4861,-7.54874 -10.6626,-15.47429 -16.2761,-22.83931 -1.1896,5.87535 -2.9196,11.70081 -3.7935,17.60531 2.6247,5.55216 4.663,5.01086 6.5787,-0.48212 4.3051,1.65354 9.8306,4.7692 13.4909,5.71612 z m 84.4264,40.55739 c -5.4757,-7.8381 -11.0558,-15.61776 -16.4672,-23.4918 15.4225,-3.29518 27.7611,-17.48425 27.4326,-33.4831 1.4616,-15.55325 -8.4885,-31.09909 -23.4932,-35.75615 -16.8854,-5.7439 -34.9878,-2.55734 -52.4537,-3.44587 -5.172,-0.30425 -11.1444,0.55536 -15.8214,-0.46847 -2.5128,-7.929 2.0327,-17.43262 -4.3369,-24.22757 -7.7639,-11.41353 -18.9643,-19.78412 -30.4346,-27.17352 32.9601,0.26268 65.9597,-0.37969 98.895,0.45185 28.7451,1.95299 59.1725,13.78178 74.7894,39.29866 10.784,16.86149 12.9858,37.40545 12.0663,56.97271 -0.2929,26.37339 -13.5318,52.93485 -36.7138,66.39091 -5.355,3.39602 -11.1655,5.97971 -17.0811,8.22717 -5.4599,-7.76448 -10.9245,-15.53265 -16.3814,-23.29482 z m -151.0912,17.04261 c -0.3578,-22.2325 -13.86223,-40.8395 -24.29616,-59.49358 -3.93488,-6.46832 -7.73513,-13.78413 -11.75136,-19.74641 -0.55596,4.73991 -0.81142,9.52577 -1.53505,14.24001 -2.54,-14.58546 -1.35906,-30.36272 4.70731,-43.97321 3.58538,-7.68877 9.52835,-13.86218 14.06382,-20.89406 -2.95638,-3.83796 -1.78951,-4.47477 2.95895,-7.51121 10.22584,-6.80749 22.44949,-8.94807 34.26929,-11.07216 3.6433,-4.70563 -4.3338,-3.51156 -6.7682,-5.48553 -9.1665,-6.54066 -10.268,-21.02151 -3.9426,-29.91379 -2.393,9.54659 4.0341,18.87689 10.3623,25.44608 4.4781,3.15874 9.8114,7.50112 15.4168,7.09399 3.5658,-3.85981 -4.1526,-6.35603 -6.6968,-8.29799 -5.2782,-3.47086 -8.9365,-11.12236 -5.6426,-17.01532 3.6427,12.87091 18.1291,16.89199 27.0929,25.26383 6.9869,6.1666 14.6404,12.97263 17.6313,22.03756 -0.6683,9.1062 -1.1882,20.59816 7.6097,26.16748 4.4839,1.02864 8.4585,2.75641 5.8832,8.18415 -1.6285,8.59132 -11.9861,9.09903 -18.992,9.56814 3.8235,-3.25145 7.2582,-9.55755 2.1142,-13.32918 -8.8307,-8.1656 -22.5124,-7.49832 -33.4732,-5.51384 1.2954,-3.90372 1.3344,-9.39349 -3.1833,-10.84827 2.9284,-3.94072 2.9521,-9.27363 -1.7167,-11.95513 -1.9573,-3.00499 -9.3401,-3.96503 -7.546,1.30254 3.6448,3.77079 -4.8234,4.29974 -6.8319,6.21747 -9.3856,3.95127 -16.71141,13.85065 -14.00834,24.31487 2.61354,16.84914 15.22964,30.05144 18.65014,46.5521 1.2718,12.16763 0.4429,24.93891 -6.1771,35.58732 -2.479,4.63604 -4.8716,9.50653 -8.1156,13.59144 l -0.083,-0.52002 z m 55.2792,-126.20561 c 0.3049,-2.53859 -2.5161,-6.1672 -4.9687,-7.5527 -4.4334,3.60835 -0.1741,9.32129 4.9687,7.5527 z m -25.5531,44.12474 c -6.0311,-7.38251 -16.3186,-14.75384 -13.1947,-25.63911 0.1644,-4.5569 7.7459,-8.33941 4.2809,-12.71633 -1.1604,-4.80242 5.7804,-2.46592 2.3557,1.97246 -4.2508,4.6348 2.6493,6.32682 2.8205,9.89416 -0.028,3.54221 -4.795,11.9382 2.3803,8.4582 6.7663,-1.47318 14.0527,-2.48061 20.7755,-0.72786 -5.43,7.39692 -10.6178,15.12102 -16.1957,22.31823 -1.074,-1.18662 -2.1493,-2.37287 -3.2225,-3.55975 z m -30.2975,-74.66049 c -0.4808,-3.77461 0.129,-12.80621 2.1811,-4.58887 1.1521,4.33202 4.9501,8.23521 7.659,10.75249 -3.1059,-0.7643 -10.5914,4.92741 -9.84,-0.30312 0,-1.95356 -1e-4,-3.90709 -1e-4,-5.86061 z m 18.2092,-7.65864 c -1.0968,-1.18666 0.5307,-0.42694 0.2405,0.28006 z"
       id="path1586" />
  </g>
</svg>
