<?xml version="1.0" encoding="UTF-8" standalone="no"?>
<!-- Created with Inkscape (http://www.inkscape.org/) -->

<svg
   width="30.216793mm"
   height="34.097076mm"
   viewBox="0 0 30.216793 34.097076"
   version="1.1"
   id="svg1"
   inkscape:version="1.3 (0e150ed6c4, 2023-07-21)"
   sodipodi:docname="all-play-rpg.svg"
   xmlns:inkscape="http://www.inkscape.org/namespaces/inkscape"
   xmlns:sodipodi="http://sodipodi.sourceforge.net/DTD/sodipodi-0.dtd"
   xmlns="http://www.w3.org/2000/svg"
   xmlns:svg="http://www.w3.org/2000/svg">
  <sodipodi:namedview
     id="namedview1"
     pagecolor="#ffffff"
     bordercolor="#000000"
     borderopacity="0.25"
     inkscape:showpageshadow="2"
     inkscape:pageopacity="0.0"
     inkscape:pagecheckerboard="0"
     inkscape:deskcolor="#d1d1d1"
     inkscape:document-units="mm"
     inkscape:zoom="1.9578168"
     inkscape:cx="39.074137"
     inkscape:cy="92.705304"
     inkscape:window-width="1920"
     inkscape:window-height="991"
     inkscape:window-x="-9"
     inkscape:window-y="-9"
     inkscape:window-maximized="1"
     inkscape:current-layer="layer1"
     showgrid="false" />
  <defs
     id="defs1" />
  <g
     inkscape:label="Layer 1"
     inkscape:groupmode="layer"
     id="layer1"
     transform="translate(-89.95831,-131.49792)">
    <g
       id="g2">
      <path
         id="path2401"
         style="fill:#bfbfbf;stroke:#cc0000;stroke-width:0.208681"
         d="m 105.06747,131.64547 -1.96165,1.96111 c -5.062695,0.64983 -9.692877,4.04304 -11.738794,8.74417 -2.45999,5.34109 -1.368451,12.07145 2.686659,16.33802 2.644404,2.91773 6.482605,4.60917 10.391615,4.77904 0.0193,0.0781 0.0363,0.15687 0.0573,0.23461 0.0497,0.18462 0.10432,0.36812 0.16279,0.55036 0.0585,0.18224 0.12116,0.36306 0.1881,0.5426 0.0669,0.17955 0.13827,0.35776 0.21394,0.53434 0.0754,-0.17658 0.147,-0.35479 0.21394,-0.53434 0.0669,-0.17954 0.12962,-0.36036 0.18809,-0.5426 0.0585,-0.18224 0.11253,-0.36574 0.16227,-0.55036 0.0204,-0.075 0.0369,-0.15095 0.0558,-0.22634 0.62481,-0.0251 1.24875,-0.0893 1.86653,-0.19533 5.76545,-0.87789 10.72552,-5.45844 12.06283,-11.13421 1.42224,-5.48544 -0.57169,-11.6806 -4.99761,-15.2399 -2.15358,-1.80042 -4.80796,-2.90981 -7.57163,-3.28093 z" />
      <path
         id="path2400"
         style="fill:#000000;fill-opacity:1;fill-rule:nonzero;stroke:none;stroke-width:0.030172"
         d="M 105.06747 131.70463 L 103.02005 133.75101 C 95.659079 134.752 90.066831 141.03924 90.066831 148.60747 C 90.066831 156.59681 96.297475 163.16382 104.26441 163.58588 L 104.45923 163.5864 C 104.47403 163.6445 104.48643 163.70318 104.50213 163.76107 C 104.55183 163.94569 104.60644 164.12918 104.66491 164.31142 C 104.66497 164.31163 104.66536 164.31173 104.66542 164.31194 C 104.60694 164.1297 104.55234 163.94569 104.50264 163.76107 C 104.45261 163.57646 104.40752 163.39068 104.36622 163.204 C 104.32525 163.01732 104.28845 162.83021 104.25615 162.64176 C 104.22395 162.45331 104.19571 162.26322 104.17191 162.07331 C 104.17108 162.06662 104.17067 162.05986 104.16985 162.05316 C 102.61421 160.82656 101.28484 159.35439 100.24812 157.70821 C 99.202058 157.08003 98.159298 156.44668 97.121697 155.80548 C 96.174199 156.27327 95.268962 156.81772 94.424704 157.44001 C 92.578496 155.22175 91.491938 152.54872 91.271408 149.68389 L 95.072727 149.68182 C 95.071577 149.29513 95.071543 148.90839 95.070143 148.52169 L 91.227483 148.52375 C 91.244943 145.54249 92.197072 142.7158 93.985971 140.32891 C 94.679655 140.87529 95.413778 141.36328 96.173951 141.80168 C 96.212578 141.77933 96.25116 141.75691 96.289706 141.7345 C 96.277509 141.74133 96.266198 141.74883 96.25405 141.75569 C 96.623941 141.54697 97.014005 141.35458 97.371294 141.13764 C 96.439698 140.651 95.549271 140.0827 94.719776 139.43077 C 96.7781 137.11234 99.527756 135.55968 102.54617 135.0021 C 100.80228 136.56329 99.374107 138.44319 98.353663 140.51597 C 98.164036 140.62963 97.975736 140.74561 97.785739 140.85859 C 97.656887 140.9587 97.516022 141.04976 97.371294 141.13764 C 97.516063 141.04974 97.656857 140.95924 97.785739 140.85911 C 99.017063 140.12689 100.24042 139.37975 101.46717 138.63909 C 101.11067 138.85399 100.75306 139.06685 100.39695 139.28246 C 101.35692 137.80864 102.54917 136.48334 103.9373 135.3504 L 103.9373 134.73958 L 102.98439 133.78719 L 105.06747 131.70463 z M 101.46717 138.63909 C 102.28801 138.14426 103.10931 137.65017 103.9373 137.16837 C 103.10932 137.65016 102.28767 138.14369 101.46717 138.63909 z M 96.25405 141.75569 C 96.146868 141.81617 96.042127 141.87838 95.940374 141.94328 C 96.041984 141.87837 96.146999 141.81618 96.25405 141.75569 z M 95.940374 141.94328 C 95.896265 141.97145 95.854393 142.00129 95.811699 142.03061 C 95.854411 142.00132 95.896248 141.97142 95.940374 141.94328 z M 95.811699 142.03061 C 95.715669 142.09645 95.625264 142.16675 95.538331 142.2399 C 95.625203 142.1667 95.715742 142.0965 95.811699 142.03061 z M 95.538331 142.2399 C 95.490492 142.28021 95.441191 142.31935 95.396738 142.36237 C 95.44125 142.31934 95.490419 142.28022 95.538331 142.2399 z M 95.396738 142.36237 C 95.377255 142.38121 95.358146 142.40033 95.339377 142.41973 C 95.358127 142.40033 95.377277 142.38121 95.396738 142.36237 z M 95.339377 142.41973 C 95.257873 142.50408 95.180768 142.59185 95.114584 142.68845 C 95.180674 142.59203 95.257953 142.50392 95.339377 142.41973 z M 104.66542 164.31194 C 104.72387 164.49397 104.78614 164.67468 104.85301 164.85402 C 104.91985 165.03341 104.99134 165.21142 105.06695 165.38784 C 104.99145 165.21162 104.92029 165.03321 104.85352 164.85402 C 104.78658 164.67447 104.72392 164.49418 104.66542 164.31194 z M 105.06695 165.38784 C 105.06689 165.38799 105.06701 165.38821 105.06695 165.38836 C 105.06704 165.38856 105.06738 165.38867 105.06747 165.38887 C 105.14287 165.2123 105.21447 165.03357 105.28141 164.85402 C 105.34831 164.67447 105.41104 164.49418 105.46951 164.31194 C 105.52801 164.1297 105.58203 163.94569 105.63177 163.76107 C 105.64712 163.7044 105.6591 163.6469 105.67363 163.59002 L 105.67311 163.59002 C 105.65851 163.6469 105.64656 163.70437 105.63126 163.76107 C 105.58152 163.94569 105.52749 164.12918 105.46899 164.31142 C 105.41052 164.49366 105.34779 164.67447 105.28089 164.85402 C 105.214 165.03341 105.14228 165.21142 105.06695 165.38784 z M 105.67363 163.59002 L 105.70464 163.59002 C 113.7635 163.25179 120.06655 156.68361 120.06655 148.60747 C 120.06655 141.00953 114.4859 134.74749 107.11385 133.75101 L 107.15003 133.78719 L 106.19711 134.73958 L 106.19711 135.48269 C 107.46523 136.54229 108.5703 137.7591 109.47236 139.10727 C 109.50733 139.1283 109.54231 139.14929 109.57727 139.17032 C 109.86253 139.34153 110.14828 139.51185 110.43303 139.68398 C 110.80069 139.90625 111.16748 140.12975 111.53477 140.35268 C 110.51218 138.32944 109.10694 136.49437 107.38929 134.96593 C 110.58269 135.50629 113.46569 137.14171 115.58982 139.62817 C 114.77379 140.24396 113.90611 140.78315 112.99928 141.24203 C 113.38143 141.47439 113.76376 141.70655 114.14598 141.93863 C 114.89444 141.52268 115.61788 141.06057 116.30347 140.54181 L 116.30554 140.5413 C 117.98897 142.87804 118.88703 145.62651 118.90693 148.50928 L 115.0653 148.51239 C 115.0613 146.81926 115.0511 145.12648 115.05807 143.43363 C 115.02197 142.9924 115.23415 142.40536 114.64724 142.24248 C 114.48021 142.14121 114.31297 142.04002 114.14598 141.93863 C 114.14565 141.93881 114.14528 141.93896 114.14495 141.93914 C 114.31169 142.04037 114.47841 142.14188 114.64518 142.243 C 115.23209 142.40588 115.0198 142.9924 115.056 143.43363 C 115.04757 145.50849 115.06185 147.58396 115.0622 149.65909 C 115.06231 149.41774 115.0653 149.17643 115.0653 148.9351 L 115.0653 148.56768 C 115.06615 148.93581 115.06421 149.30389 115.06427 149.672 L 118.86146 149.66994 C 118.64993 152.453 117.61921 155.06418 115.87042 157.24622 C 115.03976 156.65709 114.15608 156.13922 113.23182 155.69799 C 112.81178 155.92996 112.39115 156.16081 112.01226 156.42301 C 113.10321 156.88269 114.14266 157.45062 115.10561 158.12368 C 113.03853 160.3036 110.32898 161.74914 107.39084 162.2485 C 109.19088 160.65209 110.61766 158.76932 111.65104 156.64419 C 110.97654 157.04474 110.30503 157.45108 109.63411 157.85807 C 108.65126 159.38126 107.41571 160.75188 105.97852 161.91415 C 105.97263 161.96714 105.96913 162.02043 105.9625 162.07331 C 105.939 162.26322 105.91109 162.45331 105.87879 162.64176 C 105.84652 162.83021 105.80971 163.01732 105.76871 163.204 C 105.74013 163.33338 105.70644 163.4616 105.67363 163.59002 z M 113.23182 155.69799 C 113.37668 155.618 113.51998 155.53673 113.66229 155.4546 C 113.51997 155.53674 113.37618 155.61747 113.23131 155.69748 C 113.23152 155.69758 113.23162 155.69789 113.23182 155.69799 z M 113.66229 155.4546 C 113.70102 155.43224 113.73917 155.40955 113.77753 155.3869 C 113.73917 155.40955 113.70102 155.43225 113.66229 155.4546 z M 113.77753 155.3869 C 113.8931 155.31866 114.00569 155.24808 114.11653 155.17606 C 114.00578 155.24803 113.89301 155.31871 113.77753 155.3869 z M 114.11653 155.17606 C 114.15747 155.14946 114.19839 155.12272 114.23848 155.09545 C 114.19835 155.12274 114.1575 155.14944 114.11653 155.17606 z M 114.23848 155.09545 C 114.34791 155.02103 114.45203 154.94239 114.55371 154.86187 C 114.4521 154.94236 114.34784 155.02106 114.23848 155.09545 z M 114.55371 154.86187 C 114.58762 154.83501 114.62314 154.80943 114.65603 154.78177 C 114.62314 154.80943 114.58762 154.83501 114.55371 154.86187 z M 114.65603 154.78177 C 114.78573 154.6727 114.9096 154.55945 115.02035 154.43554 C 115.05737 152.8483 115.06452 151.26 115.06427 149.672 L 115.0622 149.672 C 115.06242 151.26017 115.0553 152.84813 115.01828 154.43554 C 114.90781 154.55913 114.78537 154.67297 114.65603 154.78177 z M 109.57727 139.17032 C 110.68597 139.83735 111.79197 140.50844 112.89748 141.18053 C 111.792 140.50836 110.68595 139.83741 109.57727 139.17032 z M 109.47236 139.10727 C 108.42551 138.47781 107.37673 137.85202 106.32217 137.23659 C 107.3766 137.85212 108.42559 138.47786 109.47236 139.10727 z M 106.32217 137.23659 C 106.28036 137.21218 106.23894 137.18706 106.19711 137.16269 L 106.19711 137.16321 C 106.23887 137.18754 106.28043 137.21223 106.32217 137.23659 z M 106.19711 138.09803 L 106.19815 139.02614 C 106.19832 139.02613 106.19849 139.02615 106.19866 139.02614 L 106.19711 138.09803 z M 106.19866 139.02614 C 106.74794 138.98909 107.29621 139.06447 107.80993 139.24215 C 107.29619 139.06437 106.74799 138.98916 106.19866 139.02614 z M 103.93834 138.10682 C 101.94608 139.28321 99.961642 140.4843 97.998646 141.6942 C 99.961573 140.48434 101.94617 139.28369 103.93834 138.10734 L 103.93834 139.02614 C 103.93851 139.02615 103.93868 139.02613 103.93885 139.02614 L 103.93885 138.10682 C 103.93872 138.10689 103.93846 138.10674 103.93834 138.10682 z M 97.998646 141.6942 C 98.528811 141.62512 99.045938 141.46092 99.568059 141.34383 C 99.045946 141.46089 98.528789 141.62506 97.998646 141.6942 z M 103.52699 139.01891 C 102.57045 139.05129 101.64302 139.42046 100.92353 140.07259 C 101.74405 139.32875 102.8355 138.95427 103.93162 139.02614 C 103.79654 139.01727 103.66143 139.01436 103.52699 139.01891 z M 100.92353 140.07259 C 100.92343 140.07268 100.92311 140.0725 100.92302 140.07259 C 100.85801 140.1315 100.83188 140.21298 100.84085 140.29066 C 100.83211 140.21318 100.85871 140.13133 100.92353 140.07259 z M 103.12288 140.04365 C 102.43315 140.0463 101.75588 140.19215 101.20569 140.48549 C 101.14206 140.51917 101.06781 140.51689 101.00105 140.49117 C 101.06794 140.51702 101.14241 140.51942 101.2062 140.486 C 102.16876 139.97283 103.52113 139.91031 104.64682 140.27826 C 104.16429 140.12039 103.64018 140.04167 103.12288 140.04365 z M 107.05907 140.04365 C 106.39217 140.04101 105.71312 140.1816 105.11397 140.46223 C 105.11417 140.46232 105.11429 140.46265 105.11449 140.46275 C 105.9874 140.05388 107.02896 139.94527 107.95618 140.14132 C 107.66522 140.07976 107.36398 140.04486 107.05907 140.04365 z M 109.21347 140.07259 C 109.24588 140.10196 109.26851 140.13692 109.2822 140.17439 C 109.26849 140.13716 109.24621 140.10179 109.21398 140.07259 C 109.21388 140.0725 109.21356 140.07268 109.21347 140.07259 z M 109.2822 140.17439 C 109.30956 140.24934 109.30036 140.33384 109.25687 140.40022 C 109.30066 140.3336 109.30989 140.24962 109.2822 140.17439 z M 103.47325 140.30462 L 103.47635 140.38523 C 103.47651 140.38519 103.4767 140.38527 103.47686 140.38523 L 103.47376 140.30513 C 103.58329 140.31288 103.69219 140.32558 103.80036 140.34079 C 103.69202 140.32554 103.58295 140.31237 103.47325 140.30462 z M 106.66272 140.30772 L 106.66065 140.35939 L 106.66375 140.30772 C 106.66341 140.30775 106.66306 140.30769 106.66272 140.30772 z M 106.66065 140.35939 C 108.46183 140.80667 110.25815 141.2838 112.07531 141.64252 C 110.25813 141.2838 108.46182 140.80668 106.66065 140.35939 z M 109.16644 140.4829 C 109.09341 140.5227 109.0044 140.52469 108.9308 140.48549 C 108.93099 140.48559 108.93111 140.4859 108.93131 140.486 C 109.00466 140.52512 109.0935 140.52286 109.16644 140.4829 z M 105.59198 140.53561 C 105.47848 140.57541 105.36739 140.62031 105.25918 140.66945 L 105.24317 155.32127 C 105.24317 155.60984 105.23515 155.8975 105.22715 156.18272 C 105.21915 156.46794 105.20602 156.75098 105.19252 157.03073 C 105.17662 157.31048 105.1602 157.58694 105.1393 157.8591 C 105.11825 158.12934 105.09494 158.39527 105.06798 158.65595 C 105.06817 158.65781 105.06831 158.65978 105.0685 158.66164 C 105.0957 158.39917 105.11861 158.13127 105.13981 157.8591 C 105.16071 157.58694 105.17714 157.31048 105.19304 157.03073 C 105.20644 156.75098 105.21966 156.46794 105.22766 156.18272 C 105.23576 155.8975 105.2442 155.60984 105.2442 155.32127 L 105.26022 140.66945 C 105.36841 140.62031 105.47951 140.57541 105.59301 140.53561 C 105.59271 140.53572 105.59229 140.5355 105.59198 140.53561 z M 105.06798 158.65595 C 105.04101 158.39527 105.01617 158.12934 104.99512 157.8591 C 104.97392 157.58694 104.95669 157.31048 104.94189 157.03073 C 104.92599 156.75098 104.91537 156.46794 104.90727 156.18272 C 104.89927 155.8975 104.89385 155.60984 104.89125 155.32127 L 104.87523 140.62966 C 104.87508 140.6296 104.87486 140.62972 104.87471 140.62966 L 104.89073 155.32127 C 104.89333 155.60984 104.89823 155.8975 104.90623 156.18272 C 104.91443 156.46794 104.92496 156.75098 104.94086 157.03073 C 104.95566 157.31048 104.97288 157.58694 104.99408 157.8591 C 105.01528 158.13127 105.04027 158.39917 105.06747 158.66164 C 105.06766 158.65978 105.06779 158.65781 105.06798 158.65595 z M 95.114584 142.69207 C 95.0898 143.57143 95.078994 144.45093 95.073243 145.33067 C 95.07926 144.45111 95.08982 143.57124 95.114584 142.69207 z M 95.073243 145.33067 C 95.070491 145.73307 95.069994 146.13539 95.069626 146.53783 C 95.069881 146.13539 95.070613 145.73307 95.073243 145.33067 z M 95.069626 146.53783 C 95.069234 147.15569 95.06795 147.77356 95.070143 148.39146 C 95.067976 147.77347 95.06906 147.15579 95.069626 146.53783 z M 95.884046 143.57625 C 95.912994 143.91861 95.980289 144.25473 96.068015 144.58756 C 95.980286 144.25473 95.912995 143.91861 95.884046 143.57625 z M 95.889731 146.88975 C 95.858981 148.01391 95.842651 149.13975 95.840638 150.26525 C 95.842662 149.13975 95.858961 148.0139 95.889731 146.88975 z M 95.840638 150.26525 C 95.838626 151.39075 95.850912 152.51593 95.876812 153.64024 C 95.850907 152.51593 95.838615 151.39075 95.840638 150.26525 z M 98.960861 152.47907 C 98.96079 152.4792 98.960933 152.47945 98.960861 152.47959 C 99.634898 152.60882 100.36542 152.57545 101.08476 152.56692 C 100.36559 152.57532 99.634747 152.60828 98.960861 152.47907 z M 101.0951 152.56692 C 101.33576 152.56414 101.57535 152.56468 101.81082 152.57467 C 102.48605 152.57167 103.16159 152.57425 103.83705 152.57725 C 103.16159 152.57425 102.48607 152.57115 101.81082 152.57415 C 101.57518 152.56415 101.33593 152.56419 101.0951 152.56692 z M 108.67345 152.57415 C 107.88174 152.58024 107.08976 152.5802 106.29788 152.5788 L 106.29788 152.57932 C 107.08975 152.58072 107.88174 152.58024 108.67345 152.57415 z M 111.81124 153.70948 C 111.73309 153.73972 111.65723 153.78203 111.58438 153.83919 C 111.65723 153.78203 111.7331 153.73972 111.81124 153.70948 z M 111.58438 153.83919 C 111.51153 153.89635 111.44157 153.96791 111.37509 154.05572 C 111.44156 153.96791 111.51154 153.89635 111.58438 153.83919 z M 96.666428 154.20868 C 96.59618 154.26936 96.547302 154.33115 96.529485 154.39368 C 96.547302 154.33115 96.59618 154.26936 96.666428 154.20868 z M 96.529485 154.39368 C 96.511668 154.45621 96.524696 154.51964 96.577544 154.58282 C 96.524695 154.51964 96.511668 154.45621 96.529485 154.39368 z M 98.274081 156.54084 C 99.305638 158.69691 100.73974 160.60115 102.54462 162.21232 C 99.773988 161.6979 97.198918 160.32969 95.206052 158.30455 C 96.157361 157.61362 97.187572 157.02148 98.274081 156.54084 z M 109.61447 157.86995 C 108.43954 158.58272 107.26488 159.29547 106.07826 159.98714 C 107.26487 159.29547 108.43952 158.58269 109.61447 157.86995 z " />
      <path
         id="path1"
         style="fill:#99cc33;fill-opacity:1;stroke-width:0.208681"
         d="m 105.06744,131.70437 -2.08307,2.08256 0.95291,0.95291 v 2.42879 c -2.06592,1.20211 -4.09667,2.46827 -6.15156,3.69022 -0.83432,0.64822 -2.085,0.9743 -2.67116,1.82986 -0.0832,2.94854 -0.0297,5.89979 -0.0382,8.84959 0.0847,1.00963 -0.14367,2.14375 0.15452,3.08146 2.90009,1.86051 5.88836,3.5848 8.82633,5.38727 l 0.0274,0.92036 c 0.005,0.19191 0.0159,0.38358 0.0305,0.57464 0.0132,0.19106 0.0333,0.38163 0.0568,0.57154 0.0238,0.18991 0.052,0.37948 0.0842,0.56793 0.0323,0.18845 0.0691,0.37607 0.11007,0.56275 0.0413,0.18669 0.0864,0.37246 0.13643,0.55707 0.0497,0.18462 0.1043,0.36812 0.16278,0.55036 0.0585,0.18224 0.12116,0.36305 0.1881,0.5426 0.0669,0.17955 0.13827,0.35777 0.21394,0.53434 0.0754,-0.17657 0.147,-0.35479 0.21394,-0.53434 0.0669,-0.17955 0.12963,-0.36036 0.1881,-0.5426 0.0585,-0.18224 0.11253,-0.36574 0.16227,-0.55036 0.05,-0.18461 0.0957,-0.37038 0.13694,-0.55707 0.041,-0.18668 0.0778,-0.3743 0.11007,-0.56275 0.0323,-0.18845 0.0602,-0.37802 0.0837,-0.56793 0.0238,-0.18991 0.0428,-0.38048 0.0574,-0.57154 0.0159,-0.19106 0.0239,-0.38273 0.0305,-0.57464 l 0.0279,-0.94 c 1.96943,-1.14795 3.90303,-2.36049 5.86631,-3.51968 0.98606,-0.70244 2.29612,-1.16014 3.07578,-2.03243 0.0855,-3.66585 0.0226,-7.33475 0.0377,-11.00191 -0.0361,-0.44123 0.17608,-1.02775 -0.41083,-1.19063 -2.80954,-1.70349 -5.61142,-3.42577 -8.45013,-5.07979 v -2.42311 l 0.95292,-0.95291 z m 1.12965,6.39392 c 1.97206,1.15168 3.91468,2.3546 5.87509,3.5264 l 0.003,0.0176 c -1.81718,-0.35872 -3.61348,-0.83583 -5.41465,-1.28312 l 0.002,-0.0512 c -0.12303,0.0104 -0.24547,0.0261 -0.36639,0.0465 -0.12091,0.0204 -0.24013,0.0457 -0.3576,0.076 -0.11774,0.0302 -0.23351,0.0651 -0.34675,0.1049 -0.1135,0.0398 -0.22458,0.0847 -0.33279,0.13384 l -0.016,14.65182 c 0,0.28857 -0.008,0.57623 -0.016,0.86145 -0.008,0.28522 -0.0211,0.56826 -0.0346,0.84801 -0.0159,0.27975 -0.0323,0.55621 -0.0532,0.82837 -0.0212,0.27217 -0.0446,0.54007 -0.0718,0.80254 -0.0272,-0.26247 -0.0522,-0.53037 -0.0734,-0.80254 -0.0212,-0.27216 -0.0384,-0.54862 -0.0532,-0.82837 -0.0159,-0.27975 -0.0264,-0.56279 -0.0346,-0.84801 -0.008,-0.28522 -0.0129,-0.57288 -0.0155,-0.86145 l -0.016,-14.69161 c -0.10584,-0.0445 -0.21544,-0.0848 -0.32815,-0.12092 -0.11298,-0.0361 -0.22874,-0.0683 -0.34675,-0.0956 -0.118,-0.0273 -0.23822,-0.05 -0.35967,-0.0682 -0.1212,-0.0181 -0.24386,-0.0316 -0.3669,-0.0403 l 0.003,0.0806 c -1.30019,0.32597 -2.6089,0.62917 -3.90829,0.9586 -0.52228,0.1171 -1.03961,0.28127 -1.56993,0.35037 1.96312,-1.20998 3.94783,-2.41091 5.94021,-3.58738 v 0.91932 c -1.09855,-0.074 -2.193,0.30097 -3.01532,1.04645 -0.12965,0.11748 -0.1067,0.32706 0.047,0.41031 0.0733,0.0395 0.16235,0.0418 0.23564,0.003 1.1004,-0.58667 2.70999,-0.58452 3.90829,-0.0233 1.1983,-0.56127 2.71669,-0.56342 3.81682,0.0233 0.0736,0.0392 0.16262,0.0368 0.23565,-0.003 0.15372,-0.0832 0.17667,-0.29283 0.047,-0.41031 -0.82233,-0.74557 -1.91677,-1.12055 -3.01532,-1.04645 z m 0.43873,3.09955 c 2.36556,0.54309 4.71877,1.14183 7.07606,1.72031 0.65665,-0.0392 0.61633,0.51484 0.55035,1.0263 -0.71176,2.50645 -1.52333,4.9903 -2.27686,7.48688 -0.0534,0.1452 -0.0907,0.30018 -0.18294,0.42788 -1.78235,-3.14099 -3.47146,-6.33429 -5.20123,-9.50485 z m -3.13572,0.032 0.0336,1.13637 c -1.43494,2.69773 -2.92956,5.36576 -4.377,8.05739 -0.27332,0.50571 -0.55253,1.00875 -0.81907,1.51825 -0.54085,-1.61269 -0.99697,-3.25392 -1.50275,-4.87825 -0.31969,-1.33287 -1.01806,-2.60916 -0.96324,-4.00596 2.54996,-0.5774 5.07832,-1.25245 7.62847,-1.8278 z m 3.05356,2.72852 c 1.54915,2.83454 3.08695,5.67586 4.6147,8.52196 l -0.0134,0.0305 -0.10697,0.0232 c -1.58274,0.0441 -3.16633,0.0478 -4.75009,0.045 z m -2.97191,0.0165 0.25528,8.60257 c -0.67546,-0.003 -1.351,-0.006 -2.02623,-0.003 -0.94256,-0.04 -1.94716,0.0785 -2.84996,-0.0946 1.52536,-2.84309 3.0692,-5.67649 4.62091,-8.50542 z m -7.69204,2.91506 c 0.69728,1.92692 1.23834,3.91366 1.82056,5.87923 -0.59539,0.31934 -1.20765,0.61678 -1.83348,0.87126 -0.0518,-2.24862 -0.0486,-4.50216 0.0129,-6.75049 z m 18.34978,0.0305 c 0.0585,1.10745 0.0368,2.21766 0.046,3.32641 -6.8e-4,0.82733 5.6e-4,1.65474 -0.0103,2.48202 0.33467,1.56734 -1.183,0.32395 -1.84123,-0.0543 0.61546,-1.91368 1.15365,-3.85292 1.80558,-5.75417 z m -10.37972,6.42958 0.15037,5.07515 c -1.61063,-1.66044 -3.21317,-3.32907 -4.78885,-5.02244 1.54542,-0.0356 3.09193,-0.0486 4.63848,-0.0527 z m 2.41535,0.002 c 1.54772,0.006 3.09562,0.016 4.64261,0.031 -0.94212,1.08484 -1.9693,2.09579 -2.95124,3.14554 -0.6142,0.64304 -1.22853,1.28603 -1.84278,1.92908 z m -8.17573,0.16795 c 1.37546,1.29073 2.64656,2.69094 3.94705,4.05712 0.15182,0.16879 0.31707,0.32777 0.44183,0.51883 -1.80567,-1.05131 -3.58616,-2.14703 -5.3728,-3.23081 -1.54431,-0.49478 0.33975,-1.04705 0.98392,-1.34514 z m 13.95264,0.13436 c 0.54916,-0.0469 1.18058,0.38089 1.73633,0.73122 -1.27447,0.84812 -2.61845,1.58919 -3.91966,2.39624 -0.73445,0.42543 -1.44456,0.90805 -2.20038,1.29139 1.11257,-1.27635 2.33839,-2.47789 3.51813,-3.70313 0.23612,-0.48874 0.53609,-0.68759 0.86558,-0.71572 z" />
    </g>
  </g>
</svg>
