<?xml version="1.0" encoding="UTF-8" standalone="no"?>
<!-- Created with Inkscape (http://www.inkscape.org/) -->

<svg
   width="30.216793mm"
   height="34.097076mm"
   viewBox="0 0 30.216793 34.097076"
   version="1.1"
   id="svg1"
   inkscape:version="1.3 (0e150ed6c4, 2023-07-21)"
   sodipodi:docname="all-play-rpg.svg"
   xmlns:inkscape="http://www.inkscape.org/namespaces/inkscape"
   xmlns:sodipodi="http://sodipodi.sourceforge.net/DTD/sodipodi-0.dtd"
   xmlns="http://www.w3.org/2000/svg"
   xmlns:svg="http://www.w3.org/2000/svg">
  <sodipodi:namedview
     id="namedview1"
     pagecolor="#ffffff"
     bordercolor="#000000"
     borderopacity="0.25"
     inkscape:showpageshadow="2"
     inkscape:pageopacity="0.0"
     inkscape:pagecheckerboard="0"
     inkscape:deskcolor="#d1d1d1"
     inkscape:document-units="mm"
     inkscape:zoom="0.69219276"
     inkscape:cx="57.787371"
     inkscape:cy="64.28845"
     inkscape:window-width="1920"
     inkscape:window-height="991"
     inkscape:window-x="-9"
     inkscape:window-y="-9"
     inkscape:window-maximized="1"
     inkscape:current-layer="layer1" />
  <defs
     id="defs1" />
  <g
     inkscape:label="Layer 1"
     inkscape:groupmode="layer"
     id="layer1"
     transform="translate(-89.95831,-131.49792)">
    <g
       id="g2486"
       transform="matrix(0.26458333,0,0,0.26458333,1901.5052,-37.436823)">
      <path
         id="path2401"
         style="fill:#bfbfbf;stroke:#cc0000;stroke-width:0.788716"
         d="m -6789.686,639.05118 -7.4141,7.4121 c -19.1346,2.45605 -36.6345,15.28078 -44.3671,33.04883 -9.2976,20.1868 -5.1721,45.62438 10.1543,61.75 9.9946,11.02764 24.5012,17.42045 39.2754,18.06251 0.073,0.29518 0.1371,0.5929 0.2167,0.88672 0.188,0.69777 0.3943,1.39132 0.6153,2.0801 0.221,0.68878 0.4579,1.37216 0.7109,2.05077 0.253,0.67861 0.5226,1.35216 0.8086,2.01952 0.285,-0.66736 0.5556,-1.34091 0.8086,-2.01952 0.253,-0.67861 0.4899,-1.36199 0.7109,-2.05077 0.221,-0.68878 0.4253,-1.38233 0.6133,-2.0801 0.077,-0.28347 0.1396,-0.57052 0.211,-0.85546 2.3615,-0.0949 4.7197,-0.33751 7.0546,-0.73829 21.7907,-3.31801 40.5374,-20.63029 45.5918,-42.08202 5.3754,-20.73237 -2.1607,-44.14715 -18.8886,-57.59962 -8.1395,-6.80477 -18.1718,-10.99774 -28.6172,-12.4004 z" />
      <path
         id="path2400"
         style="fill:#000000;fill-opacity:1;fill-rule:nonzero;stroke:none;stroke-width:0.114036"
         d="m -6789.6859,639.27362 -7.7383,7.73632 c -27.821,3.78325 -48.957,27.54604 -48.957,56.15039 0,30.19597 23.5488,55.01613 53.6601,56.61133 v 0 l 0.7363,0.002 c 0.056,0.21964 0.1029,0.44136 0.1621,0.66016 0.188,0.69778 0.3943,1.3913 0.6153,2.08008 0.221,0.68878 0.4579,1.37217 0.7109,2.05078 0.253,0.67861 0.5226,1.35218 0.8086,2.01953 0.285,-0.66735 0.5556,-1.34092 0.8086,-2.01953 0.253,-0.67861 0.4899,-1.362 0.7109,-2.05078 0.221,-0.68878 0.4253,-1.3823 0.6133,-2.08008 0.058,-0.21419 0.1033,-0.4315 0.1582,-0.64648 h 0.1192 c 30.4587,-1.27837 54.2812,-26.10295 54.2812,-56.62696 0,-28.71667 -21.0922,-52.38419 -48.9551,-56.15039 z m 8.7754,12.32812 c 12.0696,2.04238 22.9659,8.2234 30.9941,17.62109 -3.0842,2.32739 -6.3636,4.36527 -9.791,6.09961 -4.3953,-2.67247 -8.7926,-5.34078 -13.2012,-7.99218 1.1673,0.70125 2.3365,1.39894 3.502,2.10351 1.3896,0.84008 2.7759,1.68479 4.1641,2.52735 -3.8649,-7.64689 -9.1761,-14.58253 -15.668,-20.35938 z m -18.3047,0.13672 c -6.5911,5.90058 -11.9889,13.00566 -15.8457,20.83984 2.577,-1.54455 5.1492,-3.09818 7.7187,-4.65625 3.6289,-5.57267 8.1365,-10.58369 13.3848,-14.86718 v 6.87109 c -7.0862,4.12332 -14.0686,8.4361 -21.1035,12.65234 -0.7167,0.42955 -1.4284,0.86791 -2.1465,1.29493 -0.487,0.37838 -1.0194,0.72253 -1.5664,1.05468 -3.521,-1.83928 -6.8864,-3.98716 -10.0215,-6.45117 7.7795,-8.76256 18.1719,-14.63089 29.5801,-16.73828 z m 13.7988,1.81641 c 4.7929,4.00478 8.9695,8.60372 12.3789,13.69921 -4.1132,-2.47322 -8.2338,-4.93442 -12.3789,-7.3496 z m 0,9.88476 c 7.4535,4.3528 14.7957,8.89928 22.2051,13.32813 l 0.012,0.0684 c -6.868,-1.3558 -13.6572,-3.15907 -20.4648,-4.84961 l 0.01,-0.19532 c -0.465,0.0393 -0.9277,0.0987 -1.3847,0.17579 -0.457,0.0771 -0.9076,0.17454 -1.3516,0.28906 -0.445,0.11414 -0.8825,0.24606 -1.3105,0.39648 -0.429,0.15043 -0.8489,0.32014 -1.2578,0.50586 l -0.061,55.37695 c 0,1.09066 -0.031,2.17787 -0.061,3.25586 -0.03,1.078 -0.08,2.14776 -0.1309,3.20508 -0.06,1.05732 -0.1222,2.10222 -0.2012,3.13086 -0.08,1.02867 -0.1685,2.04119 -0.2715,3.0332 -0.1029,-0.99201 -0.1973,-2.00453 -0.2773,-3.0332 -0.08,-1.02864 -0.1452,-2.07354 -0.2012,-3.13086 -0.06,-1.05732 -0.1,-2.12708 -0.1308,-3.20508 -0.03,-1.07799 -0.049,-2.1652 -0.059,-3.25586 l -0.061,-55.52734 c -0.4,-0.16819 -0.8142,-0.32051 -1.2402,-0.45703 -0.427,-0.13644 -0.8646,-0.25815 -1.3106,-0.36133 -0.446,-0.10318 -0.9003,-0.18902 -1.3593,-0.25781 -0.4581,-0.0684 -0.9217,-0.11946 -1.3867,-0.15234 l 0.01,0.30468 c -4.9141,1.23201 -9.8604,2.37796 -14.7715,3.62305 -1.974,0.44258 -3.9292,1.06305 -5.9336,1.32422 7.4197,-4.57315 14.921,-9.1121 22.4512,-13.5586 v 3.47461 c -4.152,-0.27968 -8.2885,1.13752 -11.3965,3.95508 -0.49,0.44402 -0.4033,1.23614 0.1778,1.55078 0.277,0.14929 0.6136,0.15641 0.8906,0.01 4.159,-2.21733 10.2425,-2.20904 14.7715,-0.0879 4.529,-2.12133 10.2678,-2.12963 14.4258,0.0879 0.2779,0.14816 0.6146,0.14066 0.8906,-0.01 0.581,-0.31445 0.6677,-1.10676 0.1777,-1.55078 -3.108,-2.8179 -7.2445,-4.23514 -11.3965,-3.95508 z m -46.1523,8.43164 c 2.6218,2.06506 5.3964,3.90945 8.2695,5.56641 0.2306,-0.13355 0.456,-0.2709 0.6914,-0.40039 0.6026,-0.33126 1.214,-0.65435 1.8242,-0.97852 -2.4853,1.32203 -5.0513,2.58746 -6.5195,4.73047 -0.2072,7.34588 -0.1945,14.6966 -0.168,22.04688 l -14.5234,0.008 c 0.066,-11.26782 3.6646,-21.95129 10.4258,-30.97266 z m 84.3574,0.80274 c 6.3626,8.83181 9.7568,19.21967 9.832,30.11523 l -14.5195,0.01 c 0,0.53256 0,1.06509 0,1.59765 0,0.92839 -0.01,1.85672 -0.01,2.78516 l 14.3594,-0.008 c -0.7995,10.51869 -4.6951,20.38766 -11.3047,28.63476 -3.1402,-2.22713 -6.4805,-4.18563 -9.9746,-5.85352 2.5077,-1.38495 4.9901,-2.79617 6.7539,-4.76953 0.323,-13.85516 0.086,-27.72191 0.1426,-41.58203 -0.1367,-1.66764 0.6655,-3.88439 -1.5528,-4.5 -0.6303,-0.38219 -1.2604,-0.76581 -1.8906,-1.14843 2.8302,-1.57262 5.5658,-3.3197 8.1582,-5.28125 z m -36.5469,2.48047 c 8.9407,2.05262 17.8348,4.31557 26.7442,6.50195 2.4818,-0.14816 2.3294,1.94583 2.0801,3.8789 -2.6902,9.47319 -5.7575,18.861 -8.6055,28.29688 -0.2018,0.54879 -0.3429,1.13454 -0.6914,1.61719 -6.7365,-11.87145 -13.1205,-23.94062 -19.6582,-35.92383 z m -11.8515,0.12109 0.1269,4.29492 c -5.4234,10.19614 -11.0723,20.28005 -16.5429,30.45312 -1.0331,1.91135 -2.0884,3.81262 -3.0957,5.73829 -2.0442,-6.0952 -3.7681,-12.29831 -5.6797,-18.4375 -1.2083,-5.03762 -3.8479,-9.86139 -3.6407,-15.14063 9.6377,-2.1823 19.1937,-4.73365 28.8321,-6.9082 z m 11.541,10.3125 c 5.855,10.71321 11.6672,21.45208 17.4414,32.20898 l -0.051,0.11524 -0.4043,0.0879 c -5.982,0.16667 -11.9673,0.1805 -17.9531,0.16992 z m -11.2324,0.0625 0.9648,32.51367 c -2.5529,-0.0113 -5.1061,-0.0211 -7.6582,-0.01 -3.5624,-0.15118 -7.3593,0.29486 -10.7715,-0.35937 5.7649,-10.74502 11.6004,-21.45302 17.4649,-32.14453 z m -29.0723,11.01758 c 2.6354,7.28284 4.6803,14.79178 6.8809,22.2207 -2.2503,1.20695 -4.5644,2.33115 -6.9297,3.29297 -0.1958,-8.49871 -0.1836,-17.01606 0.049,-25.51367 z m 69.3535,0.11523 c 0.2212,4.18563 0.1391,8.38172 0.1738,12.57227 0,3.12691 0,6.25413 -0.039,9.38086 1.2649,5.92379 -4.4712,1.22452 -6.959,-0.20508 2.3261,-7.2328 4.3602,-14.56223 6.8242,-21.74805 z m -72.4414,10.4375 c 0.01,2.33869 0.02,4.67727 0.014,7.01563 0.3201,3.81592 -0.543,8.10238 0.584,11.64648 2.3663,1.51807 4.7543,3.00419 7.1464,4.48242 -3.5811,1.76802 -7.0024,3.82578 -10.1933,6.17774 -6.9778,-8.38396 -11.0845,-18.48676 -11.918,-29.31446 z m 33.2109,13.86328 0.5684,19.18164 c -6.0874,-6.27567 -12.1443,-12.58229 -18.0996,-18.98242 5.8409,-0.13455 11.6861,-0.18372 17.5312,-0.19922 z m 9.129,0.008 c 5.8496,0.0227 11.6999,0.0605 17.5468,0.11719 -3.5607,4.10018 -7.443,7.92112 -11.1543,11.88867 -2.3214,2.43039 -4.6433,4.8606 -6.9648,7.29102 z m -30.9004,0.63477 c 5.1985,4.87834 10.0027,10.17047 14.9179,15.33398 0.5738,0.63795 1.1984,1.23883 1.67,1.96094 -6.8246,-3.97345 -13.5541,-8.11476 -20.3067,-12.21094 -5.8368,-1.87003 1.2841,-3.95734 3.7188,-5.08398 z m 52.7343,0.50781 c 2.0756,-0.17726 4.4621,1.43959 6.5625,2.76367 -4.8169,3.20549 -9.8965,6.00638 -14.8144,9.05664 -2.7759,1.60793 -5.4598,3.43202 -8.3164,4.88086 4.205,-4.82399 8.838,-9.36527 13.2969,-13.99609 0.8924,-1.8472 2.0261,-2.59876 3.2714,-2.70508 z m -0.1504,10.46485 c 4.1233,1.73734 8.052,3.88383 11.6915,6.42773 -7.8126,8.23905 -18.0535,13.70252 -29.1583,15.58984 6.8033,-6.03366 12.1959,-13.14966 16.1016,-21.18164 0.371,-0.22034 0.7378,-0.44858 1.1094,-0.66797 0.082,-0.0585 0.1725,-0.1103 0.2558,-0.16796 z m -51.9238,0.44531 c 3.8988,8.14899 9.319,15.34604 16.1406,21.43554 -10.4717,-1.94427 -20.2042,-7.11546 -27.7363,-14.76953 3.5955,-2.61138 7.4892,-4.84942 11.5957,-6.66601 z m 7.461,4.41211 c 4.8051,2.88556 9.6199,5.75708 14.3964,8.6875 l 0.1036,3.47851 c 0.02,0.72533 0.06,1.44976 0.1152,2.17188 0.048,0.69664 0.1221,1.39136 0.207,2.08398 -5.8796,-4.63597 -10.9039,-10.20002 -14.8222,-16.42187 z m 35.4746,0.5664 c -3.7147,5.75696 -8.3845,10.93725 -13.8164,15.33008 0.058,-0.51884 0.1165,-1.03758 0.1562,-1.55859 0.06,-0.72212 0.09,-1.44655 0.1152,-2.17188 l 0.1055,-3.55273 c 4.5098,-2.62872 8.974,-5.33808 13.4395,-8.04688 z" />
    </g>
  </g>
</svg>
