<?xml version="1.0" encoding="UTF-8" standalone="no"?>
<!-- Created with Inkscape (http://www.inkscape.org/) -->

<svg
   width="30.037277mm"
   height="30.032051mm"
   viewBox="0 0 30.037277 30.032051"
   version="1.1"
   id="svg1"
   inkscape:version="1.3 (0e150ed6c4, 2023-07-21)"
   sodipodi:docname="all-play-board-game.svg"
   xmlns:inkscape="http://www.inkscape.org/namespaces/inkscape"
   xmlns:sodipodi="http://sodipodi.sourceforge.net/DTD/sodipodi-0.dtd"
   xmlns="http://www.w3.org/2000/svg"
   xmlns:svg="http://www.w3.org/2000/svg">
  <sodipodi:namedview
     id="namedview1"
     pagecolor="#ffffff"
     bordercolor="#000000"
     borderopacity="0.25"
     inkscape:showpageshadow="2"
     inkscape:pageopacity="0.0"
     inkscape:pagecheckerboard="0"
     inkscape:deskcolor="#d1d1d1"
     inkscape:document-units="mm"
     inkscape:zoom="0.69219276"
     inkscape:cx="56.342687"
     inkscape:cy="55.620345"
     inkscape:window-width="1920"
     inkscape:window-height="991"
     inkscape:window-x="-9"
     inkscape:window-y="-9"
     inkscape:window-maximized="1"
     inkscape:current-layer="layer1" />
  <defs
     id="defs1" />
  <g
     inkscape:label="Layer 1"
     inkscape:groupmode="layer"
     id="layer1"
     transform="translate(-90.222893,-133.61458)">
    <g
       id="g2488"
       transform="matrix(0.26458333,0,0,0.26458333,1828.8455,-39.733917)">
      <path
         id="path2435"
         style="fill:#bfbfbf;stroke:#cc0000;stroke-width:0.114036"
         d="m -6517.4142,655.29098 c -20.8139,0.90216 -40.4507,14.31871 -48.7738,33.44364 -9.2976,20.18681 -5.1724,45.62494 10.154,61.75059 12.6493,13.95667 32.5252,20.52828 51.0248,17.35428 21.7907,-3.31801 40.5385,-20.62988 45.5929,-42.08165 5.3754,-20.73237 -2.1604,-44.14615 -18.8883,-57.59864 -10.8431,-9.06511 -25.0481,-13.49595 -39.1096,-12.86822 z" />
      <path
         id="path2399"
         style="fill:#000000;fill-opacity:1;fill-rule:nonzero;stroke:none;stroke-width:0.114036"
         d="m -6517.3922,655.29318 c -0.018,0.009 -0.035,0.0213 -0.053,0.0352 -30.1089,1.59422 -53.6563,26.41268 -53.6563,56.60938 0,30.1966 23.5478,55.01709 53.6602,56.61132 l 5.4453,0.0156 c 30.4589,-1.27837 54.2793,-26.10296 54.2793,-56.62695 0,-30.52162 -23.8242,-55.34637 -54.2832,-56.62696 z m 0.791,4.86914 v 13.71289 l -11.2109,-2.96485 c 3.2738,-3.97269 7.0158,-7.59547 11.2109,-10.74804 z m 10.9707,0.21679 c 12.0696,2.04238 22.966,8.22341 30.9942,17.6211 -2.4369,1.83889 -5.0073,3.47532 -7.6641,4.94726 l -7.5547,-1.99805 c -3.8732,-7.73142 -9.2231,-14.7398 -15.7754,-20.57031 z m -18.3046,0.13672 c -3.1251,2.79757 -5.9659,5.87752 -8.5176,9.16602 l -5.5117,-1.45703 -1.4102,0.64843 -1.4102,0.64844 -3.6699,13.69336 c -3.1749,-1.72677 -6.2089,-3.71972 -9.0605,-5.96094 7.7795,-8.76256 18.1719,-14.63089 29.5801,-16.73828 z m 11.7168,0.10547 c 6.7675,5.20483 12.3766,11.58971 16.5683,18.79492 l -8.9433,-2.36523 -7.625,-2.01563 v -0.002 z m -25.6172,9.50391 4.3574,1.15234 4.3594,1.15234 -0.7793,2.90235 -0.7774,2.90429 -2.1035,1.21289 -2.1035,1.21875 -1.6582,-0.44531 -1.6602,-0.44531 0.5157,-2.30664 0.5156,-2.30469 0.5879,-1.52148 0.5859,-1.52149 -0.9199,-1 z m 10.375,2.75 6.6855,1.79101 6.6856,1.79102 -1.0918,3.04101 -1.0899,3.04297 -5.9082,-1.32617 -5.9062,-1.32617 -0.4278,-0.74219 -0.4297,-0.74219 0.7422,-2.76562 z m 14.9277,3.99804 7.0488,1.89063 7.0508,1.88867 -0.623,2.27734 -0.6231,2.27735 -0.832,0.66601 -0.832,0.66602 -6.086,-1.63086 -6.0859,-1.63086 -0.25,-0.4375 -0.25,-0.43555 0.7402,-2.76562 z m -19.6309,3.60352 24.6153,6.83203 24.6152,6.83203 -6.5547,24.4668 -6.5566,24.46679 -24.7344,-6.39257 -24.7324,-6.39063 6.6738,-24.9082 z m -24.125,0.17187 c 3.3473,2.6364 6.9289,4.93468 10.6739,6.89844 l -4.0059,14.94727 -2.4433,9.11914 -14.6524,0.008 c 0.066,-11.26782 3.6665,-21.95129 10.4277,-30.97266 z m 59.5157,0.44922 6.6347,1.77735 6.6368,1.77734 -0.8887,3.31836 -0.8906,3.31836 -6.6348,-1.7793 -6.6348,-1.77734 0.8887,-3.31836 z m 24.8418,0.35156 c 6.3632,8.83212 9.7548,19.22108 9.83,30.11719 l -14.5566,0.01 6.3008,-22.95703 -0.4336,-1.3711 -0.4317,-1.36914 -5.1542,-1.36328 c 1.5143,-0.97022 3.0072,-1.97827 4.4453,-3.06641 z m -67.4102,0.34571 h 1.9336 l 1.041,0.26367 1.041,0.26367 -1.7793,6.63672 v 0.006 l -1.7793,6.63476 -3.1093,-0.83203 -3.1114,-0.83203 1.9161,-6.06836 1.916,-6.07031 z m 58.3516,3.4375 4.2871,1.41797 4.2871,1.41797 -0.916,4.42187 -0.916,4.41992 -3.2325,-0.86523 -3.2324,-0.86719 -0.9668,-1.88281 -0.9668,-1.88477 0.8281,-3.08984 z m -33.8555,5 -7.8965,3.88672 -7.8965,3.88671 -0.2129,0.79297 -0.2128,0.79297 2.3515,5.01172 2.3516,5.01172 1.1738,0.31445 1.1738,0.31446 7.125,-3.60547 7.127,-3.60547 0.2715,-1.01563 0.2734,-1.01757 -2.8144,-5.38477 z m -0.7871,2.35742 2.3848,4.48242 2.3828,4.48047 -6.6094,3.41016 -6.6074,3.40429 -0.5313,-0.10156 -0.5332,-0.10156 -2.0097,-4.44531 -2.0098,-4.44532 6.7656,-3.34179 z m -30.1875,4.01758 3.1348,0.73633 3.1367,0.73828 -1.7774,6.63476 -1.7793,6.63867 -3.0839,-0.92773 -3.084,-0.92969 1.5527,0.008 1.5527,0.006 1.5235,-5.68359 1.5234,-5.68359 -1.3496,-0.76953 z m 64.4062,0.16211 3.3164,0.88867 3.3184,0.88867 -1.7793,6.63477 -1.7773,6.63476 -3.3164,-0.88867 -3.3184,-0.88867 1.7773,-6.63477 z m -54.0918,12.76757 -0.6562,0.37696 -0.6563,0.3789 0.2481,1.66016 0.2461,1.66016 0.7656,-1.41993 0.7656,-1.41992 -0.3554,-0.61914 z m -14.0722,2.74805 2.9043,0.77735 2.9023,0.77734 -1.7773,6.63672 -1.7793,6.63476 -1.4219,-0.50195 -1.4199,-0.50195 -1.5703,-0.77539 -1.5703,-0.77735 1.2011,-3.86719 1.2032,-3.86914 0.664,-2.26757 z m 63.9414,0.24219 3.3164,0.88867 3.3184,0.88867 -1.7774,6.63672 -1.7793,6.63477 -3.3164,-0.88868 -3.3184,-0.88867 1.7774,-6.63672 z m -19.0918,1.10742 -7.125,3.60547 -7.127,3.60547 -0.2089,0.77929 -0.2071,0.77735 2.6055,5.46094 2.6055,5.46093 0.5644,0.12696 0.5645,0.125 8.0371,-4.26563 8.039,-4.26562 -2.6464,-5.375 -2.6446,-5.37696 -1.2285,-0.32812 z m -33.0156,0.93164 -1.4434,5.39258 -1.4453,5.39062 0.8301,0.22266 0.8281,0.2207 1.4453,-5.39062 1.4453,-5.39063 -0.8301,-0.22265 z m 33.8593,0.69336 2.2383,4.56641 2.2383,4.56836 -6.4941,3.35742 -6.4942,3.35547 -0.4492,-0.10547 -0.4492,-0.10547 -2.0156,-4.34375 -2.0157,-4.34375 6.7207,-3.47461 z m 41.6211,0.68945 c -0.7995,10.51869 -4.6951,20.38767 -11.3047,28.63477 -3.2899,-2.33331 -6.8024,-4.36387 -10.4785,-6.08203 l 4.627,-16.85938 1.5586,-5.68359 v 0 z m -90.9765,0.0488 -5.2168,19.4707 0.8633,1.2168 0.8632,1.21875 9.6094,2.64453 c -2.6084,1.43475 -5.1286,3.01492 -7.5117,4.77149 -6.9774,-8.38344 -11.0841,-18.48749 -11.918,-29.31446 z m 1.7363,11.77149 1.8652,0.5 1.8672,0.5 1.2129,2.10351 1.2149,2.10352 -0.7774,2.90234 v 0.002 l -0.7793,2.90235 -3.2402,-0.86914 -3.2403,-0.86719 0.9375,-4.63867 z m 61.6445,0.51757 3.3164,0.88868 3.3184,0.88867 -1.7773,6.63476 -1.7793,6.63477 -3.3165,-0.88867 -3.3183,-0.88867 1.7773,-6.63477 z m -53.2988,4.83008 6.2207,1.66797 6.2207,1.66602 -0.5762,3.17968 -0.5761,3.17969 -6.7364,-1.80469 -6.7343,-1.80468 1.0898,-3.04102 z m 14.4023,4.30469 7.0508,1.88867 7.0489,1.88867 -0.7774,2.9043 -0.7773,2.90234 -7.0508,-1.88867 -7.0488,-1.89062 0.7773,-2.90235 z m 16.2852,3.91992 6.4922,1.47852 6.4941,1.48047 -0.9902,3.6914 -0.9902,3.69531 -3.4903,-1.07421 -3.4902,-1.07422 -3.0859,-1.10938 -3.086,-1.10937 1.0723,-2.99024 z m -28.3652,0.93555 1.0859,0.29883 c 3.8732,7.87706 9.1705,14.85525 15.8066,20.77929 -10.4717,-1.94429 -20.2042,-7.11351 -27.7363,-14.76758 3.3732,-2.44995 7.0162,-4.55761 10.8438,-6.31054 z m 55.6113,0.51562 c 3.0564,1.47345 5.9917,3.17597 8.7578,5.10938 -7.8126,8.23905 -18.0534,13.70252 -29.1582,15.58984 3.18,-2.82024 6.0359,-5.88678 8.5957,-9.16015 l 4.7305,1.30273 1.9082,-0.48633 1.9082,-0.48437 z m -8.3789,0.49219 3.1894,0.85352 3.1895,0.85546 -1.1191,4.17188 -1.1172,4.17383 -1.1231,0.041 -1.1211,0.0391 -3.084,-0.38477 -3.0839,-0.38672 -0.9063,-0.96094 -0.9062,-0.96289 1.2734,-2.58007 1.2754,-2.57813 1.7676,-1.14062 z m -40.3184,0.89648 9.4082,2.5879 7.9121,2.17773 v 14.76562 c -7.0897,-5.3283 -12.9881,-12.00435 -17.3203,-19.53125 z m 21.7032,5.97071 10.5566,2.90625 c -3.1047,3.74695 -6.6373,7.18054 -10.5566,10.19531 z" />
    </g>
  </g>
</svg>
