<?xml version="1.0" encoding="UTF-8" standalone="no"?>
<!-- Created with Inkscape (http://www.inkscape.org/) -->

<svg
   width="30.037277mm"
   height="30.032051mm"
   viewBox="0 0 30.037277 30.032051"
   version="1.1"
   id="svg1"
   inkscape:version="1.3 (0e150ed6c4, 2023-07-21)"
   sodipodi:docname="all-play-tcg.svg"
   xmlns:inkscape="http://www.inkscape.org/namespaces/inkscape"
   xmlns:sodipodi="http://sodipodi.sourceforge.net/DTD/sodipodi-0.dtd"
   xmlns="http://www.w3.org/2000/svg"
   xmlns:svg="http://www.w3.org/2000/svg">
  <sodipodi:namedview
     id="namedview1"
     pagecolor="#ffffff"
     bordercolor="#000000"
     borderopacity="0.25"
     inkscape:showpageshadow="2"
     inkscape:pageopacity="0.0"
     inkscape:pagecheckerboard="0"
     inkscape:deskcolor="#d1d1d1"
     inkscape:document-units="mm"
     inkscape:zoom="0.69219276"
     inkscape:cx="56.342687"
     inkscape:cy="55.620345"
     inkscape:window-width="1920"
     inkscape:window-height="991"
     inkscape:window-x="-9"
     inkscape:window-y="-9"
     inkscape:window-maximized="1"
     inkscape:current-layer="layer1" />
  <defs
     id="defs1" />
  <g
     inkscape:label="Layer 1"
     inkscape:groupmode="layer"
     id="layer1"
     transform="translate(-90.222875,-133.61458)">
    <g
       id="g2487"
       transform="matrix(0.26458333,0,0,0.26458333,1865.9357,-39.733917)">
      <path
         id="path2437"
         style="fill:#bfbfbf;stroke:#cc0000;stroke-width:0.114036"
         d="m -6657.5977,655.29098 c -20.8139,0.90216 -40.4507,14.31871 -48.7738,33.44364 -9.2976,20.18681 -5.1724,45.62494 10.154,61.75059 12.6493,13.95667 32.5252,20.52828 51.0248,17.35428 21.7907,-3.31801 40.5385,-20.62988 45.5929,-42.08165 5.3754,-20.73237 -2.1604,-44.14615 -18.8883,-57.59864 -10.8431,-9.06511 -25.0481,-13.49595 -39.1096,-12.86822 z" />
      <path
         id="path2403"
         style="fill:#000000;fill-opacity:1;fill-rule:nonzero;stroke:none;stroke-width:0.114036"
         d="m -6657.5757,655.29317 c -0.018,0.009 -0.035,0.0214 -0.053,0.0352 -30.1089,1.59422 -53.6562,26.41267 -53.6562,56.60937 0,30.19662 23.5477,55.0171 53.6601,56.61133 l 5.4453,0.0156 c 30.4589,-1.27837 54.2793,-26.10295 54.2793,-56.62696 0,-30.52162 -23.8242,-55.34636 -54.2832,-56.62695 z m 0.7911,4.86914 v 11.72852 l -3.086,-0.55078 c -0.6887,-0.12246 -1.3879,-0.1367 -2.0762,-0.043 -2.1118,0.29669 -3.8928,1.57504 -4.8691,3.375 l -3.9551,-0.14648 c 3.856,-5.42001 8.5508,-10.27855 13.9864,-14.36329 z m 10.9707,0.2168 c 12.0694,2.04238 22.9659,8.2234 30.9941,17.62109 -0.7766,0.58605 -1.5765,1.13788 -2.377,1.6875 l -16.7148,-5.47265 c -3.3221,-5.08148 -7.3122,-9.75145 -11.9023,-13.83594 z m -18.3047,0.13672 c -4.9229,4.40715 -9.1663,9.49577 -12.6133,15.04883 -1.1455,0.76552 -2.0281,1.86381 -2.5098,3.15429 l -5.9883,0.61524 c -0.6959,0.0714 -1.3712,0.25248 -2.0058,0.53516 -0.5405,0.24064 -1.0298,0.55437 -1.4727,0.91406 -1.7128,-1.10174 -3.3854,-2.26798 -4.9902,-3.5293 7.7795,-8.76256 18.1719,-14.63089 29.5801,-16.73828 z m 11.7168,0.10547 c 4.3043,3.31037 8.1234,7.11003 11.4258,11.28125 l -5.629,-1.8418 c -0.6649,-0.21656 -1.3556,-0.32617 -2.0507,-0.32617 v -0.002 c -1.3774,0 -2.6718,0.42946 -3.7461,1.17383 z m -0.7754,10.92383 c -0.031,0.0298 -0.063,0.0594 -0.094,0.0898 0.031,-0.0304 0.062,-0.0601 0.094,-0.0898 z m 4.5215,0.29492 c 0.4619,0 0.932,0.0734 1.3945,0.22461 l 34.7187,11.36328 c 2.3505,0.76959 3.6322,3.29937 2.8633,5.65039 l -17.7011,54.08203 c -0.6178,1.88776 -2.3723,3.08594 -4.2559,3.08594 -0.4619,0 -0.9299,-0.0722 -1.3926,-0.22266 l -34.7207,-11.36328 c -2.3506,-0.76891 -3.6326,-3.29998 -2.8633,-5.65039 l 17.7012,-54.08203 c 0.618,-1.88844 2.3717,-3.08789 4.2559,-3.08789 z m -12.3008,1.50391 c 0.2358,0.004 0.4752,0.0265 0.7148,0.0723 v -0.002 l 5.2989,0.94531 -0.7969,2.43555 -4.7793,-0.85352 c -1.3221,-0.23546 -2.5863,0.64341 -2.8223,1.96484 l -8.6875,48.6543 -0.5859,1.79297 c -0.3209,0.98018 -0.3906,1.98036 -0.2578,2.93945 l -0.2989,1.66992 c -0.2362,1.32201 0.6431,2.58665 1.9649,2.82227 l 1.4629,0.26172 c 0.4147,0.24945 0.8591,0.4588 1.3379,0.61523 l 14.7832,4.83985 -18.1973,-3.25 c -2.4351,-0.43401 -4.0557,-2.76167 -3.6211,-5.19727 l 10.002,-56.01953 c 0.3492,-1.95575 1.9192,-3.3858 3.7851,-3.64844 0.2287,-0.0302 0.4614,-0.0471 0.6973,-0.043 z m -11.8731,1.10546 c -0.6989,-0.0227 -1.3923,0.0607 -2.0605,0.25 0.6682,-0.18935 1.3616,-0.27267 2.0605,-0.25 z m -2.9765,0.59766 c -0.04,0.0181 -0.078,0.0378 -0.1172,0.0566 0.039,-0.0191 0.078,-0.0382 0.1172,-0.0566 z m 2.8965,1.50977 v 0 l 5.3789,0.20117 -0.4512,2.52148 -4.8515,-0.17969 c -1.3421,-0.0484 -2.4698,0.99598 -2.5195,2.33789 l -1.8321,49.38868 -0.332,1.85937 c -0.1814,1.01507 -0.1111,2.01396 0.1523,2.94531 l -0.062,1.69727 c -0.048,1.34188 0.9978,2.46994 2.3399,2.51953 l 1.4844,0.0527 c 0.4449,0.18898 0.9141,0.33753 1.4101,0.42579 l 15.3125,2.73242 -18.4726,-0.6836 c -2.4717,-0.0915 -4.4004,-2.17073 -4.3086,-4.64257 l 2.1093,-56.86719 c 0.073,-1.98546 1.4271,-3.62124 3.2383,-4.14063 0.4437,-0.12699 0.9159,-0.18573 1.4024,-0.16796 z m -23.5625,4.09179 c 1.7397,1.37027 3.5519,2.63314 5.4062,3.82617 l -5.7637,1.42383 c -0.6791,0.16781 -1.3207,0.43829 -1.9101,0.80664 -2.4212,1.51287 -3.5875,4.39253 -2.9024,7.16602 l 4.3828,17.74609 -9.6406,0.004 c 0.066,-11.26782 3.6666,-21.95129 10.4278,-30.97266 z m 16.8125,0.23438 -0.096,2.55859 -4.8301,0.49805 c -1.3359,0.13757 -2.3075,1.33202 -2.1699,2.66797 l 5.0605,49.1621 -0.07,1.88672 c -0.038,1.0303 0.1701,2.0114 0.5625,2.89649 l 0.1738,1.6875 c 0.1368,1.33587 1.3325,2.30787 2.668,2.16992 l 1.4765,-0.15039 c 0.4674,0.12472 0.9536,0.20451 1.4571,0.22266 l 15.5429,0.57617 -18.3867,1.89258 c -2.4604,0.25247 -4.6609,-1.53604 -4.914,-3.9961 l -5.8243,-56.60742 c -0.2033,-1.97612 0.9099,-3.78448 2.6309,-4.55078 0.422,-0.18784 0.8807,-0.31453 1.3652,-0.36328 z m 67.7734,0.53906 c 0.012,0.004 0.023,0.0115 0.035,0.0156 -0.012,-0.004 -0.023,-0.01 -0.035,-0.0137 z m -77.5938,0.10352 c -0.012,0.0141 -0.027,0.0268 -0.039,0.041 0.012,-0.0142 0.026,-0.0269 0.039,-0.041 z m 78.6993,0.38085 c 0.023,0.0125 0.047,0.0224 0.07,0.0352 -0.023,-0.0127 -0.048,-0.0227 -0.07,-0.0352 z m 1.0019,0.67579 c 0.029,0.0241 0.061,0.0457 0.09,0.0703 -0.029,-0.0245 -0.061,-0.0463 -0.09,-0.0703 z m 0.4707,0.45507 c 0.1718,0.17198 0.3472,0.33853 0.4981,0.52735 -0.1508,-0.18833 -0.3265,-0.35579 -0.4981,-0.52735 z m -81.3008,0.27735 c -0.026,0.0604 -0.052,0.12039 -0.076,0.18164 0.024,-0.0614 0.05,-0.12106 0.076,-0.18164 z m 82.1094,0.70312 c 0.1262,0.18804 0.2551,0.37257 0.3613,0.57227 -0.1061,-0.19921 -0.2352,-0.38467 -0.3613,-0.57227 z m 0.5996,1.10938 c 0.082,0.19379 0.1672,0.38481 0.2305,0.58594 -0.063,-0.20096 -0.1484,-0.39231 -0.2305,-0.58594 z m 0.377,1.1875 c 0.043,0.19972 0.085,0.39756 0.1094,0.60156 -0.024,-0.20317 -0.067,-0.40265 -0.1094,-0.60156 z m -83.5742,0.34179 0.2617,2.54688 -4.7129,1.16406 c -1.3038,0.32202 -2.1013,1.64176 -1.7793,2.94531 l 11.8535,47.97852 0.1934,1.87891 c 0.1065,1.02568 0.4477,1.96923 0.9589,2.79101 l 0.4083,1.64649 c 0.322,1.30359 1.6398,2.09939 2.9433,1.77734 l 1.4414,-0.35742 c 0.4801,0.0605 0.9734,0.0721 1.4746,0.0195 l 15.4727,-1.5918 -17.9473,4.4336 c -2.4003,0.59312 -4.8278,-0.87333 -5.4219,-3.27344 l -13.6464,-55.24609 c -0.4765,-1.92862 0.3745,-3.87439 1.9726,-4.87305 0.3917,-0.24454 0.8282,-0.4314 1.3008,-0.54883 z m 83.7382,1.24805 c 0,0.0333 0,0.0663 -0.01,0.0996 0,-0.0331 0,-0.0665 0.01,-0.0996 z m -0.166,1.27149 c 3.3789,6.94013 5.186,14.52778 5.2403,22.39062 l -12.5411,0.008 7.1485,-21.84179 c 0.06,-0.18464 0.1089,-0.37087 0.1523,-0.55664 z m -24.9707,0.82031 c -2.0083,0.0151 -7.8438,4.2773 -8.8301,5.16015 -2.9354,2.62541 3.8216,8.73997 0.3555,10.23829 -3.4766,1.46071 -3.2061,-7.64895 -7.1328,-7.34961 -1.408,0.10733 -9.4128,1.52907 -10.0391,3.08593 -0.6263,1.5569 4.1618,8.12563 5.1036,9.17774 2.624,2.93862 8.7412,-3.82219 10.2363,-0.35742 1.4639,3.47799 -7.6471,3.21178 -7.3477,7.13867 0.1085,1.40477 1.5291,9.41073 3.086,10.03711 1.5567,0.62634 8.1269,-4.16506 9.1777,-5.10352 2.9385,-2.6242 -3.8216,-8.7431 -0.3574,-10.23828 3.4779,-1.46385 3.2106,7.65025 7.1386,7.34766 1.4047,-0.10848 9.4089,-1.53099 10.0352,-3.08789 0.6264,-1.55687 -4.1631,-8.12493 -5.1016,-9.17579 -2.6254,-2.93548 -8.7438,3.82131 -10.2402,0.35938 -1.4626,-3.48113 7.6501,-3.21046 7.3477,-7.13867 -0.107,-1.4075 -1.5278,-9.40822 -3.084,-10.03906 v 0 c -0.097,-0.0386 -0.2123,-0.0555 -0.3457,-0.0547 z m -12.4648,4.36133 c -0.2352,0.008 -0.4561,0.15865 -0.5313,0.40234 0,0.004 0,0.008 0,0.008 l -0.01,-0.002 c -0.3326,-0.16706 -0.7357,0.0264 -0.8223,0.38867 -0.4998,2.0516 1.2107,4.32702 3.8868,6.78711 0.077,-3.63099 -0.3789,-6.44364 -2.2051,-7.50391 -0.1,-0.0586 -0.2077,-0.0839 -0.3145,-0.0801 z m 10.2109,0.80078 c 0.2117,-0.008 0.391,0.0112 0.5215,0.0644 1.0474,0.42134 2.8008,4.4636 2.4844,5.25 -0.5702,1.41676 -4.2866,2.93508 -6.1114,3.76563 -0.7412,-1.86297 -2.3727,-5.53239 -1.8027,-6.94922 0.277,-0.6881 3.4256,-2.07629 4.9082,-2.13086 z m -13.1543,5.53125 c 0.073,0.004 0.1345,0.0163 0.1836,0.0352 1.4167,0.57026 2.9339,4.29159 3.7656,6.11328 -1.8628,0.74125 -5.5344,2.37273 -6.9511,1.80274 -0.7864,-0.31597 -2.4859,-4.38219 -2.0645,-5.42969 0.3938,-0.97897 3.9727,-2.58528 5.0664,-2.52148 z m 20.9512,1.09375 c -1.8423,0.0302 -3.8564,1.63385 -6.0078,3.97265 3.6341,0.0786 6.4436,-0.37885 7.5039,-2.20507 0.1882,-0.32051 0.03,-0.74001 -0.3242,-0.84961 l -0.01,-0.002 c 0,0 5e-4,-0.002 0,-0.006 0.1671,-0.33259 -0.026,-0.73495 -0.3906,-0.82226 -0.2563,-0.0624 -0.5142,-0.0905 -0.7774,-0.0859 z m -11.25,3.3164 c -0.1259,0.6262 -0.019,1.78253 0.3828,2.72461 0.405,0.94333 1.1609,1.82459 1.7012,2.16407 -0.6262,-0.12586 -1.7801,-0.0189 -2.7266,0.38671 -0.942,0.40139 -1.8202,1.15881 -2.1641,1.70118 0.1308,-0.62812 0.019,-1.78448 -0.3828,-2.72657 -0.4031,-0.9465 -1.1601,-1.82344 -1.6992,-2.16601 0.6249,0.12888 1.7795,0.0189 2.7246,-0.38281 0.9421,-0.40135 1.8245,-1.16078 2.1641,-1.70118 z m -0.752,1.86524 c -0.3923,0.13039 -0.7772,0.27589 -1.1562,0.4375 -0.379,0.16138 -0.7495,0.33827 -1.1152,0.53125 0.1307,0.39277 0.2747,0.77981 0.4375,1.15625 0.1606,0.38271 0.3371,0.75473 0.5312,1.11719 0.3914,-0.127 0.7787,-0.27139 1.1563,-0.4375 0.3782,-0.15799 0.752,-0.33714 1.1152,-0.53125 -0.1278,-0.39156 -0.2759,-0.77668 -0.4375,-1.15625 -0.1588,-0.37822 -0.3383,-0.75096 -0.5313,-1.11719 z m 10.0215,1.45508 c 0.2396,0.008 0.4538,0.0461 0.6309,0.11718 0.7863,0.31673 2.4845,4.38541 2.0644,5.42969 -0.4213,1.04746 -4.4636,2.80072 -5.25,2.48438 -1.4168,-0.57026 -2.9381,-4.28959 -3.7656,-6.11329 1.6262,-0.64686 4.6424,-1.97723 6.3203,-1.91796 z m -17.9883,2.98828 c -3.3071,-0.008 -5.8392,0.50383 -6.832,2.21289 -0.1897,0.32353 -0.034,0.7412 0.3223,0.85156 l 0.01,0.002 c -6e-4,0.002 -9e-4,0.003 0,0.008 -0.1663,0.33259 0.03,0.73697 0.3887,0.82617 2.0516,0.49988 4.329,-1.21454 6.7891,-3.89063 -0.2272,-0.004 -0.4514,-0.008 -0.6719,-0.008 z m 5.5645,1.53125 c 0.7412,1.86296 2.3727,5.53438 1.8027,6.95117 -0.3167,0.7864 -4.3823,2.48778 -5.4297,2.06641 -1.0443,-0.4201 -2.8026,-4.46364 -2.4863,-5.25 0.5703,-1.41683 4.2884,-2.93711 6.1133,-3.76758 z m 4.582,2.29101 c -0.079,3.63424 0.3801,6.44879 2.2031,7.50782 0.3247,0.1867 0.744,0.0302 0.8536,-0.32618 0,-0.004 5e-4,-0.002 0,-0.006 l 0.01,0.002 c 0.3326,0.16705 0.7366,-0.0264 0.8242,-0.39063 0.4986,-2.04842 -1.2126,-4.32694 -3.8886,-6.78711 z m 34.3262,0.72071 c -0.7995,10.51869 -4.6931,20.38766 -11.3027,28.63476 -3.1367,-2.22461 -6.4751,-4.18099 -9.9649,-5.84766 l 7.457,-22.78124 z m -93.7266,0.0488 6.4141,25.9668 c -1.7331,1.04988 -3.4296,2.15569 -5.0547,3.35352 -6.9778,-8.38396 -11.0845,-18.48676 -11.918,-29.31446 z m 71.0801,26.95313 c 2.9426,1.43859 5.7726,3.08436 8.4434,4.95117 -7.8126,8.23905 -18.0515,13.70254 -29.1563,15.58984 5.0893,-4.51354 9.3819,-9.63721 12.8653,-15.28906 0.4308,0.0879 0.8657,0.14844 1.3066,0.14844 2.8547,0 5.3712,-1.82431 6.2598,-4.53906 z m -19.6543,2.66601 2.7793,0.10352 2.7402,0.48828 1.9375,0.63281 c -4.0071,6.22511 -9.113,11.79789 -15.1093,16.41016 v -16.14453 l 4.8828,-1.20703 z m -43.9121,0.80469 0.666,2.69336 c 0.8713,3.52528 4.4469,5.68575 7.9727,4.81445 l 6.0371,-1.49023 c 2.8636,3.9461 6.1457,7.60092 9.8594,10.91601 -10.4719,-1.94427 -20.2043,-7.11546 -27.7364,-14.76953 1.0406,-0.75574 2.1128,-1.4721 3.2012,-2.16406 z m 31.877,1.76758 v 15.52148 c -4.7626,-3.57926 -8.9713,-7.77898 -12.5489,-12.42187 z" />
    </g>
  </g>
</svg>
