<?xml version="1.0" encoding="UTF-8" standalone="no"?>
<!-- Created with Inkscape (http://www.inkscape.org/) -->

<svg
   width="25mm"
   height="24.953714mm"
   viewBox="0 0 25 24.953714"
   version="1.1"
   id="svg1"
   inkscape:version="1.3 (0e150ed6c4, 2023-07-21)"
   sodipodi:docname="board-game-player.svg"
   xmlns:inkscape="http://www.inkscape.org/namespaces/inkscape"
   xmlns:sodipodi="http://sodipodi.sourceforge.net/DTD/sodipodi-0.dtd"
   xmlns="http://www.w3.org/2000/svg"
   xmlns:svg="http://www.w3.org/2000/svg">
  <sodipodi:namedview
     id="namedview1"
     pagecolor="#ffffff"
     bordercolor="#000000"
     borderopacity="0.25"
     inkscape:showpageshadow="2"
     inkscape:pageopacity="0.0"
     inkscape:pagecheckerboard="0"
     inkscape:deskcolor="#d1d1d1"
     inkscape:document-units="mm"
     inkscape:zoom="3.9156336"
     inkscape:cx="43.160321"
     inkscape:cy="47.118812"
     inkscape:window-width="1920"
     inkscape:window-height="991"
     inkscape:window-x="-9"
     inkscape:window-y="-9"
     inkscape:window-maximized="1"
     inkscape:current-layer="layer1" />
  <defs
     id="defs1" />
  <g
     inkscape:label="Layer 1"
     inkscape:groupmode="layer"
     id="layer1"
     transform="translate(-92.604166,-135.99583)">
    <g
       id="g2398"
       transform="matrix(0.83112335,0,0,0.83112335,-57.749796,-50.732)">
      <path
         id="path2398"
         style="opacity:1;fill:#bfbfbf;stroke:#cc0000;stroke-width:0.08;stroke-dasharray:none"
         d="m 210.30913,224.70928 -14.19139,0.046 -14.19138,0.0455 -0.49092,0.40773 -0.49093,0.40721 V 239.65 253.68429 l 0.47232,0.3917 0.47233,0.39223 13.73663,0.0925 13.73611,0.0925 0.70641,-0.39584 0.7059,-0.39584 0.0847,-14.0777 0.0853,-14.07769 -0.31781,-0.49816 z" />
      <path
         d="m 195.62563,254.56068 -13.73647,-0.0926 -0.47236,-0.39203 -0.47239,-0.39205 v -14.0341 -14.03416 l 0.49114,-0.40759 0.49114,-0.40761 14.19115,-0.0456 14.19115,-0.0456 0.31771,0.49827 0.31771,0.49832 -0.0851,14.07763 -0.0851,14.07764 -0.70604,0.39596 -0.70601,0.39597 z m 9.6768,-2.0724 v -1.57152 l -2.73587,0.10325 -2.73584,0.10324 -0.10824,1.30131 -0.1082,1.3013 1.3438,0.11236 1.34376,0.11235 1.50032,0.0549 1.50031,0.0549 z m 4.50096,1.08677 0.44125,-0.13535 v -1.77616 -1.77614 h -1.35735 -1.35734 l -0.58005,0.64093 -0.58005,0.64092 -0.23198,1.15986 -0.23197,1.15989 0.46226,0.28568 0.46226,0.28568 1.26582,-0.17493 1.26586,-0.17492 z m -23.91678,-1.04003 v -1.23554 l -0.70604,-0.70604 -0.70601,-0.70601 -0.79431,-3.4e-4 -0.79428,-3.4e-4 0.12091,1.94208 0.12086,1.94207 h 1.37938 1.37942 v -1.23559 z m 6.28734,-0.0882 -0.10954,-1.32383 h -2.64761 -2.64761 l -0.10954,1.32383 -0.10954,1.3238 h 2.86673 2.86672 z m 6.7742,0.0882 v -1.23554 h -3.0006 -3.00064 v 1.23554 1.23555 h 3.00064 3.0006 z m 7.58985,-12.88505 v -10.41394 l -10.50222,-0.0936 -10.50219,-0.0936 v 10.60097 10.60097 l 10.50219,-0.0936 10.50222,-0.0935 z m -9.85713,6.58098 -1.61586,-1.89138 v -0.33126 -0.33127 l 2.4461,-2.19002 2.44606,-2.19005 h 0.52278 0.52274 l 1.62267,1.85334 1.62271,1.85331 -2.73821,2.54919 -2.73821,2.5492 -0.23747,0.0101 -0.23745,0.0101 -1.61586,-1.89139 z m 4.31222,-1.20331 2.22143,-2.02402 -1.37467,-1.57554 -1.37467,-1.57558 -2.29922,2.09511 -2.29922,2.09509 1.26246,1.5103 1.26245,1.51029 0.19,-0.006 0.19,-0.006 z m -14.04745,0.44709 v -2.29461 h 0.35303 0.35302 v 2.29461 2.2946 h -0.35302 -0.35303 z m 0.18755,-3.45712 -0.27475,-0.63301 0.22012,-0.22012 0.22011,-0.2201 0.2077,0.20771 0.20772,0.20771 -0.15308,0.6454 -0.15308,0.64542 z m 2.33882,-3.75478 -1.4673,-1.74013 v -0.33755 -0.33755 l 2.72225,-2.38369 2.7223,-2.38369 1.69039,1.83839 1.69043,1.8384 v 0.43295 0.43295 l -2.44609,2.19004 -2.4461,2.19004 h -0.49929 -0.49926 z m 4.50111,-1.05355 2.26175,-2.05702 -1.4236,-1.52616 -1.42361,-1.52618 -2.33166,2.0471 -2.33167,2.04709 1.27126,1.55143 1.2713,1.55143 0.22225,-0.0161 0.22221,-0.0161 z m -9.49856,9.14798 v -2.82412 h -1.23556 -1.23556 l -0.0226,0.9708 -0.0226,0.97079 -0.0658,1.66411 -0.0658,1.66412 0.706,0.14113 0.70605,0.14113 0.61778,0.0481 0.61778,0.048 z m 25.77008,0 v -2.82412 h -1.41205 -1.41206 v 2.82412 2.82413 h 1.41206 1.41205 z m -25.77008,-6.70729 v -2.82411 l -1.32383,0.0409 -1.32378,0.0409 0.61778,0.16151 0.61777,0.16152 v 2.41935 2.41932 l -0.61777,0.16151 -0.61778,0.16152 1.32378,0.0409 1.32383,0.0409 z m 25.77008,0 v -2.82411 h -1.41205 -1.41206 v 2.82411 2.82414 h 1.41206 1.41205 z m -25.77008,-6.70728 v -2.82411 l -0.44129,0.006 -0.44125,0.006 -0.76761,0.20587 -0.7676,0.20589 -0.11486,2.61425 -0.11489,2.61424 1.32379,-6.3e-4 1.32382,-6.4e-4 v -2.82399 z m 25.77008,0 v -2.82411 h -1.41205 -1.41206 v 2.82411 2.82412 h 1.41206 1.41205 z m -25.06407,-4.23617 0.70604,-0.70603 v -1.23556 -1.23556 l -1.85334,0.006 -1.8533,0.006 0.47171,0.29902 0.47166,0.29898 -0.0711,0.66639 -0.0711,0.66641 0.0407,0.97078 0.0407,0.9708 h 0.706 0.70605 z m 24.99428,-1.14732 -0.10675,-1.85332 -1.85333,-0.10672 -1.85331,-0.10672 v 1.31446 1.31446 l 0.58423,0.64557 0.58423,0.64559 h 1.37582 1.37578 z m -18.0009,-0.70602 0.10953,-1.32381 h -2.84545 -2.84541 v 1.17671 1.17674 l 0.24934,0.24933 0.24934,0.24933 2.4865,-0.10209 2.48654,-0.10209 z m 6.50404,0.97078 0.25937,-0.35302 0.005,-0.97079 0.005,-0.97078 h -3.00063 -3.00063 v 1.17671 1.17674 l 0.14592,0.14701 0.14584,0.14703 h 2.59 2.58999 z m 6.62444,-0.88253 v -1.41206 h -2.82414 -2.8241 v 1.41206 1.41206 h 2.8241 2.82414 z"
         style="opacity:1;fill:#000000;stroke-width:1.33422"
         id="path1-7" />
    </g>
  </g>
</svg>
