<?xml version="1.0" encoding="UTF-8" standalone="no"?>
<!-- Created with Inkscape (http://www.inkscape.org/) -->

<svg
   width="30.00009mm"
   height="26.282206mm"
   viewBox="0 0 30.000089 26.282205"
   version="1.1"
   id="svg154673"
   inkscape:version="1.3 (0e150ed6c4, 2023-07-21)"
   sodipodi:docname="hoc-pins-empathy.svg"
   xmlns:inkscape="http://www.inkscape.org/namespaces/inkscape"
   xmlns:sodipodi="http://sodipodi.sourceforge.net/DTD/sodipodi-0.dtd"
   xmlns="http://www.w3.org/2000/svg"
   xmlns:svg="http://www.w3.org/2000/svg">
  <sodipodi:namedview
     id="namedview154675"
     pagecolor="#ffffff"
     bordercolor="#666666"
     borderopacity="1.0"
     inkscape:showpageshadow="2"
     inkscape:pageopacity="0.0"
     inkscape:pagecheckerboard="0"
     inkscape:deskcolor="#d1d1d1"
     inkscape:document-units="mm"
     showgrid="false"
     inkscape:zoom="4.4498127"
     inkscape:cx="56.631597"
     inkscape:cy="49.10319"
     inkscape:window-width="1920"
     inkscape:window-height="991"
     inkscape:window-x="-9"
     inkscape:window-y="-9"
     inkscape:window-maximized="1"
     inkscape:current-layer="g155035"
     showguides="true" />
  <defs
     id="defs154670" />
  <g
     inkscape:label="Layer 1"
     inkscape:groupmode="layer"
     id="layer1"
     transform="translate(-35.470503,-189.03661)">
    <g
       id="g150107"
       transform="translate(-9.7057584,58.468106)">
      <g
         id="g139062"
         transform="matrix(1.1912363,0,0,1.1911925,31.574771,-97.685146)"
         style="stroke-width:0.839479">
        <g
           id="g154932">
          <g
             id="g154983">
            <g
               id="g155035">
              <g
                 id="g2482"
                 transform="matrix(0.83946402,0,0,0.83949489,-70.872893,105.02985)">
                <path
                   style="fill:#bfbfbf;fill-opacity:1;fill-rule:nonzero;stroke:#cc0000;stroke-width:0.104973;stroke-dasharray:none"
                   d="m 103.64866,103.25855 v 2.5e-4 l -1.89321,4.42821 c 1.42584,1.07402 2.24987,2.29963 2.45014,3.64301 0.18549,1.24352 -0.31271,2.15163 -0.88964,3.20246 -0.63782,1.15966 -1.36062,2.47653 -1.36062,4.61919 0,1.36037 0.33348,2.41501 0.88654,3.26362 h -4.716186 l 1.500687,2.26101 c 0.03006,0.0478 0.02996,0.10769 -0.002,0.15552 l -1.49525,2.20969 h 4.468139 l 0.0155,0.66961 v 1.01169 h 4.97329 5.00182 l 0.44088,0.61244 0.45465,-0.63156 9.97531,0.0189 v -1.01169 l 0.003,-0.67323 h 4.46503 l -1.49732,-2.20945 c -0.0318,-0.0459 -0.0318,-0.10801 0,-0.15568 l 1.50069,-2.26101 h -4.71178 c 0.55162,-0.84796 0.88394,-1.90162 0.88394,-3.25999 0,-2.14264 -0.7228,-3.45953 -1.36061,-4.61919 -0.57685,-1.05083 -1.07526,-1.95894 -0.8899,-3.20246 0.20046,-1.34337 1.02478,-2.56897 2.4504,-3.643 l -1.89347,-4.4282 c -2.38396,1.47366 -5.79298,2.31749 -9.3798,2.31749 -3.58676,0 -6.99598,-0.84383 -9.38007,-2.31749 z"
                   id="path139092"
                   sodipodi:nodetypes="cccccsccccccccccccccccccccsccccscc" />
                <path
                   id="path139094"
                   style="fill:#000000;fill-opacity:1;fill-rule:nonzero;stroke:none;stroke-width:0.04629"
                   d="m 103.64897,103.2583 -5.2e-4,5.1e-4 -1.8929,4.42816 c 1.42582,1.07403 2.24972,2.29929 2.44998,3.64267 0.1855,1.24352 -0.31242,2.15208 -0.88936,3.2029 -0.63782,1.15967 -1.36064,2.47619 -1.36064,4.61884 0,1.36037 0.3332,2.41528 0.88625,3.26389 h -4.715987 l 1.500684,2.26084 c 0.03006,0.0478 0.02991,0.10772 -0.0021,0.15555 l -1.495516,2.20968 h 4.468469 v -0.32349 h -3.623043 -5.16e-4 c -0.05116,-9e-5 -0.09881,-0.029 -0.123507,-0.0765 -0.02299,-0.0461 -0.01898,-0.10064 0.01292,-0.14315 l 1.254706,-1.74614 -1.256773,-1.79576 c -0.03006,-0.0425 -0.03355,-0.097 -0.0088,-0.14314 0.02299,-0.046 0.07069,-0.0744 0.121956,-0.0744 h 4.096387 c 0.003,0.003 0.005,0.008 0.008,0.0109 h 1.21957 l 0.29972,-0.15813 0.30024,-0.15864 h 0.21962 c 0.18754,0 0.21862,0.005 0.21239,0.0357 -0.004,0.0211 -0.41869,0.24495 -1.02422,0.55346 l -0.67541,0.34416 c 0.003,0.003 0.006,0.005 0.009,0.008 l -0.31988,0.16227 h 0.49403 c 10e-4,0.001 0.003,0.003 0.004,0.003 h 9.21184 v -0.31368 c 0.89136,-1.2e-4 1.6315,-0.31217 2.22002,-0.93586 0.5771,-0.60935 0.86558,-1.36145 0.86558,-2.25671 0,-0.89815 -0.28848,-1.65376 -0.86558,-2.26601 -0.58863,-0.62668 -1.32894,-0.94 -2.22054,-0.94 h -5.2e-4 c 2e-5,0.5472 5e-4,1.08212 5.2e-4,1.61593 0.40684,0 0.75179,0.1648 1.03456,0.49402 0.27412,0.31769 0.41135,0.68309 0.41135,1.09606 0,0.44186 -0.1287,0.80976 -0.38551,1.10433 -0.27122,0.30901 -0.6247,0.46353 -1.0604,0.46353 v 1.62368 c -0.89136,-1.3e-4 -1.63151,-0.3122 -2.22002,-0.93586 -0.5771,-0.60935 -0.86558,-1.36144 -0.86558,-2.25671 0,-0.89815 0.28848,-1.65326 0.86558,-2.2655 0.58857,-0.62662 1.32854,-0.93994 2.22002,-0.93999 -4e-5,-1.33619 5e-5,-2.51277 0,-3.94601 l 2.0066,2.00814 -0.77257,0.77256 0.3421,0.3421 0.26872,-0.26872 -0.1602,-0.16019 0.17363,-0.1726 0.15968,0.1602 0.18191,0.1819 0.11575,0.11679 -0.17208,0.17259 -0.11679,-0.1173 -0.26872,0.27027 0.39326,0.39274 0.77256,-0.77308 0.21394,0.21394 0.40411,-0.40308 -3.13831,-3.14089 0.31316,-0.31316 0.13384,0.13332 c 0.0478,0.0488 0.14686,0.0271 0.2217,-0.047 0.0739,-0.0749 0.0957,-0.17291 0.047,-0.22169 l -0.20102,-0.20154 0.17312,-0.17312 0.20102,0.20206 c 0.0478,0.0478 0.14687,0.0259 0.22169,-0.0481 0.0739,-0.0741 0.0962,-0.17345 0.0475,-0.22221 l -0.20102,-0.20102 0.42271,-0.42323 0.20102,0.20205 c 0.0478,0.0478 0.14687,0.026 0.2217,-0.0481 0.0739,-0.0739 0.0949,-0.17328 0.047,-0.22117 l -0.0553,-0.0563 c 1.37824,0.0697 2.32552,0.037 2.8267,-0.25993 0.90666,-0.53731 0.80417,-1.62511 0.0646,-2.10581 0.17141,-0.28301 0.43132,-0.84031 0.092,-1.18081 -0.35065,-0.35095 -0.91819,-0.0756 -1.18442,0.0873 -0.24145,-0.36662 -0.63227,-0.57539 -1.02992,-0.57929 v 5.2e-4 c -0.39766,-0.005 -0.80214,0.19658 -1.0697,0.64854 -0.29671,0.50159 -0.32848,1.44987 -0.2589,2.82928 l -0.0558,-0.0553 c -0.0487,-0.0478 -0.14827,-0.0276 -0.22221,0.0465 -0.074,0.0749 -0.0957,0.17431 -0.047,0.22221 l 0.20102,0.20154 -0.42271,0.42323 -0.20103,-0.20154 c -0.0487,-0.0478 -0.14774,-0.0269 -0.22169,0.047 -0.074,0.0749 -0.0958,0.17431 -0.047,0.22221 l 0.20102,0.20102 -0.17312,0.17363 -0.20102,-0.20154 c -0.0478,-0.0478 -0.14686,-0.0271 -0.22169,0.047 -0.074,0.0749 -0.0962,0.17432 -0.0475,0.22221 l 0.13436,0.13436 -0.31316,0.31264 v 5.2e-4 h -5.2e-4 -5.2e-4 c 10e-6,0.26877 -1e-5,0.51462 0,0.80822 l -2.00608,2.00762 0.77257,0.77257 -0.3421,0.3421 -0.26872,-0.26924 0.16071,-0.1602 -0.17363,-0.1726 -0.16019,0.1602 -0.18191,0.18242 -0.11523,0.11627 0.17208,0.1726 0.11679,-0.11679 0.26871,0.26975 -0.39325,0.39274 -0.77257,-0.77308 -0.21445,0.21446 -0.4036,-0.40307 3.13831,-3.1409 -0.31316,-0.31316 -0.13384,0.13333 c -0.0479,0.0488 -0.14684,0.0271 -0.22169,-0.047 -0.0739,-0.0749 -0.0957,-0.17345 -0.047,-0.22221 l 0.20102,-0.20102 -0.17364,-0.17311 -0.2005,0.20205 c -0.0478,0.0478 -0.14737,0.026 -0.22221,-0.0481 -0.0739,-0.0741 -0.0957,-0.17344 -0.047,-0.22221 l 0.20103,-0.20102 -0.42272,-0.42323 -0.20102,0.20154 c -0.0478,0.0478 -0.14685,0.0265 -0.22169,-0.0475 -0.0739,-0.0741 -0.0949,-0.17329 -0.047,-0.22118 l 0.0558,-0.0563 c -1.37821,0.0697 -2.32603,0.0371 -2.82721,-0.25994 -0.90666,-0.53731 -0.80362,-1.6251 -0.0641,-2.10581 -0.17141,-0.28302 -0.43188,-0.84031 -0.0925,-1.18081 0.35066,-0.35096 0.91817,-0.0756 1.18442,0.0873 0.24144,-0.36663 0.63227,-0.5754 1.02991,-0.5793 0.39765,-0.005 0.80214,0.19708 1.0697,0.64906 0.2967,0.50159 0.32899,1.44985 0.25942,2.82928 l 0.0553,-0.0558 c 0.0487,-0.0478 0.14826,-0.0271 0.22221,0.047 0.074,0.0749 0.0957,0.17432 0.047,0.22221 l -0.20102,0.20102 0.42271,0.42323 0.20102,-0.20102 c 0.0488,-0.0478 0.14775,-0.0271 0.22169,0.047 0.074,0.0749 0.0957,0.17431 0.047,0.22221 l -0.20102,0.20102 0.17363,0.17312 0.20051,-0.20102 c 0.0478,-0.0478 0.14738,-0.0271 0.2222,0.047 0.074,0.0749 0.0953,0.17432 0.0465,0.22221 l -0.13384,0.13436 0.31316,0.31316 v 5.2e-4 l 5.2e-4,-5.2e-4 c -7e-5,-1.80444 -4.2e-4,-5.42603 -5.2e-4,-5.42603 h 5.2e-4 c 3.24652,-0.008 6.43764,-0.68543 8.86354,-1.88257 l 1.11311,2.60346 c -1.25731,1.12578 -1.99879,2.40108 -2.20814,3.80339 -0.23884,1.60206 0.39627,2.75813 1.0108,3.87676 0.60368,1.099 1.22783,2.23572 1.22783,4.10363 0,1.44146 -0.44426,2.46454 -1.17357,3.25975 h -0.72347 l 0.48369,0.24546 c -0.002,0.003 -0.005,0.005 -0.008,0.008 l 0.16795,0.0847 h 1.19631 c 0.003,-0.005 0.007,-0.009 0.0108,-0.014 h 4.09019 c 0.0512,0 0.0992,0.0279 0.12402,0.0739 0.023,0.046 0.0191,0.10285 -0.009,0.14521 l -1.25832,1.79421 1.25677,1.74563 c 0.0301,0.0425 0.0351,0.0993 0.0103,0.14521 -0.023,0.0461 -0.0705,0.0744 -0.12351,0.0744 h -3.61839 v 0.3235 h 4.46537 l -1.49759,-2.20917 c -0.0318,-0.0459 -0.0318,-0.10839 0,-0.15606 l 1.50069,-2.26085 h -4.71186 c 0.55163,-0.84797 0.88418,-1.9019 0.88418,-3.26026 0,-2.14267 -0.72283,-3.45918 -1.36064,-4.61884 -0.57685,-1.05083 -1.07523,-1.95887 -0.88987,-3.20239 0.20046,-1.34338 1.02489,-2.56917 2.4505,-3.64319 l -1.89342,-4.42815 c -2.38397,1.47368 -5.79297,2.31768 -9.37979,2.31768 -3.58676,0 -6.99621,-0.844 -9.38031,-2.31768 z m 9.37979,18.34306 c -2e-5,-1.00136 2e-5,-2.1148 0,-3.15794 -0.40685,0 -0.75178,0.1648 -1.03456,0.49402 -0.27412,0.31769 -0.41135,0.68308 -0.41135,1.09606 0,0.44184 0.1287,0.80974 0.38551,1.10433 0.27123,0.30901 0.62469,0.46353 1.0604,0.46353 z m 2.96881,-14.30352 c 0.42526,0.008 0.8429,0.36603 0.88057,1.09916 0.0103,0.20291 0.11059,0.2229 0.16278,0.22376 1.15378,0.0244 1.42825,0.96409 0.91054,1.48311 -0.57773,0.57739 -2.83291,0.28061 -2.83291,0.28061 0,0 -0.29627,-2.25724 0.28061,-2.83549 0.15906,-0.15893 0.35748,-0.24347 0.55707,-0.25063 0.0138,-4.5e-4 0.0276,-0.001 0.0413,-5.2e-4 z m -5.93814,5.2e-4 c -0.42509,0.008 -0.84291,0.36583 -0.88056,1.09864 -0.0103,0.20291 -0.11061,0.2229 -0.16279,0.22376 -1.15376,0.0244 -1.42876,0.96407 -0.91105,1.48311 0.57774,0.57737 2.83342,0.28061 2.83342,0.28061 0,0 0.29624,-2.25776 -0.2806,-2.83601 -0.15906,-0.15893 -0.35749,-0.24244 -0.55708,-0.24959 -0.0136,-4.7e-4 -0.0273,-9.9e-4 -0.0408,-5.2e-4 z m -1.79575,0.17983 c -0.0651,0.003 -0.12192,0.022 -0.16434,0.0646 -0.15311,0.15333 0.0135,0.53376 0.16227,0.77411 0.15835,-0.0531 0.33498,-0.0827 0.52813,-0.0827 0,-0.19595 0.0305,-0.37462 0.0853,-0.53485 -0.14071,-0.0875 -0.38345,-0.21316 -0.57413,-0.22118 -0.0127,-4.3e-4 -0.0251,-4.3e-4 -0.0372,0 z m 9.49192,0 c 0.0127,-4.5e-4 0.0255,-4.5e-4 0.0377,0 0.0651,0.003 0.12192,0.0222 0.16433,0.0646 0.15314,0.15333 -0.0139,0.53374 -0.16278,0.77411 -0.15835,-0.0532 -0.33448,-0.0827 -0.52762,-0.0827 0,-0.19594 -0.0309,-0.37461 -0.0858,-0.53485 0.14071,-0.0875 0.38345,-0.21319 0.57412,-0.22118 z m 1.76992,8.30544 c -0.85987,0 -1.56856,0.32057 -2.12545,0.9617 -0.53381,0.61224 -0.80047,1.35708 -0.80047,2.235 0,0.90683 0.27269,1.65767 0.81804,2.25258 0.55977,0.61514 1.28978,0.92294 2.19005,0.92294 0.88006,0 1.58522,-0.31631 2.11615,-0.94878 0.0606,-0.075 0.091,-0.13563 0.091,-0.1819 0,-0.0318 -0.10511,-0.20808 -0.31575,-0.52865 -0.2049,-0.30899 -0.33058,-0.48905 -0.37672,-0.54105 -0.0289,-0.0318 -0.0574,-0.0481 -0.0863,-0.0481 -0.0144,0 -0.0854,0.0551 -0.21239,0.16485 -0.15292,0.12995 -0.30294,0.23112 -0.4501,0.30334 -0.22507,0.10973 -0.46313,0.16433 -0.71417,0.16433 -0.42416,0 -0.76308,-0.1618 -1.01699,-0.48524 -0.23373,-0.29747 -0.35088,-0.66537 -0.35088,-1.10433 0,-0.43319 0.11715,-0.79735 0.35088,-1.09192 0.25391,-0.31768 0.59283,-0.47646 1.01699,-0.47646 0.24527,0 0.48209,0.0576 0.71004,0.17312 0.15004,0.078 0.30307,0.18642 0.45888,0.32504 0.12988,0.11552 0.20161,0.17312 0.21601,0.17312 0.0347,0 0.0637,-0.0115 0.0868,-0.0346 0.0519,-0.0433 0.17762,-0.24092 0.37672,-0.59325 0.20198,-0.35227 0.30282,-0.55588 0.30282,-0.61081 0,-0.0491 -0.0291,-0.10545 -0.0868,-0.16899 -0.53093,-0.5747 -1.26344,-0.86196 -2.19832,-0.86196 z m -15.91014,0.14263 h 5.2e-4 c 0.0895,0 0.22366,0.005 0.40256,0.0129 0.18178,0.009 0.31724,0.0124 0.40669,0.0124 0.0923,0 0.23081,-0.005 0.41548,-0.0124 0.18755,-0.009 0.32728,-0.0129 0.41961,-0.0129 0.0491,0 0.0739,0.0259 0.0739,0.078 0,0.21659 -0.0157,0.54143 -0.0475,0.97462 -0.0318,0.43029 -0.0476,0.75389 -0.0476,0.97048 0,0.10113 0.0268,0.16044 0.0816,0.17777 0.075,0.0231 0.4448,0.0346 1.10846,0.0346 0.61747,0 0.97522,-0.0108 1.07332,-0.0346 0.0693,-0.0173 0.10387,-0.0768 0.10387,-0.17777 0,-0.20792 -0.0102,-0.52126 -0.0305,-0.93999 -0.0202,-0.42163 -0.0305,-0.73795 -0.0305,-0.94878 0,-0.0896 0.0364,-0.13436 0.10852,-0.13436 0.0837,0 0.21062,0.005 0.38086,0.0129 0.17313,0.009 0.30308,0.0124 0.38964,0.0124 0.0837,0 0.21063,-0.005 0.38085,-0.0124 0.17313,-0.009 0.30257,-0.0129 0.38913,-0.0129 0.0837,0 0.12557,0.0349 0.12557,0.10438 0,0.33213 -0.0141,0.83328 -0.0429,1.50327 -0.0259,0.67001 -0.0388,1.17241 -0.0388,1.5074 0,0.3148 0.0141,0.78688 0.0429,1.41645 0.0317,0.62958 0.0475,1.10043 0.0475,1.41232 0,0.0606 -0.0128,0.0976 -0.0388,0.11214 -0.0116,0.009 -0.0522,0.0159 -0.12144,0.0217 -0.17602,0.0173 -0.42385,0.0264 -0.74414,0.0264 -0.45302,0 -0.7202,-0.008 -0.80099,-0.0264 -0.0779,-0.0174 -0.11678,-0.0562 -0.11678,-0.11679 0,-0.22814 0.0102,-0.57052 0.0305,-1.02681 0.0231,-0.45919 0.0346,-0.8028 0.0346,-1.03094 0,-0.1127 -0.0321,-0.17749 -0.0956,-0.19482 -0.0981,-0.0231 -0.4468,-0.0346 -1.04697,-0.0346 -0.60306,0 -0.95527,0.0108 -1.05626,0.0346 -0.0635,0.0141 -0.0951,0.0793 -0.0951,0.19482 0,0.22525 0.007,0.56338 0.0217,1.01389 0.0144,0.44762 0.0212,0.78398 0.0212,1.00924 0,0.0866 -0.0389,0.13687 -0.11679,0.15141 -0.0923,0.0173 -0.36377,0.0258 -0.8139,0.0258 -0.38954,0 -0.63738,-0.008 -0.74414,-0.0258 -0.0837,-0.0141 -0.12557,-0.0587 -0.12557,-0.13384 0,-0.31189 0.0146,-0.78276 0.0434,-1.41232 0.0317,-0.62958 0.0476,-1.10166 0.0476,-1.41645 0,-0.33499 -0.0146,-0.83791 -0.0434,-1.50792 -0.0289,-0.67287 -0.0434,-1.17653 -0.0434,-1.51153 0,-0.0635 0.0303,-0.0956 0.091,-0.0956 z m 17.08165,6.57376 v 0.87798 c -0.0849,0.0553 -0.1713,0.10961 -0.25942,0.16278 h 1.80196 l 0.005,-0.005 h 0.4961 l -0.32091,-0.16278 0.009,-0.009 -0.32349,-0.16589 c -0.24562,-0.1258 -0.46716,-0.23785 -0.69247,-0.35191 -0.004,0.003 -0.008,0.006 -0.0119,0.009 z m -17.40824,0.50643 v 0.003 c 10e-4,2e-5 10e-4,-2e-5 0.003,0 -7.6e-4,-7.8e-4 -0.002,-0.002 -0.003,-0.003 z m 0.003,0.003 c 0.002,0.002 0.004,0.005 0.007,0.008 h -4.057112 l 1.161172,1.65726 c 0.0336,0.0478 0.0336,0.11122 0,0.16071 l -1.156005,1.60507 h 3.351215 v -2.73006 c -0.0106,-0.0477 0.005,-0.0971 0.0388,-0.13074 l 0.0145,-0.009 0.0191,-0.0155 0.009,-0.003 0.005,-0.003 0.75034,-0.38034 c 0.002,0.003 0.005,0.005 0.007,0.008 0.1433,-0.075 0.24647,-0.13179 0.26975,-0.14883 l 0.0191,-0.009 h -0.003 c 3e-5,-1e-4 0.002,-10e-4 0.002,-10e-4 10e-5,-0.003 -0.18411,-0.006 -0.43822,-0.009 z m 19.4753,-0.002 -0.46974,0.003 0.31988,0.16433 c 0.003,-0.003 0.005,-0.006 0.008,-0.008 l 0.76119,0.38705 0.0243,0.0181 0.0109,0.009 0.0284,0.0408 0.003,0.0139 0.007,0.0351 0.002,0.006 v 2.75952 h 3.34811 l -1.156,-1.60455 c -0.0354,-0.0478 -0.0351,-0.11294 -0.002,-0.16071 l 1.16116,-1.65778 h -4.05091 c 0.001,-0.002 0.003,-0.005 0.005,-0.005 z m -18.62626,0.80563 c 6e-4,4.6e-4 0.001,5.5e-4 0.002,0.002 h -1.26711 v 4.6266 l 9.51364,0.005 0.63975,0.88935 0.64027,-0.88935 c 0.003,-0.003 9.51363,-0.005 9.51363,-0.005 v -4.6266 h -1.2671 c 5e-4,-4.5e-4 0.001,-5.5e-4 0.002,-0.002 h -1.95853 c -10e-4,4.6e-4 -10e-4,5.5e-4 -0.002,0.002 h -6.92723 v -0.002 z m -0.86971,0.32453 h 1.31103 c 0.005,0.003 0.009,0.006 0.0134,0.009 h 8.43359 v -0.009 h 6.28489 c -0.007,0.003 -0.0129,0.006 -0.0196,0.009 h 2.16834 c 0.005,-0.003 0.009,-0.006 0.0134,-0.009 h 1.31051 c 0.076,0 0.13953,0.0623 0.13953,0.14005 v 3.70106 c 0,0.0761 -0.0635,0.13953 -0.13953,0.13953 h -19.5156 c -0.076,0 -0.13746,-0.0634 -0.13746,-0.13953 v -3.70106 c 0,-0.0778 0.0614,-0.14005 0.13746,-0.14005 z m 15.99024,1.04645 c -0.27711,0 -0.50524,0.10293 -0.68472,0.30954 -0.17202,0.19731 -0.25838,0.43744 -0.25838,0.72037 0,0.29224 0.0878,0.53433 0.26355,0.72606 0.1804,0.19823 0.41577,0.29765 0.7059,0.29765 0.28362,0 0.51103,-0.1021 0.68213,-0.30592 0.0194,-0.024 0.0293,-0.0436 0.0295,-0.0584 v -5.1e-4 c -2.8e-4,-0.0106 -0.0342,-0.0671 -0.10181,-0.17002 -0.066,-0.0996 -0.10657,-0.15793 -0.12144,-0.17467 -0.009,-0.0103 -0.0186,-0.015 -0.0279,-0.015 -0.005,0 -0.0273,0.0174 -0.0682,0.0527 -0.0493,0.0419 -0.0978,0.0744 -0.14521,0.0977 -0.0725,0.0353 -0.14958,0.0532 -0.23048,0.0532 -0.1367,0 -0.2458,-0.0523 -0.32763,-0.15658 -0.0753,-0.0959 -0.11265,-0.21406 -0.11265,-0.35553 0,-0.13961 0.0373,-0.25698 0.11265,-0.35192 0.0818,-0.10237 0.19093,-0.15348 0.32763,-0.15348 0.079,0 0.15546,0.0186 0.22893,0.0558 0.0483,0.0251 0.0975,0.0597 0.14779,0.10439 0.0418,0.0372 0.0651,0.0558 0.0698,0.0558 0.0111,0 0.0204,-0.003 0.0279,-0.0109 0.0167,-0.014 0.0573,-0.0782 0.12144,-0.19172 0.0651,-0.11356 0.0977,-0.1787 0.0977,-0.19637 0,-0.0158 -0.009,-0.0343 -0.0279,-0.0548 -0.1711,-0.18521 -0.4072,-0.2775 -0.70848,-0.2775 z m -6.75515,0.0124 c -0.0149,0 -0.0281,0.0174 -0.0393,0.0527 -0.0195,0.0614 -0.14322,0.40098 -0.37104,1.01803 -0.21016,0.5705 -0.31522,0.86772 -0.31522,0.89193 0,0.027 0.0711,0.0403 0.21342,0.0403 0.18043,0 0.28674,-0.003 0.31833,-0.0109 0.0251,-0.007 0.0464,-0.0488 0.0641,-0.12609 0.0195,-0.0847 0.0369,-0.13447 0.0527,-0.14935 0.0102,-0.008 0.0946,-0.0124 0.25269,-0.0124 0.23436,0 0.35876,0.003 0.37362,0.01 0.0177,0.009 0.0423,0.081 0.0739,0.21497 0.008,0.0352 0.0283,0.0564 0.06,0.0631 0.0381,0.007 0.12385,0.0114 0.25683,0.0114 0.14504,0 0.23149,-0.004 0.25941,-0.0114 0.0233,-0.007 0.0346,-0.0184 0.0346,-0.0351 h 5.1e-4 c 0,-0.0251 -0.11096,-0.32565 -0.33228,-0.90175 -0.22036,-0.57238 -0.35336,-0.90791 -0.39894,-1.00563 -0.0149,-0.0307 -0.0309,-0.046 -0.0486,-0.046 -0.0241,0 -0.0608,0.002 -0.11007,0.006 -0.0483,0.003 -0.0855,0.004 -0.11059,0.004 -0.0261,0 -0.0654,-0.003 -0.11834,-0.007 -0.0521,-0.005 -0.0906,-0.007 -0.11576,-0.007 z m 2.68563,0.016 c -9.3e-4,0 -0.062,0.005 -0.18294,0.0145 -0.22503,0.0177 -0.37933,0.0264 -0.46302,0.0264 -0.29478,0 -0.51753,-0.01 -0.66817,-0.0295 -0.011,-6.7e-4 -0.0176,-0.001 -0.0196,-0.001 -0.0157,0 -0.0269,0.0351 -0.0336,0.1049 -0.004,0.0437 -0.007,0.0875 -0.01,0.13126 -0.002,0.0139 -0.01,0.0532 -0.0248,0.11834 -0.013,0.0596 -0.0196,0.0954 -0.0196,0.10748 0,0.009 0.007,0.014 0.0222,0.014 0.11066,0 0.25896,-0.009 0.44493,-0.0279 0.007,0.25129 0.0114,0.41369 0.0114,0.48628 0,0.10982 -0.005,0.27438 -0.014,0.49402 -0.009,0.21965 -0.0139,0.38421 -0.0139,0.49403 0,0.0242 0.0127,0.0387 0.0388,0.0434 0.0483,0.007 0.13274,0.0114 0.25269,0.0114 0.10789,0 0.18969,-0.004 0.24547,-0.0114 0.0234,-0.003 0.0366,-0.005 0.0393,-0.007 0.008,-0.005 0.0124,-0.0159 0.0124,-0.0336 0,-0.10982 -0.005,-0.275 -0.0139,-0.49558 -0.008,-0.22057 -0.0129,-0.38575 -0.0129,-0.49557 0,-0.0931 0.003,-0.25753 0.008,-0.493 0.24458,0.0139 0.38429,0.0207 0.41961,0.0207 0.0205,0 0.031,-0.009 0.031,-0.0279 v -5.2e-4 c 0,-0.0223 -0.003,-0.0556 -0.01,-0.10025 -0.005,-0.0456 -0.008,-0.0801 -0.008,-0.10335 0,-0.0204 5.8e-4,-0.0555 0.003,-0.10491 0.002,-0.0446 0.003,-0.0797 0.003,-0.1049 -10e-4,-0.0157 -0.003,-0.0243 -0.006,-0.0263 -0.003,-0.003 -0.0135,-0.004 -0.032,-0.004 z m -5.456,0.003 c -0.0232,0 -0.0591,0.002 -0.10749,0.007 -0.0474,0.005 -0.0827,0.007 -0.10593,0.007 -0.0279,0 -0.0692,-0.001 -0.12403,-0.004 -0.0539,-0.003 -0.0944,-0.004 -0.12144,-0.004 -0.0186,0 -0.0359,0.0185 -0.0517,0.0548 -0.18412,0.39369 -0.32311,0.68823 -0.41703,0.88367 -0.0335,0.0698 -0.0554,0.10439 -0.0656,0.10439 -0.0195,0 -0.0435,-0.0299 -0.0724,-0.0904 l -0.40772,-0.89503 c -0.0187,-0.0391 -0.0327,-0.0584 -0.0429,-0.0584 -0.0511,0 -0.12818,0.002 -0.23047,0.006 -0.10233,0.003 -0.17885,0.004 -0.22996,0.004 -0.0397,0 -0.0591,0.009 -0.0584,0.0279 l 5.2e-4,0.0238 c 0.008,0.15263 0.0123,0.26743 0.0129,0.34468 0.009,0.29689 0.0139,0.49924 0.0139,0.6072 0,0.10145 -0.005,0.25455 -0.0155,0.45837 -0.009,0.20289 -0.0139,0.35486 -0.0139,0.4563 0,0.0147 0.002,0.0254 0.006,0.032 0.005,0.005 0.016,0.008 0.0346,0.008 h 0.46612 c 0.0261,0 0.0393,-0.0165 0.0393,-0.0491 0,-0.0912 -0.003,-0.2279 -0.007,-0.41031 -0.005,-0.18242 -0.007,-0.3191 -0.007,-0.41032 0,-0.0186 0.004,-0.0324 0.0103,-0.0408 0.006,0.006 0.0104,0.0108 0.0124,0.0155 0.0437,0.0921 0.10948,0.24142 0.19689,0.44804 0.0818,0.19544 0.14768,0.3441 0.19792,0.44648 0.009,0.0186 0.0379,0.0279 0.0863,0.0279 0.0325,0 0.0511,1.5e-4 0.0558,-5.2e-4 0.0139,-0.004 0.0258,-0.0163 0.0351,-0.0377 0.067,-0.16474 0.13356,-0.33043 0.20051,-0.4961 0.11441,-0.28224 0.17687,-0.42564 0.18707,-0.43098 0.008,0.002 0.0129,0.0164 0.0129,0.0434 0,0.094 -0.004,0.23471 -0.0114,0.42271 -0.007,0.188 -0.01,0.32923 -0.01,0.42323 0,0.0326 0.0133,0.0486 0.0403,0.0486 h 0.49351 c 0.027,0 0.0408,-0.0145 0.0408,-0.0434 v -5.2e-4 c 0,-0.10051 -0.005,-0.25185 -0.0129,-0.45475 -0.008,-0.20289 -0.0124,-0.35537 -0.0124,-0.45682 0,-0.10982 0.003,-0.27365 0.0108,-0.49144 0.008,-0.21872 0.0129,-0.38266 0.0129,-0.49248 0,-0.0223 -0.0139,-0.0336 -0.0419,-0.0336 z m 0.81545,0.0134 c -0.24735,0 -0.40753,0.005 -0.48007,0.0139 -0.0299,0.004 -0.0439,0.0149 -0.0419,0.0326 l 0.001,0.0191 c 0.0251,0.32202 0.0377,0.62915 0.0377,0.92139 0,0.1033 -0.002,0.25909 -0.006,0.46664 -0.003,0.20661 -0.004,0.36126 -0.004,0.46457 0,0.027 0.0133,0.0408 0.0403,0.0408 0.0567,0 0.14184,9.5e-4 0.25528,0.004 0.11347,0.004 0.19857,0.006 0.25528,0.006 0.0195,0 0.0295,-0.0106 0.0295,-0.032 0,-0.0419 -0.005,-0.10495 -0.0129,-0.18965 -0.008,-0.0847 -0.0124,-0.1489 -0.0124,-0.19172 0,-0.0344 0.02,-0.0512 0.0599,-0.0512 0.0372,0 0.093,0.002 0.16743,0.007 0.0753,0.004 0.13128,0.006 0.16847,0.006 0.22224,0 0.39701,-0.0742 0.52348,-0.22221 0.1181,-0.13961 0.17673,-0.32202 0.17673,-0.54725 l 10e-4,-5.2e-4 c 0,-0.21965 -0.0691,-0.39691 -0.20671,-0.53278 -0.13483,-0.13201 -0.3124,-0.20159 -0.53278,-0.20826 -0.13391,-0.004 -0.27362,-0.006 -0.41962,-0.006 z m 4.86999,0.001 c -0.0195,0 -0.0295,0.01 -0.0295,0.0305 0,0.10797 0.005,0.27046 0.0145,0.48731 0.009,0.21592 0.014,0.3778 0.014,0.48576 0,0.10145 -0.005,0.25341 -0.0155,0.4563 -0.009,0.2029 -0.014,0.35475 -0.014,0.45527 0,0.0242 0.0133,0.0387 0.0403,0.0434 0.0344,0.005 0.11425,0.008 0.23978,0.008 0.14504,0 0.23273,-0.002 0.26252,-0.008 0.0251,-0.005 0.0377,-0.0212 0.0377,-0.0491 0,-0.0726 -0.003,-0.18079 -0.007,-0.32505 -0.005,-0.14519 -0.007,-0.254 -0.007,-0.32659 0,-0.0372 0.01,-0.0584 0.0305,-0.063 0.0325,-0.007 0.14619,-0.0109 0.34054,-0.0109 0.19345,0 0.30586,0.003 0.33745,0.0109 0.0205,0.006 0.0305,0.0268 0.0305,0.063 0,0.0735 -0.003,0.18429 -0.0108,0.33228 -0.007,0.14705 -0.0103,0.2572 -0.0103,0.33073 0,0.0198 0.0126,0.0324 0.0377,0.0377 0.026,0.005 0.11239,0.008 0.25838,0.008 0.10323,0 0.18307,-0.003 0.23978,-0.008 0.0221,-0.002 0.0353,-0.004 0.0393,-0.007 0.008,-0.005 0.0124,-0.0172 0.0124,-0.0367 h -5.1e-4 c 0,-0.10052 -0.005,-0.25237 -0.0155,-0.45527 -0.009,-0.20289 -0.014,-0.35485 -0.014,-0.4563 0,-0.10796 0.005,-0.26984 0.0129,-0.48576 0.009,-0.21593 0.0139,-0.37769 0.0139,-0.48472 0,-0.0224 -0.0138,-0.0331 -0.0408,-0.0331 -0.0279,0 -0.0693,9.5e-4 -0.12506,0.004 -0.0548,0.003 -0.096,0.004 -0.12299,0.004 -0.0279,0 -0.0698,-0.001 -0.12557,-0.004 -0.0549,-0.003 -0.0955,-0.004 -0.12248,-0.004 -0.0233,0 -0.0351,0.014 -0.0351,0.0429 0,0.0679 0.003,0.17004 0.01,0.30593 0.007,0.13495 0.0103,0.23581 0.0103,0.30282 0,0.0328 -0.0113,0.052 -0.0336,0.0574 -0.0316,0.007 -0.14672,0.0114 -0.34572,0.0114 -0.21386,0 -0.33289,-0.004 -0.35708,-0.0114 -0.0177,-0.006 -0.0269,-0.0248 -0.0269,-0.0574 0,-0.0698 0.005,-0.17397 0.0155,-0.31264 0.0103,-0.13961 0.0155,-0.24439 0.0155,-0.31419 0,-0.0167 -0.008,-0.0248 -0.0238,-0.0248 -0.0298,0 -0.075,9.5e-4 -0.13539,0.004 -0.0595,0.003 -0.10406,0.004 -0.13384,0.004 -0.0288,0 -0.0727,-10e-4 -0.13126,-0.004 -0.0576,-0.003 -0.10085,-0.004 -0.12971,-0.004 z m 2.13837,5.2e-4 c -0.0214,0 -0.032,0.01 -0.032,0.0305 0,0.0996 0.003,0.24887 0.01,0.44803 0.007,0.19918 0.0103,0.34845 0.0103,0.44804 0,0.11819 -0.009,0.36617 -0.0253,0.7431 -0.008,0.17868 -0.0124,0.26034 -0.0124,0.24547 0,0.0235 0.0133,0.0381 0.0403,0.0434 0.0372,0.007 0.12366,0.0114 0.25942,0.0114 0.10136,0 0.18244,-0.004 0.24288,-0.0114 0.0222,-0.003 0.0342,-0.006 0.0362,-0.006 0.008,-0.005 0.0124,-0.016 0.0124,-0.0346 0,-0.10982 -0.002,-0.275 -0.008,-0.49558 -0.005,-0.22057 -0.008,-0.38575 -0.008,-0.49557 h -10e-4 c 0,-0.0996 0.005,-0.24886 0.0155,-0.44804 0.0111,-0.19916 0.0165,-0.34844 0.0165,-0.44803 0,-0.0205 -0.0133,-0.0305 -0.0403,-0.0305 -0.0288,0 -0.072,9.5e-4 -0.12867,0.004 -0.0558,0.003 -0.0978,0.004 -0.12661,0.004 -0.0288,0 -0.0727,-0.001 -0.13126,-0.004 -0.0576,-0.003 -0.10085,-0.004 -0.12971,-0.004 z m -11.44271,5.2e-4 c -0.0253,0 -0.0371,0.0106 -0.0351,0.032 l 0.001,0.0196 c 0.008,0.14798 0.0128,0.25886 0.0155,0.33332 0.0112,0.28944 0.0165,0.48714 0.0165,0.59324 0,0.10424 -0.006,0.26136 -0.0181,0.47077 -0.0112,0.20848 -0.0165,0.36447 -0.0165,0.46871 0,0.027 0.0153,0.0408 0.046,0.0408 0.0707,0 0.17647,3.7e-4 0.31781,0.001 0.14134,6.6e-4 0.24776,10e-4 0.31936,10e-4 0.32826,0 0.5264,0.005 0.59428,0.0139 0.0195,0.003 0.0335,0.004 0.0419,0.004 0.0195,0 0.0348,-0.009 0.046,-0.0269 0.013,-0.0223 0.0277,-0.0914 0.0444,-0.20773 0.0158,-0.10704 0.0238,-0.18065 0.0238,-0.22066 l 0.001,10e-4 c 0,-0.0335 -0.0105,-0.0501 -0.031,-0.0501 -0.0484,0 -0.12147,0.005 -0.21911,0.014 -0.0967,0.008 -0.16928,0.0124 -0.21859,0.0124 h -0.2036 c -0.10324,-0.007 -0.16301,-0.0272 -0.1788,-0.0625 -0.009,-0.0205 -0.014,-0.0662 -0.014,-0.13694 0,-0.053 3.7e-4,-0.0821 10e-4,-0.0868 0.007,-0.0186 0.0291,-0.0279 0.0672,-0.0279 h 0.14779 c 0.1888,0 0.30979,0.003 0.36277,0.008 l 0.12557,0.014 c 0.027,0 0.0403,-0.009 0.0403,-0.0279 0,-0.0744 0.004,-0.14878 0.0114,-0.22324 0.0167,-0.16194 0.0248,-0.23348 0.0248,-0.21394 0,-0.0214 -0.0113,-0.032 -0.0336,-0.032 -0.0187,0 -0.0439,0.002 -0.0755,0.006 -0.041,0.004 -0.0663,0.006 -0.0765,0.007 -0.11996,0.007 -0.23837,0.0103 -0.35554,0.0103 -0.0177,0 -0.0402,5.9e-4 -0.0672,0.003 -0.027,6.7e-4 -0.045,0.001 -0.0543,0.001 -0.0446,0 -0.0751,-0.009 -0.091,-0.0264 -0.0186,-0.0205 -0.0279,-0.0623 -0.0279,-0.12558 0,-0.0605 0.003,-0.0963 0.007,-0.10748 0.0111,-0.0233 0.0411,-0.0351 0.0904,-0.0351 0.19713,0 0.41979,0.0105 0.66714,0.031 0.0142,6.7e-4 0.0236,0.001 0.0289,0.001 0.0186,0 0.0279,-0.01 0.0279,-0.0295 0,-0.0233 -0.005,-0.0889 -0.015,-0.19689 -0.009,-0.10888 -0.0165,-0.17392 -0.0212,-0.19533 -0.007,-0.0363 -0.0353,-0.0543 -0.0837,-0.0543 -0.0679,0 -0.17026,0.002 -0.30695,0.006 -0.1367,0.004 -0.23856,0.006 -0.30645,0.006 -0.0688,0 -0.17253,-0.002 -0.31109,-0.006 -0.13763,-0.004 -0.24073,-0.006 -0.30954,-0.006 z m 4.71961,0.44286 c 0.21108,0 0.31626,0.10819 0.31626,0.32505 0,0.20382 -0.10104,0.30592 -0.30283,0.30592 -0.16738,0 -0.25114,-0.009 -0.25114,-0.0279 0,-0.0289 -9.5e-4,-0.0713 -0.004,-0.12713 -0.002,-0.0567 -0.003,-0.0998 -0.003,-0.12867 0,-0.20292 0.003,-0.31039 0.01,-0.32246 0.007,-0.0167 0.0858,-0.0248 0.23461,-0.0248 z m 1.91513,0.20826 c 0.0195,0.0372 0.0501,0.12281 0.092,0.25683 0.0428,0.13871 0.0641,0.22357 0.0641,0.25425 0,0.008 -0.001,0.0144 -0.003,0.0191 -0.007,0.0149 -0.0404,0.0227 -0.1018,0.0227 -0.066,0 -0.11326,-0.001 -0.14211,-0.003 -0.0558,-0.002 -0.0837,-0.0112 -0.0837,-0.0279 0,-0.0251 0.0252,-0.11061 0.0755,-0.2558 0.0464,-0.13658 0.0797,-0.22509 0.0992,-0.26613 z" />
              </g>
            </g>
          </g>
        </g>
      </g>
    </g>
  </g>
</svg>
