<?xml version="1.0" encoding="UTF-8" standalone="no"?>
<!-- Created with Inkscape (http://www.inkscape.org/) -->

<svg
   width="30.000076mm"
   height="26.281481mm"
   viewBox="0 0 30.000076 26.281481"
   version="1.1"
   id="svg154673"
   inkscape:version="1.3 (0e150ed6c4, 2023-07-21)"
   sodipodi:docname="hoc-pins-serve.svg"
   xmlns:inkscape="http://www.inkscape.org/namespaces/inkscape"
   xmlns:sodipodi="http://sodipodi.sourceforge.net/DTD/sodipodi-0.dtd"
   xmlns="http://www.w3.org/2000/svg"
   xmlns:svg="http://www.w3.org/2000/svg">
  <sodipodi:namedview
     id="namedview154675"
     pagecolor="#ffffff"
     bordercolor="#666666"
     borderopacity="1.0"
     inkscape:showpageshadow="2"
     inkscape:pageopacity="0.0"
     inkscape:pagecheckerboard="0"
     inkscape:deskcolor="#d1d1d1"
     inkscape:document-units="mm"
     showgrid="false"
     inkscape:zoom="2.2249063"
     inkscape:cx="51.238113"
     inkscape:cy="25.843785"
     inkscape:window-width="1920"
     inkscape:window-height="991"
     inkscape:window-x="-9"
     inkscape:window-y="-9"
     inkscape:window-maximized="1"
     inkscape:current-layer="g154983"
     showguides="true" />
  <defs
     id="defs154670" />
  <g
     inkscape:label="Layer 1"
     inkscape:groupmode="layer"
     id="layer1"
     transform="translate(-77.010086,-179.24703)">
    <g
       id="g150107"
       transform="translate(-9.7057584,58.468106)">
      <g
         id="g139062"
         transform="matrix(1.1912363,0,0,1.1911925,31.574771,-97.685146)"
         style="stroke-width:0.839479">
        <g
           id="g154932">
          <g
             id="g154983">
            <g
               id="g2483"
               transform="matrix(0.83946402,0,0,0.83949489,-36.011389,69.782181)">
              <path
                 style="fill:#bfbfbf;fill-opacity:1;fill-rule:nonzero;stroke:#cc0000;stroke-width:0.104973;stroke-dasharray:none"
                 d="m 103.65995,135.455 v 2.5e-4 l -1.89321,4.4282 c 1.42585,1.07403 2.24987,2.29964 2.45014,3.64302 0.1855,1.24352 -0.3127,2.15163 -0.88964,3.20246 -0.63782,1.15966 -1.36061,2.47653 -1.36061,4.61919 0,1.36037 0.33347,2.41501 0.88653,3.26362 h -4.716182 l 1.500687,2.26101 c 0.03006,0.0478 0.02996,0.10769 -0.002,0.15552 l -1.495251,2.20969 h 4.468136 l 0.0155,0.66961 v 1.01169 h 4.97329 5.00182 l 0.44088,0.61244 0.45464,-0.63156 9.97531,0.0189 v -1.0117 l 0.003,-0.67323 h 4.46504 l -1.49732,-2.20944 c -0.0318,-0.046 -0.0318,-0.10801 0,-0.15568 l 1.50068,-2.26101 h -4.71178 c 0.55163,-0.84796 0.88395,-1.90162 0.88395,-3.25999 0,-2.14264 -0.72281,-3.45953 -1.36061,-4.61919 -0.57686,-1.05083 -1.07526,-1.95894 -0.88991,-3.20246 0.20046,-1.34337 1.02479,-2.56898 2.4504,-3.643 l -1.89346,-4.42821 c -2.38396,1.47367 -5.79299,2.3175 -9.37981,2.3175 -3.58675,0 -6.99598,-0.84383 -9.38007,-2.3175 z"
                 id="path150063"
                 sodipodi:nodetypes="cccccsccccccccccccccccccccsccccscc" />
              <path
                 id="path150065"
                 style="fill:#000000;fill-opacity:1;fill-rule:nonzero;stroke:none;stroke-width:0.04629"
                 d="m 103.66034,135.45478 -5.2e-4,5.2e-4 -1.89291,4.42815 c 1.42585,1.07403 2.24971,2.29928 2.44998,3.64267 0.18549,1.24352 -0.31293,2.15156 -0.88986,3.20239 -0.63782,1.15967 -1.36064,2.47668 -1.36064,4.61936 0,1.36037 0.3337,2.41527 0.88676,3.26388 h -4.715988 l 1.500684,2.26085 c 0.03006,0.0478 0.02991,0.10771 -0.0021,0.15554 l -1.495516,2.20969 h 4.46846 v -0.3235 h -3.623034 -5.16e-4 c -0.05116,-1e-4 -0.09881,-0.029 -0.123507,-0.0765 -0.02299,-0.0461 -0.0195,-0.10063 0.0124,-0.14314 l 1.254707,-1.74615 -1.256257,-1.79576 c -0.03006,-0.0425 -0.03355,-0.097 -0.0088,-0.14314 0.02299,-0.046 0.07068,-0.0744 0.121956,-0.0744 h 4.096391 c 0.003,0.003 0.005,0.008 0.008,0.0109 h 1.21957 l 0.29972,-0.15813 0.29972,-0.15813 h 0.22014 c 0.18755,0 0.21863,0.005 0.21239,0.0351 -0.004,0.0211 -0.4187,0.24494 -1.02422,0.55345 l -0.67593,0.34417 c 0.003,0.003 0.006,0.005 0.009,0.008 l -0.31988,0.16226 h 0.49403 c 0.001,0.001 0.002,0.003 0.004,0.003 h 9.21185 v -0.31368 c 0.89136,-1.2e-4 1.63151,-0.31217 2.22001,-0.93586 0.57709,-0.60935 0.86559,-1.36145 0.86559,-2.25671 0,-0.89813 -0.2885,-1.65376 -0.86559,-2.26601 -0.58861,-0.62668 -1.32892,-0.93999 -2.22053,-0.93999 h -5.2e-4 c 2e-5,0.5472 5.1e-4,1.08211 5.2e-4,1.61592 0.40685,0 0.75127,0.16429 1.03404,0.49351 0.27412,0.31769 0.41187,0.6836 0.41187,1.09657 0,0.44186 -0.1287,0.80976 -0.38551,1.10433 -0.27123,0.30901 -0.62469,0.46354 -1.0604,0.46354 v 1.62367 c -0.89138,-1.2e-4 -1.63151,-0.31167 -2.22002,-0.93534 -0.57709,-0.60934 -0.86558,-1.36196 -0.86558,-2.25723 0,-0.89815 0.28849,-1.65325 0.86558,-2.26549 0.58857,-0.62662 1.32853,-0.93995 2.22002,-0.94 -5e-5,-1.33618 5e-5,-2.51277 0,-3.94601 l 2.00659,2.00815 -0.77256,0.77256 0.3421,0.3421 0.26872,-0.26924 -0.1602,-0.16019 0.17312,-0.17209 0.16019,0.1602 0.1819,0.1819 0.11576,0.11679 -0.17208,0.1726 -0.11679,-0.11731 -0.26872,0.27027 0.39326,0.39274 0.77256,-0.77308 0.21394,0.21394 0.40359,-0.40307 -3.13779,-3.1409 0.31264,-0.31316 0.13436,0.13333 c 0.0478,0.0488 0.14685,0.0271 0.22169,-0.047 0.0739,-0.0749 0.0957,-0.17343 0.047,-0.22221 l -0.20102,-0.20102 0.17311,-0.17311 0.20103,0.20205 c 0.0478,0.0478 0.14687,0.0259 0.22169,-0.0481 0.0739,-0.0741 0.0962,-0.17345 0.0475,-0.22221 l -0.20154,-0.20102 0.42323,-0.42323 0.20102,0.20206 c 0.0478,0.0478 0.14688,0.026 0.2217,-0.0481 0.0739,-0.0739 0.0949,-0.17329 0.047,-0.22118 l -0.0558,-0.0563 c 1.37824,0.0697 2.32552,0.0371 2.8267,-0.25994 0.90667,-0.53731 0.80419,-1.62508 0.0646,-2.10581 0.17142,-0.283 0.43184,-0.84031 0.0925,-1.18081 -0.35066,-0.35095 -0.91818,-0.0756 -1.18443,0.0873 -0.24144,-0.36662 -0.63226,-0.5754 -1.02991,-0.5793 v 5.2e-4 c -0.39765,-0.005 -0.80214,0.19657 -1.0697,0.64854 -0.2967,0.50161 -0.329,1.44989 -0.25942,2.82928 l -0.0558,-0.0553 c -0.0487,-0.0478 -0.14776,-0.0276 -0.22169,0.0465 -0.074,0.0749 -0.0957,0.17432 -0.047,0.22221 l 0.20102,0.20154 -0.42272,0.42323 -0.20102,-0.20154 c -0.0488,-0.0478 -0.14826,-0.0269 -0.22221,0.047 -0.074,0.0749 -0.0953,0.17431 -0.0465,0.22221 l 0.20102,0.20102 -0.17312,0.17364 -0.20102,-0.20154 c -0.0478,-0.0478 -0.14687,-0.0271 -0.22169,0.047 -0.074,0.0749 -0.0962,0.17432 -0.0475,0.22221 l 0.13435,0.13384 -0.31315,0.31368 h -5.2e-4 -5.2e-4 c 10e-6,0.26878 -1e-5,0.51462 0,0.80822 l -2.00608,2.00763 0.77257,0.77256 -0.3421,0.3421 -0.26872,-0.26923 0.1602,-0.1602 -0.17312,-0.1726 -0.1602,0.1602 -0.1819,0.18241 -0.11575,0.11679 0.1726,0.1726 0.11679,-0.1173 0.26871,0.26975 -0.39325,0.39326 -0.77308,-0.7736 -0.21394,0.21446 -0.4036,-0.40308 3.1378,-3.14089 -0.31265,-0.31316 -0.13384,0.13332 c -0.0478,0.0488 -0.14685,0.0271 -0.22169,-0.047 -0.074,-0.0749 -0.0961,-0.17344 -0.0475,-0.22221 l 0.20102,-0.20102 -0.17312,-0.17312 -0.20102,0.20206 c -0.0479,0.0478 -0.14686,0.0259 -0.22169,-0.0481 -0.0739,-0.0741 -0.0956,-0.17344 -0.047,-0.22221 l 0.20102,-0.20102 -0.42271,-0.42323 -0.20154,0.20205 c -0.0479,0.0478 -0.14685,0.0259 -0.22169,-0.0481 -0.0739,-0.0741 -0.0949,-0.17328 -0.047,-0.22117 l 0.0558,-0.0563 c -1.37824,0.0697 -2.32552,0.0371 -2.8267,-0.25993 -0.90667,-0.53731 -0.80415,-1.62511 -0.0646,-2.10582 -0.17142,-0.28302 -0.43189,-0.84031 -0.0925,-1.1808 0.35066,-0.35096 0.91817,-0.0756 1.18442,0.0873 0.24145,-0.36663 0.63279,-0.57488 1.03043,-0.57878 0.39765,-0.005 0.80163,0.19655 1.06919,0.64854 0.29671,0.50159 0.32899,1.44986 0.25941,2.82929 l 0.0558,-0.0558 c 0.0487,-0.0478 0.14775,-0.0271 0.22169,0.047 0.074,0.0749 0.0957,0.17432 0.047,0.22221 l -0.20102,0.20102 0.42271,0.42323 0.20102,-0.20102 c 0.0488,-0.0478 0.14827,-0.0271 0.22221,0.047 0.074,0.0749 0.0957,0.17431 0.047,0.22221 l -0.20154,0.20102 0.17363,0.17311 0.20102,-0.20102 c 0.0478,-0.0478 0.14687,-0.0271 0.2217,0.047 0.074,0.0749 0.0958,0.17432 0.047,0.22221 l -0.13384,0.13435 0.31264,0.31316 h 5.2e-4 c -7e-5,-1.80442 -4.1e-4,-5.42602 -5.2e-4,-5.42602 h 5.2e-4 c 3.24654,-0.008 6.43764,-0.68545 8.86354,-1.88257 l 1.11363,2.60345 c -1.25731,1.12578 -1.9993,2.40108 -2.20865,3.80339 -0.23885,1.60208 0.39626,2.75814 1.01079,3.87677 0.60369,1.09898 1.22835,2.23572 1.22835,4.10362 0,1.44147 -0.44478,2.46454 -1.17409,3.25975 h -0.72296 l 0.48318,0.24546 -0.008,0.008 0.16743,0.0848 h 1.19683 c 0.003,-0.005 0.007,-0.009 0.0103,-0.0139 h 4.09071 c 0.0513,0 0.0987,0.0279 0.1235,0.0739 0.023,0.046 0.0197,0.10286 -0.009,0.14521 l -1.25832,1.7942 1.25625,1.74563 c 0.0301,0.0425 0.0356,0.0993 0.0108,0.14521 -0.023,0.0461 -0.0705,0.0744 -0.1235,0.0744 h -3.61839 v 0.32349 h 4.46485 l -1.49707,-2.20917 c -0.0318,-0.046 -0.0318,-0.10838 0,-0.15606 l 1.50068,-2.26084 h -4.71185 c 0.55162,-0.84797 0.88366,-1.90139 0.88366,-3.25975 0,-2.14267 -0.72283,-3.4597 -1.36064,-4.61936 -0.57685,-1.05083 -1.07522,-1.95887 -0.88986,-3.20239 0.20046,-1.34339 1.02488,-2.56917 2.45049,-3.64319 l -1.89342,-4.42815 c -2.38397,1.47368 -5.79298,2.31769 -9.37979,2.31769 -3.58677,0 -6.99569,-0.84401 -9.37979,-2.31769 z m 9.37979,18.34307 c -1e-5,-1.00135 3e-5,-2.11481 0,-3.15795 -0.40685,0 -0.75179,0.16429 -1.03456,0.49351 -0.27412,0.31769 -0.41135,0.68359 -0.41135,1.09657 0,0.44184 0.1287,0.80974 0.38551,1.10433 0.27123,0.30901 0.6247,0.46354 1.0604,0.46354 z m 2.96829,-14.30352 c 0.42527,0.008 0.84343,0.36603 0.88109,1.09916 0.0103,0.20291 0.1106,0.22289 0.16278,0.22375 1.15378,0.0244 1.42825,0.9641 0.91054,1.48312 -0.57773,0.57739 -2.83291,0.2806 -2.83291,0.2806 0,0 -0.29678,-2.25726 0.28009,-2.83548 0.15907,-0.15893 0.35799,-0.24348 0.55759,-0.25064 0.0138,-4.5e-4 0.0271,-0.001 0.0408,-5.1e-4 z m -5.93762,5.1e-4 c -0.42527,0.008 -0.84291,0.36554 -0.88057,1.09865 -0.0103,0.20291 -0.11061,0.22289 -0.16278,0.22375 -1.15378,0.0244 -1.42876,0.96408 -0.91105,1.48312 0.57774,0.57737 2.8329,0.28008 2.8329,0.28008 0,0 0.29678,-2.25723 -0.28009,-2.83548 -0.15906,-0.15893 -0.35748,-0.24297 -0.55707,-0.25012 -0.0138,-4.7e-4 -0.0276,-5e-4 -0.0413,0 z m -1.79576,0.17932 c -0.0651,0.003 -0.12192,0.022 -0.16433,0.0646 -0.15314,0.15333 0.0135,0.53428 0.16227,0.77463 0.15835,-0.0531 0.33499,-0.0827 0.52813,-0.0827 0,-0.19594 0.0305,-0.37462 0.0853,-0.53485 -0.14071,-0.0875 -0.38346,-0.21315 -0.57413,-0.22117 -0.0127,-4.3e-4 -0.0251,-4.3e-4 -0.0372,0 z m 9.49193,5.2e-4 c 0.0127,-4.5e-4 0.0255,-4.5e-4 0.0377,0 0.0651,0.003 0.12192,0.0222 0.16433,0.0646 0.15314,0.15333 -0.0139,0.53376 -0.16278,0.77412 -0.15834,-0.0531 -0.33447,-0.0827 -0.52762,-0.0827 0,-0.19594 -0.031,-0.37461 -0.0858,-0.53485 0.14071,-0.0875 0.38344,-0.21318 0.57412,-0.22117 z m 1.7694,8.30543 c -0.85986,0 -1.56804,0.32058 -2.12493,0.9617 -0.53381,0.61224 -0.80099,1.35708 -0.80099,2.23501 0,0.90682 0.27269,1.65768 0.81804,2.25257 0.55978,0.61514 1.29031,0.92295 2.19057,0.92295 0.88005,0 1.58522,-0.31632 2.11615,-0.94878 0.0606,-0.075 0.091,-0.13564 0.091,-0.1819 0,-0.0318 -0.10511,-0.20809 -0.31575,-0.52865 -0.2049,-0.30899 -0.33059,-0.48957 -0.37672,-0.54157 -0.0289,-0.0318 -0.058,-0.0476 -0.0868,-0.0476 -0.0144,0 -0.0849,0.0551 -0.21187,0.16485 -0.15293,0.12996 -0.30294,0.23114 -0.4501,0.30334 -0.22506,0.10974 -0.46313,0.16433 -0.71417,0.16433 -0.42416,0 -0.76307,-0.16179 -1.01699,-0.48524 -0.23372,-0.29746 -0.35088,-0.66536 -0.35088,-1.10432 0,-0.4332 0.11716,-0.79736 0.35088,-1.09193 0.25392,-0.31768 0.59283,-0.47645 1.01699,-0.47645 0.24527,0 0.48208,0.0576 0.71004,0.17311 0.15004,0.078 0.30255,0.18643 0.45837,0.32505 0.12987,0.11551 0.20212,0.17311 0.21652,0.17311 0.0347,0 0.0637,-0.0115 0.0868,-0.0346 0.0519,-0.0433 0.17711,-0.24092 0.3762,-0.59325 0.20198,-0.35226 0.30334,-0.55588 0.30334,-0.61081 0,-0.0491 -0.0291,-0.10545 -0.0868,-0.16898 -0.53093,-0.57471 -1.26395,-0.86197 -2.19884,-0.86197 z m -15.90962,0.14263 h 5.2e-4 c 0.0895,0 0.22366,0.005 0.40256,0.0129 0.18178,0.009 0.31724,0.0124 0.40669,0.0124 0.0923,0 0.23081,-0.005 0.41548,-0.0124 0.18756,-0.009 0.32727,-0.0129 0.41961,-0.0129 0.049,0 0.0734,0.0259 0.0734,0.078 0,0.21659 -0.0152,0.54143 -0.047,0.97462 -0.0318,0.43029 -0.0476,0.75389 -0.0476,0.97048 0,0.10113 0.0267,0.16043 0.0816,0.17777 0.075,0.0231 0.44481,0.0346 1.10846,0.0346 0.61747,0 0.97522,-0.0108 1.07332,-0.0346 0.0693,-0.0174 0.10387,-0.0768 0.10387,-0.17777 0,-0.20792 -0.0102,-0.52124 -0.0305,-0.93999 -0.0202,-0.42163 -0.0305,-0.73796 -0.0305,-0.94878 0,-0.0896 0.0364,-0.13436 0.10852,-0.13436 0.0837,0 0.21062,0.005 0.38086,0.0124 0.17313,0.009 0.30307,0.0129 0.38964,0.0129 0.0837,0 0.2106,-0.005 0.38085,-0.0129 0.17312,-0.009 0.30257,-0.0124 0.38913,-0.0124 0.0837,0 0.12557,0.0344 0.12557,0.10387 0,0.33213 -0.0141,0.83328 -0.0429,1.50327 -0.026,0.67001 -0.0388,1.17241 -0.0388,1.5074 0,0.3148 0.0141,0.7874 0.0429,1.41697 0.0317,0.62958 0.0476,1.10044 0.0476,1.41231 0,0.0606 -0.0128,0.0976 -0.0388,0.11214 -0.0116,0.009 -0.0522,0.0159 -0.12144,0.0217 -0.17601,0.0173 -0.42385,0.0258 -0.74414,0.0258 -0.45301,0 -0.7202,-0.008 -0.80099,-0.0258 -0.0779,-0.0173 -0.11678,-0.0562 -0.11678,-0.11679 0,-0.22815 0.0102,-0.57051 0.0305,-1.02681 0.0231,-0.45918 0.0346,-0.80281 0.0346,-1.03095 0,-0.1127 -0.0321,-0.17749 -0.0956,-0.19482 -0.0981,-0.0231 -0.44681,-0.0346 -1.04697,-0.0346 -0.60306,0 -0.95527,0.0108 -1.05626,0.0346 -0.0635,0.0141 -0.0951,0.0793 -0.0951,0.19482 0,0.22524 0.007,0.56338 0.0217,1.01389 0.0144,0.44762 0.0212,0.784 0.0212,1.00924 0,0.0866 -0.0389,0.13689 -0.11679,0.15142 -0.0923,0.0173 -0.36325,0.0258 -0.81338,0.0258 -0.38954,0 -0.63789,-0.008 -0.74466,-0.0258 -0.0837,-0.0141 -0.12557,-0.0592 -0.12557,-0.13436 0,-0.31189 0.0146,-0.78276 0.0434,-1.41232 0.0318,-0.62958 0.0476,-1.10166 0.0476,-1.41645 0,-0.33499 -0.0146,-0.83739 -0.0434,-1.5074 -0.0289,-0.67289 -0.0429,-1.17653 -0.0429,-1.51154 0,-0.0634 0.0298,-0.0956 0.0904,-0.0956 z m 17.08164,6.57376 v 0.87798 c -0.0849,0.0553 -0.1713,0.1096 -0.25941,0.16278 h 1.80196 c 0.002,-0.001 0.003,-0.003 0.005,-0.005 h 0.4961 l -0.32091,-0.16278 0.009,-0.009 -0.32349,-0.16588 c -0.24562,-0.12582 -0.46767,-0.23786 -0.69298,-0.35192 -0.004,0.003 -0.008,0.006 -0.0114,0.009 z m -17.40824,0.50591 v 0.003 c 0.001,1e-5 8.7e-4,-2e-5 0.002,0 -6.7e-4,-6.8e-4 -10e-4,-0.002 -0.002,-0.003 z m 0.002,0.003 c 0.002,0.002 0.005,0.005 0.008,0.009 h -4.05763 l 1.16169,1.65726 c 0.0336,0.0478 0.0336,0.11124 0,0.16072 l -1.156006,1.60455 h 3.351216 v -2.72955 c -0.0106,-0.0477 0.005,-0.0971 0.0388,-0.13074 l 0.014,-0.009 0.0196,-0.0155 0.009,-0.003 0.005,-0.003 0.75034,-0.38034 c 0.002,0.003 0.005,0.005 0.007,0.008 0.14331,-0.075 0.24646,-0.13179 0.26975,-0.14883 l 0.0191,-0.009 h -0.003 c 3e-5,-9e-5 0.002,-0.001 0.002,-0.001 1e-4,-0.003 -0.18364,-0.006 -0.43822,-0.009 z m 19.47582,-0.002 -0.47026,0.003 0.32039,0.16433 c 0.002,-0.003 0.005,-0.006 0.008,-0.008 l 0.76119,0.38706 0.0243,0.0181 0.0109,0.009 0.0284,0.0408 0.003,0.014 0.007,0.0351 0.002,0.006 v 2.75952 h 3.34811 l -1.15652,-1.60456 c -0.0354,-0.0478 -0.0345,-0.11294 -0.002,-0.16071 l 1.16117,-1.65778 h -4.05091 c 0.002,-0.002 0.003,-0.005 0.005,-0.005 z m -18.62626,0.80563 c 6e-4,4.5e-4 0.001,0.001 0.002,0.001 h -1.26711 v 4.62659 l 9.51363,0.005 0.63976,0.88935 0.64027,-0.88935 c 0.003,-0.003 9.51363,-0.005 9.51363,-0.005 v -4.62659 h -1.26711 c 5e-4,-4.5e-4 0.001,-0.001 0.002,-0.001 h -1.95854 c -0.001,4.5e-4 -0.002,0.001 -0.002,0.001 h -6.92723 v -0.001 z m -0.86971,0.32505 h 1.31051 c 0.005,0.003 0.009,0.006 0.0134,0.009 h 8.43411 v -0.009 h 6.28489 c -0.007,0.003 -0.0129,0.006 -0.0196,0.009 h 2.16834 c 0.005,-0.003 0.009,-0.006 0.0134,-0.009 h 1.31051 c 0.076,0 0.13953,0.0622 0.13953,0.14004 v 3.70107 c 0,0.0761 -0.0635,0.13952 -0.13953,0.13952 h -19.5156 c -0.076,0 -0.13746,-0.0634 -0.13746,-0.13952 v -3.70107 c 0,-0.0778 0.0614,-0.14004 0.13746,-0.14004 z m 5.2126,1.03353 c -0.006,0 -0.013,3.6e-4 -0.0233,0.001 -0.18691,0.0279 -0.34452,0.0883 -0.47284,0.18138 -0.15716,0.11262 -0.23617,0.25447 -0.23617,0.42478 0,0.11732 0.0325,0.22417 0.0966,0.32091 0.009,0.014 0.0686,0.0843 0.17828,0.21084 0.0633,0.0745 0.0951,0.14211 0.0951,0.20258 0,0.0949 -0.0485,0.16657 -0.14521,0.21497 -0.0437,0.0214 -0.13285,0.0473 -0.26769,0.078 -0.0139,0.003 -0.0212,0.009 -0.0212,0.0196 0,0.0289 0.0366,0.10855 0.11007,0.23978 0.0734,0.1303 0.12122,0.19585 0.14262,0.19585 0.005,0 0.0107,-3.7e-4 0.0181,-0.001 0.19993,-0.0326 0.36953,-0.10876 0.50901,-0.2279 0.15902,-0.13494 0.23875,-0.29682 0.23875,-0.48575 l -5.2e-4,-0.002 c 0,-0.10145 -0.0327,-0.20304 -0.0987,-0.30541 -0.006,-0.007 -0.0674,-0.0857 -0.18552,-0.23461 -0.067,-0.0828 -0.10077,-0.15249 -0.10077,-0.20929 0,-0.0633 0.0305,-0.11298 0.0909,-0.14831 0.0502,-0.0307 0.10875,-0.046 0.1757,-0.046 0.009,0 0.0226,0.002 0.0403,0.005 0.0177,0.003 0.0303,0.005 0.0377,0.005 0.0167,0 0.0253,-0.008 0.0253,-0.0238 0,-0.004 -0.001,-0.009 -0.004,-0.0145 -0.0883,-0.17772 -0.14478,-0.30048 -0.16898,-0.36845 -0.008,-0.0223 -0.0197,-0.0336 -0.0336,-0.0336 z m 7.49463,0.0129 c -0.2771,0 -0.50524,0.10293 -0.68471,0.30955 -0.17203,0.1973 -0.25838,0.43743 -0.25838,0.72037 0,0.29224 0.0883,0.53432 0.26406,0.72605 0.1804,0.19824 0.41526,0.29714 0.70539,0.29714 0.28362,0 0.51103,-0.10158 0.68213,-0.30541 0.0194,-0.0239 0.0293,-0.0435 0.0294,-0.0584 v -5.2e-4 c -2.7e-4,-0.0106 -0.0342,-0.0671 -0.1018,-0.17002 -0.066,-0.0995 -0.10657,-0.15786 -0.12144,-0.17466 -0.009,-0.0104 -0.0186,-0.0155 -0.0279,-0.0155 -0.005,0 -0.0273,0.0179 -0.0682,0.0532 -0.0493,0.0419 -0.0978,0.0744 -0.14521,0.0977 -0.0725,0.0353 -0.14906,0.0527 -0.22996,0.0527 -0.1367,0 -0.24632,-0.0518 -0.32814,-0.15606 -0.0753,-0.0959 -0.11266,-0.21459 -0.11266,-0.35605 0,-0.13956 0.0373,-0.25695 0.11266,-0.35192 0.0818,-0.10237 0.19145,-0.15348 0.32814,-0.15348 0.079,0 0.15495,0.0186 0.22841,0.0558 0.0484,0.0252 0.0981,0.0603 0.14831,0.10491 0.0419,0.0372 0.0651,0.0558 0.0698,0.0558 0.0112,0 0.0205,-0.004 0.0279,-0.0114 0.0168,-0.014 0.0568,-0.0777 0.12092,-0.19121 0.0651,-0.11349 0.0977,-0.17915 0.0977,-0.19688 0,-0.0158 -0.009,-0.0338 -0.0279,-0.0543 -0.1711,-0.18521 -0.4072,-0.27751 -0.70849,-0.27751 z m -4.54391,0.0393 c -0.10229,0 -0.23931,0.002 -0.41134,0.006 -0.25388,0.006 -0.39618,0.0112 -0.42685,0.0165 -0.0295,0.005 -0.0441,0.0162 -0.0434,0.032 l 10e-4,0.0196 c 0.0177,0.22058 0.0263,0.52771 0.0263,0.92139 0,0.10332 -0.005,0.25848 -0.015,0.46509 -0.009,0.20662 -0.014,0.36117 -0.014,0.46354 0,0.0235 0.0134,0.0376 0.0403,0.0429 0.027,0.005 0.10681,0.008 0.23978,0.008 0.11623,0 0.20197,-0.002 0.25683,-0.006 0.0131,-10e-4 0.0258,-0.002 0.0388,-0.003 0.008,-0.003 0.0129,-0.012 0.0129,-0.0279 0,-0.0633 -0.006,-0.15755 -0.0181,-0.28319 -0.0111,-0.12566 -0.017,-0.22043 -0.017,-0.2837 0,-0.0474 0.007,-0.0708 0.0212,-0.0708 0.12364,0 0.17152,-0.001 0.14366,-0.003 0.0604,0.004 0.099,0.0237 0.11575,0.0599 0.0772,0.18145 0.13375,0.31877 0.17002,0.41186 0.027,0.0717 0.0476,0.12548 0.0615,0.16175 0.008,0.0153 0.0143,0.0251 0.0196,0.0284 0.003,6.7e-4 0.0142,0.002 0.0346,0.006 0.0437,0.005 0.12675,0.008 0.24857,0.008 0.14227,0 0.2308,-0.003 0.26613,-0.008 0.0186,-0.003 0.0279,-0.008 0.0279,-0.0139 -10e-4,-0.0266 -0.0581,-0.15464 -0.17001,-0.38602 -0.11345,-0.23428 -0.17002,-0.35155 -0.17002,-0.35089 0,-0.013 0.0106,-0.0269 0.032,-0.0419 0.10507,-0.0763 0.17746,-0.15464 0.21653,-0.23565 0.0391,-0.081 0.0584,-0.18968 0.0584,-0.32556 0,-0.20383 -0.0758,-0.35971 -0.22737,-0.46767 -0.13391,-0.0958 -0.30682,-0.14366 -0.51884,-0.14366 z m 2.55282,0.006 c -0.0511,0 -0.12891,0.002 -0.23306,0.008 -0.10323,0.004 -0.18038,0.006 -0.23151,0.006 h -0.0444 c -0.008,0.003 -0.0124,0.0167 -0.0124,0.0418 0,0.0679 0.001,0.17066 0.003,0.30748 0.002,0.13584 0.003,0.23743 0.003,0.30541 0,0.0409 -0.0433,0.15172 -0.13074,0.33228 -0.0651,0.134 -0.12354,0.24735 -0.17467,0.33951 -0.18877,-0.35457 -0.28319,-0.56083 -0.28319,-0.61857 0,-0.0754 0.005,-0.18874 0.0155,-0.33951 0.0111,-0.15171 0.0165,-0.26518 0.0165,-0.34055 0,-0.0196 -0.0114,-0.0294 -0.0346,-0.0294 -0.0567,0 -0.14183,-0.002 -0.25528,-0.006 -0.11344,-0.004 -0.19845,-0.006 -0.25425,-0.006 -0.0186,0 -0.0279,0.0173 -0.0279,0.0517 0,0.0735 -0.002,0.18431 -0.008,0.33228 -0.005,0.14708 -0.007,0.25722 -0.007,0.33072 0,0.0447 0.0844,0.23576 0.2527,0.57361 0.10693,0.21034 0.21334,0.42053 0.31936,0.62994 0.0121,0.023 0.0268,0.0363 0.0444,0.0403 0.0176,0.004 0.09,0.006 0.21497,0.006 0.0992,-1e-5 0.17234,-0.002 0.21963,-0.006 0.0206,-0.002 0.0325,-0.004 0.0351,-0.006 0.004,-0.003 0.01,-0.0142 0.0191,-0.0346 0.13669,-0.26618 0.24166,-0.46522 0.31419,-0.59738 0.18319,-0.36666 0.2744,-0.57892 0.2744,-0.63665 0,-0.0726 0.001,-0.18132 0.003,-0.32556 0.003,-0.14524 0.004,-0.25343 0.004,-0.32505 0,-0.0223 -0.014,-0.0336 -0.0419,-0.0336 z m -5.01882,5.2e-4 c -0.0253,0 -0.0366,0.0112 -0.0346,0.0326 l 10e-4,0.0196 c 0.008,0.148 0.0123,0.25888 0.015,0.33332 0.0111,0.28944 0.0165,0.48715 0.0165,0.59324 0,0.10424 -0.006,0.26137 -0.0181,0.47077 -0.0111,0.20847 -0.0165,0.36446 -0.0165,0.46871 0,0.027 0.0153,0.0408 0.046,0.0408 0.0707,0 0.17698,3.7e-4 0.31832,0.001 0.14135,6.6e-4 0.24776,0.001 0.31936,0.001 0.32826,0 0.5264,0.005 0.59428,0.0139 0.0195,0.003 0.033,0.005 0.0413,0.005 0.0195,0 0.0349,-0.009 0.046,-0.0269 0.013,-0.0223 0.0282,-0.0914 0.045,-0.20774 0.0158,-0.10705 0.0238,-0.18066 0.0238,-0.22066 -5.5e-4,-0.0316 -0.0101,-0.0481 -0.03,-0.0481 -0.0483,0 -0.12147,0.005 -0.21911,0.0139 -0.0967,0.008 -0.16984,0.0124 -0.2191,0.0124 h -0.20361 c -0.10322,-0.007 -0.16248,-0.0272 -0.17828,-0.0625 -0.009,-0.0205 -0.014,-0.0663 -0.014,-0.13694 0,-0.0537 3.6e-4,-0.0828 0.001,-0.0868 0.007,-0.0187 0.0285,-0.0279 0.0667,-0.0279 h 0.14831 c 0.18878,0 0.30925,0.003 0.36225,0.008 l 0.12558,0.014 c 0.0269,0 0.0403,-0.009 0.0403,-0.0279 0,-0.0745 0.004,-0.14933 0.0114,-0.22376 0.0167,-0.16199 0.0253,-0.23302 0.0253,-0.21342 0,-0.0214 -0.0113,-0.032 -0.0336,-0.032 -0.0186,0 -0.0439,0.002 -0.0755,0.006 -0.0409,0.003 -0.0663,0.005 -0.0765,0.006 -0.11996,0.006 -0.23889,0.009 -0.35605,0.009 -0.0176,0 -0.0397,5.8e-4 -0.0667,0.003 -0.027,6.7e-4 -0.045,0.001 -0.0543,0.001 -0.0447,0 -0.0751,-0.009 -0.0909,-0.0264 -0.0186,-0.0204 -0.0279,-0.0623 -0.0279,-0.12558 0,-0.0605 0.003,-0.0964 0.007,-0.10748 0.0112,-0.0233 0.0412,-0.0351 0.0904,-0.0351 0.19714,0 0.41927,0.0105 0.66662,0.031 0.0142,6.7e-4 0.0241,0.001 0.0295,0.001 0.0186,0 0.0279,-0.01 0.0279,-0.0295 0,-0.0233 -0.005,-0.0889 -0.0155,-0.19689 -0.009,-0.1089 -0.016,-0.17393 -0.0207,-0.19533 -0.007,-0.0363 -0.0354,-0.0548 -0.0837,-0.0548 -0.0679,0 -0.17025,0.002 -0.30695,0.006 -0.1367,0.004 -0.23908,0.006 -0.30696,0.006 -0.0688,0 -0.17254,-0.002 -0.31109,-0.006 -0.13764,-0.004 -0.24074,-0.006 -0.30955,-0.006 z m 5.30821,5.2e-4 c -0.0214,0 -0.032,0.0105 -0.032,0.031 0,0.0996 0.004,0.24887 0.0103,0.44804 0.007,0.1992 0.01,0.34847 0.01,0.44803 0,0.11819 -0.009,0.36566 -0.0253,0.74259 -0.008,0.17874 -0.0124,0.26092 -0.0124,0.24598 0,0.0235 0.0138,0.0381 0.0408,0.0434 0.0372,0.007 0.12365,0.0109 0.25942,0.0109 0.10133,0 0.18189,-0.004 0.24236,-0.0109 0.0222,-0.003 0.0347,-0.006 0.0367,-0.006 0.008,-0.005 0.0124,-0.016 0.0124,-0.0346 0,-0.10982 -0.003,-0.275 -0.008,-0.49558 -0.005,-0.22057 -0.008,-0.38575 -0.008,-0.49558 h -0.001 c 0,-0.0996 0.005,-0.24887 0.015,-0.44803 0.0111,-0.19919 0.0165,-0.34848 0.0165,-0.44804 0,-0.0205 -0.0133,-0.031 -0.0403,-0.031 -0.0288,0 -0.0714,0.002 -0.12816,0.005 -0.0558,0.003 -0.0983,0.005 -0.12713,0.005 -0.0288,0 -0.0726,-0.002 -0.13125,-0.005 -0.0577,-0.003 -0.10091,-0.005 -0.12971,-0.005 z m 2.62154,0 c -0.0253,0 -0.0366,0.0107 -0.0346,0.032 l 5.2e-4,0.0191 c 0.008,0.148 0.0128,0.25939 0.0155,0.33383 0.0111,0.28945 0.0165,0.48715 0.0165,0.59324 0,0.10424 -0.006,0.26137 -0.0181,0.47077 -0.0111,0.20847 -0.0165,0.36446 -0.0165,0.46871 0,0.027 0.0153,0.0408 0.046,0.0408 0.0707,0 0.17648,3.7e-4 0.31781,0.001 0.14135,6.6e-4 0.24828,0.001 0.31988,0.001 0.32826,0 0.52588,0.005 0.59376,0.0139 0.0195,0.003 0.0335,0.005 0.0419,0.005 0.0195,0 0.0349,-0.009 0.046,-0.0269 0.013,-0.0223 0.0282,-0.0914 0.045,-0.20774 0.0158,-0.10699 0.0238,-0.18059 0.0238,-0.22066 -5.5e-4,-0.0316 -0.0101,-0.0481 -0.03,-0.0481 -0.0483,0 -0.12147,0.005 -0.21911,0.0139 -0.0967,0.008 -0.16984,0.0124 -0.2191,0.0124 h -0.20361 c -0.10323,-0.007 -0.16248,-0.0272 -0.17828,-0.0625 -0.009,-0.0205 -0.014,-0.0663 -0.014,-0.13694 0,-0.0537 3.7e-4,-0.0828 10e-4,-0.0868 0.007,-0.0187 0.0285,-0.0279 0.0667,-0.0279 h 0.14779 c 0.18878,0 0.30977,0.003 0.36277,0.008 l 0.12558,0.014 c 0.0269,0 0.0403,-0.009 0.0403,-0.0279 0,-0.0745 0.004,-0.14881 0.0114,-0.22324 0.0167,-0.162 0.0248,-0.23354 0.0248,-0.21394 0,-0.0213 -0.0107,-0.032 -0.0331,-0.032 -0.0186,0 -0.0438,0.002 -0.0755,0.006 -0.0409,0.003 -0.0668,0.006 -0.077,0.006 -0.11995,0.006 -0.23837,0.009 -0.35553,0.009 -0.0177,0 -0.0397,0.001 -0.0667,0.003 -0.027,6.6e-4 -0.0455,0.001 -0.0548,0.001 -0.0447,0 -0.0746,-0.009 -0.0904,-0.0269 -0.0186,-0.0204 -0.0279,-0.0623 -0.0279,-0.12558 0,-0.0605 0.002,-0.0964 0.007,-0.10748 0.0112,-0.0233 0.0417,-0.0346 0.0909,-0.0346 0.19714,0 0.41928,0.01 0.66662,0.0305 0.0142,6.7e-4 0.0241,10e-4 0.0295,10e-4 0.0186,0 0.0279,-0.01 0.0279,-0.0295 0,-0.0233 -0.005,-0.0889 -0.0155,-0.19689 -0.009,-0.1089 -0.016,-0.17393 -0.0207,-0.19533 -0.007,-0.0363 -0.0354,-0.0543 -0.0837,-0.0543 -0.0679,0 -0.17026,0.002 -0.30695,0.006 -0.1367,0.004 -0.23908,0.006 -0.30696,0.006 -0.0688,0 -0.17254,-0.002 -0.3111,-0.006 -0.13762,-0.004 -0.24073,-0.006 -0.30954,-0.006 z m -5.65237,0.40617 c 0.12274,0 0.21261,0.0167 0.27027,0.0501 0.0744,0.0437 0.11162,0.12261 0.11162,0.23616 h -5.1e-4 c 0,0.16194 -0.10176,0.24288 -0.30541,0.24288 -0.0623,0 -0.12155,-0.004 -0.17828,-0.0124 -0.0297,-0.005 -0.0444,-0.0105 -0.0444,-0.0145 0,-0.0204 -3.6e-4,-0.0511 -10e-4,-0.093 -6.7e-4,-0.0419 -0.001,-0.0737 -0.001,-0.0951 0,-0.15082 0.002,-0.24229 0.008,-0.27389 0.006,-0.027 0.0527,-0.0403 0.14107,-0.0403 z" />
            </g>
          </g>
        </g>
      </g>
    </g>
  </g>
</svg>
