<?xml version="1.0" encoding="UTF-8" standalone="no"?>
<!-- Created with Inkscape (http://www.inkscape.org/) -->

<svg
   width="30.000059mm"
   height="26.243113mm"
   viewBox="0 0 30.000059 26.243112"
   version="1.1"
   id="svg154673"
   inkscape:version="1.3 (0e150ed6c4, 2023-07-21)"
   sodipodi:docname="hoc-pins-act-responsibly.svg"
   xmlns:inkscape="http://www.inkscape.org/namespaces/inkscape"
   xmlns:sodipodi="http://sodipodi.sourceforge.net/DTD/sodipodi-0.dtd"
   xmlns="http://www.w3.org/2000/svg"
   xmlns:svg="http://www.w3.org/2000/svg">
  <sodipodi:namedview
     id="namedview154675"
     pagecolor="#ffffff"
     bordercolor="#666666"
     borderopacity="1.0"
     inkscape:showpageshadow="2"
     inkscape:pageopacity="0.0"
     inkscape:pagecheckerboard="0"
     inkscape:deskcolor="#d1d1d1"
     inkscape:document-units="mm"
     showgrid="false"
     inkscape:zoom="2.2249063"
     inkscape:cx="82.700112"
     inkscape:cy="-7.4160426"
     inkscape:window-width="1920"
     inkscape:window-height="991"
     inkscape:window-x="-9"
     inkscape:window-y="-9"
     inkscape:window-maximized="1"
     inkscape:current-layer="g154932"
     showguides="true" />
  <defs
     id="defs154670" />
  <g
     inkscape:label="Layer 1"
     inkscape:groupmode="layer"
     id="layer1"
     transform="translate(-43.143419,-194.32828)">
    <g
       id="g150107"
       transform="translate(-9.7057584,58.468106)">
      <g
         id="g139062"
         transform="matrix(1.1912363,0,0,1.1911925,31.574771,-97.685146)"
         style="stroke-width:0.839479">
        <g
           id="g154932">
          <g
             id="g2481"
             transform="matrix(0.83946402,0,0,0.83949489,-33.281415,109.00279)">
            <path
               style="fill:#bfbfbf;fill-opacity:1;fill-rule:nonzero;stroke:#cc0000;stroke-width:0.104973;stroke-dasharray:none"
               d="m 66.541238,103.77859 v 2.5e-4 l -1.893206,4.42821 c 1.425843,1.07402 2.249871,2.29963 2.450138,3.64301 0.185497,1.24352 -0.312705,2.15163 -0.889641,3.20246 -0.63782,1.15966 -1.360612,2.47653 -1.360612,4.61919 0,1.36037 0.333474,2.41501 0.886534,3.26362 h -4.716184 l 1.500687,2.26101 c 0.03006,0.0478 0.02996,0.10769 -0.002,0.15552 l -1.49525,2.20969 h 4.468141 l 0.01547,0.66961 v 1.01169 h 4.973288 5.001823 l 0.440876,0.61244 0.454646,-0.63156 9.975313,0.0189 v -1.01169 l 0.003,-0.67323 h 4.465033 l -1.497321,-2.20945 c -0.03182,-0.046 -0.03182,-0.10801 0,-0.15568 l 1.500688,-2.26101 H 86.11082 c 0.551625,-0.84796 0.883948,-1.90162 0.883948,-3.25999 0,-2.14264 -0.722806,-3.45953 -1.360614,-4.61919 -0.576853,-1.05083 -1.075259,-1.95894 -0.8899,-3.20246 0.200459,-1.34337 1.024783,-2.56897 2.450397,-3.643 l -1.893465,-4.4282 c -2.383961,1.47366 -5.792985,2.31749 -9.379807,2.31749 -3.586752,0 -6.995975,-0.84383 -9.380067,-2.31749 z"
               id="path139064"
               sodipodi:nodetypes="cccccsccccccccccccccccccccsccccscc" />
            <path
               id="path139066"
               style="fill:#000000;fill-opacity:1;fill-rule:nonzero;stroke:none;stroke-width:0.04629"
               d="m 66.541675,103.77816 -5.17e-4,5.2e-4 -1.892908,4.42815 c 1.425845,1.07403 2.249715,2.29981 2.44998,3.64319 0.185497,1.24352 -0.312932,2.15157 -0.889868,3.20239 -0.63782,1.15967 -1.360641,2.47669 -1.360641,4.61936 0,1.36035 0.333705,2.41475 0.886768,3.26336 h -4.715991 l 1.500683,2.26085 c 0.03006,0.0478 0.02991,0.10771 -0.0021,0.15554 l -1.495516,2.20969 h 4.468461 v -0.3235 h -3.623034 -5.17e-4 c -0.05116,-9e-5 -0.09881,-0.0285 -0.123507,-0.076 -0.02299,-0.0461 -0.0195,-0.10115 0.0124,-0.14366 l 1.254703,-1.74563 -1.256254,-1.79576 c -0.03006,-0.0425 -0.03354,-0.0975 -0.0088,-0.14366 0.02299,-0.046 0.07068,-0.0744 0.121957,-0.0744 h 4.096391 c 0.0028,0.003 0.0055,0.008 0.0083,0.0114 h 1.219564 l 0.299723,-0.15865 0.299723,-0.15813 H 68.0103 c 0.187547,0 0.21914,0.005 0.212907,0.0351 -0.0044,0.0211 -0.419215,0.24546 -1.024744,0.55397 l -0.675411,0.34416 c 0.0028,0.003 0.006,0.005 0.0088,0.008 l -0.320394,0.16226 h 0.494544 c 0.0013,0.001 0.0022,0.003 0.0036,0.003 h 9.211841 v -0.31367 c 0.891602,0 1.631906,-0.31206 2.220536,-0.93587 0.577093,-0.60933 0.865581,-1.36146 0.865581,-2.2567 0,-0.89815 -0.288488,-1.65325 -0.865581,-2.2655 -0.58863,-0.62668 -1.328934,-0.94051 -2.220536,-0.94051 h -5.17e-4 c 2.1e-5,0.5472 5.03e-4,1.08263 5.17e-4,1.61644 0.406847,0 0.751273,0.16429 1.034045,0.49351 0.27412,0.31769 0.411345,0.68309 0.411345,1.09606 0,0.44184 -0.128183,0.80975 -0.38499,1.10432 -0.271228,0.30901 -0.624694,0.46354 -1.0604,0.46354 v 1.62419 c -0.891602,0 -1.631905,-0.31207 -2.220536,-0.93586 -0.577094,-0.60935 -0.865581,-1.36196 -0.865581,-2.25723 0,-0.89815 0.288487,-1.65325 0.865581,-2.26549 0.58857,-0.62662 1.329054,-0.93995 2.220536,-0.94 -4.1e-5,-1.33618 5e-5,-2.51276 0,-3.94601 l 2.006596,2.00866 -0.772563,0.77257 0.342098,0.34209 0.268718,-0.26923 -0.160197,-0.1602 0.173116,-0.1726 0.160197,0.1602 0.181901,0.18242 0.115755,0.11627 -0.172599,0.1726 -0.116272,-0.11679 -0.268718,0.26975 0.393258,0.39274 0.772563,-0.77308 0.21394,0.21394 0.403593,-0.40307 -3.137793,-3.14038 0.312642,-0.31316 0.134359,0.13333 c 0.04785,0.0488 0.146852,0.0266 0.221692,-0.0476 0.07393,-0.0749 0.09573,-0.17291 0.04703,-0.22169 l -0.201022,-0.20154 0.173116,-0.17311 0.201022,0.20205 c 0.04785,0.0478 0.14687,0.026 0.221691,-0.0481 0.07393,-0.0741 0.09572,-0.17293 0.04703,-0.22169 l -0.201021,-0.20154 0.422713,-0.42323 0.201538,0.20206 c 0.04785,0.0478 0.146868,0.0266 0.221692,-0.0475 0.07395,-0.0739 0.09488,-0.17381 0.04702,-0.2217 l -0.05581,-0.0563 c 1.378234,0.0697 2.325523,0.0371 2.826701,-0.25994 0.906662,-0.53729 0.804171,-1.62457 0.06459,-2.10529 0.171415,-0.28301 0.431848,-0.84031 0.0925,-1.18081 -0.350655,-0.35095 -0.918173,-0.076 -1.184424,0.0868 -0.241443,-0.36662 -0.632258,-0.57488 -1.029911,-0.57878 h -5.17e-4 c -0.39765,-0.005 -0.801625,0.1971 -1.069185,0.64906 -0.296708,0.50161 -0.328994,1.44987 -0.259416,2.82928 l -0.05581,-0.0558 c -0.04871,-0.0478 -0.147756,-0.0271 -0.221692,0.047 -0.07397,0.0749 -0.09575,0.17431 -0.04703,0.22221 l 0.201021,0.20102 -0.422713,0.42323 -0.201021,-0.20102 c -0.04875,-0.0478 -0.148261,-0.0269 -0.222209,0.047 -0.07397,0.0749 -0.09524,0.17379 -0.04651,0.22169 l 0.201021,0.20102 -0.173116,0.17364 -0.201538,-0.20102 c -0.04785,-0.0478 -0.146868,-0.0276 -0.221692,0.0465 -0.07397,0.0749 -0.09575,0.17432 -0.04703,0.22221 l 0.133842,0.13436 -0.312642,0.31368 -5.17e-4,-5.2e-4 h -5.17e-4 c 1.1e-5,0.2686 -9e-6,0.51539 0,0.80874 l -2.006079,2.00711 0.772563,0.77256 -0.342098,0.3421 -0.268718,-0.26872 0.160197,-0.16071 -0.173116,-0.17208 -0.160197,0.16019 -0.181901,0.1819 -0.115755,0.11679 0.172599,0.1726 0.116272,-0.11679 0.268718,0.26975 -0.393258,0.39275 -0.772563,-0.7736 -0.21394,0.21446 -0.40411,-0.40308 3.13831,-3.14089 -0.313159,-0.31316 -0.133842,0.13384 c -0.04785,0.0488 -0.146849,0.0266 -0.221692,-0.0475 -0.07395,-0.0749 -0.0957,-0.17345 -0.04702,-0.22221 l 0.201021,-0.20102 -0.173116,-0.17312 -0.201022,0.20206 c -0.04785,0.0478 -0.146859,0.0259 -0.221691,-0.0481 -0.07393,-0.0741 -0.09622,-0.17292 -0.04754,-0.22169 l 0.201538,-0.20154 -0.42323,-0.42323 -0.201021,0.20205 c -0.04785,0.0478 -0.146854,0.0259 -0.221692,-0.0481 -0.07395,-0.0741 -0.09488,-0.17328 -0.04702,-0.22117 l 0.05581,-0.0563 c -1.378232,0.0697 -2.325519,0.0376 -2.826701,-0.25942 -0.906662,-0.53729 -0.804158,-1.6251 -0.06459,-2.10581 -0.171413,-0.28302 -0.431858,-0.84082 -0.0925,-1.18132 0.350659,-0.35096 0.918173,-0.0751 1.184424,0.0879 0.241445,-0.36663 0.632274,-0.5754 1.029911,-0.5793 0.397648,-0.005 0.80214,0.19656 1.069702,0.64854 0.296703,0.50159 0.328994,1.45039 0.259416,2.8298 l 0.05529,-0.0558 c 0.04871,-0.0478 0.148261,-0.0276 0.222208,0.0465 0.07397,0.0749 0.09576,0.17432 0.04703,0.22221 l -0.201538,0.20154 0.42323,0.42323 0.201021,-0.20154 c 0.04875,-0.0478 0.14775,-0.0271 0.221692,0.047 0.07397,0.0749 0.09578,0.17431 0.04703,0.22221 l -0.201022,0.20102 0.173116,0.17363 0.201022,-0.20102 c 0.04785,-0.0478 0.147385,-0.0276 0.222208,0.0465 0.07397,0.0749 0.09524,0.17432 0.04651,0.22221 l -0.133842,0.13435 0.313159,0.31316 c -7.1e-5,-1.80442 1.05e-4,-5.42602 0,-5.42602 h 5.17e-4 c 3.246532,-0.008 6.437641,-0.68492 8.863542,-1.88206 l 1.11311,2.60294 c -1.257308,1.12578 -1.998782,2.4016 -2.208134,3.80391 -0.238844,1.60208 0.396263,2.75813 1.010791,3.87676 0.603689,1.099 1.227832,2.2352 1.227832,4.10311 0,1.44146 -0.444264,2.46506 -1.173572,3.26027 h -0.72347 l 0.483692,0.24546 c -0.0025,0.003 -0.0056,0.005 -0.0083,0.008 l 0.167949,0.0853 h 1.196309 c 0.0034,-0.005 0.0072,-0.009 0.01085,-0.0145 h 4.09019 c 0.05125,0 0.09927,0.0284 0.124023,0.0744 0.02299,0.0459 0.01945,0.10234 -0.0088,0.1447 l -1.258321,1.7942 1.256254,1.74563 c 0.03006,0.0425 0.03559,0.0993 0.01085,0.14521 -0.02299,0.0461 -0.07049,0.0744 -0.123506,0.0744 h -3.618384 v 0.32349 h 4.464844 l -1.497067,-2.20917 c -0.03181,-0.046 -0.03181,-0.10787 0,-0.15554 L 90.82288,122.931 h -4.711857 c 0.551623,-0.84797 0.884184,-1.90139 0.884184,-3.25975 0,-2.14267 -0.722832,-3.4597 -1.360641,-4.61936 -0.57685,-1.05083 -1.075225,-1.95887 -0.889868,-3.20239 0.200461,-1.34338 1.024369,-2.56918 2.44998,-3.64318 l -1.893425,-4.42816 c -2.383967,1.47368 -5.792961,2.31769 -9.379789,2.31769 -3.586759,0 -6.995694,-0.84401 -9.379789,-2.31769 z m 9.379789,18.34307 c -1.4e-5,-1.00136 2.5e-5,-2.11429 0,-3.15743 -0.406846,0 -0.751788,0.16429 -1.034562,0.49351 -0.274122,0.31769 -0.411345,0.68308 -0.411345,1.09606 0,0.44182 0.128178,0.80973 0.38499,1.10432 0.271231,0.30901 0.625211,0.46354 1.060917,0.46354 z m -2.969328,-14.303 c -0.425267,0.008 -0.842899,0.36553 -0.880566,1.09864 -0.01032,0.20291 -0.110607,0.22291 -0.162781,0.22375 -1.153778,0.0244 -1.428765,0.96408 -0.911055,1.48312 0.577733,0.57737 2.832902,0.2806 2.832902,0.2806 0,0 0.296776,-2.25723 -0.280087,-2.83548 -0.159065,-0.15893 -0.357484,-0.24297 -0.557072,-0.25012 -0.01376,-4.7e-4 -0.02761,-0.001 -0.04134,-5.1e-4 z m 5.938139,0 c 0.425264,0.008 0.8429,0.36551 0.880566,1.09864 0.01032,0.20291 0.11111,0.22291 0.163298,0.22375 1.153774,0.0244 1.428248,0.96462 0.910539,1.48364 -0.577728,0.57737 -2.832902,0.28008 -2.832902,0.28008 0,0 -0.296789,-2.25723 0.280086,-2.83548 0.159065,-0.15893 0.357996,-0.24296 0.557589,-0.25012 0.01375,-4.5e-4 0.02709,-0.001 0.04082,-5.1e-4 z m -7.733895,0.17983 c -0.06507,0.003 -0.122432,0.022 -0.164848,0.0646 -0.153134,0.15333 0.01394,0.53377 0.162781,0.77412 0.158348,-0.0531 0.334989,-0.0827 0.528133,-0.0827 0,-0.19595 0.03043,-0.37411 0.08527,-0.53434 -0.140707,-0.0875 -0.383451,-0.21367 -0.574125,-0.22169 -0.01266,-4.3e-4 -0.02503,-4.3e-4 -0.03721,0 z m 9.492444,0 c 0.01266,-4.5e-4 0.02554,-4.5e-4 0.03772,0 0.06507,0.003 0.121921,0.0222 0.164331,0.0646 0.153136,0.15333 -0.01387,0.53375 -0.162781,0.77412 -0.158348,-0.0532 -0.334988,-0.0827 -0.528133,-0.0827 0,-0.19594 -0.03042,-0.3741 -0.08527,-0.53434 0.14071,-0.0875 0.383446,-0.2137 0.574125,-0.22169 z m 1.768884,8.30544 c -0.859866,0 -1.568044,0.32057 -2.124935,0.96169 -0.533809,0.61224 -0.800984,1.35759 -0.800984,2.23553 0,0.90682 0.272686,1.65767 0.818038,2.25257 0.559775,0.61514 1.289785,0.92243 2.190047,0.92243 0.880061,0 1.585742,-0.31632 2.116667,-0.94878 0.06059,-0.075 0.09095,-0.13564 0.09095,-0.1819 0,-0.0318 -0.105104,-0.20756 -0.315743,-0.52814 -0.204864,-0.30898 -0.330555,-0.48957 -0.376721,-0.54157 -0.02884,-0.0318 -0.05795,-0.0475 -0.08682,-0.0475 -0.01443,0 -0.08491,0.0546 -0.211873,0.16433 -0.15293,0.12996 -0.302944,0.23113 -0.450102,0.30334 -0.225063,0.10974 -0.463132,0.16433 -0.714168,0.16433 -0.424164,0 -0.763074,-0.16127 -1.016992,-0.48472 -0.233723,-0.29747 -0.350883,-0.66588 -0.350883,-1.10484 0,-0.4332 0.11716,-0.79684 0.350883,-1.09141 0.253918,-0.31768 0.592828,-0.47697 1.016992,-0.47697 0.245264,0 0.482083,0.0581 0.710034,0.17363 0.150043,0.078 0.302555,0.18591 0.45837,0.32453 0.129838,0.11551 0.202091,0.17363 0.216524,0.17363 0.03463,0 0.06374,-0.0115 0.08682,-0.0346 0.05194,-0.0433 0.17711,-0.24144 0.376204,-0.59376 0.201981,-0.35228 0.303341,-0.55589 0.303341,-0.61082 0,-0.0491 -0.02911,-0.10545 -0.08682,-0.16898 -0.530925,-0.57471 -1.263949,-0.86196 -2.198833,-0.86196 z m -15.909106,0.14314 c 0.08946,0 0.223662,0.005 0.402559,0.0124 0.181785,0.009 0.317245,0.0124 0.406694,0.0124 0.09233,0 0.230812,-0.005 0.415478,-0.0124 0.187556,-0.009 0.327278,-0.0124 0.419613,-0.0124 0.04905,0 0.07338,0.0259 0.07338,0.078 0,0.21659 -0.01529,0.54143 -0.04703,0.97462 -0.03175,0.43029 -0.04754,0.75337 -0.04754,0.96996 0,0.10113 0.02682,0.16044 0.08165,0.17777 0.07503,0.0231 0.444807,0.0346 1.10846,0.0346 0.617471,0 0.975216,-0.0108 1.073319,-0.0346 0.06926,-0.0173 0.10387,-0.0767 0.10387,-0.17777 0,-0.20792 -0.01025,-0.52124 -0.03049,-0.93999 -0.0202,-0.42163 -0.03049,-0.73743 -0.03049,-0.94826 0,-0.0896 0.03637,-0.13436 0.10852,-0.13436 0.08367,0 0.210613,0.005 0.380856,0.0124 0.173126,0.009 0.303076,0.0124 0.38964,0.0124 0.08367,0 0.210614,-0.005 0.380855,-0.0124 0.173128,-0.009 0.302565,-0.0124 0.389124,-0.0124 0.08369,0 0.125573,0.0344 0.125573,0.10387 0,0.33213 -0.01404,0.83328 -0.04289,1.50327 -0.02595,0.67001 -0.03876,1.17241 -0.03876,1.5074 0,0.3148 0.01404,0.78688 0.04289,1.41645 0.03172,0.62958 0.04754,1.10043 0.04754,1.41232 0,0.0606 -0.01281,0.0981 -0.03876,0.11265 -0.01157,0.009 -0.05221,0.0159 -0.121439,0.0217 -0.176014,0.0174 -0.423854,0.0258 -0.744141,0.0258 -0.453017,0 -0.720192,-0.008 -0.800985,-0.0258 -0.07791,-0.0173 -0.116789,-0.0567 -0.116789,-0.1173 0,-0.22814 0.01018,-0.57001 0.03049,-1.0263 0.0231,-0.45917 0.03462,-0.80332 0.03462,-1.03146 0,-0.1127 -0.03214,-0.17749 -0.0956,-0.19482 -0.09812,-0.0231 -0.446804,-0.0346 -1.046964,-0.0346 -0.603062,0 -0.955279,0.0108 -1.056266,0.0346 -0.06348,0.0141 -0.09508,0.0793 -0.09508,0.19482 0,0.22525 0.0073,0.5634 0.0217,1.01389 0.01438,0.44762 0.02119,0.78399 0.02119,1.00925 0,0.0866 -0.03889,0.13738 -0.116788,0.15192 -0.09233,0.0174 -0.363259,0.0258 -0.813387,0.0258 -0.389537,0 -0.637895,-0.008 -0.744658,-0.0258 -0.08367,-0.0141 -0.125574,-0.0592 -0.125574,-0.13435 0,-0.31189 0.01456,-0.78276 0.04341,-1.41232 0.03175,-0.62958 0.04754,-1.10166 0.04754,-1.41645 0,-0.33499 -0.01455,-0.83739 -0.04341,-1.5074 -0.02885,-0.67289 -0.04289,-1.17706 -0.04289,-1.51206 0,-0.0635 0.03036,-0.0951 0.09095,-0.0951 z m 17.081128,6.57376 v 0.87798 c -0.08491,0.0553 -0.171298,0.10909 -0.259416,0.16226 h 1.801957 c 0.0015,-0.001 0.0032,-0.003 0.0047,-0.005 h 0.496094 l -0.321427,-0.16329 c 0.003,-0.003 0.0063,-0.006 0.0093,-0.009 l -0.323494,-0.16588 c -0.245618,-0.12582 -0.467155,-0.23786 -0.692464,-0.35192 -0.0041,0.003 -0.008,0.006 -0.01189,0.009 z m -17.40824,0.50591 v 0.003 c 0.0012,2e-5 8.67e-4,-10e-6 0.0021,0 -7.34e-4,-7.1e-4 -0.0013,-0.002 -0.0021,-0.003 z m 0.0021,0.003 c 0.0024,0.002 0.0049,0.005 0.0072,0.008 h -4.057634 l 1.161687,1.65727 c 0.03358,0.0478 0.03358,0.11174 0,0.16123 l -1.156002,1.60455 h 3.351216 v -2.73007 c -0.01063,-0.0477 0.0052,-0.0971 0.03876,-0.13074 l 0.01395,-0.009 0.01964,-0.016 0.0088,-0.003 0.0057,-0.003 0.749825,-0.38085 c 0.0023,0.003 0.0048,0.005 0.0072,0.008 0.143302,-0.075 0.246466,-0.13128 0.269751,-0.14832 l 0.01912,-0.009 h -0.0031 c 3e-5,-1e-4 0.0021,-0.001 0.0021,-0.001 1.02e-4,-0.003 -0.183636,-0.006 -0.438216,-0.009 z m 19.475814,-5.1e-4 -0.470256,0.003 0.320394,0.16381 c 0.0025,-0.003 0.0052,-0.006 0.0078,-0.008 l 0.760677,0.38706 0.02481,0.0176 0.01033,0.009 0.02842,0.0408 0.0036,0.014 0.0072,0.0351 0.0021,0.006 v 2.76004 h 3.347599 l -1.156002,-1.60455 c -0.03537,-0.0478 -0.03504,-0.11347 -0.0021,-0.16124 l 1.16117,-1.65726 H 85.65472 c 0.0015,-0.002 0.0031,-0.005 0.0047,-0.005 z m -18.626253,0.80563 c 6.02e-4,4.6e-4 9.5e-4,0.001 0.0015,0.001 h -1.267106 v 4.62607 l 9.513631,0.005 0.640271,0.88883 0.639754,-0.88883 c 0.003,-0.003 9.514148,-0.005 9.514148,-0.005 v -4.62607 h -1.267623 c 5.01e-4,-4.5e-4 0.0011,-0.001 0.0021,-0.001 H 82.85129 c -0.001,4.6e-4 -0.0011,0.001 -0.0021,0.001 h -6.927743 v -0.001 z m -0.869715,0.32505 h 1.310515 c 0.0045,0.003 0.0089,0.006 0.01344,0.009 h 8.43411 v -0.009 h 6.284888 c -0.0066,0.003 -0.01292,0.006 -0.01964,0.009 h 2.168343 c 0.0045,-0.003 0.0089,-0.006 0.01344,-0.009 h 1.310514 c 0.07601,0 0.139526,0.0617 0.139526,0.13952 v 3.70107 c 0,0.0761 -0.06352,0.13953 -0.139526,0.13953 H 66.163403 c -0.07601,0 -0.137459,-0.0634 -0.137459,-0.13953 V 124.799 c 0,-0.0778 0.06146,-0.13952 0.137459,-0.13952 z m 12.43335,1.03198 c -0.0056,0 -0.01354,3.6e-4 -0.02377,10e-4 -0.186909,0.0279 -0.344514,0.0888 -0.47284,0.1819 -0.157152,0.11262 -0.235644,0.25394 -0.235644,0.42426 0,0.11727 0.03195,0.22412 0.09612,0.32091 0.0093,0.014 0.06856,0.0843 0.178284,0.21084 0.06323,0.0745 0.09508,0.14208 0.09508,0.20258 0,0.0949 -0.0485,0.16655 -0.14521,0.21497 -0.04371,0.0214 -0.132849,0.0474 -0.267684,0.078 -0.01395,0.003 -0.02119,0.009 -0.02119,0.0196 0,0.0288 0.03713,0.10855 0.110588,0.23978 0.07346,0.13029 0.120719,0.19585 0.14211,0.19585 0.0047,0 0.01065,-3.7e-4 0.01809,-10e-4 0.199927,-0.0326 0.369528,-0.10876 0.509013,-0.2279 0.158863,-0.13482 0.238597,-0.29653 0.238745,-0.48524 v -5.1e-4 c -1.12e-4,-0.10128 -0.03331,-0.20321 -0.09922,-0.30541 -0.0056,-0.007 -0.06742,-0.0852 -0.185518,-0.2341 -0.06695,-0.0828 -0.100253,-0.15304 -0.100253,-0.2098 0,-0.0633 0.02999,-0.11245 0.09043,-0.1478 0.05021,-0.0307 0.108748,-0.046 0.1757,-0.046 0.0093,0 0.02316,0.001 0.04082,0.004 0.01767,0.003 0.03029,0.004 0.03772,0.004 0.01674,0 0.02481,-0.007 0.02481,-0.0232 0,-0.004 -0.0013,-0.009 -0.0041,-0.0145 -0.08834,-0.17777 -0.144806,-0.30052 -0.168982,-0.36845 -0.0084,-0.0224 -0.01913,-0.0336 -0.03307,-0.0336 z m -7.316349,5.1e-4 c -0.0056,0 -0.01303,3.7e-4 -0.02326,0.001 -0.186909,0.0279 -0.34503,0.0883 -0.473356,0.18138 -0.157153,0.11262 -0.235644,0.25394 -0.235644,0.42426 0,0.11727 0.03247,0.22464 0.09664,0.32143 0.0093,0.014 0.06856,0.0843 0.178283,0.21084 0.06323,0.0745 0.09509,0.14156 0.09509,0.20206 0,0.0949 -0.0485,0.16655 -0.145211,0.21497 -0.04371,0.0214 -0.132849,0.0474 -0.267684,0.078 -0.01395,0.003 -0.02119,0.009 -0.02119,0.0196 0,0.0288 0.03661,0.10906 0.110071,0.24029 0.07347,0.1303 0.121242,0.19534 0.142627,0.19534 0.0047,0 0.01065,-3.7e-4 0.01809,-10e-4 0.199929,-0.0326 0.369529,-0.10825 0.509013,-0.22738 0.158864,-0.13482 0.238597,-0.29653 0.238745,-0.48524 v -5.2e-4 c -1.1e-4,-0.10127 -0.0333,-0.2032 -0.09922,-0.30541 -0.0056,-0.007 -0.06742,-0.0857 -0.185519,-0.23461 -0.06695,-0.0828 -0.100252,-0.15253 -0.100252,-0.20929 0,-0.0633 0.02999,-0.11296 0.09043,-0.14831 0.05022,-0.0307 0.108747,-0.046 0.1757,-0.046 0.0093,0 0.02264,0.001 0.04031,0.004 0.01767,0.003 0.03029,0.004 0.03772,0.004 0.01674,0 0.02532,-0.008 0.02532,-0.0238 0,-0.004 -0.0013,-0.009 -0.0041,-0.014 -0.08834,-0.17777 -0.144805,-0.30052 -0.168982,-0.36846 -0.0084,-0.0223 -0.01964,-0.0336 -0.03359,-0.0336 z m 3.258715,0.007 c -0.287337,0 -0.526019,0.10086 -0.715718,0.30282 -0.18598,0.19731 -0.279053,0.44074 -0.279053,0.73019 0,0.28852 0.09307,0.53124 0.279053,0.72761 0.189699,0.20103 0.428381,0.30127 0.715718,0.30127 0.289199,0 0.527984,-0.0995 0.716753,-0.29869 0.18505,-0.19638 0.277502,-0.43981 0.277502,-0.73019 0,-0.28759 -0.09318,-0.53102 -0.280086,-0.73019 -0.19063,-0.20196 -0.42869,-0.30282 -0.714169,-0.30282 z m 1.679485,0.0233 c -0.02697,0 -0.06409,0.004 -0.110588,0.0124 -0.05486,0.0101 -0.09147,0.0161 -0.110071,0.0181 -0.07904,0.007 -0.145534,0.0114 -0.199471,0.0114 -0.03626,0 -0.05426,0.01 -0.05426,0.0305 0,0.1061 0.004,0.26591 0.0124,0.47904 0.0093,0.21313 0.01395,0.37305 0.01395,0.48008 0,0.10145 -0.0048,0.25393 -0.01499,0.45682 -0.0093,0.20289 -0.01395,0.35423 -0.01395,0.45475 0,0.0289 0.01334,0.0434 0.04031,0.0434 h 0.482658 c 0.02511,0 0.03772,-0.016 0.03772,-0.0486 0,-0.10796 -0.0033,-0.27035 -0.0098,-0.48627 -0.0056,-0.21592 -0.0088,-0.3778 -0.0088,-0.48576 0,-0.0138 0.0039,-0.0238 0.01137,-0.0305 0.01022,0.006 0.01745,0.0112 0.02119,0.0165 0.131113,0.16846 0.228323,0.29585 0.292489,0.38241 0.234334,0.30992 0.385216,0.5102 0.452168,0.60048 0.02324,0.0307 0.04321,0.046 0.05994,0.046 0.02418,0 0.06017,0.002 0.108521,0.006 0.04836,0.004 0.08486,0.006 0.109037,0.006 0.02232,0 0.05562,-10e-4 0.100252,-0.003 0.04557,-0.002 0.07949,-0.003 0.101803,-0.003 0.02697,0 0.04082,-0.0126 0.04082,-0.0377 v -0.91984 c 0,-0.10703 0.004,-0.26684 0.0124,-0.47904 0.0093,-0.21313 0.01395,-0.37294 0.01395,-0.47904 v -5.2e-4 c 0,-0.0289 -0.0087,-0.0429 -0.02635,-0.0429 -0.05579,0 -0.14018,0.002 -0.252698,0.007 -0.112515,0.005 -0.196385,0.007 -0.252181,0.007 -0.01953,0 -0.02945,0.0173 -0.02945,0.0517 0,0.0987 0.0053,0.24597 0.0155,0.44235 0.01116,0.19638 0.01654,0.34359 0.01654,0.44132 0,0.0726 -0.006,0.10852 -0.01809,0.10852 -0.01673,0 -0.03669,-0.014 -0.05994,-0.0429 -0.09392,-0.12378 -0.164347,-0.21793 -0.21084,-0.28216 l -0.519865,-0.71365 c -0.02324,-0.0316 -0.04051,-0.047 -0.05168,-0.047 z m -8.21862,0.0207 c -0.102289,0 -0.239314,0.002 -0.411345,0.006 -0.253862,0.006 -0.39616,0.0112 -0.426847,0.0165 -0.02976,0.006 -0.04434,0.0167 -0.04341,0.0326 l 0.0015,0.0191 c 0.01767,0.22057 0.02635,0.5277 0.02635,0.92139 0,0.1033 -0.0053,0.25847 -0.0155,0.46509 -0.0093,0.20661 -0.01395,0.36116 -0.01395,0.46354 0,0.0235 0.01386,0.0381 0.04082,0.0434 0.02697,0.005 0.106803,0.008 0.239779,0.008 0.116238,0 0.201452,-0.002 0.256315,-0.006 0.01301,-0.001 0.02625,-0.002 0.03927,-0.003 0.0084,-0.003 0.0124,-0.0121 0.0124,-0.0279 0,-0.0633 -0.006,-0.15807 -0.01809,-0.28371 -0.01116,-0.12564 -0.01654,-0.21989 -0.01654,-0.28319 0,-0.0475 0.0067,-0.0713 0.02067,-0.0713 0.123674,0 0.171556,-0.001 0.143661,-0.003 0.06044,0.004 0.09902,0.0237 0.115755,0.06 0.07718,0.18149 0.134268,0.31879 0.170532,0.41186 0.02697,0.0717 0.04703,0.12598 0.06098,0.16226 0.0074,0.0159 0.01404,0.0252 0.01964,0.0279 0.0028,0.002 0.01468,0.004 0.03514,0.007 0.04371,0.005 0.12623,0.008 0.248046,0.008 0.142273,0 0.231313,-0.003 0.266651,-0.008 0.018,-0.003 0.02681,-0.007 0.02739,-0.0134 -3.05e-4,-0.0247 -0.05687,-0.15367 -0.170015,-0.38758 -0.113447,-0.23427 -0.170016,-0.35103 -0.170016,-0.35036 0,-0.0131 0.01066,-0.027 0.03204,-0.0419 0.105078,-0.0763 0.177468,-0.15519 0.216524,-0.23616 0.03906,-0.081 0.05839,-0.18917 0.05839,-0.32505 0,-0.20382 -0.0758,-0.3597 -0.227376,-0.46767 -0.133905,-0.0959 -0.306814,-0.14417 -0.518831,-0.14417 z m 0.77928,1.95285 5.17e-4,5.1e-4 v -0.001 z m 11.484054,-1.95079 c -0.185049,0 -0.292808,0.002 -0.323495,0.006 -0.02976,0.004 -0.04434,0.0144 -0.04341,0.032 l 0.0015,0.0191 c 0.0074,0.15264 0.0127,0.26733 0.0155,0.34365 0.01116,0.29782 0.01654,0.50079 0.01654,0.60875 0,0.10052 -0.006,0.25176 -0.01809,0.45372 -0.01116,0.20197 -0.01654,0.35259 -0.01654,0.45217 0,0.0235 0.01334,0.0381 0.04031,0.0434 0.06509,0.0139 0.269234,0.0207 0.612366,0.0207 h 0.0987 c 0.0437,6.6e-4 0.07752,0.001 0.100769,0.001 0.305936,0 0.519489,-0.0644 0.641305,-0.19379 0.106938,-0.11261 0.160713,-0.25456 0.160713,-0.42581 0,-0.0819 -0.01665,-0.15891 -0.05013,-0.23151 -0.0372,-0.081 -0.08839,-0.14003 -0.153479,-0.17725 -0.02418,-0.0138 -0.03617,-0.0243 -0.03617,-0.031 0,0.003 0.01675,-0.0146 0.05116,-0.0527 0.03906,-0.0437 0.07091,-0.0875 0.09509,-0.13125 0.03348,-0.0614 0.05013,-0.11978 0.05013,-0.17467 0,-0.21034 -0.07187,-0.35962 -0.216007,-0.44804 -0.108799,-0.0661 -0.277674,-0.10321 -0.506429,-0.11162 -0.05021,-0.002 -0.223745,-0.003 -0.520382,-0.003 z m -8.017599,0.005 c -0.247353,0 -0.407025,0.005 -0.479557,0.0139 -0.02976,0.004 -0.04372,0.0144 -0.04186,0.032 l 0.001,0.0196 c 0.02511,0.32202 0.03772,0.62915 0.03772,0.92139 0,0.1033 -0.0014,0.25857 -0.0052,0.46612 -0.0028,0.20662 -0.0047,0.36179 -0.0047,0.46509 0,0.027 0.01386,0.0403 0.04082,0.0403 0.05672,0 0.141834,10e-4 0.255282,0.004 0.113449,0.004 0.198559,0.006 0.255282,0.006 0.01953,0 0.02894,-0.0106 0.02894,-0.032 0,-0.0419 -0.004,-0.10496 -0.0124,-0.18966 -0.0084,-0.0847 -0.0124,-0.14838 -0.0124,-0.1912 0,-0.0344 0.01996,-0.0517 0.05994,-0.0517 0.0372,0 0.09304,0.002 0.167432,0.007 0.07532,0.004 0.131268,0.006 0.168465,0.006 0.222246,0 0.3965,-0.0742 0.522966,-0.22221 0.118097,-0.1396 0.17725,-0.32202 0.17725,-0.54725 0,-0.21965 -0.06856,-0.39742 -0.206189,-0.5333 -0.134835,-0.132 -0.312399,-0.20159 -0.532784,-0.20826 -0.133906,-0.004 -0.274136,-0.006 -0.42013,-0.006 z m 10.054167,0 c -0.03069,0 -0.0765,0.002 -0.136942,0.006 -0.06044,0.003 -0.10574,0.004 -0.136426,0.004 -0.02696,0 -0.06823,-0.001 -0.124024,-0.004 -0.05487,-0.003 -0.09665,-0.004 -0.12454,-0.004 -0.0279,0 -0.04186,0.01 -0.04186,0.0305 0,0.10796 0.0033,0.26984 0.0098,0.48575 0.0065,0.215 0.0098,0.37677 0.0098,0.48473 0,0.10145 -0.0014,0.25342 -0.0052,0.4563 -0.0028,0.20197 -0.0047,0.35383 -0.0047,0.45527 0,0.0242 0.01386,0.0382 0.04082,0.0429 0.07811,0.005 0.137986,0.007 0.179834,0.006 l 0.417029,0.006 c 0.04091,6.6e-4 0.145261,0.003 0.312642,0.007 0.128326,0.004 0.232155,0.006 0.312126,0.006 v -0.002 c 0.03346,0 0.0527,-5.8e-4 0.05736,-0.003 0.01487,-0.005 0.02427,-0.0192 0.02894,-0.0434 0.02325,-0.11541 0.03514,-0.25272 0.03514,-0.41187 0,-0.0214 -0.01262,-0.032 -0.03772,-0.032 -0.08369,0 -0.20934,0.005 -0.376721,0.0139 -0.166452,0.008 -0.291481,0.0124 -0.375171,0.0124 h -0.03617 c -0.01301,-0.003 -0.01974,-0.009 -0.02067,-0.0207 -9.33e-4,-0.0111 -0.0022,-0.0224 -0.0031,-0.0336 -9.33e-4,-0.0549 -0.0015,-0.14183 -0.0015,-0.26097 l 0.0015,-0.36897 c 0.01395,-0.35087 0.02656,-0.6136 0.03772,-0.78858 l 0.0016,-0.0181 c 9.26e-4,-0.0177 -0.0057,-0.0264 -0.01964,-0.0264 z m -3.208073,5.2e-4 c -0.02139,0 -0.03204,0.0105 -0.03204,0.031 0,0.0996 0.0033,0.24887 0.0098,0.44804 0.0065,0.19917 0.0098,0.34845 0.0098,0.44803 0,0.11821 -0.0086,0.36566 -0.02532,0.74259 -0.0084,0.17868 -0.0124,0.26086 -0.0124,0.24598 0,0.0236 0.01334,0.0381 0.04031,0.0434 0.0372,0.007 0.12365,0.0108 0.259415,0.0108 0.101362,0 0.182439,-0.003 0.24288,-0.0108 0.02231,-0.003 0.03431,-0.006 0.03617,-0.006 0.0084,-0.005 0.0124,-0.016 0.0124,-0.0346 0,-0.10982 -0.0027,-0.27501 -0.0083,-0.49558 -0.0056,-0.22058 -0.0083,-0.38575 -0.0083,-0.49558 0,-0.0996 0.0048,-0.24886 0.01499,-0.44803 0.01116,-0.19917 0.01705,-0.34845 0.01705,-0.44804 0,-0.0205 -0.01334,-0.031 -0.04031,-0.031 -0.02883,0 -0.07195,0.001 -0.128675,0.004 -0.05579,0.003 -0.09778,0.004 -0.126607,0.004 -0.02883,0 -0.07268,-10e-4 -0.131258,-0.004 -0.05765,-0.003 -0.10088,-0.004 -0.129708,-0.004 z m -10.12393,10e-4 c -0.02512,0 -0.03649,0.0106 -0.03462,0.032 l 0.001,0.0196 c 0.0074,0.14797 0.0127,0.25937 0.0155,0.33383 0.01116,0.28944 0.01654,0.48714 0.01654,0.59324 0,0.10425 -0.006,0.26085 -0.01809,0.47026 -0.01116,0.20847 -0.01654,0.36498 -0.01654,0.46922 0,0.027 0.0153,0.0403 0.04599,0.0403 0.07067,0 0.176466,3.6e-4 0.31781,0.001 0.141345,6.7e-4 0.248275,0.001 0.319877,0.001 0.328254,0 0.52588,0.005 0.593762,0.014 0.01952,0.003 0.03349,0.004 0.04186,0.004 0.01953,0 0.03483,-0.009 0.04599,-0.0263 0.01302,-0.0223 0.02822,-0.0919 0.04496,-0.20826 0.01573,-0.10654 0.0237,-0.17948 0.02377,-0.21962 v -5.2e-4 -5.2e-4 c -2.66e-4,-0.0326 -0.01082,-0.0491 -0.03101,-0.0491 -0.04835,0 -0.120952,0.005 -0.218591,0.014 -0.09671,0.008 -0.169823,0.0124 -0.219108,0.0124 H 69.69342 c -0.10322,-0.007 -0.162994,-0.0272 -0.1788,-0.0625 -0.0093,-0.0205 -0.01395,-0.0662 -0.01395,-0.13695 0,-0.053 6.18e-4,-0.0816 0.0016,-0.0863 0.0065,-0.0186 0.02854,-0.0279 0.06666,-0.0279 h 0.148312 c 0.188769,0 0.309248,0.002 0.362251,0.008 l 0.125574,0.0139 c 0.02697,0 0.04082,-0.009 0.04082,-0.0279 0,-0.0745 0.0034,-0.14879 0.01085,-0.22325 0.01674,-0.16193 0.02532,-0.23296 0.02532,-0.21342 0,-0.0214 -0.01127,-0.032 -0.03359,-0.032 -0.0186,0 -0.04383,0.002 -0.07545,0.006 -0.04092,0.004 -0.06625,0.007 -0.07648,0.007 -0.119957,0.007 -0.238884,0.01 -0.356051,0.01 -0.01767,0 -0.03969,10e-4 -0.06666,0.003 -0.02697,6.7e-4 -0.04496,10e-4 -0.05426,10e-4 -0.04463,0 -0.07514,-0.009 -0.09095,-0.0269 -0.0186,-0.0205 -0.02791,-0.0623 -0.02791,-0.12557 0,-0.0605 0.0026,-0.0963 0.0072,-0.10749 0.01116,-0.0233 0.04115,-0.0346 0.09043,-0.0346 0.197138,0 0.419273,0.01 0.666626,0.0305 0.01393,6.6e-4 0.02386,0.001 0.02945,0.001 0.0186,0 0.02791,-0.01 0.02791,-0.0295 0,-0.0233 -0.0053,-0.0889 -0.0155,-0.19689 -0.0093,-0.10889 -0.01601,-0.17393 -0.02067,-0.19534 -0.0074,-0.0363 -0.03536,-0.0543 -0.08372,-0.0543 -0.06788,0 -0.170263,0.002 -0.306958,0.006 -0.136695,0.004 -0.239075,0.006 -0.306958,0.006 -0.06881,0 -0.172537,-0.002 -0.311092,-0.006 -0.137625,-0.004 -0.240729,-0.006 -0.309542,-0.006 z m 14.351579,0 c -0.02512,0 -0.03649,0.0106 -0.03462,0.032 l 0.001,0.0191 c 0.0074,0.14798 0.0127,0.25937 0.0155,0.33383 0.01116,0.28944 0.01654,0.48715 0.01654,0.59325 0,0.10424 -0.006,0.26136 -0.01809,0.47077 -0.01116,0.20847 -0.01654,0.36446 -0.01654,0.4687 0,0.027 0.0153,0.0408 0.04599,0.0408 0.07067,0 0.176465,3.6e-4 0.31781,0.001 0.141344,6.7e-4 0.248274,0.001 0.319877,0.001 0.328253,0 0.525879,0.005 0.593762,0.014 0.01952,0.003 0.03349,0.004 0.04186,0.004 0.01953,0 0.03483,-0.009 0.04599,-0.0264 0.01301,-0.0223 0.02822,-0.0914 0.04496,-0.20774 0.01573,-0.10654 0.0237,-0.17948 0.02377,-0.21962 v -5.2e-4 -5.2e-4 c -2.66e-4,-0.0326 -0.01082,-0.0491 -0.03101,-0.0491 -0.04836,0 -0.120952,0.005 -0.218592,0.014 -0.09671,0.008 -0.169822,0.0124 -0.219108,0.0124 h -0.203605 c -0.103221,-0.007 -0.162994,-0.0277 -0.1788,-0.063 -0.0093,-0.0205 -0.01395,-0.0657 -0.01395,-0.13643 0,-0.053 6.17e-4,-0.0821 0.0016,-0.0868 0.0065,-0.0186 0.02854,-0.0279 0.06666,-0.0279 h 0.148311 c 0.188769,0 0.309248,0.003 0.362252,0.008 l 0.125574,0.0139 c 0.02697,0 0.04082,-0.009 0.04082,-0.0279 0,-0.0745 0.0034,-0.14879 0.01085,-0.22325 0.01674,-0.16193 0.02532,-0.23348 0.02532,-0.21394 0,-0.0214 -0.01127,-0.032 -0.03359,-0.032 -0.0186,0 -0.04384,0.002 -0.07545,0.006 -0.04091,0.004 -0.06625,0.006 -0.07648,0.007 -0.119956,0.007 -0.238883,0.0103 -0.35605,0.0103 -0.01767,0 -0.0397,5.8e-4 -0.06666,0.003 -0.02696,6.7e-4 -0.04496,0.001 -0.05426,0.001 -0.04463,0 -0.07514,-0.009 -0.09095,-0.0264 -0.0186,-0.0205 -0.02791,-0.0623 -0.02791,-0.12557 0,-0.0605 0.0026,-0.0963 0.0072,-0.10749 0.01116,-0.0233 0.04115,-0.0351 0.09043,-0.0351 0.197138,0 0.419273,0.0105 0.666626,0.031 0.01393,6.6e-4 0.02386,10e-4 0.02945,10e-4 0.0186,0 0.02791,-0.01 0.02791,-0.0295 0,-0.0233 -0.0053,-0.0889 -0.0155,-0.19689 -0.0093,-0.10889 -0.01601,-0.17393 -0.02067,-0.19534 -0.0074,-0.0363 -0.03536,-0.0543 -0.08372,-0.0543 -0.06788,0 -0.170263,0.002 -0.306958,0.006 -0.136695,0.004 -0.239075,0.006 -0.306958,0.006 -0.06881,0 -0.172537,-0.002 -0.311092,-0.006 -0.137625,-0.004 -0.240729,-0.006 -0.309542,-0.006 z m -2.709912,0.38861 c 0.10229,0 0.175508,0.007 0.220142,0.0207 0.07997,0.0261 0.119889,0.0791 0.119889,0.15916 0,0.11448 -0.0998,0.17157 -0.299723,0.17157 -0.107868,0 -0.167022,-0.004 -0.177251,-0.0124 -0.01581,-0.0112 -0.02377,-0.0635 -0.02377,-0.15657 0,-0.0177 0.0013,-0.0442 0.0041,-0.0796 0.0037,-0.0363 0.0057,-0.0629 0.0057,-0.0806 0,-0.0149 0.05047,-0.0222 0.150895,-0.0222 z m -12.797668,0.0165 c 0.122745,0 0.212612,0.0172 0.270267,0.0507 0.07439,0.0437 0.111621,0.12209 0.111621,0.23564 0,0.16194 -0.101759,0.2434 -0.305407,0.2434 -0.0623,0 -0.122079,-0.005 -0.178801,-0.0129 -0.02975,-0.005 -0.04444,-0.009 -0.04444,-0.0139 0,-0.0205 -6.17e-4,-0.0516 -0.0015,-0.0935 -9.33e-4,-0.0419 -0.001,-0.0737 -0.001,-0.0951 0,-0.15081 0.0027,-0.24176 0.0083,-0.27337 0.0056,-0.027 0.05274,-0.0408 0.141077,-0.0408 z m 4.720125,0.0377 c 0.211087,0 0.31626,0.10871 0.31626,0.32556 0,0.20382 -0.100519,0.30541 -0.302308,0.30541 -0.167381,0 -0.251147,-0.009 -0.251147,-0.0279 0,-0.0289 -0.0013,-0.0713 -0.0041,-0.12712 -0.0019,-0.0568 -0.0031,-0.0993 -0.0031,-0.12816 0,-0.20291 0.0033,-0.31039 0.0098,-0.32246 0.0074,-0.0167 0.08583,-0.0253 0.234611,-0.0253 z m 2.007112,0.0248 c 0.137626,0 0.250657,0.0516 0.338998,0.154 0.08462,0.0977 0.126607,0.21593 0.126607,0.35553 0,0.13309 -0.04333,0.25037 -0.130741,0.35088 -0.09206,0.10518 -0.203748,0.15762 -0.334864,0.15762 -0.140413,0 -0.254687,-0.0498 -0.342098,-0.14935 -0.08276,-0.0949 -0.124023,-0.21365 -0.124023,-0.35605 0,-0.13309 0.04447,-0.25109 0.132808,-0.35346 0.09113,-0.1061 0.202198,-0.15917 0.333313,-0.15917 z m 6.130376,0.68265 c 0.10043,0 0.172923,0.01 0.217557,0.0284 0.06974,0.0298 0.104387,0.0862 0.104387,0.17002 0,0.081 -0.03392,0.13525 -0.101803,0.16226 -0.04091,0.0158 -0.111444,0.0238 -0.211873,0.0238 -0.121817,0 -0.188933,-0.006 -0.201021,-0.017 -0.01209,-0.0121 -0.01809,-0.0731 -0.01809,-0.18294 0,-0.1052 0.0053,-0.16168 0.0155,-0.17001 0.01023,-0.009 0.07538,-0.0145 0.195337,-0.0145 z" />
          </g>
        </g>
      </g>
    </g>
  </g>
</svg>
