<?xml version="1.0" encoding="UTF-8" standalone="no"?>
<!-- Created with Inkscape (http://www.inkscape.org/) -->

<svg
   width="30.000059mm"
   height="26.312634mm"
   viewBox="0 0 30.000059 26.312633"
   version="1.1"
   id="svg154673"
   inkscape:version="1.3 (0e150ed6c4, 2023-07-21)"
   sodipodi:docname="hoc-pins-integrity.svg"
   xmlns:inkscape="http://www.inkscape.org/namespaces/inkscape"
   xmlns:sodipodi="http://sodipodi.sourceforge.net/DTD/sodipodi-0.dtd"
   xmlns="http://www.w3.org/2000/svg"
   xmlns:svg="http://www.w3.org/2000/svg">
  <sodipodi:namedview
     id="namedview154675"
     pagecolor="#ffffff"
     bordercolor="#666666"
     borderopacity="1.0"
     inkscape:showpageshadow="2"
     inkscape:pageopacity="0.0"
     inkscape:pagecheckerboard="0"
     inkscape:deskcolor="#d1d1d1"
     inkscape:document-units="mm"
     showgrid="false"
     inkscape:zoom="2.2249063"
     inkscape:cx="87.64414"
     inkscape:cy="63.598184"
     inkscape:window-width="1920"
     inkscape:window-height="991"
     inkscape:window-x="-9"
     inkscape:window-y="-9"
     inkscape:window-maximized="1"
     inkscape:current-layer="g139062"
     showguides="true" />
  <defs
     id="defs154670" />
  <g
     inkscape:label="Layer 1"
     inkscape:groupmode="layer"
     id="layer1"
     transform="translate(-41.820503,-175.54286)">
    <g
       id="g150107"
       transform="translate(-9.7057584,58.468106)">
      <g
         id="g139062"
         transform="matrix(1.1912363,0,0,1.1911925,31.574771,-97.685146)"
         style="stroke-width:0.839479">
        <g
           id="g2480"
           transform="matrix(0.83946402,0,0,0.83949489,-5.6014601,92.854316)">
          <path
             style="fill:#bfbfbf;fill-opacity:1;fill-rule:nonzero;stroke:#cc0000;stroke-width:0.104973;stroke-dasharray:none"
             d="m 32.244956,104.29863 v 2.5e-4 l -1.893206,4.42821 c 1.425843,1.07402 2.249871,2.29963 2.450138,3.64301 0.185497,1.24352 -0.312705,2.15163 -0.889641,3.20246 -0.63782,1.15966 -1.360612,2.47653 -1.360612,4.61919 0,1.36037 0.333474,2.41501 0.886534,3.26362 h -4.716184 l 1.500687,2.26101 c 0.03006,0.0478 0.02996,0.10769 -0.002,0.15552 l -1.49525,2.20969 h 4.468141 l 0.01547,0.66961 v 1.01169 h 4.973288 5.001823 l 0.440876,0.61244 0.454646,-0.63156 9.975313,0.0189 V 128.751 l 0.003,-0.67323 h 4.465033 l -1.497321,-2.20945 c -0.03182,-0.0459 -0.03182,-0.10801 0,-0.15568 l 1.500688,-2.26101 h -4.711783 c 0.551625,-0.84796 0.883948,-1.90162 0.883948,-3.25999 0,-2.14264 -0.722806,-3.45953 -1.360614,-4.61919 -0.576853,-1.05083 -1.075259,-1.95894 -0.8899,-3.20246 0.200459,-1.34337 1.024783,-2.56897 2.450397,-3.643 l -1.893465,-4.4282 c -2.383961,1.47366 -5.792985,2.31749 -9.379807,2.31749 -3.586752,0 -6.995975,-0.84383 -9.380067,-2.31749 z"
             id="path145296"
             sodipodi:nodetypes="cccccsccccccccccccccccccccsccccscc" />
          <path
             id="path145298"
             style="fill:#000000;fill-opacity:1;fill-rule:nonzero;stroke:none;stroke-width:0.04629"
             d="m 32.24506,104.29854 -1.893424,4.42816 c 1.425843,1.07403 2.250231,2.29981 2.450496,3.64319 0.185497,1.2435 -0.312932,2.15156 -0.889868,3.20238 -0.637818,1.15967 -1.36064,2.47669 -1.36064,4.61936 0,1.36037 0.333706,2.41476 0.886767,3.26337 h -4.716508 l 1.500684,2.26136 c 0.03006,0.0478 0.02991,0.10771 -0.0021,0.15554 l -1.495,2.20969 h 4.467945 v -0.32401 H 27.57041 c -0.05116,-9e-5 -0.09881,-0.0285 -0.123507,-0.076 -0.02299,-0.0461 -0.0195,-0.10063 0.0124,-0.14314 l 1.254704,-1.74615 -1.256771,-1.79575 c -0.03006,-0.0425 -0.03355,-0.097 -0.0088,-0.14315 0.02299,-0.046 0.07068,-0.0744 0.121956,-0.0744 h 4.096391 c 0.0028,0.003 0.0055,0.008 0.0083,0.0109 h 1.219564 l 0.299723,-0.15865 0.30024,-0.15813 h 0.219625 c 0.187547,0 0.218623,0.005 0.21239,0.0351 -0.0044,0.0211 -0.418698,0.24548 -1.024227,0.55397 l -0.675411,0.34417 c 0.0028,0.003 0.0055,0.005 0.0083,0.008 l -0.319877,0.16227 h 0.494026 c 0.0013,10e-4 0.0027,0.003 0.0041,0.003 l 9.211841,5.1e-4 v -0.31419 c 0.891369,-1.2e-4 1.631503,-0.31166 2.22002,-0.93534 0.577091,-0.60935 0.86558,-1.36197 0.86558,-2.25723 0,-0.89815 -0.288489,-1.65326 -0.86558,-2.26549 -0.588632,-0.62668 -1.328933,-0.94 -2.220537,-0.94 v 1.61592 c 0.406847,0 0.751789,0.16429 1.034563,0.49351 0.274118,0.31769 0.411344,0.68309 0.411344,1.09606 0,0.44186 -0.128184,0.81027 -0.384989,1.10484 -0.27123,0.30901 -0.625212,0.46354 -1.060918,0.46354 v 1.62367 c -0.891366,-1.2e-4 -1.631504,-0.31219 -2.220019,-0.93586 -0.577094,-0.60935 -0.86558,-1.36144 -0.86558,-2.25671 0,-0.89815 0.288486,-1.65377 0.86558,-2.26601 0.58857,-0.62662 1.328537,-0.93994 2.220019,-0.93999 -4.1e-5,-1.33601 5e-5,-2.5125 0,-3.9455 l -2.006595,2.00711 0.772562,0.77308 -0.342098,0.34159 -0.268717,-0.26872 0.160714,-0.1602 -0.173633,-0.1726 -0.160197,0.1602 -0.181901,0.18242 -0.115239,0.11627 0.172083,0.1726 0.116789,-0.11679 0.268717,0.26975 -0.393258,0.39274 -0.772562,-0.77308 -0.214458,0.21394 -0.403592,-0.40307 3.138309,-3.1409 -0.313159,-0.31264 -0.133842,0.13332 c -0.04785,0.0488 -0.146849,0.0271 -0.221692,-0.047 -0.07395,-0.0749 -0.09571,-0.17345 -0.04702,-0.22221 l 0.201021,-0.20102 -0.173633,-0.17363 -0.200504,0.20205 c -0.04785,0.0478 -0.147375,0.0259 -0.222209,-0.0481 -0.07393,-0.0741 -0.09571,-0.17292 -0.04703,-0.22169 L 40.264738,112.42323 39.842025,112 l -0.201022,0.20206 c -0.04785,0.0478 -0.147372,0.0265 -0.222208,-0.0475 -0.07395,-0.0741 -0.09437,-0.17328 -0.04651,-0.22117 l 0.05529,-0.0568 c -1.378234,0.0697 -2.325521,0.0376 -2.826701,-0.25942 -0.906662,-0.53731 -0.804157,-1.62512 -0.0646,-2.10581 -0.171413,-0.28302 -0.431341,-0.84031 -0.09198,-1.18081 0.350659,-0.35096 0.917656,-0.0756 1.183907,0.0873 0.241445,-0.36663 0.632793,-0.57539 1.030428,-0.57929 0.397648,-0.005 0.802142,0.19709 1.069702,0.64905 0.296703,0.50159 0.328477,1.44986 0.258899,2.82929 l 0.05581,-0.0558 c 0.04871,-0.0478 0.147745,-0.0271 0.221692,0.047 0.07397,0.0749 0.09575,0.17381 0.04702,0.2217 l -0.201021,0.20153 0.422713,0.42323 0.201538,-0.20153 c 0.04875,-0.0478 0.14775,-0.0266 0.221692,0.0475 0.07397,0.0749 0.09578,0.17379 0.04703,0.22169 l -0.201538,0.20154 0.173632,0.17311 0.201022,-0.20102 c 0.04785,-0.0478 0.146869,-0.0271 0.221692,0.047 0.07397,0.0749 0.09577,0.1738 0.04702,0.22169 l -0.133842,0.13436 0.313159,0.31316 c -7.1e-5,-1.80444 1.05e-4,-5.42603 0,-5.42603 h 5.17e-4 c 3.246532,-0.008 6.437641,-0.68491 8.863542,-1.88205 l 1.11311,2.60294 c -1.257308,1.12578 -1.9993,2.40159 -2.20865,3.8039 -0.238844,1.60208 0.396261,2.75814 1.010791,3.87677 0.603687,1.099 1.228348,2.23573 1.228348,4.10362 0,1.44146 -0.444782,2.46454 -1.174088,3.25975 h -0.722954 l 0.483175,0.24547 c -0.0025,0.003 -0.0051,0.005 -0.0078,0.008 l 0.167431,0.0853 h 1.196826 c 0.0034,-0.005 0.0072,-0.009 0.01085,-0.0139 h 4.090189 c 0.05125,0 0.09875,0.0279 0.123507,0.0739 0.02299,0.046 0.01946,0.10285 -0.0088,0.14521 l -1.258321,1.79369 1.256771,1.74614 c 0.03006,0.0425 0.03507,0.0988 0.01033,0.1447 -0.02299,0.0461 -0.07049,0.0744 -0.123507,0.0744 h -3.618384 v 0.32401 h 4.465361 L 55.02551,125.8682 c -0.03181,-0.046 -0.03181,-0.10788 0,-0.15555 l 1.500683,-2.26084 h -4.711857 c 0.551625,-0.84797 0.884184,-1.90191 0.884184,-3.26027 0,-2.14265 -0.722833,-3.45969 -1.36064,-4.61935 -0.576852,-1.05083 -1.075224,-1.95887 -0.889869,-3.20239 0.200461,-1.34338 1.024886,-2.56865 2.450497,-3.64267 l -1.893425,-4.42816 c -2.383967,1.47368 -5.792959,2.31717 -9.379789,2.31717 -3.586759,0 -6.996209,-0.84349 -9.380306,-2.31717 z m 9.379789,9.62267 2.007113,2.00815 -0.772563,0.77256 0.342098,0.3421 0.268718,-0.26924 -0.160197,-0.16019 0.173116,-0.1726 0.160197,0.16071 0.181901,0.1819 0.115238,0.11679 -0.172082,0.17208 -0.116272,-0.11678 -0.269234,0.27026 0.393257,0.39274 0.77308,-0.77359 0.21394,0.21446 0.403593,-0.40308 -3.137793,-3.14089 0.312643,-0.31316 0.133842,0.13332 c 0.04785,0.0488 0.146851,0.0271 0.221691,-0.047 0.07393,-0.0749 0.09573,-0.17343 0.04703,-0.22221 l -0.201021,-0.20102 0.173632,-0.17364 0.201022,0.20206 c 0.04785,0.0478 0.146869,0.0259 0.221692,-0.0481 0.07393,-0.0741 0.09572,-0.17293 0.04703,-0.22169 l -0.201021,-0.20102 0.422713,-0.42323 0.201021,0.20153 c 0.04785,0.0478 0.147385,0.0266 0.222209,-0.0475 0.07395,-0.0739 0.09436,-0.17328 0.04651,-0.22117 l -0.05529,-0.0568 c 1.378234,0.0697 2.325523,0.0376 2.826701,-0.25941 0.906662,-0.53731 0.804171,-1.6251 0.06459,-2.10582 0.171415,-0.28301 0.43133,-0.84032 0.09199,-1.1808 -0.350655,-0.35095 -0.917657,-0.0755 -1.183908,0.0873 -0.241443,-0.36662 -0.632775,-0.57539 -1.030428,-0.57929 -0.39765,-0.005 -0.801625,0.19709 -1.069185,0.64905 -0.296708,0.50161 -0.328994,1.44988 -0.259416,2.82929 l -0.05581,-0.0558 c -0.04871,-0.0478 -0.147756,-0.0271 -0.221692,0.047 -0.07397,0.0749 -0.09575,0.17431 -0.04703,0.22221 l 0.201022,0.20102 -0.422714,0.42323 -0.201021,-0.20102 c -0.04875,-0.0478 -0.148261,-0.0269 -0.222209,0.047 -0.07397,0.0749 -0.09576,0.17379 -0.04703,0.22169 l 0.201021,0.20154 -0.173116,0.17311 -0.201021,-0.20102 c -0.04785,-0.0478 -0.146868,-0.0271 -0.221692,0.047 -0.07397,0.0749 -0.09575,0.17431 -0.04703,0.2222 l 0.133842,0.13385 -0.313159,0.31367 -5.17e-4,-5.1e-4 v 0.80821 z m 0,8.7204 c -1.4e-5,-1.00136 2.5e-5,-2.11481 0,-3.15795 -0.406844,0 -0.751271,0.16429 -1.034045,0.49351 -0.274122,0.31769 -0.411344,0.68308 -0.411344,1.09606 0,0.44184 0.128177,0.81025 0.384989,1.10484 0.271231,0.30901 0.624696,0.46354 1.0604,0.46354 z m -2.968811,-14.30352 c -0.425267,0.008 -0.843416,0.36553 -0.881083,1.09864 -0.01032,0.20291 -0.110607,0.22342 -0.162781,0.22428 -1.153776,0.0244 -1.428248,0.96407 -0.910538,1.48311 0.577733,0.57737 2.832902,0.28009 2.832902,0.28009 0,0 0.296776,-2.25724 -0.280087,-2.83549 -0.159063,-0.15893 -0.357485,-0.24296 -0.557071,-0.25011 -0.01376,-4.7e-4 -0.02761,-0.001 -0.04134,-5.2e-4 z m 5.938139,0 c 0.425264,0.008 0.842899,0.36603 0.880567,1.09916 0.01032,0.20291 0.110592,0.2229 0.16278,0.22376 1.153774,0.0244 1.428765,0.96409 0.911056,1.48311 -0.577728,0.57739 -2.832902,0.28009 -2.832902,0.28009 0,0 -0.296789,-2.25724 0.280086,-2.83549 0.159065,-0.15893 0.357479,-0.24295 0.557072,-0.25011 0.01376,-4.5e-4 0.02761,-0.001 0.04134,-5.2e-4 z m -7.734411,0.17983 c -0.06507,0.003 -0.121915,0.022 -0.164331,0.0646 -0.153136,0.15333 0.01393,0.53428 0.16278,0.77463 0.158348,-0.0531 0.334473,-0.0827 0.527617,-0.0827 0,-0.19595 0.03094,-0.37462 0.08578,-0.53485 -0.140709,-0.0875 -0.383452,-0.21368 -0.574126,-0.2217 -0.01266,-4.3e-4 -0.02554,-4.3e-4 -0.03772,0 z m 9.49296,0 c 0.01266,-4.5e-4 0.02503,-4.5e-4 0.03721,0 0.06507,0.003 0.122438,0.0222 0.164848,0.0646 0.153136,0.15333 -0.01386,0.53426 -0.162781,0.77463 -0.158348,-0.0532 -0.334988,-0.0827 -0.528133,-0.0827 0,-0.19594 -0.03042,-0.37461 -0.08527,-0.53485 0.14071,-0.0875 0.383446,-0.21319 0.574125,-0.22118 z m 1.768885,8.30544 c -0.859868,0 -1.568046,0.32057 -2.124935,0.9617 -0.533811,0.61224 -0.800985,1.35759 -0.800985,2.23552 0,0.90683 0.272686,1.65767 0.818038,2.25258 0.559776,0.61514 1.289785,0.92294 2.190047,0.92294 0.880061,0 1.585742,-0.31632 2.116667,-0.94878 0.06059,-0.075 0.09095,-0.13564 0.09095,-0.1819 0,-0.0318 -0.10562,-0.20808 -0.31626,-0.52865 -0.204863,-0.30899 -0.330037,-0.48957 -0.376204,-0.54157 -0.02884,-0.0318 -0.05795,-0.0475 -0.08682,-0.0475 -0.01443,0 -0.08491,0.0546 -0.211874,0.16433 -0.15293,0.12995 -0.302945,0.23112 -0.450101,0.30334 -0.225065,0.10973 -0.463133,0.16485 -0.714169,0.16485 -0.424162,0 -0.763591,-0.1618 -1.017509,-0.48525 -0.233722,-0.29746 -0.350366,-0.66588 -0.350366,-1.10484 0,-0.43319 0.116644,-0.79684 0.350366,-1.0914 0.253918,-0.31768 0.593347,-0.47646 1.017509,-0.47646 0.245264,0 0.481567,0.0576 0.709518,0.17312 0.150043,0.078 0.303072,0.18642 0.458886,0.32504 0.129838,0.11551 0.202091,0.17312 0.216525,0.17312 0.03463,0 0.06322,-0.0115 0.0863,-0.0346 0.05194,-0.0433 0.177629,-0.24092 0.376721,-0.59324 0.201981,-0.35228 0.302824,-0.55588 0.302824,-0.61082 0,-0.0491 -0.02859,-0.10545 -0.0863,-0.16898 -0.530925,-0.57471 -1.263948,-0.86248 -2.198832,-0.86248 z m -15.909624,0.14314 c 0.08946,0 0.223663,0.005 0.40256,0.0124 0.181785,0.009 0.317244,0.0129 0.406693,0.0129 0.09233,0 0.231328,-0.005 0.415996,-0.0129 0.187554,-0.009 0.327277,-0.0124 0.419612,-0.0124 0.04905,0 0.07338,0.0259 0.07338,0.078 0,0.21659 -0.01581,0.54142 -0.04754,0.97461 -0.03175,0.43029 -0.04754,0.7539 -0.04754,0.97049 0,0.10113 0.02734,0.16043 0.08217,0.17776 0.07503,0.0231 0.444289,0.0346 1.107942,0.0346 0.617473,0 0.975217,-0.0108 1.07332,-0.0346 0.06926,-0.0174 0.104386,-0.0768 0.104386,-0.17776 0,-0.20792 -0.01025,-0.52125 -0.03049,-0.94 -0.0202,-0.42163 -0.03049,-0.73795 -0.03049,-0.94878 0,-0.0896 0.03586,-0.13436 0.108004,-0.13436 0.08367,0 0.210612,0.005 0.380855,0.0124 0.173128,0.009 0.303076,0.0124 0.38964,0.0124 0.08367,0 0.210615,-0.005 0.380856,-0.0124 0.173126,-0.009 0.303081,-0.0124 0.38964,-0.0124 0.08369,0 0.125574,0.0344 0.125574,0.10387 0,0.33213 -0.01456,0.83328 -0.04341,1.50327 -0.02595,0.67001 -0.03876,1.17241 -0.03876,1.5074 0,0.3148 0.01456,0.78688 0.04341,1.41645 0.03171,0.62958 0.04754,1.10043 0.04754,1.41232 0,0.0606 -0.01332,0.0981 -0.03927,0.11266 -0.01157,0.009 -0.05169,0.0159 -0.120923,0.0217 -0.176014,0.0173 -0.424371,0.0258 -0.744658,0.0258 -0.453015,0 -0.719675,-0.008 -0.800468,-0.0258 -0.07791,-0.0174 -0.116788,-0.0562 -0.116788,-0.11679 0,-0.22814 0.0097,-0.57052 0.02997,-1.02681 0.0231,-0.45919 0.03462,-0.80281 0.03462,-1.03095 0,-0.1127 -0.03163,-0.17749 -0.09508,-0.19482 -0.09811,-0.0231 -0.44732,-0.0351 -1.047482,-0.0351 -0.60306,0 -0.95476,0.0113 -1.055749,0.0351 -0.06348,0.0141 -0.0956,0.0793 -0.0956,0.19482 0,0.22525 0.0073,0.56287 0.0217,1.01338 0.01438,0.44762 0.0217,0.7845 0.0217,1.00976 0,0.0866 -0.03889,0.13687 -0.116789,0.15141 -0.09233,0.0173 -0.363774,0.0258 -0.813904,0.0258 -0.389537,0 -0.637378,-0.008 -0.744141,-0.0258 -0.08367,-0.0141 -0.125573,-0.0592 -0.125573,-0.13436 0,-0.31189 0.01404,-0.78276 0.04289,-1.41232 0.03175,-0.62958 0.04806,-1.10166 0.04806,-1.41645 0,-0.33499 -0.01455,-0.83739 -0.04341,-1.5074 -0.02885,-0.67289 -0.04341,-1.17655 -0.04341,-1.51153 0,-0.0635 0.03036,-0.0956 0.09095,-0.0956 z m 17.081645,6.57376 v 0.87799 c -0.08491,0.0553 -0.171816,0.10961 -0.259932,0.16278 h 1.802474 c 0.0015,-0.002 0.0026,-0.003 0.0041,-0.005 h 0.49661 l -0.321427,-0.16278 0.0093,-0.009 -0.324011,-0.16589 c -0.245618,-0.12582 -0.467153,-0.23785 -0.692464,-0.35191 -0.0041,0.003 -0.008,0.006 -0.01189,0.009 z m -17.408757,0.50592 v 0.003 c 0.0015,2e-5 0.0011,-2e-5 0.0026,0 -7.91e-4,-7.8e-4 -0.0018,-0.002 -0.0026,-0.003 z m 0.0026,0.003 c 0.0024,0.002 0.0049,0.005 0.0072,0.008 h -4.057633 l 1.161169,1.65778 h 5.17e-4 c 0.03357,0.0478 0.03357,0.11122 0,0.16071 l -1.156002,1.60455 h 3.3507 v -2.72955 c -0.01063,-0.0477 0.0057,-0.0971 0.03927,-0.13074 l 0.01395,-0.009 0.01964,-0.0155 0.0088,-0.003 0.0052,-0.003 0.750342,-0.38034 c 0.0023,0.003 0.0048,0.005 0.0072,0.008 0.143304,-0.075 0.246466,-0.13127 0.269751,-0.14831 l 0.01912,-0.009 h -0.0031 c 3e-5,-1e-4 0.0021,-0.001 0.0021,-0.001 1.02e-4,-0.003 -0.184103,-0.006 -0.438216,-0.009 z m 19.475814,-0.002 -0.470255,0.003 0.319877,0.16381 c 0.0025,-0.003 0.0052,-0.006 0.0078,-0.008 l 0.761194,0.38706 0.02429,0.0176 0.01085,0.009 0.02842,0.0403 0.0036,0.0145 0.0072,0.0351 0.0015,0.006 v 2.76004 h 3.348116 l -1.156001,-1.60455 c -0.03537,-0.0478 -0.03504,-0.11295 -0.0021,-0.16072 l 1.161169,-1.65778 h -4.050916 c 0.0015,-0.002 0.0036,-0.005 0.0052,-0.005 z m -18.62677,0.80563 c 6.02e-4,4.6e-4 0.0015,10e-4 0.0021,10e-4 h -1.267106 v 4.62607 l 9.513631,0.005 0.640271,0.88935 0.639754,-0.88935 c 0.003,-0.003 9.513632,-0.005 9.513632,-0.005 v -4.62607 h -1.267106 c 5.01e-4,-4.5e-4 0.0011,-10e-4 0.0021,-10e-4 h -1.958537 c -0.001,4.6e-4 -0.0016,10e-4 -0.0026,10e-4 h -6.927226 v -10e-4 z m -0.869197,0.32505 h 1.310514 c 0.0045,0.003 0.0089,0.006 0.01344,0.009 h 8.433593 v -0.009 h 6.285405 c -0.0066,0.003 -0.01291,0.006 -0.01964,0.009 h 2.168343 c 0.0045,-0.003 0.0089,-0.006 0.01344,-0.009 h 1.309997 c 0.07601,0 0.140044,0.0622 0.140044,0.14004 v 3.70055 c 0,0.0761 -0.06403,0.14004 -0.140044,0.14004 H 31.867306 c -0.07601,0 -0.137977,-0.0639 -0.137977,-0.14004 v -3.70055 c 0,-0.0778 0.06198,-0.14004 0.137977,-0.14004 z m 9.82679,1.04645 c -0.291057,0 -0.527774,0.10025 -0.710034,0.30127 -0.176681,0.19452 -0.2651,0.43929 -0.2651,0.73432 0,0.28852 0.09111,0.5273 0.273368,0.71624 0.184119,0.19172 0.420112,0.28732 0.70745,0.28732 0.178541,0 0.364792,-0.0379 0.559139,-0.11421 0.01953,0.007 0.07134,0.0214 0.15503,0.0419 0.08462,0.0204 0.135812,0.0305 0.153479,0.0305 0.02791,0 0.04062,-0.0126 0.03876,-0.0377 l -0.0016,-0.0155 c -0.01767,-0.2392 -0.02636,-0.41893 -0.02636,-0.53898 0,-0.0447 0.0026,-0.11229 0.0072,-0.20257 0.0056,-0.0904 0.0083,-0.15797 0.0083,-0.20257 0,-0.0307 -0.01189,-0.046 -0.03514,-0.046 -0.02976,0 -0.07433,0.002 -0.133842,0.006 -0.05952,0.004 -0.104082,0.006 -0.133842,0.006 -0.02791,0 -0.06916,-0.002 -0.124024,-0.006 -0.05393,-0.005 -0.09447,-0.008 -0.121439,-0.008 -0.01022,0 -0.01756,0.001 -0.02222,0.003 -0.01209,0.004 -0.01809,0.0143 -0.01809,0.032 0,0.0596 0.006,0.13787 0.01809,0.23461 0.01394,0.12563 0.022,0.20388 0.0248,0.23461 -0.117168,0.0475 -0.222962,0.0708 -0.31781,0.0708 -0.149716,0 -0.265438,-0.0452 -0.347265,-0.13643 -0.07904,-0.0884 -0.118856,-0.20847 -0.118856,-0.36019 0,-0.14328 0.03847,-0.26324 0.114722,-0.35915 0.08183,-0.10425 0.192279,-0.15606 0.331762,-0.15606 0.08555,0 0.163939,0.0187 0.234611,0.0568 0.04743,0.0252 0.09396,0.0609 0.139527,0.10646 0.03718,0.0381 0.05848,0.0568 0.06408,0.0568 0.02417,0 0.07743,-0.0517 0.160197,-0.15503 0.08369,-0.10421 0.125574,-0.17122 0.125574,-0.20102 0,-0.009 -0.008,-0.0247 -0.02377,-0.047 -0.07718,-0.10799 -0.182976,-0.19213 -0.31781,-0.25167 -0.124607,-0.054 -0.257598,-0.0806 -0.398942,-0.0806 z m -5.693709,0.0176 c -0.02696,0 -0.06409,0.005 -0.110588,0.0129 -0.05487,0.0101 -0.09148,0.0161 -0.110071,0.0181 -0.07904,0.007 -0.145538,0.0109 -0.199471,0.0109 -0.03627,0 -0.05426,0.01 -0.05426,0.0305 0,0.10611 0.0041,0.26592 0.0124,0.47904 0.0093,0.21314 0.01395,0.37305 0.01395,0.48008 0,0.10144 -0.0053,0.2534 -0.0155,0.4563 -0.0093,0.20291 -0.01395,0.35478 -0.01395,0.45527 0,0.0289 0.01386,0.0434 0.04082,0.0434 h 0.482658 c 0.02511,0 0.03772,-0.0166 0.03772,-0.0491 0,-0.10796 -0.0033,-0.26984 -0.0098,-0.48576 -0.0056,-0.21594 -0.0083,-0.3778 -0.0083,-0.48576 0,-0.0145 0.0035,-0.0245 0.01085,-0.0305 0.01021,0.006 0.01745,0.0112 0.02119,0.0165 0.131119,0.16848 0.228845,0.29588 0.293005,0.3824 0.234333,0.30992 0.384699,0.5102 0.451652,0.60048 0.02325,0.0307 0.04321,0.046 0.05994,0.046 0.02418,0 0.06068,0.002 0.109037,0.006 0.04835,0.004 0.08435,0.006 0.108521,0.006 0.02232,0 0.05614,-5.8e-4 0.100769,-0.003 0.04556,-0.002 0.07948,-0.003 0.101802,-0.003 0.02697,0 0.04031,-0.0126 0.04031,-0.0377 v -0.92036 c 0,-0.10703 0.0041,-0.26632 0.0124,-0.47852 0.0092,-0.21221 0.01391,-0.37086 0.01395,-0.47697 0,-0.0289 -0.0087,-0.0434 -0.02636,-0.0434 -0.05579,0 -0.140181,0.002 -0.252698,0.006 -0.112524,0.004 -0.196394,0.006 -0.252181,0.006 -0.01953,0 -0.02945,0.0173 -0.02945,0.0517 0,0.0987 0.0053,0.24597 0.0155,0.44235 0.01115,0.19642 0.01654,0.34363 0.01654,0.44131 0,0.0726 -0.006,0.10853 -0.01809,0.10853 -0.01674,0 -0.0367,-0.0145 -0.05994,-0.0434 -0.09392,-0.1238 -0.164347,-0.21744 -0.21084,-0.28164 l -0.519865,-0.71365 c -0.02325,-0.0317 -0.04052,-0.0475 -0.05168,-0.0475 z m 2.956925,0.01 c -9.3e-4,0 -0.06205,0.005 -0.182935,0.014 -0.225034,0.0177 -0.379328,0.0263 -0.46302,0.0263 -0.294777,0 -0.517533,-0.009 -0.668177,-0.0289 -0.01115,-6.6e-4 -0.01777,-0.001 -0.01964,-0.001 -0.01579,0 -0.02654,0.0351 -0.03307,0.1049 -0.0037,0.0437 -0.007,0.0875 -0.0098,0.13126 -0.0019,0.014 -0.01044,0.0532 -0.02532,0.11834 -0.01302,0.0595 -0.01964,0.0954 -0.01964,0.10749 0,0.009 0.0079,0.0139 0.02274,0.0139 0.110658,0 0.258955,-0.009 0.444934,-0.0279 0.0074,0.25132 0.01085,0.41319 0.01085,0.48575 0,0.10983 -0.0047,0.27491 -0.01395,0.49455 -0.0093,0.21964 -0.01395,0.3842 -0.01395,0.49402 0,0.0249 0.01323,0.0394 0.03927,0.0434 0.04835,0.007 0.132224,0.0108 0.252181,0.0108 0.107874,0 0.189676,-0.004 0.245463,-0.0108 0.02324,-0.002 0.03647,-0.004 0.03927,-0.006 0.0083,-0.005 0.0124,-0.0159 0.0124,-0.0336 0,-0.10981 -0.0047,-0.27499 -0.01395,-0.49558 -0.0083,-0.22056 -0.0124,-0.38575 -0.0124,-0.49557 0,-0.0931 0.0027,-0.25701 0.0083,-0.49248 0.244565,0.014 0.384796,0.0207 0.420129,0.0207 0.02046,0 0.03049,-0.009 0.03049,-0.0279 v -5.2e-4 c 0,-0.0223 -0.0034,-0.056 -0.0098,-0.10077 -0.0056,-0.0456 -0.0083,-0.0801 -0.0083,-0.10335 0,-0.0205 7.18e-4,-0.0551 0.0026,-0.10439 0.0019,-0.0447 0.0031,-0.0798 0.0031,-0.1049 -9.34e-4,-0.0157 -0.0029,-0.0249 -0.0057,-0.0269 -0.0028,-0.003 -0.01345,-0.005 -0.03204,-0.005 z m 7.823812,0 c -9.29e-4,0 -0.06205,0.005 -0.182935,0.014 -0.225032,0.0177 -0.379328,0.0269 -0.463021,0.0269 -0.294776,0 -0.517532,-0.01 -0.668176,-0.0295 -0.01115,-6.6e-4 -0.01777,-0.001 -0.01964,-0.001 -0.01585,0 -0.02712,0.0351 -0.03359,0.1049 -0.0037,0.0437 -0.0065,0.0875 -0.0093,0.13126 -0.0019,0.014 -0.01045,0.0532 -0.02532,0.11834 -0.01302,0.0595 -0.01964,0.0954 -0.01964,0.10749 0,0.009 0.0073,0.0145 0.02222,0.0145 0.110658,0 0.258955,-0.01 0.444934,-0.0284 0.0074,0.25132 0.01137,0.41372 0.01137,0.48627 0,0.10983 -0.0047,0.27438 -0.01395,0.49403 -0.0093,0.21964 -0.01395,0.3842 -0.01395,0.49402 0,0.0249 0.01323,0.0394 0.03927,0.0434 0.04836,0.007 0.132225,0.0108 0.252181,0.0108 0.107862,0 0.189663,-0.004 0.245463,-0.0108 0.02324,-0.002 0.03647,-0.004 0.03927,-0.006 0.0083,-0.005 0.0124,-0.0153 0.0124,-0.0331 0,-0.10982 -0.0047,-0.275 -0.01395,-0.49558 -0.0083,-0.22057 -0.0124,-0.38627 -0.0124,-0.49609 0,-0.0931 0.0027,-0.25701 0.0083,-0.49248 0.244565,0.0139 0.384796,0.0207 0.420129,0.0207 0.02045,0 0.03049,-0.009 0.03049,-0.0279 v -5.2e-4 c 0,-0.0223 -0.0033,-0.056 -0.0098,-0.10077 -0.0056,-0.0456 -0.0083,-0.0801 -0.0083,-0.10335 0,-0.0205 7.17e-4,-0.0551 0.0026,-0.10439 0.0019,-0.0447 0.0026,-0.0798 0.0026,-0.1049 -9.33e-4,-0.0157 -0.0024,-0.0249 -0.0052,-0.0269 -0.0028,-0.003 -0.01344,-0.005 -0.03204,-0.005 z m -3.096452,0.0119 c -0.102289,0 -0.239831,0.002 -0.411861,0.006 -0.253862,0.006 -0.396161,0.0112 -0.426847,0.0165 -0.02977,0.005 -0.04383,0.0162 -0.04289,0.032 l 0.001,0.0196 c 0.01767,0.22058 0.02687,0.52771 0.02687,0.9214 0,0.1033 -0.0053,0.25795 -0.0155,0.46457 -0.0093,0.20662 -0.01395,0.36116 -0.01395,0.46353 0,0.0235 0.01334,0.0381 0.04031,0.0434 0.02697,0.005 0.107321,0.008 0.240296,0.008 0.116241,0 0.201455,-0.002 0.256315,-0.006 0.01302,-0.001 0.02625,-0.002 0.03927,-0.003 0.0083,-0.003 0.0124,-0.012 0.0124,-0.0279 0,-0.0633 -0.006,-0.15754 -0.01809,-0.28318 -0.01115,-0.12566 -0.01654,-0.22044 -0.01654,-0.28371 0,-0.0475 0.0067,-0.0708 0.02067,-0.0708 0.123678,0 0.171554,-0.001 0.14366,-0.003 0.06044,0.004 0.09902,0.0237 0.115755,0.0599 0.07718,0.18145 0.133749,0.31877 0.170016,0.41186 0.02697,0.0717 0.04755,0.12548 0.0615,0.16175 0.0074,0.0153 0.01404,0.0246 0.01964,0.0279 0.0028,6.7e-4 0.01416,0.003 0.03462,0.006 0.04371,0.005 0.126747,0.008 0.248564,0.008 0.14227,0 0.230793,-0.002 0.266133,-0.008 0.01793,-0.003 0.02675,-0.008 0.02739,-0.0134 -7.5e-4,-0.0254 -0.05681,-0.15357 -0.169499,-0.38654 -0.113447,-0.23427 -0.170015,-0.35103 -0.170015,-0.35037 0,-0.013 0.01065,-0.0274 0.03204,-0.0424 0.105075,-0.0763 0.176948,-0.15465 0.216008,-0.23565 0.03906,-0.081 0.05891,-0.18968 0.05891,-0.32556 0,-0.20382 -0.0758,-0.3597 -0.227377,-0.46767 -0.133905,-0.0959 -0.306815,-0.14366 -0.518831,-0.14366 z m 0.778764,1.95182 c 5e-6,1.7e-4 5.17e-4,0.001 5.17e-4,0.002 v -0.002 z m 4.083472,-1.94665 c -0.05672,0 -0.141215,0.002 -0.253732,0.008 -0.111594,0.004 -0.195361,0.006 -0.251147,0.006 h -0.03514 c -0.0083,0.003 -0.0124,0.0135 -0.0124,0.0331 0,0.0465 0.0034,0.11743 0.0098,0.21239 0.0074,0.0941 0.01085,0.16438 0.01085,0.21084 0,0.0233 -0.03992,0.0909 -0.119889,0.20258 -0.06324,0.0894 -0.113809,0.15642 -0.151929,0.20102 -0.04185,-0.0475 -0.09511,-0.11511 -0.160197,-0.20257 -0.08183,-0.11168 -0.12299,-0.18136 -0.12299,-0.20929 0,-0.0474 0.002,-0.11897 0.0057,-0.21394 0.0047,-0.0959 0.0072,-0.16751 0.0072,-0.21498 0,-0.014 -0.01117,-0.0207 -0.03256,-0.0207 -0.05765,0 -0.144108,-0.002 -0.259416,-0.006 -0.115303,-0.004 -0.201138,-0.006 -0.257865,-0.006 -0.0186,0 -0.02791,0.0152 -0.02791,0.046 0,0.0558 0.0027,0.13945 0.0083,0.25114 0.0056,0.11165 0.0088,0.19529 0.0088,0.25115 0,0.0233 0.01065,0.0531 0.03204,0.0894 0.209226,0.32855 0.37014,0.57259 0.482658,0.73174 0.02232,0.0344 0.03307,0.0663 0.03307,0.0961 0,0.0503 -0.0041,0.12594 -0.0124,0.22738 -0.0083,0.1005 -0.0124,0.17545 -0.0124,0.22479 0,0.023 0.01324,0.0368 0.03927,0.0408 0.0372,0.005 0.12303,0.008 0.257865,0.008 0.133909,0 0.217674,-0.002 0.251147,-0.008 0.02323,-0.003 0.03586,-0.006 0.03772,-0.006 0.0074,-0.004 0.01085,-0.0137 0.01085,-0.0305 0,-0.0484 -0.0027,-0.12204 -0.0083,-0.22066 -0.0056,-0.0986 -0.0083,-0.17287 -0.0083,-0.22221 0,-0.0316 0.01468,-0.0669 0.04444,-0.10593 0.210155,-0.26618 0.376344,-0.51963 0.49816,-0.76068 0.01487,-0.0298 0.02222,-0.0649 0.02222,-0.1049 v -0.002 c 0,-0.0503 -0.0012,-0.12462 -0.0031,-0.22324 -0.0019,-0.0996 -0.0026,-0.17391 -0.0026,-0.22325 0,-0.04 -0.0093,-0.0599 -0.0279,-0.0599 z m -9.359636,0.001 c -0.02511,0 -0.03649,0.0112 -0.03462,0.0326 l 0.0016,0.0191 c 0.0074,0.148 0.01219,0.25939 0.01499,0.33383 0.01115,0.28944 0.01705,0.48715 0.01705,0.59324 0,0.10424 -0.006,0.26136 -0.01809,0.47078 -0.01115,0.20845 -0.01705,0.36445 -0.01705,0.4687 0,0.027 0.0153,0.0408 0.04599,0.0408 0.07067,0 0.176982,-1.5e-4 0.318326,5.1e-4 0.141348,6.7e-4 0.247762,0.001 0.319361,0.001 0.328256,0 0.526398,0.005 0.594279,0.0145 0.01956,0.003 0.03352,0.005 0.04186,0.005 0.01953,0 0.03484,-0.009 0.04599,-0.0264 0.01302,-0.0223 0.0277,-0.0919 0.04444,-0.20825 0.01567,-0.10606 0.02363,-0.17783 0.02377,-0.21808 v -5.2e-4 c -1.34e-4,-0.033 -0.01017,-0.0496 -0.03049,-0.0496 -0.04836,0 -0.12147,0.005 -0.219109,0.014 -0.09671,0.008 -0.169821,0.0124 -0.219108,0.0124 h -0.203605 c -0.103213,-0.007 -0.16247,-0.0272 -0.178283,-0.0625 -0.0093,-0.0204 -0.01395,-0.0662 -0.01395,-0.13694 0,-0.0537 1e-4,-0.0828 0.001,-0.0868 0.0065,-0.0185 0.02906,-0.0279 0.06718,-0.0279 h 0.147794 c 0.188766,0 0.309762,0.003 0.362769,0.008 l 0.125574,0.014 c 0.02697,0 0.04031,-0.009 0.04031,-0.0279 0,-0.0745 0.0035,-0.14881 0.01085,-0.22324 0.01674,-0.16186 0.02532,-0.23289 0.02532,-0.21342 0,-0.0214 -0.01127,-0.0326 -0.03359,-0.0326 -0.0186,0 -0.04383,0.002 -0.07545,0.006 -0.04093,0.003 -0.06627,0.006 -0.07648,0.006 -0.119957,0.006 -0.238367,0.009 -0.355533,0.009 -0.01767,0 -0.04021,0.001 -0.06718,0.003 -0.02699,6.6e-4 -0.04499,10e-4 -0.05426,10e-4 -0.04463,0 -0.07514,-0.009 -0.09095,-0.0269 -0.01859,-0.0206 -0.0279,-0.0623 -0.0279,-0.12557 0,-0.0605 0.0026,-0.0964 0.0072,-0.10749 0.01116,-0.0233 0.04115,-0.0346 0.09043,-0.0346 0.197138,0 0.419791,0.0101 0.667142,0.0305 0.01393,6.6e-4 0.02334,10e-4 0.02894,10e-4 0.01859,0 0.0279,-0.01 0.0279,-0.0295 0,-0.0233 -0.0048,-0.0889 -0.01499,-0.19688 -0.0093,-0.1089 -0.01652,-0.17394 -0.02119,-0.19534 -0.0074,-0.0363 -0.03536,-0.0548 -0.08372,-0.0548 -0.06788,0 -0.170263,0.002 -0.306958,0.006 -0.136696,0.004 -0.238561,0.006 -0.306441,0.006 -0.06881,0 -0.172538,-0.002 -0.311092,-0.006 -0.137629,-0.004 -0.241251,-0.006 -0.310059,-0.006 z m -4.473112,5.2e-4 c -0.02139,0 -0.03204,0.0106 -0.03204,0.031 0,0.0996 0.0033,0.24887 0.0098,0.44804 0.0065,0.1992 0.0098,0.34847 0.0098,0.44803 0,0.1182 -0.0086,0.36566 -0.02532,0.74259 -0.0083,0.17874 -0.0124,0.26092 -0.0124,0.24598 0,0.0235 0.01334,0.0381 0.04031,0.0434 0.0372,0.007 0.124168,0.0109 0.259932,0.0109 0.101356,0 0.181916,-0.004 0.242363,-0.0109 0.02231,-0.003 0.03431,-0.006 0.03617,-0.006 0.0083,-0.005 0.01292,-0.0165 0.01292,-0.0351 0,-0.10981 -0.0032,-0.275 -0.0088,-0.49558 -0.0056,-0.22034 -0.0083,-0.38575 -0.0083,-0.49557 1.2e-5,-0.0996 0.0053,-0.24857 0.0155,-0.44752 0.01115,-0.19919 0.01654,-0.34848 0.01654,-0.44804 0,-0.0204 -0.01334,-0.031 -0.04031,-0.031 -0.02882,0 -0.07143,0.002 -0.128158,0.005 -0.0558,0.003 -0.0983,0.005 -0.127124,0.005 -0.02883,0 -0.07268,-0.002 -0.131258,-0.005 -0.05766,-0.003 -0.100888,-0.005 -0.129708,-0.005 z m 9.94978,0 c -0.02139,0 -0.03204,0.0105 -0.03204,0.031 0,0.0996 0.0033,0.24887 0.0098,0.44804 0.0065,0.1992 0.0093,0.34848 0.0093,0.44803 0,0.1182 -0.0081,0.36566 -0.0248,0.74259 -0.0083,0.17874 -0.0124,0.26092 -0.0124,0.24598 0,0.0235 0.01334,0.0376 0.04031,0.0429 0.0372,0.007 0.123651,0.0114 0.259416,0.0114 0.101355,0 0.182432,-0.004 0.242879,-0.0114 0.02231,-0.003 0.03431,-0.005 0.03617,-0.006 0.0083,-0.005 0.0124,-0.0165 0.0124,-0.0351 0,-0.10981 -0.0027,-0.275 -0.0083,-0.49558 -0.0056,-0.22057 -0.0088,-0.38575 -0.0088,-0.49557 l 5.17e-4,5.1e-4 c 0,-0.0996 0.0048,-0.24885 0.01499,-0.44803 0.01115,-0.19919 0.01705,-0.34848 0.01705,-0.44804 0,-0.0205 -0.01386,-0.031 -0.04082,-0.031 -0.02882,0 -0.07143,0.002 -0.128157,0.005 -0.05579,0.003 -0.09829,0.005 -0.127124,0.005 -0.02883,0 -0.07216,-0.002 -0.130742,-0.005 -0.05765,-0.003 -0.100874,-0.005 -0.129708,-0.005 z m -1.167887,0.40618 c 0.122747,0 0.213131,0.0167 0.270785,0.0501 0.07439,0.0438 0.111621,0.1221 0.111621,0.23565 v 5.1e-4 c 0,0.16194 -0.101761,0.24288 -0.305408,0.24288 -0.0623,0 -0.122074,-0.005 -0.178801,-0.0129 -0.02976,-0.005 -0.04444,-0.01 -0.04444,-0.014 0,-0.0204 -6.17e-4,-0.0516 -0.0016,-0.0935 -9.33e-4,-0.0419 -0.0016,-0.0732 -0.0016,-0.0946 0,-0.15081 0.0032,-0.24229 0.0088,-0.27389 0.0056,-0.027 0.05222,-0.0403 0.14056,-0.0403 z" />
        </g>
      </g>
    </g>
  </g>
</svg>
