<?xml version="1.0" encoding="UTF-8" standalone="no"?>
<!-- Created with Inkscape (http://www.inkscape.org/) -->

<svg
   width="30.000057mm"
   height="26.305632mm"
   viewBox="0 0 30.000057 26.305632"
   version="1.1"
   id="svg154673"
   inkscape:version="1.3 (0e150ed6c4, 2023-07-21)"
   sodipodi:docname="hoc-pins-stewardship.svg"
   xmlns:inkscape="http://www.inkscape.org/namespaces/inkscape"
   xmlns:sodipodi="http://sodipodi.sourceforge.net/DTD/sodipodi-0.dtd"
   xmlns="http://www.w3.org/2000/svg"
   xmlns:svg="http://www.w3.org/2000/svg">
  <sodipodi:namedview
     id="namedview154675"
     pagecolor="#ffffff"
     bordercolor="#666666"
     borderopacity="1.0"
     inkscape:showpageshadow="2"
     inkscape:pageopacity="0.0"
     inkscape:pagecheckerboard="0"
     inkscape:deskcolor="#d1d1d1"
     inkscape:document-units="mm"
     showgrid="false"
     inkscape:zoom="4.4498127"
     inkscape:cx="26.51797"
     inkscape:cy="49.777377"
     inkscape:window-width="1920"
     inkscape:window-height="991"
     inkscape:window-x="-9"
     inkscape:window-y="-9"
     inkscape:window-maximized="1"
     inkscape:current-layer="layer1" />
  <defs
     id="defs154670" />
  <g
     inkscape:label="Layer 1"
     inkscape:groupmode="layer"
     id="layer1"
     transform="translate(-65.103836,-197.2387)">
    <g
       id="g2485"
       transform="translate(39.88385,64.690019)">
      <path
         style="fill:#bfbfbf;fill-opacity:1;fill-rule:nonzero;stroke:#cc0000;stroke-width:0.104973;stroke-dasharray:none"
         d="m 30.840789,132.68777 v 2.5e-4 l -1.893206,4.4282 c 1.425843,1.07403 2.249871,2.29964 2.450138,3.64302 0.185497,1.24352 -0.312705,2.15163 -0.889641,3.20246 -0.63782,1.15966 -1.360612,2.47653 -1.360612,4.61919 0,1.36037 0.333474,2.41501 0.886534,3.26362 h -4.716184 l 1.500687,2.26101 c 0.03006,0.0478 0.02996,0.10769 -0.002,0.15552 l -1.49525,2.20969 h 4.468141 l 0.01547,0.66961 v 1.01169 h 4.973288 5.001823 l 0.440876,0.61244 0.454646,-0.63156 9.975313,0.0189 v -1.01169 l 0.003,-0.67323 h 4.465033 l -1.497321,-2.20944 c -0.03182,-0.046 -0.03182,-0.10801 0,-0.15568 l 1.500688,-2.26101 h -4.711783 c 0.551625,-0.84796 0.883948,-1.90162 0.883948,-3.25999 0,-2.14264 -0.722806,-3.45953 -1.360614,-4.61919 -0.576853,-1.05083 -1.075259,-1.95894 -0.8899,-3.20246 0.200459,-1.34337 1.024783,-2.56897 2.450397,-3.643 l -1.893465,-4.4282 c -2.383961,1.47366 -5.792985,2.31749 -9.379807,2.31749 -3.586752,0 -6.995975,-0.84383 -9.380067,-2.31749 z"
         id="path139018"
         sodipodi:nodetypes="cccccsccccccccccccccccccccsccccscc" />
      <path
         id="path130571"
         style="fill:#000000;fill-opacity:1;fill-rule:nonzero;stroke:none;stroke-width:0.04629"
         d="m 30.841012,132.68751 v 5.1e-4 l -1.893425,4.42816 c 1.425845,1.07403 2.249715,2.29928 2.44998,3.64267 0.185497,1.24352 -0.312414,2.15208 -0.889352,3.20291 -0.637818,1.15965 -1.36064,2.47617 -1.36064,4.61883 0,1.36037 0.333188,2.41529 0.886251,3.26389 h -4.715992 l 1.500684,2.26084 c 0.03006,0.0478 0.02991,0.10772 -0.0021,0.15555 l -1.494999,2.20968 h 4.467944 v -0.32349 h -3.623035 c -0.05116,-1e-4 -0.09881,-0.029 -0.123506,-0.0765 -0.02299,-0.0461 -0.0195,-0.10064 0.0124,-0.14315 l 1.254704,-1.74614 -1.256771,-1.79576 c -0.03006,-0.0425 -0.03355,-0.097 -0.0088,-0.14314 0.02299,-0.046 0.07069,-0.0744 0.121956,-0.0744 h 4.096391 c 0.0028,0.003 0.0055,0.008 0.0083,0.0109 h 1.219563 l 0.299724,-0.15813 0.299723,-0.15864 h 0.220142 c 0.187545,0 0.218623,0.005 0.21239,0.0357 -0.0044,0.0211 -0.4187,0.24494 -1.024227,0.55345 l -0.675928,0.34416 c 0.0028,0.003 0.006,0.005 0.0088,0.008 l -0.319877,0.16227 h 0.494027 c 0.0013,0.001 0.0027,0.003 0.0041,0.003 H 40.22128 V 152.655 c 0.891369,-1.2e-4 1.631504,-0.31217 2.220019,-0.93586 0.577091,-0.60935 0.86558,-1.36145 0.86558,-2.25671 0,-0.89815 -0.288489,-1.65376 -0.86558,-2.26601 -0.58863,-0.62668 -1.328934,-0.93999 -2.220536,-0.93999 v 1.61592 c 0.406845,0 0.751788,0.1648 1.034562,0.49402 0.27412,0.31769 0.411344,0.68309 0.411344,1.09606 0,0.44186 -0.128699,0.80976 -0.385506,1.10433 -0.27123,0.30901 -0.624696,0.46353 -1.0604,0.46353 v 1.62368 c -0.891367,-1.2e-4 -1.631503,-0.31219 -2.22002,-0.93586 -0.577092,-0.60935 -0.86558,-1.36144 -0.86558,-2.25671 0,-0.89815 0.288488,-1.65326 0.86558,-2.2655 0.588572,-0.62662 1.328538,-0.94046 2.22002,-0.94051 -4.1e-5,-1.33618 5e-5,-2.51225 0,-3.94549 l -2.006596,2.00763 0.772563,0.77256 -0.342098,0.3421 -0.268718,-0.26924 0.160197,-0.16019 -0.173116,-0.1726 -0.160197,0.16019 -0.181901,0.18242 -0.115755,0.11627 0.172599,0.1726 0.116272,-0.11679 0.269234,0.26975 -0.393774,0.39275 -0.772563,-0.77308 -0.21394,0.21445 -0.403593,-0.40307 3.137793,-3.1409 -0.312643,-0.31316 -0.133842,0.13333 c -0.04785,0.0488 -0.146848,0.0271 -0.221691,-0.047 -0.07395,-0.0749 -0.09571,-0.17343 -0.04703,-0.2222 l 0.200505,-0.20103 -0.173116,-0.17311 -0.201022,0.20205 c -0.04785,0.0478 -0.146858,0.0259 -0.221692,-0.0481 -0.07393,-0.0741 -0.09571,-0.17344 -0.04703,-0.22221 l 0.201021,-0.20102 -0.422713,-0.42323 -0.201021,0.20154 c -0.04785,0.0478 -0.147371,0.0265 -0.222209,-0.0475 -0.07395,-0.0741 -0.09437,-0.17329 -0.04651,-0.22118 l 0.05529,-0.0563 c -1.378234,0.0697 -2.325519,0.0371 -2.826701,-0.25994 -0.906662,-0.53729 -0.804157,-1.6251 -0.0646,-2.10581 -0.171411,-0.28302 -0.431867,-0.84032 -0.0925,-1.18081 0.350657,-0.35096 0.918173,-0.0756 1.184424,0.0873 0.241443,-0.36663 0.632791,-0.5754 1.030428,-0.5793 0.397646,-0.005 0.801623,0.19708 1.069185,0.64906 0.296703,0.50159 0.328994,1.44987 0.259416,2.82928 l 0.05581,-0.0558 c 0.04871,-0.0478 0.147745,-0.0271 0.221692,0.047 0.07397,0.0749 0.09576,0.17432 0.04703,0.22221 l -0.201022,0.20102 0.422714,0.42323 0.201021,-0.20102 c 0.04875,-0.0478 0.148267,-0.0271 0.222209,0.047 0.07397,0.0749 0.09526,0.17431 0.04651,0.22221 l -0.201021,0.20102 0.173633,0.17312 0.201021,-0.20102 c 0.04785,-0.0478 0.146869,-0.0271 0.221692,0.047 0.07397,0.0749 0.09576,0.17432 0.04703,0.22221 l -0.133842,0.13436 0.312642,0.31316 h 5.17e-4 c -7.1e-5,-1.80444 -4.12e-4,-5.42602 -5.17e-4,-5.42602 h 5.17e-4 c 3.246532,-0.008 6.437642,-0.68544 8.863541,-1.88258 l 1.113628,2.60346 c -1.257308,1.12578 -1.999299,2.40108 -2.208651,3.80339 -0.238844,1.60208 0.396261,2.75813 1.010791,3.87676 0.603687,1.099 1.227832,2.23573 1.227832,4.10363 0,1.44147 -0.444266,2.46454 -1.173572,3.25975 h -0.722953 l 0.483174,0.24546 c -0.0025,0.003 -0.0051,0.005 -0.0078,0.008 l 0.167432,0.0848 h 1.196826 c 0.0034,-0.005 0.0067,-0.009 0.01033,-0.014 h 4.090706 c 0.05125,0 0.09875,0.0279 0.123507,0.0739 0.02299,0.046 0.01946,0.10286 -0.0088,0.14521 l -1.258321,1.79421 1.256771,1.74563 c 0.03006,0.0425 0.03507,0.0993 0.01033,0.14521 -0.02299,0.0461 -0.07049,0.0744 -0.123507,0.0744 h -3.618383 v 0.3235 h 4.46536 l -1.497583,-2.20917 c -0.03181,-0.046 -0.03181,-0.10838 0,-0.15606 l 1.500684,-2.26085 H 50.41036 c 0.551623,-0.84794 0.884183,-1.90139 0.884183,-3.25975 0,-2.14265 -0.722833,-3.45969 -1.36064,-4.61935 -0.57685,-1.05083 -1.075225,-1.95887 -0.889868,-3.20239 0.200461,-1.34338 1.024887,-2.56917 2.450496,-3.64319 l -1.893424,-4.42815 c -2.383969,1.47368 -5.792961,2.31769 -9.379789,2.31769 -3.586761,0 -6.996211,-0.84401 -9.380306,-2.31769 z m 9.379789,9.62267 2.007112,2.00814 -0.773079,0.77257 0.342098,0.34209 0.269234,-0.26871 -0.160714,-0.1602 0.173633,-0.1726 0.15968,0.1602 0.182418,0.1819 0.115239,0.11679 -0.172083,0.1726 -0.116789,-0.11731 -0.268717,0.27027 0.393258,0.39274 0.772562,-0.77308 0.213941,0.21394 0.404109,-0.40308 -3.138309,-3.14089 0.313159,-0.31316 0.133842,0.13333 c 0.04785,0.0488 0.146852,0.0271 0.221692,-0.047 0.07393,-0.0749 0.09573,-0.17291 0.04702,-0.22169 l -0.201021,-0.20154 0.173116,-0.17312 0.201538,0.20206 c 0.04785,0.0478 0.146869,0.026 0.221692,-0.0481 0.07393,-0.0741 0.09572,-0.17345 0.04703,-0.22221 l -0.201022,-0.20102 0.422713,-0.42323 0.201022,0.20206 c 0.04785,0.0478 0.146868,0.026 0.221692,-0.0481 0.07395,-0.0739 0.09488,-0.17329 0.04702,-0.22118 l -0.05529,-0.0563 c 1.378234,0.0697 2.325525,0.0371 2.826701,-0.25993 0.906662,-0.53731 0.80417,-1.62508 0.0646,-2.10581 0.171415,-0.283 0.431341,-0.84031 0.09198,-1.18081 -0.350655,-0.35095 -0.918173,-0.0756 -1.184424,0.0873 -0.241445,-0.36662 -0.63226,-0.57539 -1.029911,-0.57929 v 5.2e-4 c -0.397652,-0.005 -0.802144,0.19658 -1.069702,0.64854 -0.296708,0.50161 -0.328477,1.44987 -0.258899,2.82928 l -0.05581,-0.0553 c -0.04871,-0.0478 -0.147756,-0.0276 -0.221692,0.0465 -0.07397,0.0749 -0.09575,0.17431 -0.04702,0.2222 l 0.201021,0.20154 -0.42323,0.42323 -0.201021,-0.20154 c -0.04875,-0.0478 -0.147744,-0.0269 -0.221692,0.047 -0.07397,0.0749 -0.09576,0.17431 -0.04703,0.22221 l 0.201022,0.20102 -0.173116,0.17363 -0.201022,-0.20153 c -0.04785,-0.0478 -0.146868,-0.0271 -0.221692,0.047 -0.07397,0.0749 -0.09575,0.17432 -0.04702,0.22221 l 0.133842,0.13436 -0.313159,0.31316 h -5.17e-4 v 0.8077 z m 0,8.72039 c -1.4e-5,-1.00133 2.5e-5,-2.1148 0,-3.15794 -0.406846,0 -0.75179,0.1648 -1.034562,0.49402 -0.274122,0.31769 -0.411345,0.68308 -0.411345,1.09606 0,0.44184 0.128696,0.80974 0.385506,1.10433 0.271231,0.30901 0.624695,0.46353 1.060401,0.46353 z m 2.969328,-14.30352 c 0.425262,0.008 0.842898,0.36603 0.880566,1.09916 0.01032,0.20291 0.110593,0.2229 0.162781,0.22376 1.153774,0.0244 1.428766,0.9641 0.911055,1.48312 -0.577726,0.57737 -2.832902,0.2806 -2.832902,0.2806 0,0 -0.296789,-2.25725 0.280086,-2.83549 0.159065,-0.15893 0.357481,-0.24347 0.557072,-0.25063 0.01376,-4.5e-4 0.02761,-10e-4 0.04134,-5.2e-4 z m -5.938139,5.2e-4 c -0.425269,0.008 -0.843416,0.36553 -0.881083,1.09864 -0.01032,0.20291 -0.110607,0.2229 -0.162781,0.22376 -1.153778,0.0244 -1.428764,0.96408 -0.911056,1.48312 0.577735,0.57735 2.833419,0.2806 2.833419,0.2806 0,0 0.296775,-2.25777 -0.280086,-2.836 -0.159065,-0.15893 -0.358001,-0.24245 -0.557589,-0.2496 -0.01376,-4.7e-4 -0.02709,-0.001 -0.04082,-5.2e-4 z m -1.796273,0.17984 c -0.06507,0.003 -0.121915,0.022 -0.164331,0.0646 -0.153136,0.15333 0.01394,0.53376 0.162781,0.77411 0.158348,-0.0531 0.334472,-0.0827 0.527616,-0.0827 0,-0.19595 0.03044,-0.37462 0.08527,-0.53485 -0.140709,-0.0875 -0.382934,-0.21315 -0.573608,-0.22117 -0.01266,-4.3e-4 -0.02554,-4.3e-4 -0.03772,0 z m 9.492961,0 c 0.01266,-4.5e-4 0.02503,-4.5e-4 0.03721,0 0.06507,0.003 0.121921,0.0222 0.164331,0.0646 0.153136,0.15333 -0.01335,0.53374 -0.162264,0.77411 -0.158348,-0.0532 -0.33499,-0.0827 -0.528133,-0.0827 0,-0.19594 -0.03042,-0.37461 -0.08527,-0.53485 0.14071,-0.0875 0.383447,-0.21318 0.574126,-0.22117 z m 1.768884,8.30543 c -0.859866,0 -1.568561,0.32057 -2.125452,0.9617 -0.53381,0.61224 -0.800468,1.35707 -0.800468,2.23501 0,0.90681 0.272688,1.65767 0.818038,2.25257 0.559777,0.61514 1.289785,0.92294 2.190047,0.92294 0.880062,0 1.585743,-0.31631 2.116667,-0.94878 0.06059,-0.075 0.09043,-0.13563 0.09043,-0.1819 0,-0.0318 -0.105104,-0.20808 -0.315743,-0.52865 -0.204865,-0.30898 -0.330555,-0.48905 -0.376721,-0.54105 -0.02884,-0.0318 -0.05743,-0.0481 -0.0863,-0.0481 -0.01443,0 -0.08543,0.0551 -0.21239,0.16485 -0.15293,0.12995 -0.302944,0.23113 -0.450102,0.30334 -0.225064,0.10974 -0.463132,0.16433 -0.714168,0.16433 -0.424164,0 -0.763076,-0.16179 -1.016992,-0.48524 -0.233723,-0.29747 -0.350367,-0.66537 -0.350367,-1.10433 0,-0.43319 0.116644,-0.79735 0.350367,-1.09192 0.253916,-0.31769 0.592828,-0.47646 1.016992,-0.47646 0.245264,0 0.482083,0.0576 0.710034,0.17312 0.150043,0.078 0.303072,0.18642 0.458887,0.32504 0.129838,0.11552 0.202091,0.17312 0.216524,0.17312 0.03463,0 0.06322,-0.0115 0.0863,-0.0346 0.05194,-0.0433 0.177627,-0.24092 0.376721,-0.59325 0.20198,-0.35227 0.302824,-0.55588 0.302824,-0.61081 0,-0.0491 -0.02859,-0.10545 -0.0863,-0.16899 -0.530924,-0.57469 -1.263948,-0.86196 -2.198832,-0.86196 z m -15.909623,0.14263 c 0.08946,0 0.223662,0.005 0.402559,0.0129 0.181785,0.009 0.317245,0.0124 0.406694,0.0124 0.09233,0 0.23081,-0.005 0.415478,-0.0124 0.187556,-0.009 0.327796,-0.0129 0.420129,-0.0129 0.04905,0 0.07338,0.0259 0.07338,0.078 0,0.21659 -0.01581,0.54143 -0.04754,0.97462 -0.03175,0.43029 -0.04754,0.75389 -0.04754,0.97048 0,0.10113 0.02734,0.16043 0.08217,0.17777 0.07503,0.0231 0.444288,0.0346 1.107943,0.0346 0.617471,0 0.975216,-0.0108 1.073319,-0.0346 0.06926,-0.0173 0.10387,-0.0768 0.10387,-0.17777 0,-0.20792 -0.01025,-0.52124 -0.03049,-0.93999 -0.0202,-0.42163 -0.02997,-0.73796 -0.02997,-0.94878 0,-0.0896 0.03586,-0.13436 0.108004,-0.13436 0.08367,0 0.210614,0.005 0.380855,0.0129 0.173128,0.009 0.303077,0.0124 0.389641,0.0124 0.08367,0 0.210614,-0.005 0.380855,-0.0124 0.173128,-0.009 0.303081,-0.0129 0.38964,-0.0129 0.08369,0 0.125574,0.035 0.125574,0.10439 0,0.33211 -0.01455,0.83327 -0.04341,1.50326 -0.02595,0.67001 -0.03876,1.17241 -0.03876,1.5074 0,0.3148 0.01456,0.78689 0.04341,1.41646 0.03172,0.62956 0.04754,1.10042 0.04754,1.41231 0,0.0606 -0.01332,0.0976 -0.03927,0.11214 -0.01157,0.009 -0.05169,0.016 -0.120923,0.0217 -0.176014,0.0174 -0.424372,0.0264 -0.744657,0.0264 -0.453017,0 -0.720192,-0.008 -0.800985,-0.0264 -0.07791,-0.0173 -0.116789,-0.0562 -0.116789,-0.11678 0,-0.22815 0.01018,-0.57052 0.03049,-1.02682 0.0231,-0.45918 0.03462,-0.80279 0.03462,-1.03094 0,-0.11269 -0.03162,-0.17749 -0.09508,-0.19482 -0.09811,-0.0231 -0.447321,-0.0346 -1.047481,-0.0346 -0.603062,0 -0.955278,0.0108 -1.056267,0.0346 -0.06348,0.0141 -0.09508,0.0794 -0.09508,0.19482 0,0.22525 0.0073,0.56337 0.0217,1.01389 0.01438,0.44762 0.0217,0.78398 0.0217,1.00924 0,0.0866 -0.03889,0.13688 -0.116789,0.15141 -0.09233,0.0173 -0.363774,0.0258 -0.813904,0.0258 -0.389535,0 -0.637377,-0.008 -0.74414,-0.0258 -0.08367,-0.0141 -0.125574,-0.0587 -0.125574,-0.13384 0,-0.31189 0.01404,-0.78277 0.04289,-1.41231 0.03175,-0.62958 0.04754,-1.10218 0.04754,-1.41697 0,-0.33499 -0.01403,-0.83739 -0.04289,-1.5074 -0.02885,-0.67289 -0.04341,-1.17653 -0.04341,-1.51154 0,-0.0634 0.03036,-0.0956 0.09095,-0.0956 z m 17.081128,6.57376 v 0.87798 c -0.08491,0.0553 -0.171298,0.1096 -0.259416,0.16278 h 1.801957 c 0.0015,-0.001 0.0032,-0.003 0.0047,-0.005 h 0.49661 l -0.321427,-0.16278 0.0088,-0.009 -0.323494,-0.16588 c -0.245618,-0.12582 -0.467154,-0.23786 -0.692465,-0.35192 -0.0041,0.003 -0.008,0.006 -0.01188,0.009 z m -17.40824,0.50643 v 0.003 c 0.0015,2e-5 0.0011,-2e-5 0.0026,0 -7.92e-4,-7.8e-4 -0.0018,-0.002 -0.0026,-0.003 z m 0.0026,0.003 c 0.0024,0.002 0.0049,0.005 0.0072,0.008 h -4.057633 l 1.161169,1.65726 c 0.03358,0.0478 0.03358,0.11175 0,0.16123 l -1.156001,1.60456 h 3.351216 v -2.73007 c -0.01063,-0.0477 0.0052,-0.0971 0.03876,-0.13074 l 0.01447,-0.009 0.01912,-0.016 0.0088,-0.003 0.0057,-0.003 0.750341,-0.38034 c 0.0023,0.003 0.0048,0.005 0.0072,0.008 0.143304,-0.075 0.246466,-0.13179 0.269751,-0.14883 l 0.01912,-0.009 h -0.0031 c 3e-5,-9e-5 0.0015,-0.001 0.0015,-0.001 1.01e-4,-0.003 -0.18359,-0.006 -0.437699,-0.009 z m 19.475813,-0.002 -0.470255,0.003 0.319877,0.16434 c 0.0025,-0.003 0.0052,-0.006 0.0078,-0.008 l 0.761194,0.38705 0.02429,0.0181 0.01085,0.009 0.02842,0.0408 0.0031,0.0139 0.0072,0.0351 0.0021,0.006 v 2.75952 h 3.348116 l -1.156002,-1.60455 c -0.03537,-0.0478 -0.03504,-0.11294 -0.0021,-0.16071 l 1.161169,-1.65778 h -4.050915 c 0.0015,-0.002 0.0036,-0.005 0.0052,-0.005 z m -18.62677,0.80564 c 6.02e-4,4.5e-4 0.0015,0.001 0.0021,0.001 h -1.267106 v 4.62607 l 9.513632,0.005 0.639754,0.88936 0.640271,-0.88936 c 0.003,-0.003 9.513631,-0.005 9.513631,-0.005 v -4.62607 h -1.267106 c 5.01e-4,-4.5e-4 0.0011,-0.001 0.0021,-0.001 h -1.958537 c -0.001,4.5e-4 -0.0016,0.001 -0.0026,0.001 h -6.927225 v -0.001 z m -0.869197,0.32452 h 1.310514 c 0.0045,0.003 0.0089,0.006 0.01344,0.009 h 8.433594 v -0.009 h 6.285404 c -0.0066,0.003 -0.01292,0.006 -0.01964,0.009 h 2.167827 c 0.0045,-0.003 0.0089,-0.006 0.01344,-0.009 h 1.310515 c 0.07601,0 0.140043,0.0622 0.140043,0.14005 v 3.70106 c 0,0.0761 -0.06403,0.13953 -0.140043,0.13953 h -19.51511 c -0.07601,0 -0.137976,-0.0634 -0.137976,-0.13953 v -3.70106 c 0,-0.0778 0.06198,-0.14005 0.137976,-0.14005 z m 4.163053,1.03353 c -0.0056,0 -0.01354,3.7e-4 -0.02377,0.001 -0.186909,0.0279 -0.344513,0.0888 -0.472839,0.1819 -0.157153,0.11261 -0.236162,0.25394 -0.236162,0.42426 0,0.11727 0.03247,0.22412 0.09663,0.32091 0.0093,0.014 0.06856,0.0843 0.178284,0.21084 0.06323,0.0745 0.09509,0.14208 0.09509,0.20257 0,0.0949 -0.0485,0.16656 -0.145211,0.21498 -0.0437,0.0213 -0.132849,0.0473 -0.267684,0.078 -0.01395,0.003 -0.02119,0.009 -0.02119,0.0196 0,0.0289 0.03713,0.10907 0.110587,0.24029 0.07346,0.1303 0.12072,0.19534 0.14211,0.19534 0.0047,0 0.01065,-3.7e-4 0.01809,-0.001 0.199928,-0.0326 0.369529,-0.10876 0.509013,-0.22789 0.158866,-0.13483 0.238598,-0.29654 0.238745,-0.48524 v -5.2e-4 c -1.11e-4,-0.10128 -0.0333,-0.20268 -0.09922,-0.30489 -0.0056,-0.007 -0.06742,-0.0857 -0.185518,-0.23461 -0.06695,-0.0829 -0.100252,-0.15305 -0.100252,-0.20981 0,-0.0633 0.02999,-0.11244 0.09043,-0.14779 0.05022,-0.0308 0.108748,-0.046 0.1757,-0.046 0.0093,0 0.02316,0.001 0.04082,0.004 0.01767,0.003 0.02977,0.004 0.03721,0.004 0.01674,0 0.02532,-0.008 0.02532,-0.0238 0,-0.004 -0.0013,-0.008 -0.0041,-0.0134 -0.08834,-0.17776 -0.144806,-0.30103 -0.168982,-0.36897 -0.0084,-0.0223 -0.01912,-0.0336 -0.03307,-0.0336 z m 6.86263,0.0253 c -0.01487,0 -0.02811,0.0174 -0.03927,0.0527 -0.01953,0.0614 -0.143212,0.40097 -0.371036,1.01803 -0.210157,0.57051 -0.315227,0.86772 -0.315227,0.89193 0,0.027 0.07115,0.0403 0.213424,0.0403 0.180404,0 0.286197,-0.003 0.31781,-0.0109 0.02511,-0.007 0.04693,-0.0483 0.0646,-0.12557 0.01953,-0.0847 0.0369,-0.13448 0.05271,-0.14935 0.01023,-0.008 0.09461,-0.0129 0.252697,-0.0129 0.234332,0 0.358741,0.003 0.373621,0.01 0.01767,0.009 0.04228,0.0815 0.0739,0.21549 0.0084,0.0352 0.02833,0.0559 0.05994,0.0625 0.03813,0.007 0.123857,0.0114 0.256832,0.0114 0.145066,0 0.231521,-0.004 0.259415,-0.0114 0.02325,-0.007 0.03462,-0.0179 0.03462,-0.0346 v -5.2e-4 c 0,-0.0251 -0.110447,-0.32565 -0.331763,-0.90175 -0.220383,-0.57238 -0.353375,-0.90738 -0.398942,-1.00511 -0.01488,-0.0307 -0.03091,-0.0465 -0.04858,-0.0465 -0.02418,0 -0.0613,0.002 -0.110588,0.006 -0.04835,0.003 -0.08496,0.004 -0.11007,0.004 -0.02604,0 -0.06534,-0.003 -0.118339,-0.007 -0.05207,-0.005 -0.09065,-0.007 -0.115756,-0.007 z m -5.10098,0.0165 c -9.3e-4,0 -0.06205,0.005 -0.182935,0.014 -0.225034,0.0177 -0.379329,0.0264 -0.463021,0.0264 -0.294777,0 -0.517532,-0.01 -0.668176,-0.0295 -0.01116,-6.6e-4 -0.01777,-0.001 -0.01964,-0.001 -0.01579,0 -0.02706,0.0351 -0.03359,0.1049 -0.0037,0.0437 -0.007,0.0875 -0.0098,0.13126 -0.0019,0.014 -0.0099,0.0532 -0.02481,0.11834 -0.01302,0.0596 -0.01964,0.0954 -0.01964,0.10749 0,0.009 0.0073,0.0145 0.02222,0.0145 0.110657,0 0.258955,-0.009 0.444934,-0.0279 0.0074,0.25129 0.01137,0.41316 0.01137,0.48576 0,0.10982 -0.0047,0.27438 -0.01395,0.49403 -0.0093,0.21964 -0.01395,0.3842 -0.01395,0.49402 0,0.0242 0.01324,0.0387 0.03927,0.0434 0.04835,0.007 0.132224,0.0114 0.252181,0.0114 0.107866,0 0.189667,-0.004 0.245463,-0.0114 0.02324,-0.003 0.03647,-0.005 0.03927,-0.007 0.0084,-0.005 0.0124,-0.0159 0.0124,-0.0336 0,-0.10982 -0.0047,-0.275 -0.01395,-0.49557 -0.0084,-0.22058 -0.0124,-0.38576 -0.0124,-0.49558 0,-0.0931 0.0027,-0.25753 0.0083,-0.49299 0.244561,0.0139 0.384275,0.0212 0.419613,0.0212 0.02046,0 0.03101,-0.01 0.03101,-0.0284 v -5.2e-4 c 0,-0.0223 -0.0033,-0.0556 -0.0098,-0.10025 -0.0056,-0.0456 -0.0083,-0.0801 -0.0083,-0.10335 0,-0.0205 7.18e-4,-0.0556 0.0026,-0.1049 0.0019,-0.0447 0.0031,-0.0793 0.0031,-0.10439 -9.33e-4,-0.0157 -0.0029,-0.0249 -0.0057,-0.0269 -0.0028,-0.003 -0.01344,-0.004 -0.03204,-0.004 z m 7.360274,0.009 c -0.102288,0 -0.239313,0.002 -0.411344,0.006 -0.253863,0.006 -0.396161,0.0112 -0.426848,0.0165 -0.02976,0.006 -0.04434,0.0162 -0.04341,0.032 l 0.0016,0.0196 c 0.01767,0.22058 0.02636,0.5277 0.02636,0.92139 0,0.10331 -0.0048,0.25847 -0.01499,0.46508 -0.0093,0.20662 -0.01395,0.36066 -0.01395,0.46303 0,0.0235 0.01334,0.0381 0.04031,0.0434 0.02697,0.005 0.106804,0.008 0.239779,0.008 0.116238,0 0.201969,-0.002 0.256832,-0.006 0.01301,-0.001 0.02574,-0.002 0.03876,-0.003 0.0084,-0.003 0.01292,-0.0121 0.01292,-0.0279 0,-0.0633 -0.006,-0.15755 -0.01809,-0.28319 -0.01116,-0.12564 -0.01705,-0.21989 -0.01705,-0.28319 0,-0.0475 0.0072,-0.0713 0.02119,-0.0713 0.123673,0 0.171555,-0.001 0.14366,-0.003 0.06044,0.004 0.09902,0.0237 0.115755,0.0599 0.07718,0.18149 0.133751,0.31879 0.170016,0.41186 0.02697,0.0717 0.04755,0.12547 0.06149,0.16175 0.0074,0.0159 0.01404,0.0252 0.01964,0.0279 0.0028,0.002 0.01416,0.005 0.03462,0.007 0.0437,0.005 0.126747,0.008 0.248564,0.008 0.142271,0 0.230795,-0.002 0.266133,-0.008 0.01796,-0.003 0.02678,-0.007 0.02739,-0.0134 -3.06e-4,-0.0247 -0.05636,-0.15366 -0.169499,-0.38757 -0.113448,-0.23427 -0.170016,-0.35103 -0.170016,-0.35036 0,-0.0131 0.01066,-0.0275 0.03204,-0.0424 0.105078,-0.0763 0.176951,-0.15467 0.216007,-0.23564 0.03906,-0.081 0.05839,-0.18968 0.05839,-0.32557 0,-0.20382 -0.0758,-0.35971 -0.227377,-0.46767 -0.133904,-0.0959 -0.306814,-0.14366 -0.518831,-0.14366 z m 0.779281,1.95285 5.16e-4,5.2e-4 v -0.001 z m 0.529166,-1.94768 c -0.150641,0 -0.25902,0.004 -0.325044,0.0114 -0.02697,0.004 -0.04031,0.0156 -0.04031,0.0351 0,0.1061 0.0039,0.26601 0.01137,0.48007 0.0084,0.21313 0.0124,0.37304 0.0124,0.48008 0,0.10237 -0.004,0.25682 -0.0124,0.4625 -0.0074,0.20476 -0.01137,0.35806 -0.01137,0.46044 0,0.0214 0.01334,0.032 0.04031,0.032 0.04557,0 0.114025,0.001 0.205155,0.004 0.09206,0.003 0.160622,0.004 0.206189,0.004 0.242701,0 0.391514,-0.001 0.445451,-0.003 0.280828,-0.009 0.498414,-0.10407 0.653707,-0.2837 0.175638,-0.2009 0.263954,-0.43766 0.264066,-0.71107 v -5.1e-4 c -7.4e-5,-0.15059 -0.03265,-0.29701 -0.09767,-0.43925 -0.06788,-0.15077 -0.160335,-0.26816 -0.277503,-0.35192 -0.124606,-0.0893 -0.297412,-0.14509 -0.517798,-0.16743 -0.08462,-0.008 -0.270147,-0.0129 -0.556555,-0.0129 z m -6.858496,0.002 c -0.0186,0 -0.02791,0.0152 -0.02791,0.046 0,0.0745 -0.0027,0.18646 -0.0083,0.33538 -0.0047,0.14798 -0.0067,0.25885 -0.0067,0.33331 0,0.0531 0.182217,0.45433 0.546736,1.20355 0.01023,0.023 0.02295,0.0363 0.03876,0.0403 0.02232,0.005 0.08943,0.008 0.201021,0.008 0.0902,0 0.150798,-0.003 0.182418,-0.008 0.01765,-0.003 0.02882,-0.005 0.03256,-0.008 0.0037,-0.004 0.0098,-0.0136 0.01912,-0.0294 0.03627,-0.0838 0.06274,-0.14807 0.07855,-0.19276 l 0.154513,-0.39222 0.151929,0.38809 c 0.04741,0.12096 0.07398,0.18662 0.07958,0.19689 0.0084,0.015 0.01436,0.0237 0.01809,0.0264 0.0037,0.003 0.01499,0.007 0.03359,0.0114 0.02232,0.005 0.08416,0.008 0.185518,0.008 0.108796,0 0.174671,-0.003 0.197921,-0.008 0.01393,-0.004 0.02314,-0.008 0.02687,-0.0124 0.0019,-0.002 0.0066,-0.0112 0.01499,-0.0279 0.02511,-0.0475 0.125524,-0.26105 0.301274,-0.64078 0.172961,-0.37241 0.259415,-0.56009 0.259415,-0.56276 v -5.2e-4 c 0,-0.0726 -0.0027,-0.18151 -0.0083,-0.32763 -0.0047,-0.14705 -0.0067,-0.25772 -0.0067,-0.33124 0,-0.0372 -0.0092,-0.0558 -0.02687,-0.0558 -0.05486,0 -0.137389,0.003 -0.248047,0.007 -0.109729,0.005 -0.19215,0.007 -0.247013,0.007 -0.02138,0 -0.03204,0.009 -0.03204,0.0253 0,0.0745 0.0033,0.18719 0.0098,0.33796 0.0074,0.14985 0.01137,0.26258 0.01137,0.33797 0,0.0279 -0.03247,0.11495 -0.09663,0.262 -0.05766,0.13494 -0.09954,0.22568 -0.125574,0.2713 -0.01393,0.0242 -0.02324,0.0362 -0.0279,0.0362 -0.0065,0 -0.02585,-0.0444 -0.05839,-0.13281 -0.09578,-0.25499 -0.143661,-0.40623 -0.143661,-0.45371 v -0.0713 c -9.33e-4,-0.0661 0.001,-0.16291 0.0057,-0.29042 0.0047,-0.13122 0.0067,-0.22754 0.0067,-0.2899 0,-0.0251 -0.08852,-0.0377 -0.266134,-0.0377 -0.116236,0 -0.198037,0.002 -0.245463,0.008 -0.01766,0.003 -0.02821,0.006 -0.03101,0.01 -0.0028,0.003 -0.0041,0.0133 -0.0041,0.031 0,0.0279 0.0013,0.13735 0.0041,0.32814 0.0028,0.13217 0.0027,0.24097 -10e-4,0.3266 -0.0019,0.0456 -0.04643,0.19354 -0.133842,0.4439 -0.03069,0.0893 -0.04992,0.13384 -0.05736,0.13384 -0.0047,0 -0.01396,-0.012 -0.02791,-0.0362 -0.0279,-0.0475 -0.07247,-0.13832 -0.133842,-0.27234 -0.06788,-0.14982 -0.101802,-0.2387 -0.101802,-0.26665 0,-0.0745 0.0033,-0.18657 0.0098,-0.33641 0.0074,-0.15077 0.01085,-0.26351 0.01085,-0.33797 0,-0.0177 -0.01065,-0.0264 -0.03204,-0.0264 -0.05393,0 -0.134494,-0.002 -0.242362,-0.007 -0.106939,-0.005 -0.187292,-0.007 -0.240296,-0.007 z m -1.580265,0.002 c -0.02512,0 -0.03649,0.0106 -0.03462,0.032 l 10e-4,0.0191 c 0.0074,0.14798 0.0127,0.25937 0.0155,0.33383 0.01116,0.28945 0.01654,0.48714 0.01654,0.59324 0,0.10424 -0.006,0.26137 -0.01809,0.47077 -0.01116,0.20849 -0.01654,0.36447 -0.01654,0.46871 0,0.027 0.01531,0.0408 0.04599,0.0408 0.07067,0 0.176466,3.7e-4 0.317811,10e-4 0.141344,6.6e-4 0.247757,0.001 0.31936,0.001 0.328253,0 0.526396,0.005 0.594279,0.014 0.01952,0.003 0.03349,0.004 0.04186,0.004 0.01953,0 0.03483,-0.009 0.04599,-0.0269 0.01301,-0.0223 0.02822,-0.0914 0.04496,-0.20774 0.01573,-0.10654 0.0237,-0.17949 0.02377,-0.21963 v -5.1e-4 -5.2e-4 c -2.65e-4,-0.0326 -0.01082,-0.0491 -0.031,-0.0491 -0.04836,0 -0.121469,0.005 -0.219109,0.0139 -0.09671,0.008 -0.169305,0.0124 -0.218591,0.0124 h -0.203605 c -0.103221,-0.007 -0.162994,-0.0277 -0.1788,-0.063 -0.0093,-0.0205 -0.01395,-0.0657 -0.01395,-0.13643 0,-0.053 6.17e-4,-0.0822 0.0016,-0.0868 0.0065,-0.0186 0.02854,-0.0279 0.06666,-0.0279 h 0.147794 c 0.18877,0 0.309765,0.003 0.362769,0.008 l 0.125574,0.014 c 0.02697,0 0.04031,-0.009 0.04031,-0.0279 0,-0.0745 0.0039,-0.14879 0.01137,-0.22324 0.01674,-0.16194 0.02532,-0.23348 0.02532,-0.21394 0,-0.0214 -0.01127,-0.032 -0.03359,-0.032 -0.01859,0 -0.04383,0.002 -0.07545,0.006 -0.04091,0.004 -0.06625,0.006 -0.07648,0.007 -0.119957,0.007 -0.238883,0.0103 -0.35605,0.0103 -0.01767,0 -0.0397,5.8e-4 -0.06666,0.003 -0.02697,6.7e-4 -0.04496,0.001 -0.05426,0.001 -0.04463,0 -0.07514,-0.009 -0.09095,-0.0263 -0.0186,-0.0205 -0.02791,-0.0623 -0.02791,-0.12558 0,-0.0605 0.0026,-0.0963 0.0072,-0.10748 0.01116,-0.0233 0.04115,-0.0351 0.09043,-0.0351 0.197138,0 0.419273,0.0105 0.666626,0.031 0.01393,6.7e-4 0.02386,0.001 0.02946,0.001 0.0186,0 0.0279,-0.01 0.0279,-0.0295 0,-0.0233 -0.0053,-0.0889 -0.0155,-0.19689 -0.0093,-0.10888 -0.01601,-0.17392 -0.02067,-0.19533 -0.0074,-0.0363 -0.03536,-0.0543 -0.08372,-0.0543 -0.06788,0 -0.170263,0.002 -0.306958,0.006 -0.136695,0.004 -0.239075,0.006 -0.306958,0.006 -0.06881,0 -0.172537,-0.002 -0.311092,-0.006 -0.137625,-0.004 -0.24073,-0.006 -0.309542,-0.006 z m 6.942212,0.40514 c 0.122745,0 0.213129,0.0166 0.270784,0.0501 0.07439,0.0437 0.111105,0.12262 0.111105,0.23616 0,0.16194 -0.10176,0.24288 -0.305408,0.24288 -0.0623,0 -0.121562,-0.004 -0.178284,-0.0124 -0.02975,-0.005 -0.04496,-0.009 -0.04496,-0.014 0,-0.0205 -1.01e-4,-0.0516 -10e-4,-0.0935 -9.33e-4,-0.0419 -0.0016,-0.0737 -0.0016,-0.0951 0,-0.1508 0.0027,-0.24227 0.0083,-0.27388 0.0056,-0.027 0.05274,-0.0403 0.141077,-0.0403 z m 1.893941,0.0222 c 0.156223,0 0.281872,0.0517 0.376721,0.15503 0.09392,0.0996 0.141077,0.22822 0.141077,0.38551 0,0.16566 -0.04323,0.29905 -0.129708,0.40049 -0.09206,0.10703 -0.218432,0.16071 -0.379305,0.16071 -0.148784,0 -0.223242,-0.0199 -0.223242,-0.0599 0,-0.0549 -0.0012,-0.13647 -0.0031,-0.24443 -0.0019,-0.10891 -0.0026,-0.19047 -0.0026,-0.24443 0,-0.0549 7.18e-4,-0.13719 0.0026,-0.24701 0.0019,-0.11078 0.0031,-0.19368 0.0031,-0.24857 0,-0.0382 0.07125,-0.0574 0.214457,-0.0574 z m -3.71967,0.22376 c 0.01953,0.0372 0.05014,0.12281 0.09199,0.25683 0.04277,0.13864 0.06408,0.2235 0.06408,0.25425 0,0.008 -7.18e-4,0.0145 -0.0026,0.0191 -0.0065,0.0149 -0.04043,0.0227 -0.101802,0.0227 -0.06602,0 -0.1138,-10e-4 -0.142627,-0.003 -0.0558,-0.002 -0.08372,-0.0112 -0.08372,-0.0279 0,-0.0251 0.02523,-0.11061 0.07545,-0.2558 0.04642,-0.13658 0.07968,-0.22509 0.09922,-0.26613 z" />
    </g>
  </g>
</svg>
