<?xml version="1.0" encoding="UTF-8" standalone="no"?>
<!-- Created with Inkscape (http://www.inkscape.org/) -->

<svg
   width="30.000059mm"
   height="26.243113mm"
   viewBox="0 0 30.000059 26.243112"
   version="1.1"
   id="svg154673"
   inkscape:version="1.3 (0e150ed6c4, 2023-07-21)"
   sodipodi:docname="hoc-pins-perserverance.svg"
   xmlns:inkscape="http://www.inkscape.org/namespaces/inkscape"
   xmlns:sodipodi="http://sodipodi.sourceforge.net/DTD/sodipodi-0.dtd"
   xmlns="http://www.w3.org/2000/svg"
   xmlns:svg="http://www.w3.org/2000/svg">
  <sodipodi:namedview
     id="namedview154675"
     pagecolor="#ffffff"
     bordercolor="#666666"
     borderopacity="1.0"
     inkscape:showpageshadow="2"
     inkscape:pageopacity="0.0"
     inkscape:pagecheckerboard="0"
     inkscape:deskcolor="#d1d1d1"
     inkscape:document-units="mm"
     showgrid="false"
     inkscape:zoom="4.4498127"
     inkscape:cx="56.631597"
     inkscape:cy="49.10319"
     inkscape:window-width="1920"
     inkscape:window-height="991"
     inkscape:window-x="-9"
     inkscape:window-y="-9"
     inkscape:window-maximized="1"
     inkscape:current-layer="g155104"
     showguides="true" />
  <defs
     id="defs154670" />
  <g
     inkscape:label="Layer 1"
     inkscape:groupmode="layer"
     id="layer1"
     transform="translate(-43.937168,-189.03661)">
    <g
       id="g150107"
       transform="translate(-9.7057584,58.468106)">
      <g
         id="g139062"
         transform="matrix(1.1912363,0,0,1.1911925,31.574771,-97.685146)"
         style="stroke-width:0.839479">
        <g
           id="g154932">
          <g
             id="g154983">
            <g
               id="g155035">
              <g
                 id="g155104">
                <g
                   id="g2484"
                   transform="matrix(0.83946402,0,0,0.83949489,-32.615091,78.973597)">
                  <path
                     style="fill:#bfbfbf;fill-opacity:1;fill-rule:nonzero;stroke:#cc0000;stroke-width:0.104973;stroke-dasharray:none"
                     d="m 66.541238,134.25747 v 2.5e-4 l -1.893206,4.42821 c 1.425843,1.07402 2.249871,2.29963 2.450138,3.64301 0.185497,1.24352 -0.312705,2.15163 -0.889641,3.20246 -0.63782,1.15966 -1.360612,2.47653 -1.360612,4.61919 0,1.36037 0.333474,2.41501 0.886534,3.26362 h -4.716184 l 1.500687,2.26101 c 0.03006,0.0478 0.02996,0.10769 -0.002,0.15552 l -1.49525,2.20969 h 4.468141 l 0.01547,0.66961 v 1.01169 h 4.973288 5.001823 l 0.440876,0.61244 0.454646,-0.63156 9.975313,0.0189 v -1.01169 l 0.003,-0.67323 h 4.465033 l -1.497321,-2.20945 c -0.03182,-0.046 -0.03182,-0.10801 0,-0.15568 l 1.500688,-2.26101 H 86.11082 c 0.551625,-0.84796 0.883948,-1.90162 0.883948,-3.25999 0,-2.14264 -0.722806,-3.45953 -1.360614,-4.61919 -0.576853,-1.05083 -1.075259,-1.95894 -0.8899,-3.20246 0.200459,-1.34337 1.024783,-2.56897 2.450397,-3.643 l -1.893465,-4.4282 c -2.383961,1.47366 -5.792985,2.31749 -9.379807,2.31749 -3.586752,0 -6.995975,-0.84383 -9.380067,-2.31749 z"
                     id="path139854"
                     sodipodi:nodetypes="cccccsccccccccccccccccccccsccccscc" />
                  <path
                     id="path139856"
                     style="fill:#000000;fill-opacity:1;fill-rule:nonzero;stroke:none;stroke-width:0.04629"
                     d="m 66.541675,134.25692 -5.17e-4,5.2e-4 -1.892908,4.42815 c 1.425845,1.07403 2.249715,2.29981 2.44998,3.64319 0.185497,1.24352 -0.312932,2.15157 -0.889868,3.20239 -0.63782,1.15967 -1.360641,2.4767 -1.360641,4.61935 0,1.36037 0.333705,2.41476 0.886768,3.26337 h -4.715991 l 1.500683,2.26136 c 0.03006,0.0478 0.02991,0.10772 -0.0021,0.15555 l -1.495516,2.20968 h 4.468461 v -0.32401 h -3.623034 -5.17e-4 c -0.05116,-9e-5 -0.09881,-0.0285 -0.123507,-0.076 -0.02299,-0.0461 -0.0195,-0.10064 0.0124,-0.14315 l 1.254703,-1.74614 -1.256254,-1.79576 c -0.03006,-0.0425 -0.03354,-0.097 -0.0088,-0.14314 0.02299,-0.046 0.07068,-0.0744 0.121957,-0.0744 h 4.096391 c 0.0028,0.003 0.0055,0.008 0.0083,0.0109 h 1.219564 l 0.299723,-0.15864 0.299723,-0.15813 H 68.0103 c 0.187547,0 0.21914,0.005 0.212907,0.0351 -0.0044,0.0211 -0.419215,0.24546 -1.024744,0.55397 l -0.675411,0.34416 c 0.0028,0.003 0.006,0.005 0.0088,0.008 l -0.320394,0.16226 h 0.494544 c 0.0013,10e-4 0.0022,0.003 0.0036,0.003 l 9.211841,5.2e-4 v -0.3142 c 0.891602,0 1.631906,-0.31153 2.220536,-0.93534 0.577093,-0.60935 0.865581,-1.36197 0.865581,-2.25723 0,-0.89813 -0.288488,-1.65324 -0.865581,-2.26549 -0.58863,-0.62668 -1.328934,-0.93999 -2.220536,-0.93999 h -5.17e-4 c 2.1e-5,0.5472 5.03e-4,1.08211 5.17e-4,1.61592 0.406847,0 0.751273,0.16429 1.034045,0.49351 0.27412,0.31769 0.411345,0.6831 0.411345,1.09605 0,0.44186 -0.128183,0.81028 -0.38499,1.10485 -0.271228,0.30901 -0.624694,0.46353 -1.0604,0.46353 v 1.62368 c -0.891602,0 -1.631905,-0.31207 -2.220536,-0.93586 -0.577094,-0.60935 -0.865581,-1.36144 -0.865581,-2.25671 0,-0.89815 0.288487,-1.65377 0.865581,-2.26601 0.58857,-0.62662 1.329054,-0.93995 2.220536,-0.94 -4.1e-5,-1.33618 5e-5,-2.51276 0,-3.94601 l 2.006596,2.00866 -0.772563,0.77257 0.342098,0.34209 0.268718,-0.26923 -0.160197,-0.1602 0.173116,-0.1726 0.160197,0.1602 0.181901,0.18242 0.115755,0.11627 -0.172599,0.1726 -0.116272,-0.11679 -0.268718,0.26975 0.393258,0.39326 0.772563,-0.7736 0.21394,0.21446 0.403593,-0.40359 -3.137793,-3.14038 0.312642,-0.31316 0.134359,0.13333 c 0.04785,0.0488 0.146852,0.0271 0.221692,-0.047 0.07393,-0.0749 0.09573,-0.17343 0.04703,-0.22221 l -0.201022,-0.20102 0.173116,-0.17363 0.201022,0.20205 c 0.04785,0.0478 0.14687,0.0259 0.221691,-0.0481 0.07393,-0.0741 0.09572,-0.17293 0.04703,-0.22169 l -0.201021,-0.20154 0.422713,-0.42271 0.201538,0.20154 c 0.04785,0.0478 0.146868,0.0266 0.221692,-0.0475 0.07395,-0.0739 0.09488,-0.17329 0.04702,-0.22118 l -0.05581,-0.0568 c 1.378234,0.0697 2.325523,0.0376 2.826701,-0.25942 0.906662,-0.53731 0.804171,-1.62509 0.06459,-2.10581 0.171415,-0.28301 0.431848,-0.84031 0.0925,-1.18081 -0.350655,-0.35095 -0.918173,-0.0755 -1.184424,0.0873 -0.241443,-0.36662 -0.632258,-0.57539 -1.029911,-0.57929 h -5.17e-4 c -0.39765,-0.005 -0.801625,0.1971 -1.069185,0.64906 -0.296708,0.50161 -0.328994,1.44987 -0.259416,2.82928 l -0.05581,-0.0558 c -0.04871,-0.0478 -0.147756,-0.0271 -0.221692,0.047 -0.07397,0.0749 -0.09575,0.1743 -0.04703,0.2222 l 0.201021,0.20103 -0.422713,0.42323 -0.201021,-0.20103 c -0.04875,-0.0478 -0.148261,-0.0269 -0.222209,0.047 -0.07397,0.0749 -0.09524,0.17379 -0.04651,0.22169 l 0.201021,0.20154 -0.173116,0.17312 -0.201538,-0.20102 c -0.04785,-0.0478 -0.146868,-0.0271 -0.221692,0.047 -0.07397,0.0749 -0.09575,0.17432 -0.04703,0.22221 l 0.133842,0.13384 -0.312642,0.31368 -5.17e-4,-5.2e-4 -5.17e-4,5.2e-4 c 1.1e-5,0.2686 -9e-6,0.51487 0,0.80822 l -2.006079,2.00711 0.772563,0.77256 -0.342098,0.3421 -0.268718,-0.26872 0.160197,-0.16071 -0.173116,-0.17208 -0.160197,0.16019 -0.181901,0.1819 -0.115755,0.11679 0.172599,0.1726 0.116272,-0.11679 0.268718,0.26975 -0.393258,0.39275 -0.772563,-0.77308 -0.21394,0.21394 -0.40411,-0.40308 3.13831,-3.14089 -0.313159,-0.31265 -0.133842,0.13333 c -0.04785,0.0488 -0.146849,0.0266 -0.221692,-0.0475 -0.07395,-0.0749 -0.0957,-0.17293 -0.04702,-0.22169 l 0.201021,-0.20103 -0.173116,-0.17363 -0.201022,0.20206 c -0.04785,0.0478 -0.146859,0.0259 -0.221691,-0.0481 -0.07393,-0.0741 -0.09622,-0.17293 -0.04754,-0.2217 l 0.201538,-0.20153 -0.42323,-0.42323 -0.201021,0.20205 c -0.04785,0.0478 -0.146854,0.0265 -0.221692,-0.0475 -0.07395,-0.0741 -0.09488,-0.1738 -0.04702,-0.22169 l 0.05581,-0.0563 c -1.378232,0.0697 -2.325519,0.0376 -2.826701,-0.25942 -0.906662,-0.53729 -0.804158,-1.6251 -0.06459,-2.10581 -0.171413,-0.28302 -0.431858,-0.84031 -0.0925,-1.18081 0.350659,-0.35096 0.918173,-0.0756 1.184424,0.0873 0.241445,-0.36663 0.632274,-0.5754 1.029911,-0.5793 0.397648,-0.005 0.80214,0.19708 1.069702,0.64906 0.296703,0.50159 0.328994,1.44987 0.259416,2.82928 l 0.05529,-0.0558 c 0.04871,-0.0478 0.148261,-0.0271 0.222208,0.047 0.07397,0.0749 0.09576,0.1738 0.04703,0.22169 l -0.201538,0.20154 0.42323,0.42323 0.201021,-0.20154 c 0.04875,-0.0478 0.14775,-0.0266 0.221692,0.0475 0.07397,0.0749 0.09578,0.1738 0.04703,0.2217 l -0.201022,0.20102 0.173116,0.17363 0.201022,-0.20102 c 0.04785,-0.0478 0.147385,-0.0271 0.222208,0.047 0.07397,0.0749 0.09524,0.17381 0.04651,0.2217 l -0.133842,0.13435 0.313159,0.31316 c -7.1e-5,-1.80442 1.05e-4,-5.42602 0,-5.42602 h 5.17e-4 c 3.246532,-0.008 6.437641,-0.68492 8.863542,-1.88206 l 1.11311,2.60294 c -1.257308,1.12578 -1.998782,2.4016 -2.208134,3.80391 -0.238844,1.60208 0.396263,2.75813 1.010791,3.87676 0.603689,1.099 1.227832,2.2352 1.227832,4.10311 0,1.44146 -0.444264,2.46506 -1.173572,3.26027 h -0.72347 l 0.483692,0.24546 c -0.0025,0.003 -0.0056,0.005 -0.0083,0.008 l 0.167949,0.0853 h 1.196309 c 0.0034,-0.005 0.0072,-0.009 0.01085,-0.014 h 4.09019 c 0.05125,0 0.09927,0.0279 0.124023,0.0739 0.02299,0.046 0.01945,0.10285 -0.0088,0.14521 l -1.258321,1.79369 1.256254,1.74615 c 0.03006,0.0425 0.03559,0.0987 0.01085,0.14469 -0.02299,0.0461 -0.07049,0.0744 -0.123506,0.0744 h -3.618384 v 0.32401 h 4.464844 l -1.497067,-2.20969 c -0.03181,-0.046 -0.03181,-0.10787 0,-0.15554 l 1.500684,-2.26085 h -4.711857 c 0.551623,-0.84795 0.884184,-1.9019 0.884184,-3.26026 0,-2.14267 -0.722832,-3.4597 -1.360641,-4.61936 -0.57685,-1.05083 -1.075225,-1.95887 -0.889868,-3.20239 0.200461,-1.34338 1.024369,-2.56865 2.44998,-3.64267 l -1.893425,-4.42867 c -2.383967,1.47368 -5.792961,2.31769 -9.379789,2.31769 -3.586759,0 -6.995694,-0.84401 -9.379789,-2.31769 z m 9.379789,18.34358 c -1.4e-5,-1.00134 2.5e-5,-2.1148 0,-3.15794 -0.406846,0 -0.751788,0.16429 -1.034562,0.49351 -0.274122,0.31769 -0.411345,0.68309 -0.411345,1.09605 0,0.44184 0.128178,0.81026 0.38499,1.10485 0.271231,0.30901 0.625211,0.46353 1.060917,0.46353 z m -2.969328,-14.30352 c -0.425267,0.008 -0.842899,0.36554 -0.880566,1.09865 -0.01032,0.20291 -0.110607,0.22341 -0.162781,0.22427 -1.153778,0.0244 -1.428765,0.96408 -0.911055,1.48312 0.577733,0.57735 2.832902,0.28008 2.832902,0.28008 0,0 0.296776,-2.25725 -0.280087,-2.83548 -0.159065,-0.15893 -0.357484,-0.24297 -0.557072,-0.25012 -0.01376,-4.7e-4 -0.02761,-0.001 -0.04134,-5.2e-4 z m 5.938139,0 c 0.425264,0.008 0.8429,0.36603 0.880566,1.09916 0.01032,0.20291 0.11111,0.2229 0.163298,0.22376 1.153774,0.0244 1.428248,0.9641 0.910539,1.48312 -0.577728,0.57737 -2.832902,0.28008 -2.832902,0.28008 0,0 -0.296789,-2.25725 0.280086,-2.83548 0.159065,-0.15893 0.357996,-0.24296 0.557589,-0.25012 0.01375,-4.5e-4 0.02709,-0.001 0.04082,-5.2e-4 z m -7.733895,0.17984 c -0.06507,0.003 -0.122432,0.022 -0.164848,0.0646 -0.153134,0.15333 0.01394,0.53428 0.162781,0.77463 0.158348,-0.0531 0.334989,-0.0832 0.528133,-0.0832 0,-0.19595 0.03043,-0.37411 0.08527,-0.53434 -0.140707,-0.0875 -0.383451,-0.21367 -0.574125,-0.22169 -0.01266,-4.3e-4 -0.02503,-4.3e-4 -0.03721,0 z m 9.492444,0 c 0.01266,-4.5e-4 0.02554,-4.5e-4 0.03772,0 0.06507,0.003 0.121921,0.0222 0.164331,0.0646 0.153136,0.15333 -0.01387,0.53426 -0.162781,0.77463 -0.158348,-0.0531 -0.334988,-0.0827 -0.528133,-0.0827 0,-0.19594 -0.03042,-0.37461 -0.08527,-0.53485 0.14071,-0.0875 0.383446,-0.2137 0.574125,-0.22169 z m 1.768884,8.30544 c -0.859866,0 -1.568044,0.32057 -2.124935,0.96169 -0.533809,0.61224 -0.800984,1.35759 -0.800984,2.23553 0,0.90682 0.272686,1.65767 0.818038,2.25257 0.559775,0.61514 1.289785,0.92243 2.190047,0.92243 0.880061,0 1.585742,-0.3158 2.116667,-0.94827 0.06039,-0.0748 0.09075,-0.13569 0.09095,-0.1819 v -5.1e-4 c -6.77e-4,-0.0326 -0.105783,-0.2086 -0.315743,-0.52814 -0.204864,-0.30898 -0.330555,-0.48957 -0.376721,-0.54157 -0.02884,-0.0318 -0.05795,-0.0475 -0.08682,-0.0475 -0.01443,0 -0.08491,0.0546 -0.211873,0.16433 -0.15293,0.12996 -0.302944,0.23113 -0.450102,0.30334 -0.225063,0.10974 -0.463132,0.16485 -0.714168,0.16485 -0.424164,0 -0.763074,-0.16179 -1.016992,-0.48524 -0.233723,-0.29747 -0.350883,-0.66588 -0.350883,-1.10484 0,-0.4332 0.11716,-0.79684 0.350883,-1.09141 0.253918,-0.31768 0.592828,-0.47646 1.016992,-0.47646 0.245264,0 0.482083,0.0576 0.710034,0.17312 0.150043,0.078 0.302555,0.18642 0.45837,0.32504 0.129838,0.11552 0.202091,0.17312 0.216524,0.17312 0.03463,0 0.06374,-0.0115 0.08682,-0.0346 0.05194,-0.0433 0.17711,-0.24145 0.376204,-0.59376 0.201981,-0.35228 0.303341,-0.55589 0.303341,-0.61082 0,-0.049 -0.02911,-0.10487 -0.08682,-0.16847 -0.530925,-0.57469 -1.263949,-0.86247 -2.198833,-0.86247 z m -15.909106,0.14314 c 0.08946,0 0.223662,0.005 0.402559,0.0124 0.181785,0.009 0.317245,0.0124 0.406694,0.0124 0.09233,0 0.230812,-0.005 0.415478,-0.0124 0.187556,-0.009 0.327278,-0.0124 0.419613,-0.0124 0.04905,0 0.07338,0.0259 0.07338,0.078 0,0.21659 -0.01529,0.54143 -0.04703,0.97462 -0.03175,0.43029 -0.04754,0.75337 -0.04754,0.96996 0,0.10113 0.02682,0.16044 0.08165,0.17777 0.07503,0.0231 0.444807,0.0351 1.10846,0.0351 0.617471,0 0.975216,-0.0113 1.073319,-0.0351 0.06926,-0.0174 0.10387,-0.0768 0.10387,-0.17777 0,-0.20792 -0.01025,-0.52072 -0.03049,-0.93947 -0.0202,-0.42163 -0.03049,-0.73795 -0.03049,-0.94878 0,-0.0896 0.03637,-0.13436 0.10852,-0.13436 0.08367,0 0.210613,0.005 0.380856,0.0124 0.173126,0.009 0.303076,0.0124 0.38964,0.0124 0.08367,0 0.210614,-0.005 0.380855,-0.0124 0.173128,-0.009 0.302565,-0.0124 0.389124,-0.0124 0.08369,0 0.125573,0.0344 0.125573,0.10387 0,0.33213 -0.01404,0.83328 -0.04289,1.50327 -0.02595,0.67001 -0.03876,1.17241 -0.03876,1.5074 0,0.3148 0.01404,0.78688 0.04289,1.41645 0.03172,0.62958 0.04754,1.10043 0.04754,1.41232 0,0.0606 -0.01281,0.0981 -0.03876,0.11265 -0.01157,0.009 -0.05221,0.0159 -0.121439,0.0217 -0.176014,0.0173 -0.423854,0.0258 -0.744141,0.0258 -0.453017,0 -0.720192,-0.008 -0.800985,-0.0258 -0.07791,-0.0173 -0.116789,-0.0562 -0.116789,-0.11678 0,-0.22814 0.01018,-0.57053 0.03049,-1.02682 0.0231,-0.45919 0.03462,-0.8028 0.03462,-1.03094 0,-0.1127 -0.03214,-0.17801 -0.0956,-0.19534 -0.09812,-0.0231 -0.446804,-0.0346 -1.046964,-0.0346 -0.603062,0 -0.955279,0.0108 -1.056266,0.0346 -0.06348,0.0141 -0.09508,0.0799 -0.09508,0.19534 0,0.22525 0.0073,0.56286 0.0217,1.01337 0.01438,0.44762 0.02119,0.7845 0.02119,1.00976 0,0.0866 -0.03889,0.13687 -0.116788,0.15141 -0.09233,0.0173 -0.363259,0.0258 -0.813387,0.0258 -0.389537,0 -0.637895,-0.008 -0.744658,-0.0258 -0.08367,-0.0141 -0.125574,-0.0592 -0.125574,-0.13435 0,-0.31189 0.01456,-0.78276 0.04341,-1.41232 0.03175,-0.62958 0.04754,-1.10166 0.04754,-1.41645 0,-0.33499 -0.01455,-0.83739 -0.04341,-1.5074 -0.02885,-0.67289 -0.04289,-1.17706 -0.04289,-1.51206 0,-0.0635 0.03036,-0.0951 0.09095,-0.0951 z m 17.081128,6.57376 v 0.87798 c -0.08491,0.0553 -0.171298,0.10961 -0.259416,0.16278 h 1.801957 c 0.0015,-0.001 0.0032,-0.003 0.0047,-0.005 h 0.496094 l -0.321427,-0.16278 0.0093,-0.009 -0.323494,-0.16588 c -0.245618,-0.12582 -0.467155,-0.23786 -0.692464,-0.35192 -0.0041,0.003 -0.008,0.006 -0.01189,0.009 z m -17.40824,0.50591 v 0.003 c 0.0012,2e-5 8.67e-4,-1e-5 0.0021,0 -7.34e-4,-7.1e-4 -0.0013,-0.002 -0.0021,-0.003 z m 0.0021,0.003 c 0.0024,0.002 0.0049,0.005 0.0072,0.008 h -4.057634 l 1.161687,1.65778 c 0.03358,0.0478 0.03358,0.11123 0,0.16072 l -1.156002,1.60455 h 3.351216 v -2.72955 c -0.01063,-0.0477 0.0052,-0.0976 0.03876,-0.13126 l 0.01395,-0.009 0.01964,-0.016 0.0088,-0.003 0.0057,-0.003 0.749825,-0.38034 c 0.0023,0.003 0.0048,0.005 0.0072,0.008 0.143302,-0.075 0.246466,-0.13128 0.269751,-0.14832 l 0.01912,-0.009 h -0.0031 c 3e-5,-1e-4 0.0021,-5.1e-4 0.0021,-5.1e-4 1.02e-4,-0.003 -0.183635,-0.006 -0.438216,-0.009 z m 19.475814,-5.1e-4 -0.470256,0.003 0.320394,0.16381 c 0.0025,-0.003 0.0052,-0.006 0.0078,-0.008 l 0.760677,0.38706 0.02481,0.0176 0.01033,0.009 0.02842,0.0403 0.0036,0.0145 0.0072,0.0351 0.0021,0.006 v 2.76004 h 3.347599 l -1.156002,-1.60455 c -0.03537,-0.0478 -0.03504,-0.11347 -0.0021,-0.16124 l 1.16117,-1.65726 H 85.65472 c 0.0015,-0.002 0.0031,-0.005 0.0047,-0.005 z m -18.626253,0.80563 c 6.02e-4,4.6e-4 9.5e-4,0.001 0.0015,0.001 h -1.267106 v 4.62607 l 9.513631,0.005 0.640271,0.88883 0.639754,-0.88883 c 0.003,-0.003 9.514148,-0.005 9.514148,-0.005 v -4.62607 h -1.267623 c 5.01e-4,-4.5e-4 0.0011,-0.001 0.0021,-0.001 H 82.85129 c -0.001,4.6e-4 -0.0011,0.001 -0.0021,0.001 h -6.927743 v -0.001 z m -0.869715,0.32505 h 1.310515 c 0.0045,0.003 0.0089,0.006 0.01344,0.009 h 8.43411 v -0.009 h 6.284888 c -0.0066,0.003 -0.01292,0.006 -0.01964,0.009 h 2.168343 c 0.0045,-0.003 0.0089,-0.006 0.01344,-0.009 h 1.310514 c 0.07601,0 0.139526,0.0623 0.139526,0.14004 v 3.70055 c 0,0.0761 -0.06352,0.13953 -0.139526,0.13953 H 66.163403 c -0.07601,0 -0.137459,-0.0634 -0.137459,-0.13953 v -3.70055 c 0,-0.0778 0.06146,-0.14004 0.137459,-0.14004 z m 7.458977,1.03249 c -0.0056,0 -0.01354,3.7e-4 -0.02377,0.001 -0.186909,0.0279 -0.344513,0.0883 -0.472839,0.18138 -0.157153,0.11262 -0.235644,0.25394 -0.235644,0.42426 0,0.11727 0.03247,0.22464 0.09663,0.32143 0.0093,0.014 0.06856,0.0843 0.178284,0.21084 0.06323,0.0745 0.09508,0.14156 0.09508,0.20206 0,0.0949 -0.0485,0.16655 -0.145211,0.21497 -0.04371,0.0214 -0.132848,0.0479 -0.267684,0.0786 -0.01395,0.003 -0.02119,0.009 -0.02119,0.0191 0,0.0289 0.03661,0.10906 0.110071,0.24029 0.07346,0.1303 0.121242,0.19534 0.142626,0.19534 0.0047,0 0.01065,-3.7e-4 0.01809,-0.001 0.199928,-0.0326 0.369528,-0.10825 0.509013,-0.22738 0.158864,-0.13482 0.238597,-0.29653 0.238745,-0.48524 v -5.2e-4 c -1.1e-4,-0.10127 -0.0333,-0.2032 -0.09922,-0.30541 -0.0056,-0.007 -0.06742,-0.0857 -0.185518,-0.23461 -0.06695,-0.0828 -0.100252,-0.15253 -0.100252,-0.20929 0,-0.0633 0.02999,-0.11244 0.09043,-0.14779 0.05021,-0.0308 0.108746,-0.046 0.175699,-0.046 0.0093,0 0.02264,9.5e-4 0.04031,0.004 0.01767,0.003 0.03029,0.004 0.03772,0.004 0.01674,0 0.02532,-0.008 0.02532,-0.0238 0,-0.004 -0.0013,-0.009 -0.0041,-0.0139 -0.08834,-0.17777 -0.144806,-0.30052 -0.168982,-0.36846 -0.0084,-0.0223 -0.01964,-0.0336 -0.03359,-0.0336 z m -1.666565,0.0512 c -0.102289,0 -0.239314,0.002 -0.411345,0.006 -0.253862,0.006 -0.39616,0.0117 -0.426847,0.0171 -0.02976,0.006 -0.04434,0.0162 -0.04341,0.032 l 0.0016,0.0196 c 0.01767,0.22057 0.02635,0.5277 0.02635,0.92139 0,0.1033 -0.0053,0.25795 -0.0155,0.46457 -0.0093,0.20661 -0.01395,0.36116 -0.01395,0.46354 0,0.0235 0.01334,0.0381 0.04031,0.0434 0.02697,0.005 0.10732,0.008 0.240295,0.008 0.116239,0 0.201453,-0.002 0.256316,-0.006 0.01301,-0.001 0.02625,-0.002 0.03927,-0.003 0.0084,-0.003 0.0124,-0.0121 0.0124,-0.0279 0,-0.0633 -0.006,-0.15754 -0.01809,-0.28319 -0.01116,-0.12564 -0.01654,-0.22041 -0.01654,-0.28371 0,-0.0475 0.0067,-0.0713 0.02067,-0.0713 0.123674,0 0.171555,-5.8e-4 0.143661,-0.003 0.06044,0.004 0.09902,0.0237 0.115755,0.0599 0.07718,0.18149 0.134268,0.3188 0.170532,0.41186 0.02697,0.0717 0.04703,0.12547 0.06098,0.16175 0.0074,0.0159 0.01404,0.0252 0.01964,0.0279 0.0028,0.002 0.01468,0.005 0.03514,0.007 0.04371,0.005 0.126231,0.008 0.248047,0.008 0.142272,0 0.231313,-0.002 0.266651,-0.008 0.01827,-0.003 0.02758,-0.007 0.02791,-0.0134 v -5.1e-4 c -2.23e-4,-0.0246 -0.05731,-0.1535 -0.170532,-0.38758 -0.113448,-0.23427 -0.170016,-0.35103 -0.170016,-0.35036 0,-0.0131 0.01066,-0.027 0.03204,-0.0419 0.105078,-0.0763 0.176951,-0.15519 0.216007,-0.23616 0.03906,-0.081 0.05891,-0.18917 0.05891,-0.32505 0,-0.20382 -0.0758,-0.35971 -0.227376,-0.46767 -0.133905,-0.0959 -0.306814,-0.14366 -0.518831,-0.14366 z m 4.616772,0 c -0.102288,0 -0.239313,0.002 -0.411344,0.006 -0.253863,0.006 -0.396161,0.0117 -0.426848,0.0171 -0.02976,0.006 -0.04434,0.0162 -0.04341,0.032 l 0.0015,0.0196 c 0.01767,0.22057 0.02635,0.5277 0.02635,0.92139 0,0.1033 -0.0048,0.25795 -0.01499,0.46457 -0.0093,0.20661 -0.01395,0.36116 -0.01395,0.46354 0,0.0235 0.01334,0.0381 0.04031,0.0434 0.02697,0.005 0.106804,0.008 0.239779,0.008 0.116238,0 0.201969,-0.002 0.256832,-0.006 0.01301,-0.001 0.02574,-0.002 0.03876,-0.003 0.0084,-0.003 0.01292,-0.0121 0.01292,-0.0279 0,-0.0633 -0.006,-0.15754 -0.01809,-0.28319 -0.01116,-0.12564 -0.01705,-0.22041 -0.01705,-0.28371 0,-0.0475 0.0072,-0.0713 0.02119,-0.0713 0.123673,0 0.171555,-5.8e-4 0.14366,-0.003 0.06044,0.004 0.09902,0.0237 0.115755,0.0599 0.07718,0.18149 0.133751,0.3188 0.170016,0.41186 0.02697,0.0717 0.04755,0.12547 0.06149,0.16175 0.0074,0.0159 0.01404,0.0252 0.01964,0.0279 0.0028,0.002 0.01416,0.005 0.03462,0.007 0.04371,0.005 0.126231,0.008 0.248047,0.008 0.142272,0 0.231312,-0.002 0.26665,-0.008 0.01827,-0.003 0.02758,-0.007 0.02791,-0.0134 v -5.1e-4 c -2.23e-4,-0.0246 -0.05679,-0.1535 -0.170015,-0.38758 -0.113447,-0.23427 -0.170532,-0.35103 -0.170532,-0.35036 0,-0.0131 0.01065,-0.027 0.03204,-0.0419 0.105078,-0.0763 0.177468,-0.15519 0.216524,-0.23616 0.03906,-0.081 0.05839,-0.18917 0.05839,-0.32505 0,-0.20382 -0.0758,-0.35971 -0.227377,-0.46767 -0.133904,-0.0959 -0.306814,-0.14366 -0.518831,-0.14366 z m 5.298901,0 c -0.102289,0 -0.239313,0.002 -0.411344,0.006 -0.253862,0.006 -0.396161,0.0117 -0.426847,0.0171 -0.02976,0.006 -0.04434,0.0162 -0.04341,0.032 l 0.0015,0.0196 c 0.01766,0.22057 0.02635,0.5277 0.02635,0.92139 0,0.1033 -0.0048,0.25795 -0.01499,0.46457 -0.0093,0.20661 -0.01395,0.36116 -0.01395,0.46354 0,0.0235 0.01334,0.0381 0.04031,0.0434 0.02697,0.005 0.106803,0.008 0.239778,0.008 0.116239,0 0.201969,-0.002 0.256832,-0.006 0.01301,-0.001 0.02625,-0.002 0.03927,-0.003 0.0084,-0.003 0.0124,-0.0121 0.0124,-0.0279 0,-0.0633 -0.006,-0.15754 -0.01809,-0.28319 -0.01116,-0.12564 -0.01705,-0.22041 -0.01705,-0.28371 0,-0.0475 0.0072,-0.0713 0.02119,-0.0713 0.123674,0 0.171555,-5.8e-4 0.14366,-0.003 0.06044,0.004 0.09902,0.0237 0.115756,0.0599 0.07718,0.18149 0.133751,0.3188 0.170015,0.41186 0.02697,0.0717 0.04755,0.12547 0.06149,0.16175 0.0074,0.0159 0.01404,0.0252 0.01964,0.0279 0.0028,0.002 0.01416,0.005 0.03462,0.007 0.04371,0.005 0.126747,0.008 0.248564,0.008 0.142272,0 0.230795,-0.002 0.266134,-0.008 0.01825,-0.003 0.02756,-0.007 0.02791,-0.0134 v -5.1e-4 c -2.24e-4,-0.0246 -0.05679,-0.1535 -0.170016,-0.38758 -0.113447,-0.23427 -0.170015,-0.35103 -0.170015,-0.35036 0,-0.0131 0.01065,-0.027 0.03204,-0.0419 0.105078,-0.0763 0.176951,-0.15519 0.216008,-0.23616 0.03906,-0.081 0.05839,-0.18917 0.05839,-0.32505 0,-0.20382 -0.0758,-0.35971 -0.227376,-0.46767 -0.133906,-0.0959 -0.306815,-0.14366 -0.518832,-0.14366 z m -13.762984,0.007 c -0.247352,0 -0.407025,0.005 -0.479557,0.0139 -0.02976,0.004 -0.04372,0.0144 -0.04186,0.032 l 0.0015,0.0196 c 0.02511,0.32202 0.03772,0.62915 0.03772,0.92139 0,0.1033 -0.002,0.25857 -0.0057,0.46612 -0.0028,0.20662 -0.0041,0.36178 -0.0041,0.46509 0,0.027 0.01334,0.0403 0.04031,0.0403 0.05672,0 0.141834,0.001 0.255282,0.004 0.113449,0.004 0.198559,0.006 0.255281,0.006 0.01953,0 0.02894,-0.0111 0.02894,-0.0325 0,-0.0419 -0.004,-0.10496 -0.0124,-0.18966 -0.0084,-0.0847 -0.0124,-0.14838 -0.0124,-0.1912 0,-0.0344 0.01996,-0.0517 0.05994,-0.0517 0.0372,0 0.09304,0.003 0.167432,0.007 0.07532,0.004 0.131268,0.006 0.168465,0.006 0.222245,0 0.397016,-0.0737 0.523482,-0.22169 0.118097,-0.13961 0.176734,-0.32202 0.176734,-0.54725 v -5.2e-4 c 0,-0.21965 -0.06856,-0.39742 -0.206189,-0.5333 -0.134835,-0.132 -0.312398,-0.20107 -0.532784,-0.20774 -0.133905,-0.004 -0.274136,-0.006 -0.42013,-0.006 z m 9.401494,5.2e-4 c -0.0186,0 -0.02791,0.0167 -0.02791,0.0512 0,0.0735 -0.0027,0.1843 -0.0083,0.33228 -0.0047,0.14705 -0.0072,0.25772 -0.0072,0.33124 0,0.0447 0.08439,0.23577 0.252698,0.57361 0.106939,0.21034 0.213352,0.42001 0.31936,0.62942 0.01209,0.023 0.02678,0.0368 0.04444,0.0408 0.01767,0.004 0.08944,0.006 0.214974,0.006 v 0.001 c 0.0995,0 0.173232,-0.002 0.220659,-0.006 0.02045,-0.002 0.03182,-0.004 0.03462,-0.006 0.0037,-0.003 0.01034,-0.0147 0.01964,-0.0351 0.136695,-0.26619 0.241144,-0.46523 0.313676,-0.59738 0.18319,-0.36671 0.274918,-0.57897 0.274918,-0.63666 0,-0.0726 7.18e-4,-0.18078 0.0026,-0.32504 0.0028,-0.14519 0.0041,-0.2539 0.0041,-0.32556 0,-0.0224 -0.01396,-0.0336 -0.04186,-0.0336 -0.05114,0 -0.128395,0.003 -0.232544,0.008 -0.103218,0.005 -0.180365,0.007 -0.23151,0.007 h -0.04496 c -0.0084,0.003 -0.0124,0.0167 -0.0124,0.0419 0,0.0679 7.18e-4,0.17066 0.0026,0.30748 0.0019,0.13587 0.0031,0.23746 0.0031,0.3054 0,0.041 -0.04385,0.15173 -0.131259,0.33228 -0.06509,0.13402 -0.123005,0.24738 -0.174149,0.33952 -0.188769,-0.35461 -0.283187,-0.56088 -0.283187,-0.61857 0,-0.0754 0.0048,-0.18823 0.01499,-0.339 0.01116,-0.1517 0.01705,-0.26568 0.01705,-0.34106 0,-0.0195 -0.01189,-0.0289 -0.03514,-0.0289 -0.05672,0 -0.141834,-0.003 -0.255281,-0.007 -0.113446,-0.005 -0.197936,-0.007 -0.253731,-0.007 z m -8.020183,10e-4 c -0.02512,0 -0.03701,0.0106 -0.03514,0.032 l 0.0016,0.0196 c 0.0074,0.14797 0.0127,0.25937 0.0155,0.33383 0.01116,0.28944 0.01654,0.48714 0.01654,0.59324 0,0.10424 -0.006,0.26085 -0.01809,0.47026 -0.01116,0.20847 -0.01705,0.36498 -0.01705,0.46922 0,0.027 0.01582,0.0408 0.04651,0.0408 0.07067,0 0.176465,-1.5e-4 0.31781,5.2e-4 0.141344,6.7e-4 0.247758,0.001 0.31936,0.001 0.328254,0 0.526397,0.005 0.594279,0.014 0.01953,0.003 0.03349,0.004 0.04186,0.004 0.01953,0 0.03483,-0.009 0.04599,-0.0263 0.01301,-0.0223 0.0277,-0.0919 0.04444,-0.20826 0.0157,-0.1063 0.02366,-0.17891 0.02377,-0.21911 v -5.1e-4 c -1.34e-4,-0.0331 -0.01017,-0.0496 -0.03049,-0.0496 -0.04836,0 -0.121469,0.005 -0.219108,0.0139 -0.09671,0.008 -0.169823,0.0124 -0.219108,0.0124 h -0.203605 c -0.103221,-0.007 -0.162478,-0.0277 -0.178284,-0.063 -0.0093,-0.0205 -0.01395,-0.0657 -0.01395,-0.13643 0,-0.053 1.01e-4,-0.0822 10e-4,-0.0868 0.0065,-0.0186 0.02906,-0.0279 0.06718,-0.0279 h 0.147795 c 0.188769,0 0.309765,0.003 0.362768,0.008 l 0.125574,0.014 c 0.02697,0 0.04031,-0.009 0.04031,-0.0279 0,-0.0744 0.0039,-0.1493 0.01137,-0.22376 0.01674,-0.16193 0.02481,-0.23296 0.02481,-0.21342 0,-0.0214 -0.01127,-0.032 -0.03359,-0.032 -0.01859,0 -0.04331,0.002 -0.07493,0.006 -0.04092,0.004 -0.06677,0.007 -0.077,0.007 -0.119957,0.007 -0.238367,0.01 -0.355534,0.01 -0.01767,0 -0.04021,0.001 -0.06718,0.003 -0.02697,6.7e-4 -0.04497,0.001 -0.05426,0.001 -0.04463,0 -0.07463,-0.009 -0.09043,-0.0263 -0.0186,-0.0205 -0.02791,-0.0623 -0.02791,-0.12558 0,-0.0605 0.0021,-0.0963 0.0067,-0.10748 0.01115,-0.0233 0.04166,-0.0351 0.09095,-0.0351 0.197138,0 0.419273,0.0105 0.666626,0.031 0.01393,6.7e-4 0.02386,5.2e-4 0.02945,5.2e-4 0.0186,0 0.02791,-0.009 0.02791,-0.0289 0,-0.0233 -0.0053,-0.0889 -0.0155,-0.19689 -0.0093,-0.10888 -0.01652,-0.17392 -0.02119,-0.19533 -0.0074,-0.0363 -0.03536,-0.0548 -0.08372,-0.0548 -0.06788,0 -0.169746,0.002 -0.306441,0.006 -0.136695,0.004 -0.239075,0.006 -0.306958,0.006 -0.06881,0 -0.172537,-0.002 -0.311092,-0.006 -0.137625,-0.004 -0.240729,-0.006 -0.309542,-0.006 z m 4.616773,0 c -0.02512,0 -0.03701,0.0106 -0.03514,0.032 l 0.0015,0.0196 c 0.0074,0.14797 0.0127,0.25937 0.0155,0.33383 0.01116,0.28944 0.01654,0.48714 0.01654,0.59324 0,0.10424 -0.006,0.26085 -0.01809,0.47026 -0.01116,0.20847 -0.01654,0.36498 -0.01654,0.46922 0,0.027 0.01531,0.0408 0.04599,0.0408 0.07067,0 0.176466,-1.5e-4 0.31781,5.2e-4 0.141345,6.7e-4 0.247758,0.001 0.319361,0.001 0.328253,0 0.526396,0.005 0.594279,0.014 0.01953,0.003 0.03349,0.004 0.04186,0.004 0.01952,0 0.03483,-0.009 0.04599,-0.0263 0.01302,-0.0223 0.02822,-0.0919 0.04496,-0.20826 0.0157,-0.1063 0.02366,-0.17891 0.02377,-0.21911 v -5.1e-4 c -1.33e-4,-0.0331 -0.01068,-0.0496 -0.03101,-0.0496 -0.04836,0 -0.121469,0.005 -0.219108,0.0139 -0.09671,0.008 -0.169306,0.0124 -0.218591,0.0124 H 74.83158 c -0.103221,-0.007 -0.162477,-0.0277 -0.178284,-0.063 -0.0093,-0.0205 -0.01395,-0.0657 -0.01395,-0.13643 0,-0.053 6.17e-4,-0.0822 0.0016,-0.0868 0.0065,-0.0186 0.02854,-0.0279 0.06666,-0.0279 H 74.8554 c 0.18877,0 0.309765,0.003 0.362769,0.008 l 0.125574,0.014 c 0.02697,0 0.04031,-0.009 0.04031,-0.0279 0,-0.0744 0.0039,-0.1493 0.01137,-0.22376 0.01674,-0.16193 0.02532,-0.23296 0.02532,-0.21342 0,-0.0214 -0.01127,-0.032 -0.03359,-0.032 -0.0186,0 -0.04383,0.002 -0.07545,0.006 -0.04092,0.004 -0.06625,0.007 -0.07648,0.007 -0.119957,0.007 -0.238883,0.01 -0.356051,0.01 -0.01766,0 -0.03969,0.001 -0.06666,0.003 -0.02696,6.7e-4 -0.04547,0.001 -0.05478,0.001 -0.04463,0 -0.07463,-0.009 -0.09043,-0.0263 -0.0186,-0.0205 -0.02791,-0.0623 -0.02791,-0.12558 0,-0.0605 0.0026,-0.0963 0.0072,-0.10748 0.01116,-0.0233 0.04115,-0.0351 0.09043,-0.0351 0.197139,0 0.419274,0.0105 0.666626,0.031 0.01393,6.7e-4 0.02386,5.2e-4 0.02946,5.2e-4 0.0186,0 0.02791,-0.009 0.02791,-0.0289 0,-0.0233 -0.0053,-0.0889 -0.0155,-0.19689 -0.0093,-0.10888 -0.01601,-0.17392 -0.02067,-0.19533 -0.0074,-0.0363 -0.03536,-0.0548 -0.08372,-0.0548 -0.06788,0 -0.170263,0.002 -0.306958,0.006 -0.136695,0.004 -0.239076,0.006 -0.306958,0.006 -0.06881,0 -0.172538,-0.002 -0.311092,-0.006 -0.137626,-0.004 -0.24073,-0.006 -0.309542,-0.006 z m 5.298901,0 c -0.02512,0 -0.03649,0.0106 -0.03462,0.032 l 0.001,0.0196 c 0.0074,0.14797 0.0127,0.25937 0.0155,0.33383 0.01116,0.28944 0.01705,0.48714 0.01705,0.59324 0,0.10424 -0.0065,0.26085 -0.0186,0.47026 -0.01116,0.20847 -0.01654,0.36498 -0.01654,0.46922 0,0.027 0.0153,0.0408 0.04599,0.0408 0.07067,0 0.176982,-1.5e-4 0.318326,5.2e-4 0.141345,6.7e-4 0.247759,0.001 0.319361,0.001 0.328254,0 0.526396,0.005 0.594279,0.014 0.01953,0.003 0.03297,0.004 0.04134,0.004 0.01953,0 0.03535,-0.009 0.04651,-0.0263 0.01301,-0.0223 0.0277,-0.0919 0.04444,-0.20826 0.0157,-0.1063 0.02366,-0.17891 0.02377,-0.21911 v -5.1e-4 c -1.34e-4,-0.0331 -0.01068,-0.0496 -0.03101,-0.0496 -0.04836,0 -0.120952,0.005 -0.218592,0.0139 -0.09671,0.008 -0.169822,0.0124 -0.219108,0.0124 h -0.203605 c -0.10322,-0.007 -0.162994,-0.0277 -0.1788,-0.063 -0.0093,-0.0205 -0.01395,-0.0657 -0.01395,-0.13643 0,-0.053 6.17e-4,-0.0822 0.0016,-0.0868 0.0065,-0.0186 0.02906,-0.0279 0.06718,-0.0279 h 0.147794 c 0.18877,0 0.309248,0.003 0.362252,0.008 l 0.125574,0.014 c 0.02697,0 0.04082,-0.009 0.04082,-0.0279 0,-0.0744 0.0034,-0.1493 0.01085,-0.22376 0.01674,-0.16193 0.02532,-0.23296 0.02532,-0.21342 0,-0.0214 -0.01127,-0.032 -0.03359,-0.032 -0.01859,0 -0.04383,0.002 -0.07545,0.006 -0.04092,0.004 -0.06625,0.007 -0.07648,0.007 -0.119956,0.007 -0.238367,0.01 -0.355533,0.01 -0.01767,0 -0.04021,0.001 -0.06718,0.003 -0.02697,6.7e-4 -0.04496,0.001 -0.05426,0.001 -0.04463,0 -0.07514,-0.009 -0.09095,-0.0263 -0.0186,-0.0205 -0.02791,-0.0623 -0.02791,-0.12558 0,-0.0605 0.0026,-0.0963 0.0072,-0.10748 0.01116,-0.0233 0.04115,-0.0351 0.09043,-0.0351 0.197138,0 0.419273,0.0105 0.666626,0.031 0.01393,6.7e-4 0.02386,5.2e-4 0.02945,5.2e-4 0.0186,0 0.02791,-0.009 0.02791,-0.0289 0,-0.0233 -0.0053,-0.0889 -0.0155,-0.19689 -0.0093,-0.10888 -0.01601,-0.17392 -0.02067,-0.19533 -0.0074,-0.0363 -0.03536,-0.0548 -0.08372,-0.0548 -0.06788,0 -0.170262,0.002 -0.306958,0.006 -0.136695,0.004 -0.239076,0.006 -0.306958,0.006 -0.06881,0 -0.172537,-0.002 -0.311092,-0.006 -0.137625,-0.004 -0.24073,-0.006 -0.309542,-0.006 z m 3.434416,0 c -0.02512,0 -0.03701,0.0106 -0.03514,0.032 l 0.0015,0.0196 c 0.0074,0.14797 0.0127,0.25937 0.0155,0.33383 0.01116,0.28944 0.01654,0.48714 0.01654,0.59324 0,0.10424 -0.006,0.26085 -0.01809,0.47026 -0.01116,0.20847 -0.01705,0.36498 -0.01705,0.46922 0,0.027 0.01582,0.0408 0.04651,0.0408 0.07067,0 0.176465,-1.5e-4 0.31781,5.2e-4 0.141345,6.7e-4 0.247758,0.001 0.319361,0.001 0.328253,0 0.526396,0.005 0.594279,0.014 0.01952,0.003 0.03349,0.004 0.04186,0.004 0.01952,0 0.03483,-0.009 0.04599,-0.0263 0.01302,-0.0223 0.0277,-0.0919 0.04444,-0.20826 0.0157,-0.1063 0.02366,-0.17891 0.02377,-0.21911 v -5.1e-4 c -1.34e-4,-0.0331 -0.01017,-0.0496 -0.03049,-0.0496 -0.04835,0 -0.121469,0.005 -0.219108,0.0139 -0.09671,0.008 -0.169822,0.0124 -0.219108,0.0124 h -0.203605 c -0.103221,-0.007 -0.162477,-0.0277 -0.178284,-0.063 -0.0093,-0.0205 -0.01395,-0.0657 -0.01395,-0.13643 0,-0.053 10e-5,-0.0822 10e-4,-0.0868 0.0065,-0.0186 0.02906,-0.0279 0.06718,-0.0279 h 0.147794 c 0.18877,0 0.309765,0.003 0.362769,0.008 l 0.125574,0.014 c 0.02697,0 0.04031,-0.009 0.04031,-0.0279 0,-0.0744 0.0039,-0.1493 0.01137,-0.22376 0.01674,-0.16193 0.02481,-0.23296 0.02481,-0.21342 0,-0.0214 -0.01127,-0.032 -0.03359,-0.032 -0.0186,0 -0.04331,0.002 -0.07493,0.006 -0.04091,0.004 -0.06677,0.007 -0.077,0.007 -0.119956,0.007 -0.238366,0.01 -0.355534,0.01 -0.01766,0 -0.04021,0.001 -0.06718,0.003 -0.02697,6.7e-4 -0.04496,0.001 -0.05426,0.001 -0.04463,0 -0.07463,-0.009 -0.09043,-0.0263 -0.0186,-0.0205 -0.02791,-0.0623 -0.02791,-0.12558 0,-0.0605 0.0021,-0.0963 0.0067,-0.10748 0.01116,-0.0233 0.04166,-0.0351 0.09095,-0.0351 0.197138,0 0.419273,0.0105 0.666626,0.031 0.01393,6.7e-4 0.02386,5.2e-4 0.02946,5.2e-4 0.0186,0 0.02791,-0.009 0.02791,-0.0289 0,-0.0233 -0.0053,-0.0889 -0.0155,-0.19689 -0.0093,-0.10888 -0.01652,-0.17392 -0.02119,-0.19533 -0.0074,-0.0363 -0.03536,-0.0548 -0.08372,-0.0548 -0.06788,0 -0.169746,0.002 -0.306441,0.006 -0.136695,0.004 -0.239076,0.006 -0.306958,0.006 -0.06881,0 -0.172538,-0.002 -0.311092,-0.006 -0.137626,-0.004 -0.24073,-0.006 -0.309542,-0.006 z m -11.072709,0.40566 c 0.122745,0 0.213129,0.0166 0.270784,0.0501 0.07439,0.0437 0.111621,0.12209 0.111621,0.23564 v 5.2e-4 c 0,0.16193 -0.10176,0.24288 -0.305407,0.24288 -0.0623,0 -0.122079,-0.005 -0.178801,-0.0129 -0.02975,-0.005 -0.04444,-0.009 -0.04444,-0.0139 0,-0.0205 -6.17e-4,-0.0516 -0.0016,-0.0935 -9.33e-4,-0.0419 -0.001,-0.0737 -0.001,-0.0951 0,-0.15081 0.0027,-0.24176 0.0083,-0.27337 0.0056,-0.027 0.05222,-0.0403 0.14056,-0.0403 z m 4.617289,0 c 0.122745,0 0.212613,0.0166 0.270268,0.0501 0.07439,0.0437 0.111621,0.12209 0.111621,0.23564 v 5.2e-4 c 0,0.16193 -0.10176,0.24288 -0.305408,0.24288 -0.0623,0 -0.121562,-0.005 -0.178284,-0.0129 -0.02975,-0.005 -0.04496,-0.009 -0.04496,-0.0139 0,-0.0205 -1.01e-4,-0.0516 -0.001,-0.0935 -9.33e-4,-0.0419 -0.0015,-0.0737 -0.0015,-0.0951 0,-0.15081 0.0027,-0.24176 0.0083,-0.27337 0.0056,-0.027 0.05274,-0.0403 0.141077,-0.0403 z m 5.298901,0 c 0.122745,0 0.21313,0.0166 0.270785,0.0501 0.07439,0.0437 0.111621,0.12209 0.111621,0.23564 v 5.2e-4 c 0,0.16193 -0.102277,0.24288 -0.305925,0.24288 -0.0623,0 -0.121561,-0.005 -0.178283,-0.0129 -0.02975,-0.005 -0.04444,-0.009 -0.04444,-0.0139 0,-0.0205 -6.17e-4,-0.0516 -0.0016,-0.0935 -9.33e-4,-0.0419 -0.0016,-0.0737 -0.0016,-0.0951 0,-0.15081 0.0027,-0.24176 0.0083,-0.27337 0.0056,-0.027 0.05274,-0.0403 0.141076,-0.0403 z m -13.288594,0.0372 c 0.211086,0 0.316259,0.10871 0.316259,0.32556 0,0.20382 -0.100519,0.30541 -0.302307,0.30541 -0.167381,0 -0.251147,-0.009 -0.251147,-0.0279 0,-0.0289 -0.0013,-0.0708 -0.0041,-0.12661 -0.0019,-0.0567 -0.0031,-0.0998 -0.0031,-0.12867 0,-0.20292 0.0033,-0.31039 0.0098,-0.32246 0.0074,-0.0167 0.08583,-0.0253 0.234611,-0.0253 z" />
                </g>
              </g>
            </g>
          </g>
        </g>
      </g>
    </g>
  </g>
</svg>
