<?xml version="1.0" encoding="UTF-8" standalone="no"?>
<!-- Created with Inkscape (http://www.inkscape.org/) -->

<svg
   width="29.767355mm"
   height="27.625893mm"
   viewBox="0 0 29.767355 27.625893"
   version="1.1"
   id="svg1"
   inkscape:version="1.3 (0e150ed6c4, 2023-07-21)"
   sodipodi:docname="recruiter.svg"
   xmlns:inkscape="http://www.inkscape.org/namespaces/inkscape"
   xmlns:sodipodi="http://sodipodi.sourceforge.net/DTD/sodipodi-0.dtd"
   xmlns="http://www.w3.org/2000/svg"
   xmlns:svg="http://www.w3.org/2000/svg">
  <sodipodi:namedview
     id="namedview1"
     pagecolor="#ffffff"
     bordercolor="#000000"
     borderopacity="0.25"
     inkscape:showpageshadow="2"
     inkscape:pageopacity="0.0"
     inkscape:pagecheckerboard="0"
     inkscape:deskcolor="#d1d1d1"
     inkscape:document-units="mm"
     inkscape:zoom="3.9156336"
     inkscape:cx="52.098848"
     inkscape:cy="48.65113"
     inkscape:window-width="1920"
     inkscape:window-height="991"
     inkscape:window-x="-9"
     inkscape:window-y="-9"
     inkscape:window-maximized="1"
     inkscape:current-layer="layer1" />
  <defs
     id="defs1" />
  <g
     inkscape:label="Layer 1"
     inkscape:groupmode="layer"
     id="layer1"
     transform="translate(-90.288972,-134.64944)">
    <g
       id="g1984"
       style="display:inline"
       transform="translate(-13.193428,-119.41505)">
      <path
         id="path1984"
         style="display:inline;fill:#bfbfbf;fill-opacity:1;fill-rule:nonzero;stroke:#cc0000;stroke-width:0.0894876"
         d="m -6494.1331,960.35353 v 0.002 c -2.8397,0 -15.814,10.7825 -20.2148,20.20117 l -6.293,-6.29297 -25.8867,25.88877 9.8125,9.8125 c 0.069,3.9561 1.3509,8.0019 3.8164,12.0918 -3.9374,1.6772 -6.811,3.8207 -8.707,6.1015 -6.633,7.9833 -9.8764,26.3433 -8.3789,28.9375 1.4966,2.5943 19.0201,8.9658 29.25,7.2129 5.0073,-0.8584 11.0892,-4.4171 17.0566,-11.8789 0.213,0.2076 0.4246,0.4165 0.6387,0.623 2.8573,2.758 7.2148,3.3736 10.6601,1.4004 1.4891,-0.8511 1.7425,-1.5549 2.504,-2.7656 2.9338,2.4618 5.3758,3.7044 7.6621,3.459 -0.016,0 -0.031,0.01 -0.047,0.01 0,2e-4 2e-4,-2e-4 -0.01,0 5.2028,5.6171 10.3772,8.4073 14.7344,9.1543 10.2311,1.7528 27.7514,-4.6186 29.248,-7.2129 1.4963,-2.5943 -1.7459,-20.9543 -8.3789,-28.9375 -2.308,-2.7764 -6.0759,-5.34 -11.4453,-7.1133 0.6647,-0.8122 1.2982,-1.6519 1.8809,-2.5254 3.039,-4.5576 4.6007,-9.0657 4.6777,-13.4648 l 9.8125,-9.81255 -25.8867,-25.88867 -8.0469,8.04492 c -5.4008,-8.51386 -15.9361,-17.04492 -18.4609,-17.04492 z m 16.0351,92.59377 c -0.2759,0.2706 -0.5512,0.5163 -0.8261,0.7363 -0.1259,0.1007 -0.2527,0.1772 -0.3789,0.2676 0.401,-0.2876 0.8028,-0.6091 1.205,-1.0039 z m -1.5234,1.2304 c -0.043,0.028 -0.086,0.065 -0.1289,0.092 -0.047,0.029 -0.094,0.047 -0.1406,0.074 0.09,-0.053 0.1795,-0.1078 0.2695,-0.1661 z m -0.7852,0.4395 c -0.057,0.027 -0.1129,0.065 -0.1699,0.09 -0.031,0.014 -0.063,0.02 -0.094,0.033 0.088,-0.037 0.1757,-0.081 0.2636,-0.123 z m -0.8359,0.3242 c -0.057,0.017 -0.113,0.045 -0.1699,0.061 -0.011,0 -0.022,0 -0.033,0.01 0.068,-0.018 0.1353,-0.046 0.2031,-0.066 z"
         transform="matrix(0.26458333,0,0,0.26458333,1836.6063,0)" />
      <path
         id="path1940"
         style="fill:#99cc33;fill-opacity:1;fill-rule:nonzero;stroke:none;stroke-width:0.0265024"
         d="m 115.84202,278.45535 c -0.19705,-0.19209 -0.39328,-0.38505 -0.59066,-0.5767 -0.0764,-0.006 -0.15165,-0.0185 -0.22686,-0.0372 -0.0752,-0.0187 -0.1499,-0.0439 -0.22427,-0.0754 -0.0744,-0.0315 -0.14883,-0.0695 -0.22273,-0.1142 -0.0739,-0.0447 -0.1474,-0.0958 -0.22117,-0.154 -0.0738,-0.0582 -0.14769,-0.12341 -0.22169,-0.19534 -0.0622,-0.0604 -0.1245,-0.1286 -0.18707,-0.19895 -2.04903,1.18692 -4.04145,0.53292 -5.49269,-0.22273 0.0589,-1.33866 0.35825,-2.95856 1.58905,-4.15116 -0.1894,-0.18942 -0.37992,-0.37769 -0.56792,-0.56844 -0.10484,-0.1062 -0.2081,-0.21465 -0.30851,-0.32505 -0.10042,-0.1104 -0.19826,-0.22265 -0.29353,-0.33745 -0.0953,-0.11479 -0.18761,-0.23203 -0.27698,-0.3514 -0.0894,-0.11936 -0.17563,-0.24071 -0.25838,-0.36483 -0.0808,-0.12126 -0.15496,-0.24231 -0.2279,-0.36329 -1.04177,0.44376 -1.80208,1.01091 -2.30373,1.61437 -1.75499,2.11224 -2.61313,6.96998 -2.21692,7.65638 0.39598,0.68641 5.0324,2.3722 7.73906,1.90842 1.32486,-0.22711 2.93401,-1.1687 4.5129,-3.14297 z" />
      <path
         id="path1935"
         style="fill:#99cc33;fill-opacity:1;fill-rule:nonzero;stroke:none;stroke-width:0.0265024"
         d="m 127.89917,270.15147 c -0.0132,0.0161 -0.0254,0.0331 -0.0388,0.0491 -0.0952,0.11479 -0.19311,0.22705 -0.29352,0.33745 -0.10041,0.1104 -0.2031,0.21885 -0.30799,0.32504 -0.27845,0.28223 -0.56144,0.55978 -0.84129,0.8413 0.0799,0.0997 0.15031,0.19974 0.21135,0.29972 0.061,0.1 0.11248,0.19965 0.15452,0.29972 0.042,0.10007 0.0748,0.20028 0.0977,0.30024 0.0229,0.1 0.0361,0.20008 0.0398,0.29973 7.9e-4,0.0216 -0.004,0.043 -0.004,0.0646 1.042,1.16381 1.30828,2.66123 1.36323,3.91242 -0.98394,0.51175 -2.21758,0.97793 -3.54811,0.85835 -0.024,0.0112 -0.0476,0.0264 -0.0718,0.0362 -0.08,0.0323 -0.161,0.0573 -0.24391,0.0749 -0.0829,0.0176 -0.16771,0.0281 -0.25477,0.032 -0.0871,0.004 -0.17676,10e-4 -0.26923,-0.007 -0.0925,-0.009 -0.18767,-0.0236 -0.2868,-0.0439 -0.0991,-0.0204 -0.20195,-0.0465 -0.30903,-0.0775 -0.008,-0.002 -0.0159,8.7e-4 -0.0202,0.008 -0.0757,0.11346 -0.15084,0.21961 -0.22531,0.31884 -0.0745,0.0992 -0.14814,0.19171 -0.22169,0.27699 -0.0736,0.0853 -0.14666,0.16352 -0.21963,0.23513 -0.073,0.0716 -0.14586,0.13661 -0.21859,0.19482 -0.0727,0.0582 -0.14577,0.10993 -0.21859,0.15503 -0.0728,0.0451 -0.14533,0.0835 -0.21859,0.11575 -0.0733,0.0323 -0.14713,0.0583 -0.22118,0.078 -0.074,0.0197 -0.14859,0.0329 -0.22376,0.0403 -5.1e-4,5e-5 -10e-4,-5e-5 -0.002,0 1.37659,1.48621 2.74561,2.22445 3.89847,2.42208 2.70696,0.46378 7.34257,-1.22201 7.73855,-1.90842 0.39591,-0.6864 -0.46193,-5.54414 -2.21692,-7.65638 -0.61066,-0.73457 -1.60757,-1.41287 -3.02824,-1.88205 z" />
      <path
         id="path1931"
         style="fill:#99cc33;fill-opacity:1;fill-rule:nonzero;stroke:none;stroke-width:0.0265024"
         d="m 118.36745,254.09405 c -0.75136,0 -4.18414,2.85286 -5.34851,5.34489 l 0.50798,0.50798 c 0.0609,-0.0402 0.14156,-0.0898 0.23978,-0.14262 0.0982,-0.0528 0.2143,-0.109 0.34675,-0.16278 0.13245,-0.0538 0.28135,-0.1052 0.44493,-0.14832 0.0818,-0.0215 0.16681,-0.0407 0.2558,-0.0574 0.089,-0.0167 0.1817,-0.0309 0.2775,-0.0413 0.0958,-0.0104 0.19492,-0.017 0.29714,-0.0196 0.10223,-0.003 0.20748,-9.1e-4 0.31575,0.006 0.10826,0.007 0.2194,0.0179 0.33331,0.0351 0.11391,0.0173 0.23068,0.0404 0.34985,0.0698 0.11917,0.0294 0.24079,0.065 0.36483,0.10801 0.12405,0.043 0.25078,0.0934 0.37931,0.15141 0.12853,0.058 0.25908,0.12389 0.39171,0.19844 0.0891,0.0501 0.18047,0.10985 0.2713,0.16794 0.1914,-0.14079 0.38385,-0.27852 0.57257,-0.39894 0.008,0.005 0.0152,0.0112 0.0227,0.016 l 0.11627,-0.11679 0.0413,-0.0367 c 0.11035,-0.0849 0.21993,-0.16388 0.32815,-0.23667 0.10821,-0.0728 0.21502,-0.13964 0.32091,-0.20103 0.10589,-0.0614 0.21083,-0.11723 0.31419,-0.16794 0.10336,-0.0507 0.20528,-0.0962 0.30593,-0.13695 0.10064,-0.0408 0.19992,-0.077 0.29765,-0.10852 0.0977,-0.0316 0.19373,-0.0586 0.28836,-0.0817 0.0946,-0.0231 0.18772,-0.042 0.27905,-0.0574 0.0913,-0.0153 0.18089,-0.0273 0.26872,-0.0356 0.0878,-0.008 0.17372,-0.0129 0.25786,-0.015 0.0841,-0.002 0.16676,-10e-4 0.24702,0.002 0.1605,0.007 0.31301,0.0243 0.45682,0.0491 0.1438,0.0248 0.27857,0.0573 0.4041,0.0941 0.12554,0.0367 0.24155,0.0776 0.34727,0.12041 0.11838,0.009 0.23668,0.0203 0.35553,0.0367 l 0.23255,-0.23255 c -1.42897,-2.25263 -4.21645,-4.5098 -4.88446,-4.5098 z" />
      <path
         id="path1907"
         style="display:inline;fill:#242121;fill-opacity:1;fill-rule:nonzero;stroke:none;stroke-width:0.0894876"
         d="m -6467.6242,969.35593 -8.9243,8.923 c -0.4492,-0.062 -0.8962,-0.1054 -1.3436,-0.1376 -3.1965,-1.2949 -8.8842,-2.2073 -15.5573,2.9284 l -0.1559,0.139 -2.1905,2.1996 c -8.2445,-5.5939 -14.7887,-2.1463 -16.6295,-0.932 l -8.2138,-8.2125 -25.8868,25.88817 9.8131,9.813 c 0.077,4.3984 1.6389,8.9062 4.6771,13.4639 1.251,1.8765 2.7134,3.6065 4.2983,5.2119 2.0215,2.0511 4.0718,4.0746 6.1086,6.1113 -2.2095,3.2188 -1.2608,5.8806 1.0408,8.278 2.3875,2.4877 4.5886,2.7792 7.8271,1.8404 0.028,-0.01 0.058,0.01 0.076,0.03 2.3222,3.4784 4.4675,5.1636 6.7772,5.3497 0.9593,0.9315 1.9078,1.8737 2.8707,2.8026 2.8573,2.758 7.2147,3.3745 10.66,1.4013 1.4891,-0.8511 1.7421,-1.5552 2.5036,-2.7659 5.8284,4.8905 9.715,4.98 14.295,-1.8811 0.016,-0.026 0.047,-0.036 0.076,-0.029 3.2376,0.9379 5.4387,0.6464 7.8271,-1.8404 2.4322,-2.5334 3.3583,-5.3605 0.6397,-8.8299 -0.021,-0.026 -0.7213,-0.9377 -0.6882,-0.9359 1.9383,0.062 3.4731,-1.1725 4.3206,-2.2678 2.2533,-2.9137 2.1142,-5.9759 -0.3028,-8.9899 1.0577,-1.064 2.1277,-2.1135 3.1801,-3.1802 1.5858,-1.6054 3.0464,-3.3353 4.2983,-5.2119 3.039,-4.5576 4.6015,-9.0659 4.6785,-13.4651 l 9.8117,-9.81317 z m 0.7984,3.6914 21.397,21.3984 -9.952,9.95077 c 0.024,0.7884 -5e-4,1.5624 -0.072,2.3176 -0.086,0.9254 -0.24,1.8265 -0.4575,2.7043 -0.9817,3.9554 -3.2275,7.4443 -6.2252,10.5996 -4.0655,4.2766 -8.3253,8.3682 -12.499,12.541 -4.3778,4.3796 -8.7401,8.7779 -13.1545,13.1217 -0.757,0.7463 -1.8453,1.9415 -3.4095,2.0632 -1.1347,0.09 -1.9114,-0.3537 -2.6702,-1.0723 -0.6801,-0.6452 -0.9015,-2.268 -0.6384,-3.2837 0.2845,-1.1007 1.2612,-2.097 2.1105,-2.9677 1.9955,-2.043 4.0295,-4.0486 6.0456,-6.0719 0.9817,-0.9853 1.9607,-1.9739 2.9272,-2.9743 1.03,-1.0631 4.039,-3.3096 2.3504,-4.8909 -1.55,-1.4506 -3.7696,1.347 -4.7021,2.2848 -0.9816,0.9871 -1.9657,1.9732 -2.9626,2.9469 -4.6346,4.5253 -9.2062,9.1147 -13.9553,13.5175 -2.1477,1.9929 -3.8304,1.8412 -5.2998,0.1141 -1.3933,-1.6359 -1.1258,-3.2725 0.8966,-5.2985 5.2503,-5.2601 10.5097,-10.5114 15.7618,-15.7696 0.7382,-0.7374 1.3754,-1.2189 1.5087,-2.3464 0.099,-0.8323 -0.2053,-1.5696 -1.0617,-1.6976 -1.4453,-0.2165 -2.0731,0.3331 -3.0019,1.261 -6.1836,6.1819 -12.3596,12.3723 -18.5539,18.5434 -2.0322,2.0233 -4.3019,1.9815 -5.7874,-0.047 -1.1105,-1.5159 -0.8035,-3.2316 1.0041,-5.0455 6.2722,-6.2981 12.5585,-12.5827 18.8593,-18.854 1.0273,-1.0229 1.8332,-2.1694 0.5741,-3.348 -1.2036,-1.1266 -2.2396,-0.129 -3.1578,0.7918 -4.834,4.8529 -9.6778,9.6955 -14.5334,14.5269 -0.6462,0.6425 -1.3244,1.2985 -2.1118,1.7316 -1.7818,0.9799 -4.0254,0.088 -4.7808,-1.7985 -0.774,-1.9346 0.2199,-3.1619 1.4485,-4.3861 8.036,-8.01 16.075,-16.0207 24.0412,-24.09884 l 3.2916,3.30744 c 1.1203,1.1266 2.5949,1.6883 4.0715,1.6883 1.4658,0 2.9332,-0.5568 4.0518,-1.67 l 0.6331,-0.6305 c 1.0855,-1.0792 1.6836,-2.51974 1.6871,-4.05717 0.01,-1.4435 -0.5355,-2.7931 -1.493,-3.8526 l -7.3002,-7.3723 -1.4341,-1.4406 1.9493,-1.9584 c 3.0165,-2.299 5.7101,-3.1064 7.9294,-3.2156 4.0636,-0.3677 7.6579,1.7566 7.6579,1.7566 l 2.159,-2.1577 z m -54.6129,4.9078 6.8597,6.8598 0.4509,0.4509 -0.029,0.072 3.3138,0.2753 0.2163,-0.5349 c 1.3065,-0.8903 6.7319,-3.9007 13.975,1.6189 l 9.5811,9.6256 c 0.4805,0.4833 0.7437,1.1291 0.7419,1.8182 0,0.69003 -0.2683,1.33373 -0.7524,1.81433 l -0.6332,0.63184 c -1.0049,0.9987 -2.6314,0.9937 -3.631,-0.01 l -9.8026,-9.84727 -2.3832,1.6648 2.6532,3.1068 1.1483,1.1548 c -1.1248,1.1258 -2.2514,2.25143 -3.378,3.37817 -0.281,0.281 -0.4395,0.5861 -0.5192,0.894 -0.056,0.058 -0.1127,0.118 -0.169,0.1744 -6.5873,6.597 -13.1963,13.1751 -19.7665,19.7873 -1.3145,1.3235 -2.18,2.6595 -2.6033,3.9929 -2.9781,-3.1446 -5.2104,-6.6193 -6.1886,-10.5576 -0.2174,-0.8779 -0.3706,-1.779 -0.4574,-2.7043 -0.071,-0.7561 -0.096,-1.5292 -0.072,-2.3177 l -9.952,-9.95204 z m 55.0585,51.63607 c 0.69,0.9145 1.0463,1.9322 0.4942,3.3112 -0.7553,1.8864 -2.9986,2.7797 -4.7793,1.7998 -0.1745,-0.096 -0.341,-0.2053 -0.5048,-0.3198 1.6045,-1.5893 3.1944,-3.1939 4.7899,-4.7912 z m -7.4719,7.4483 c 0.937,0.9396 1.8788,1.8739 2.8157,2.8144 1.8059,1.8139 2.1147,3.5282 1.0042,5.0441 -1.4846,2.0287 -3.7556,2.0734 -5.7888,0.049 -1.0103,-1.0067 -2.0177,-2.0195 -3.028,-3.028 1.6662,-1.626 3.3387,-3.2441 4.9969,-4.879 z m -7.7051,7.5243 c 0.1298,0.1307 0.2603,0.2599 0.3919,0.3906 2.0197,2.0251 2.2864,3.663 0.894,5.2998 -1.4685,1.7262 -3.1508,1.8788 -5.2985,-0.114 -0.3339,-0.3088 -0.6612,-0.6255 -0.9923,-0.936 0.4707,-0.3087 0.9201,-0.6578 1.3344,-1.0578 1.2305,-1.1867 2.4436,-2.3915 3.6705,-3.5826 z m -16.8328,2.218 c 0.7634,1.2099 1.013,1.914 2.5011,2.7659 0.6676,0.3821 1.3732,0.6645 2.0909,0.856 -0.1217,0.4823 -0.3191,0.9105 -0.5965,1.1745 -0.757,0.7195 -1.5369,1.1622 -2.6715,1.0736 -1.5643,-0.1226 -2.6494,-1.3161 -3.4082,-2.0633 -0.4645,-0.4564 -0.9229,-0.92 -1.3856,-1.3764 1.0864,-0.5853 2.2322,-1.3923 3.4698,-2.4303 z"
         transform="matrix(0.26458333,0,0,0.26458333,1836.6063,0)" />
    </g>
  </g>
</svg>
