<?xml version="1.0" encoding="UTF-8" standalone="no"?>
<!-- Created with Inkscape (http://www.inkscape.org/) -->

<svg
   width="30.000046mm"
   height="27.822844mm"
   viewBox="0 0 30.000046 27.822844"
   version="1.1"
   id="svg1"
   inkscape:version="1.3 (0e150ed6c4, 2023-07-21)"
   sodipodi:docname="recruiter.svg"
   xmlns:inkscape="http://www.inkscape.org/namespaces/inkscape"
   xmlns:sodipodi="http://sodipodi.sourceforge.net/DTD/sodipodi-0.dtd"
   xmlns="http://www.w3.org/2000/svg"
   xmlns:svg="http://www.w3.org/2000/svg">
  <sodipodi:namedview
     id="namedview1"
     pagecolor="#ffffff"
     bordercolor="#000000"
     borderopacity="0.25"
     inkscape:showpageshadow="2"
     inkscape:pageopacity="0.0"
     inkscape:pagecheckerboard="0"
     inkscape:deskcolor="#d1d1d1"
     inkscape:document-units="mm"
     inkscape:zoom="3.9156336"
     inkscape:cx="52.354235"
     inkscape:cy="48.651131"
     inkscape:window-width="1920"
     inkscape:window-height="991"
     inkscape:window-x="-9"
     inkscape:window-y="-9"
     inkscape:window-maximized="1"
     inkscape:current-layer="layer1" />
  <defs
     id="defs1" />
  <g
     inkscape:label="Layer 1"
     inkscape:groupmode="layer"
     id="layer1"
     transform="translate(-90.222916,-134.67292)">
    <g
       id="g2489"
       transform="translate(26.215613,-119.19551)">
      <path
         id="path2479"
         style="fill:#bfbfbf;stroke:#cc0000;stroke-width:0.0267058"
         d="m 79.007548,253.88207 c -0.04988,0 -0.11159,0.0126 -0.183556,0.0367 -0.07197,0.0241 -0.154244,0.0596 -0.24543,0.10586 -0.09119,0.0462 -0.191256,0.10291 -0.298795,0.16948 -0.107544,0.0666 -0.222335,0.14307 -0.343373,0.22813 -0.121026,0.0851 -0.248345,0.17893 -0.380017,0.28062 -0.131677,0.10169 -0.267842,0.21107 -0.407293,0.32753 -0.278901,0.23293 -0.570406,0.49351 -0.863254,0.77441 -0.146425,0.14045 -0.293337,0.28607 -0.438962,0.43574 -0.145624,0.14966 -0.28996,0.30334 -0.431919,0.46036 -0.141965,0.15703 -0.281529,0.31748 -0.416968,0.48001 -0.135439,0.16253 -0.266867,0.32732 -0.39292,0.4935 -0.12606,0.16617 -0.246854,0.33373 -0.360668,0.50171 -0.11382,0.16798 -0.22061,0.33643 -0.319325,0.50435 -0.09871,0.16791 -0.189305,0.33512 -0.270061,0.50112 -0.08076,0.16601 -0.151776,0.33068 -0.211707,0.49291 -0.03603,0.0975 -0.06924,0.19854 -0.09941,0.3032 -0.03019,0.10466 -0.05728,0.21293 -0.08122,0.3246 -0.02394,0.11167 -0.04454,0.22686 -0.06187,0.34542 -0.01731,0.11856 -0.03127,0.24062 -0.04165,0.36595 -0.01033,0.12532 -0.01725,0.2539 -0.02026,0.38588 -0.0028,0.13198 -0.0023,0.26731 0.0028,0.40583 0.0045,0.13851 0.0135,0.28024 0.02639,0.42517 0.01288,0.14494 0.02962,0.29301 0.05101,0.44424 l -0.141046,-0.14104 -5.790623,5.79092 1.831784,1.83207 c -0.160366,0.0585 -0.31478,0.11957 -0.463593,0.18327 -0.148808,0.0637 -0.291885,0.13007 -0.429281,0.19851 -0.137397,0.0684 -0.269148,0.13903 -0.39527,0.21171 -0.126122,0.0727 -0.246853,0.1473 -0.361837,0.22373 -0.114989,0.0764 -0.224422,0.15461 -0.328415,0.23429 -0.103992,0.0797 -0.202435,0.16096 -0.295572,0.24338 -0.09314,0.0824 -0.180896,0.16603 -0.263315,0.25071 -0.08242,0.0847 -0.159515,0.17044 -0.231357,0.25686 -0.110529,0.13303 -0.217409,0.27693 -0.320789,0.42987 -0.103379,0.15294 -0.203331,0.31496 -0.299385,0.48441 -0.09605,0.16945 -0.18825,0.34642 -0.276802,0.52898 -0.08855,0.18256 -0.173349,0.37073 -0.25423,0.56299 -0.08088,0.19227 -0.157745,0.38848 -0.230767,0.58704 -0.07302,0.19856 -0.142316,0.39936 -0.207309,0.60082 -0.065,0.20146 -0.12589,0.40368 -0.182683,0.60463 -0.05679,0.20095 -0.109343,0.40056 -0.157756,0.5976 -0.09682,0.39408 -0.176725,0.77706 -0.238978,1.13508 -0.03115,0.179 -0.05783,0.35177 -0.08005,0.51666 -0.02219,0.16489 -0.03966,0.3218 -0.05277,0.46916 -0.01316,0.14736 -0.0219,0.28526 -0.02582,0.41169 -0.004,0.12643 -0.0034,0.24155 0.0023,0.34366 0.0057,0.10211 0.01589,0.19129 0.0311,0.26566 0.01515,0.0744 0.03518,0.13388 0.06011,0.17711 0.02491,0.0432 0.06664,0.0904 0.123449,0.14075 0.0568,0.0503 0.128721,0.10365 0.214346,0.15952 0.08563,0.0559 0.185032,0.11431 0.296452,0.17417 0.11142,0.0599 0.235,0.12126 0.369173,0.18356 0.134168,0.0623 0.278908,0.12535 0.432799,0.18855 0.153892,0.0632 0.316766,0.12658 0.48734,0.18912 0.341154,0.12509 0.712564,0.2472 1.102238,0.36038 0.194837,0.0566 0.394299,0.11087 0.596717,0.16215 0.202413,0.0513 0.407935,0.0995 0.614892,0.14398 0.206958,0.0444 0.415527,0.0851 0.623982,0.1211 0.208467,0.036 0.416758,0.0675 0.623693,0.0935 0.206935,0.0261 0.412525,0.047 0.614898,0.0616 0.202367,0.0146 0.401647,0.0231 0.596422,0.0246 0.194769,0.002 0.385016,-0.004 0.569152,-0.017 0.184135,-0.013 0.362029,-0.0338 0.532496,-0.063 0.140971,-0.0242 0.285217,-0.0564 0.432214,-0.0971 0.146998,-0.0406 0.296651,-0.0896 0.448931,-0.14749 0.152275,-0.0579 0.307074,-0.12474 0.463883,-0.20057 0.156802,-0.0758 0.315903,-0.16057 0.476491,-0.2551 0.160587,-0.0945 0.322848,-0.19862 0.48646,-0.31258 0.163618,-0.11397 0.328484,-0.23797 0.494382,-0.37211 0.165893,-0.13413 0.332819,-0.27863 0.500243,-0.43368 0.16742,-0.15505 0.335265,-0.32061 0.503467,-0.49731 0.05368,0.0368 0.107436,0.0697 0.161274,0.0985 0.05385,0.0289 0.107652,0.0536 0.161858,0.0745 0.05419,0.0208 0.108838,0.0377 0.163623,0.0504 0.05481,0.0127 0.10982,0.0213 0.165377,0.0258 0.214584,0.20838 0.427074,0.41943 0.642457,0.62721 0.0799,0.0771 0.165195,0.14683 0.254525,0.20878 0.08932,0.062 0.182791,0.11605 0.279441,0.16245 0.09665,0.0464 0.196347,0.0851 0.298211,0.11553 0.10187,0.0305 0.205845,0.0528 0.310819,0.0668 0.104974,0.0141 0.211004,0.0199 0.316976,0.0173 0.105979,-0.003 0.211815,-0.0137 0.316687,-0.0334 0.104872,-0.0197 0.20887,-0.0481 0.310524,-0.0853 0.10166,-0.0373 0.201,-0.0835 0.297332,-0.1387 0.08328,-0.0476 0.149301,-0.0932 0.204086,-0.13899 0.05476,-0.0458 0.09843,-0.0917 0.136937,-0.14016 0.07701,-0.097 0.133572,-0.20413 0.218749,-0.33956 0.146793,0.12318 0.288247,0.23268 0.424883,0.32783 0.136637,0.0951 0.26858,0.17584 0.396734,0.24162 0.128153,0.0658 0.25251,0.11653 0.37386,0.1516 0.06068,0.0175 0.120459,0.0311 0.179749,0.0407 0.05929,0.01 0.118116,0.0152 0.176232,0.0167 0.05812,0.002 0.115556,-0.001 0.172708,-0.008 0.05715,-0.007 0.113967,-0.0177 0.170364,-0.0329 0.0564,-0.0152 0.112464,-0.0345 0.16831,-0.0583 0.05584,-0.0238 0.111335,-0.0519 0.166846,-0.0845 0.05549,-0.0326 0.110869,-0.0696 0.166262,-0.11113 0.05538,-0.0415 0.110784,-0.0875 0.166256,-0.13811 0.110943,-0.10119 0.222323,-0.2206 0.334867,-0.3592 0.143893,0.13074 0.287424,0.25352 0.43016,0.36888 0.142736,0.11535 0.284661,0.22328 0.425763,0.32372 0.141102,0.10043 0.281205,0.19346 0.420196,0.27944 0.138986,0.086 0.277052,0.16492 0.413445,0.23693 0.136392,0.072 0.271332,0.13708 0.404654,0.19558 0.133317,0.0585 0.264915,0.11025 0.39468,0.1557 0.12977,0.0455 0.257509,0.0847 0.383245,0.11759 0.125742,0.0328 0.249407,0.0596 0.370638,0.0803 0.170483,0.0292 0.348644,0.05 0.532791,0.063 0.184152,0.013 0.374371,0.0186 0.569151,0.017 0.194787,-0.002 0.394038,-0.01 0.596422,-0.0246 0.202385,-0.0146 0.407952,-0.0355 0.614898,-0.0616 0.206946,-0.0261 0.415215,-0.0575 0.623693,-0.0935 0.208467,-0.036 0.417019,-0.0767 0.623982,-0.1211 0.206963,-0.0444 0.412474,-0.0927 0.614892,-0.14398 0.202424,-0.0513 0.401874,-0.10556 0.596717,-0.16215 0.389686,-0.11317 0.761078,-0.23529 1.102238,-0.36037 0.170574,-0.0625 0.333737,-0.12594 0.487635,-0.18913 0.153892,-0.0632 0.298625,-0.12624 0.432799,-0.18855 0.134174,-0.0623 0.257754,-0.1237 0.369173,-0.18356 0.111415,-0.0599 0.210527,-0.11831 0.296157,-0.17417 0.08562,-0.0559 0.157546,-0.1092 0.214346,-0.15952 0.0568,-0.0503 0.09851,-0.0975 0.123449,-0.14075 0.02491,-0.0432 0.04494,-0.10303 0.06011,-0.1774 0.01515,-0.0744 0.02554,-0.16326 0.03109,-0.26537 0.0057,-0.1021 0.0063,-0.21722 0.0023,-0.34366 -0.004,-0.12643 -0.01237,-0.26433 -0.02553,-0.41169 -0.01316,-0.14736 -0.03087,-0.30427 -0.05305,-0.46916 -0.02224,-0.16489 -0.04891,-0.33766 -0.08005,-0.51666 -0.06225,-0.35802 -0.142163,-0.741 -0.238977,-1.13508 -0.0484,-0.19704 -0.100974,-0.39665 -0.157756,-0.59759 -0.05679,-0.20096 -0.11769,-0.40318 -0.182683,-0.60464 -0.06499,-0.20146 -0.134293,-0.40226 -0.20731,-0.60082 -0.07302,-0.19856 -0.149897,-0.39477 -0.230767,-0.58703 -0.08087,-0.19227 -0.165682,-0.38074 -0.254229,-0.56329 -0.08855,-0.18256 -0.180754,-0.35924 -0.276803,-0.52869 -0.09605,-0.16945 -0.195716,-0.33147 -0.29909,-0.48441 -0.10338,-0.15294 -0.210555,-0.29684 -0.321084,-0.42986 -0.07933,-0.0954 -0.165155,-0.19001 -0.257453,-0.28326 -0.0923,-0.0933 -0.191007,-0.18524 -0.296452,-0.27564 -0.105439,-0.0904 -0.217563,-0.17908 -0.336331,-0.26595 -0.118762,-0.0869 -0.244232,-0.17184 -0.376499,-0.25452 -0.132267,-0.0827 -0.271315,-0.16321 -0.417263,-0.24103 -0.145948,-0.0778 -0.298795,-0.15292 -0.458605,-0.2252 -0.15981,-0.0723 -0.326685,-0.14182 -0.500533,-0.2079 -0.173854,-0.0661 -0.354693,-0.12874 -0.542761,-0.18796 0.01515,-0.0997 0.02786,-0.19917 0.03722,-0.2985 0.0094,-0.0993 0.01526,-0.19854 0.01702,-0.29733 l 2.195085,-2.19509 -5.790624,-5.79092 -0.05747,0.0575 c -0.0017,-0.17472 -0.0099,-0.34391 -0.02434,-0.50728 -0.01441,-0.16335 -0.03507,-0.32094 -0.06129,-0.47267 -0.02621,-0.15175 -0.05817,-0.29764 -0.0953,-0.4375 -0.03711,-0.13987 -0.07951,-0.27368 -0.126673,-0.40143 -0.05995,-0.16223 -0.130933,-0.3269 -0.211707,-0.49291 -0.08078,-0.166 -0.171328,-0.3335 -0.270061,-0.50141 -0.09874,-0.16792 -0.205783,-0.33608 -0.31962,-0.50406 -0.113831,-0.16797 -0.234296,-0.33553 -0.360372,-0.50171 -0.126077,-0.16618 -0.25776,-0.33097 -0.393216,-0.4935 -0.135456,-0.16253 -0.274697,-0.32298 -0.416673,-0.48001 -0.141975,-0.15702 -0.286578,-0.3107 -0.432214,-0.46036 -0.145636,-0.14967 -0.292526,-0.29528 -0.438961,-0.43573 -0.292872,-0.28091 -0.584348,-0.54149 -0.863255,-0.77442 -0.139456,-0.11646 -0.275911,-0.22584 -0.407588,-0.32753 -0.131666,-0.10169 -0.258696,-0.19555 -0.379722,-0.28062 -0.121038,-0.085 -0.235834,-0.16155 -0.343373,-0.22813 -0.107533,-0.0666 -0.207621,-0.12324 -0.298795,-0.16948 -0.09117,-0.0462 -0.173474,-0.0818 -0.245429,-0.10585 -0.07196,-0.0241 -0.133686,-0.0367 -0.183563,-0.0367 z"
         sodipodi:nodetypes="ssssssssssssssssssscccsccccssssssssssssssssssccscssssssssssssscssssssssscssscssssscsscsscssssccssssscssssssssscsssssssssssssscsscssssssssssssssssscsccccssscsssssssssssssss" />
      <path
         id="path2441"
         style="fill:#000000;fill-opacity:1;fill-rule:nonzero;stroke:none;stroke-width:0.0267058"
         d="m 79.007588,253.88207 c -0.798267,0 -4.605269,3.19658 -5.564254,5.79239 -0.288117,0.78029 -0.39515,1.7904 -0.224026,3.00028 l -0.141039,-0.14104 -5.790624,5.79092 1.831778,1.83207 c -1.282929,0.46771 -2.193893,1.11108 -2.768639,1.80246 -1.768453,2.12845 -2.633053,7.02369 -2.233794,7.71536 0.399025,0.69169 5.070615,2.39033 7.798048,1.92298 1.127772,-0.19333 2.460447,-0.90234 3.806077,-2.3159 0.214658,0.14724 0.429888,0.23133 0.652132,0.24924 0.214584,0.20839 0.427063,0.41943 0.642458,0.62721 0.639155,0.61694 1.613841,0.75485 2.384514,0.31346 0.333097,-0.19037 0.389414,-0.34787 0.559766,-0.61871 1.174375,0.98542 1.996741,1.09529 2.897071,-0.0135 1.151167,1.04596 2.272936,1.59192 3.242787,1.75818 2.727739,0.46735 7.399318,-1.23129 7.798344,-1.92298 0.398935,-0.69167 -0.465341,-5.58691 -2.2338,-7.71535 -0.634679,-0.76348 -1.681342,-1.46778 -3.185897,-1.94145 0.03024,-0.19944 0.05079,-0.39825 0.05425,-0.59584 l 2.19509,-2.19509 -5.790623,-5.79091 -0.05747,0.0575 c -0.007,-0.69892 -0.118955,-1.30787 -0.307591,-1.81887 -0.959285,-2.59581 -4.766577,-5.79239 -5.564549,-5.79239 z m 0,5.66161 c 1.180055,0.75146 2.498805,1.87846 2.868041,3.66209 -0.71641,-0.0933 -1.658378,0.0367 -2.715562,0.85036 l -0.03461,0.0308 -0.489979,0.49203 c -1.014315,-0.68821 -1.912284,-0.76325 -2.584787,-0.64745 0.120442,-2.20937 1.624741,-3.53787 2.956889,-4.38783 z m 6.10819,2.71791 4.786323,4.78632 -2.226168,2.22618 c 0.0051,0.17634 -1.08e-4,0.34946 -0.01611,0.51842 -0.01924,0.20697 -0.05368,0.40855 -0.102335,0.60492 -0.219594,0.88477 -0.722244,1.66521 -1.392823,2.37103 -0.909403,0.95663 -1.861988,1.87186 -2.795615,2.80529 -0.979259,0.97965 -1.955352,1.96354 -2.942811,2.93519 -0.169348,0.16695 -0.412479,0.43432 -0.762389,0.46154 -0.253815,0.02 -0.427839,-0.0791 -0.597596,-0.23986 -0.152127,-0.14434 -0.201357,-0.50733 -0.142504,-0.73453 0.06365,-0.24622 0.281824,-0.4691 0.471798,-0.66386 0.446384,-0.457 0.901363,-0.90563 1.35236,-1.35823 0.219583,-0.22039 0.438581,-0.44182 0.65477,-0.66562 0.23041,-0.23781 0.903781,-0.74002 0.52605,-1.09373 -0.346714,-0.3245 -0.843213,0.30129 -1.051804,0.51109 -0.219583,0.22078 -0.439699,0.44108 -0.662692,0.65888 -1.036717,1.01229 -2.059351,2.03917 -3.121681,3.02404 -0.480418,0.4458 -0.856815,0.41155 -1.185513,0.0252 -0.311671,-0.36593 -0.251824,-0.73201 0.200568,-1.18522 1.174431,-1.17663 2.350922,-2.35127 3.525745,-3.52751 0.16515,-0.16494 0.307687,-0.27236 0.337506,-0.52458 0.02224,-0.18616 -0.04596,-0.3514 -0.237514,-0.38002 -0.32328,-0.0485 -0.463707,0.0748 -0.671487,0.28238 -1.383222,1.3828 -2.764707,2.76756 -4.150318,4.14797 -0.454599,0.45261 -0.962599,0.44295 -1.294884,-0.0108 -0.248425,-0.3391 -0.179449,-0.72257 0.224905,-1.12833 1.403019,-1.40883 2.809205,-2.81493 4.218636,-4.21776 0.229796,-0.2288 0.410079,-0.48497 0.128437,-0.74861 -0.26925,-0.25202 -0.501004,-0.0289 -0.706384,0.17711 -1.081334,1.08554 -2.164841,2.16878 -3.250992,3.24953 -0.144535,0.14372 -0.296531,0.29047 -0.472683,0.38735 -0.398555,0.2192 -0.900143,0.0197 -1.0691,-0.40231 -0.173145,-0.43278 0.04914,-0.70729 0.324012,-0.98113 1.797574,-1.79177 3.595811,-3.58368 5.377764,-5.39066 l 0.736292,0.73951 c 0.25061,0.25203 0.580467,0.37797 0.91076,0.37797 0.327888,0 0.656133,-0.12454 0.906356,-0.37357 l 0.141341,-0.14104 c 0.242807,-0.24141 0.376879,-0.56363 0.377673,-0.90753 0.0017,-0.32288 -0.119795,-0.62478 -0.333987,-0.86179 l -1.633264,-1.64911 -0.3205,-0.32225 0.436028,-0.43808 c 0.674784,-0.51425 1.2773,-0.69486 1.773725,-0.71928 0.909,-0.0823 1.713027,0.39292 1.713027,0.39292 l 0.482942,-0.48295 z m -12.216379,1.09783 1.534157,1.53445 0.101166,0.10088 -0.0065,0.0161 0.74098,0.0616 0.04869,-0.11964 c 0.292264,-0.19918 1.505865,-0.87255 3.126084,0.36213 l 2.143188,2.15316 c 0.107493,0.1081 0.166369,0.25259 0.165966,0.40671 0,0.15433 -0.06002,0.29833 -0.16831,0.40582 l -0.14163,0.14134 c -0.224791,0.22339 -0.588631,0.2223 -0.812237,-0.002 l -2.192741,-2.20271 -0.533086,0.37239 0.593194,0.69495 0.256868,0.25804 c -0.25162,0.25181 -0.503631,0.50392 -0.755642,0.75593 -0.06286,0.0629 -0.09829,0.13114 -0.116118,0.19998 -0.0126,0.0131 -0.02491,0.0264 -0.03751,0.039 -1.473494,1.47571 -2.951867,2.94716 -4.421554,4.42625 -0.294057,0.29606 -0.487657,0.5949 -0.582344,0.89317 -0.666176,-0.70343 -1.165517,-1.48067 -1.384317,-2.36164 -0.04863,-0.19638 -0.08292,-0.39796 -0.102341,-0.60493 -0.01583,-0.16915 -0.02133,-0.34208 -0.01611,-0.51842 l -2.226168,-2.22647 z m 14.451052,9.26623 c 1.276177,1.2042 1.586037,2.85552 1.645878,4.21806 -0.995902,0.51797 -2.245608,0.99021 -3.59319,0.86384 -0.04761,-0.21154 -0.14942,-0.43293 -0.334276,-0.66884 -0.0045,-0.006 -0.161348,-0.20976 -0.153949,-0.20937 0.433582,0.0138 0.776904,-0.26227 0.966475,-0.50728 0.504034,-0.65178 0.472934,-1.33675 -0.06773,-2.01095 0.236605,-0.238 0.475662,-0.47304 0.71107,-0.71165 0.29959,-0.30331 0.57734,-0.62779 0.825725,-0.97381 z m -17.105037,0.44366 c 0.08775,0.15379 0.180663,0.30778 0.283548,0.46212 0.279844,0.41977 0.606676,0.80646 0.961193,1.16557 0.452199,0.4588 0.910827,0.91171 1.366431,1.36732 -0.420219,0.6122 -0.326627,1.13374 0.02639,1.60599 -1.450706,0.2238 -2.801789,-0.27346 -3.864131,-0.8266 0.05283,-1.20127 0.299011,-2.62724 1.226567,-3.7744 z m 14.97006,1.84028 c 0.154335,0.20459 0.233752,0.43251 0.110251,0.74098 -0.168957,0.42196 -0.670465,0.62179 -1.06881,0.4026 -0.03904,-0.0215 -0.07626,-0.0462 -0.11289,-0.0718 0.358903,-0.35551 0.714538,-0.71442 1.071449,-1.07174 z m -1.671389,1.6664 c 0.209585,0.21019 0.420265,0.41918 0.629849,0.62956 0.403946,0.40576 0.472741,0.78925 0.224321,1.12833 -0.332092,0.45381 -0.840092,0.4635 -1.29489,0.0105 -0.225989,-0.2252 -0.451048,-0.45145 -0.677059,-0.67705 0.372736,-0.36371 0.746852,-0.72567 1.117779,-1.09139 z m -1.723876,1.68312 c 0.02905,0.0292 0.05825,0.0581 0.08768,0.0874 0.451802,0.45299 0.511733,0.81939 0.200273,1.18551 -0.328489,0.38614 -0.705096,0.4203 -1.185513,-0.0255 -0.07468,-0.0691 -0.147605,-0.1399 -0.221683,-0.20937 0.105303,-0.0691 0.205829,-0.14715 0.298506,-0.23662 0.275253,-0.26544 0.546302,-0.53496 0.820738,-0.80139 z m -3.765313,0.49585 c 0.170761,0.27064 0.226885,0.42842 0.559772,0.619 0.149335,0.0855 0.307159,0.14862 0.46769,0.19147 -0.02724,0.10788 -0.07137,0.20368 -0.133413,0.26273 -0.169349,0.16094 -0.343782,0.25997 -0.597597,0.24015 -0.34991,-0.0274 -0.592632,-0.29438 -0.762389,-0.46153 -0.10389,-0.10209 -0.206453,-0.2058 -0.30994,-0.30789 0.243018,-0.13091 0.499035,-0.31173 0.775877,-0.54393 z" />
    </g>
  </g>
</svg>
