<?xml version="1.0" encoding="UTF-8" standalone="no"?>
<!-- Created with Inkscape (http://www.inkscape.org/) -->

<svg
   width="20.208427mm"
   height="34.097069mm"
   viewBox="0 0 20.208427 34.097069"
   version="1.1"
   id="svg1"
   inkscape:version="1.3 (0e150ed6c4, 2023-07-21)"
   sodipodi:docname="rpg-player.svg"
   xmlns:inkscape="http://www.inkscape.org/namespaces/inkscape"
   xmlns:sodipodi="http://sodipodi.sourceforge.net/DTD/sodipodi-0.dtd"
   xmlns="http://www.w3.org/2000/svg"
   xmlns:svg="http://www.w3.org/2000/svg">
  <sodipodi:namedview
     id="namedview1"
     pagecolor="#ffffff"
     bordercolor="#000000"
     borderopacity="0.25"
     inkscape:showpageshadow="2"
     inkscape:pageopacity="0.0"
     inkscape:pagecheckerboard="0"
     inkscape:deskcolor="#d1d1d1"
     inkscape:document-units="mm"
     inkscape:zoom="0.69219276"
     inkscape:cx="39.006476"
     inkscape:cy="64.28845"
     inkscape:window-width="1920"
     inkscape:window-height="991"
     inkscape:window-x="-9"
     inkscape:window-y="-9"
     inkscape:window-maximized="1"
     inkscape:current-layer="layer1" />
  <defs
     id="defs1" />
  <g
     inkscape:label="Layer 1"
     inkscape:groupmode="layer"
     id="layer1"
     transform="translate(-94.985418,-131.49792)">
    <g
       id="g1757"
       transform="translate(57.157673,-95.78768)">
      <path
         id="path1726"
         style="fill:#bfbfbf;stroke:#cc0000;stroke-width:0.208681"
         d="m 47.932246,227.43315 -2.083077,2.08256 0.952913,0.95291 v 2.42879 c -0.516478,0.30053 -1.030565,0.60525 -1.543575,0.91209 -0.513009,0.30684 -1.024947,0.61575 -1.53634,0.92553 -1.022787,0.61954 -2.044202,1.24162 -3.071647,1.8526 -0.10429,0.081 -0.215023,0.15682 -0.330213,0.22944 -0.11519,0.0726 -0.234699,0.14226 -0.356567,0.20981 -0.243736,0.13509 -0.496959,0.26316 -0.742074,0.3979 -0.122557,0.0674 -0.243099,0.1365 -0.359668,0.20878 -0.116568,0.0723 -0.229022,0.1479 -0.33538,0.22841 -0.106357,0.0805 -0.206248,0.1658 -0.298173,0.25786 -0.09192,0.0921 -0.175811,0.19071 -0.24908,0.29766 -0.02079,0.73713 -0.03297,1.47434 -0.03979,2.21175 -0.0068,0.73741 -0.0082,1.47524 -0.0072,2.21278 0.0019,1.47511 0.01301,2.95016 0.0088,4.42506 0.01059,0.1262 0.01616,0.25449 0.0186,0.38395 0.0024,0.12947 0.0019,0.26023 -5.17e-4,0.39171 -0.0048,0.26296 -0.01605,0.52873 -0.02067,0.7922 -0.0023,0.13174 -0.0032,0.26276 -5.16e-4,0.39274 0.0027,0.12999 0.0087,0.25853 0.01964,0.38551 0.01092,0.12698 0.02663,0.25244 0.04909,0.37517 0.02246,0.12272 0.05161,0.24297 0.08888,0.36018 0.72502,0.46513 1.45565,0.9216 2.18953,1.37305 0.733881,0.45145 1.471273,0.89808 2.209684,1.34255 1.476824,0.88894 2.958138,1.77044 4.42712,2.67167 l 0.02739,0.92036 c 0.0053,0.19191 0.01594,0.38358 0.03049,0.57464 0.01323,0.19106 0.0333,0.38163 0.05684,0.57154 0.02381,0.18991 0.05195,0.37948 0.08423,0.56793 0.03228,0.18845 0.06906,0.37607 0.110071,0.56275 0.04127,0.18669 0.08642,0.37246 0.136425,0.55707 0.04974,0.18462 0.104308,0.36812 0.162781,0.55036 0.05847,0.18224 0.121163,0.36305 0.188102,0.5426 0.06694,0.17955 0.13827,0.35777 0.213941,0.53434 0.07541,-0.17657 0.147001,-0.35479 0.21394,-0.53434 0.06694,-0.17955 0.129629,-0.36036 0.188102,-0.5426 0.05847,-0.18224 0.112523,-0.36574 0.162264,-0.55036 0.05001,-0.18461 0.09567,-0.37038 0.136943,-0.55707 0.04101,-0.18668 0.07779,-0.3743 0.110071,-0.56275 0.03228,-0.18845 0.06017,-0.37802 0.08372,-0.56793 0.02381,-0.18991 0.04281,-0.38048 0.05736,-0.57154 0.01588,-0.19106 0.02387,-0.38273 0.03049,-0.57464 l 0.02791,-0.94 c 0.98471,-0.57397 1.960234,-1.16392 2.935221,-1.75544 0.974987,-0.59153 1.949451,-1.18464 2.931087,-1.76424 0.123258,-0.0878 0.251727,-0.17177 0.383439,-0.25321 0.131714,-0.0814 0.266762,-0.16057 0.403593,-0.23823 0.273665,-0.15532 0.554259,-0.30532 0.828374,-0.46095 0.137056,-0.0778 0.272462,-0.15699 0.404626,-0.23875 0.132164,-0.0818 0.261058,-0.16649 0.384989,-0.25476 0.123933,-0.0883 0.242654,-0.18014 0.355018,-0.27751 0.112362,-0.0974 0.218285,-0.19999 0.315743,-0.30902 0.02137,-0.91646 0.03343,-1.83295 0.03979,-2.7497 0.0064,-0.91677 0.0073,-1.83382 0.0057,-2.75074 -0.0031,-1.83385 -0.01525,-3.66791 -0.0078,-5.50147 -0.009,-0.11031 -0.0025,-0.22976 0.0031,-0.34934 0.0056,-0.11958 0.01038,-0.23929 -0.0021,-0.35036 -0.0062,-0.0555 -0.01673,-0.10909 -0.03359,-0.15917 -0.01686,-0.0501 -0.03971,-0.0966 -0.07131,-0.13901 -0.0316,-0.0424 -0.07204,-0.0807 -0.122473,-0.11317 -0.05044,-0.0325 -0.111122,-0.0592 -0.184485,-0.0796 -1.404769,-0.85174 -2.807715,-1.70824 -4.214213,-2.5585 -0.703251,-0.42513 -1.407282,-0.8485 -2.11305,-1.26917 -0.705766,-0.42068 -1.413193,-0.83862 -2.122867,-1.25212 v -2.42311 l 0.952913,-0.95291 z"
         sodipodi:nodetypes="ccccsscsssssscsccsssssscssccccsccsscssccsccccscsssssscsccssssscsscccc" />
      <path
         id="path1"
         style="fill:#000000;fill-opacity:1;stroke-width:0.208681"
         d="m 47.932329,227.43315 -2.083077,2.08256 0.952913,0.95291 v 2.42879 c -2.065917,1.20211 -4.096667,2.46827 -6.151562,3.69022 -0.834319,0.64822 -2.085004,0.9743 -2.671155,1.82986 -0.08316,2.94854 -0.02974,5.89979 -0.03824,8.84959 0.0847,1.00963 -0.14367,2.14375 0.154513,3.08146 2.900089,1.86051 5.888363,3.5848 8.826334,5.38727 l 0.02739,0.92036 c 0.0053,0.19191 0.01594,0.38358 0.03049,0.57464 0.01323,0.19106 0.0333,0.38163 0.05684,0.57154 0.02381,0.18991 0.05195,0.37948 0.08423,0.56793 0.03228,0.18845 0.06906,0.37607 0.110071,0.56275 0.04127,0.18669 0.08642,0.37246 0.136425,0.55707 0.04974,0.18462 0.104308,0.36812 0.162781,0.55036 0.05847,0.18224 0.121163,0.36305 0.188102,0.5426 0.06694,0.17955 0.13827,0.35777 0.213941,0.53434 0.07541,-0.17657 0.147001,-0.35479 0.21394,-0.53434 0.06694,-0.17955 0.129629,-0.36036 0.188102,-0.5426 0.05847,-0.18224 0.112523,-0.36574 0.162264,-0.55036 0.05001,-0.18461 0.09567,-0.37038 0.136943,-0.55707 0.04101,-0.18668 0.07779,-0.3743 0.110071,-0.56275 0.03228,-0.18845 0.06017,-0.37802 0.08372,-0.56793 0.02381,-0.18991 0.04281,-0.38048 0.05736,-0.57154 0.01587,-0.19106 0.02387,-0.38273 0.03049,-0.57464 l 0.02791,-0.94 c 1.969425,-1.14795 3.903032,-2.36049 5.866308,-3.51968 0.986063,-0.70244 2.29612,-1.16014 3.075782,-2.03243 0.08547,-3.66585 0.02263,-7.33475 0.03772,-11.00191 -0.03615,-0.44123 0.176083,-1.02775 -0.410827,-1.19063 -2.809542,-1.70349 -5.611426,-3.42577 -8.45013,-5.07979 v -2.42311 l 0.952913,-0.95291 z m 1.129647,6.39392 c 1.972058,1.15168 3.914674,2.3546 5.875093,3.5264 l 0.0031,0.0176 c -1.81718,-0.35872 -3.61348,-0.83583 -5.414657,-1.28312 l 0.0016,-0.0512 c -0.12303,0.0104 -0.245472,0.0261 -0.366385,0.0465 -0.120915,0.0204 -0.240128,0.0457 -0.357601,0.076 -0.11774,0.0302 -0.233508,0.0651 -0.346749,0.1049 -0.113506,0.0398 -0.224583,0.0847 -0.332796,0.13384 l -0.01602,14.65182 c 0,0.28857 -0.0081,0.57623 -0.01602,0.86145 -0.0079,0.28522 -0.02113,0.56826 -0.03462,0.84801 -0.01588,0.27975 -0.03233,0.55621 -0.05323,0.82837 -0.02117,0.27217 -0.04458,0.54007 -0.07183,0.80254 -0.02725,-0.26247 -0.05221,-0.53037 -0.07338,-0.80254 -0.02117,-0.27216 -0.03841,-0.54862 -0.05323,-0.82837 -0.01588,-0.27975 -0.02642,-0.56279 -0.03462,-0.84801 -0.0079,-0.28522 -0.01286,-0.57288 -0.0155,-0.86145 l -0.01602,-14.69161 c -0.105833,-0.0445 -0.215434,-0.0848 -0.328145,-0.12092 -0.112977,-0.0361 -0.228745,-0.0683 -0.346749,-0.0956 -0.118004,-0.0273 -0.238225,-0.05 -0.359668,-0.0682 -0.121202,-0.0181 -0.243859,-0.0316 -0.366903,-0.0403 l 0.0026,0.0806 c -1.300188,0.32597 -2.6089,0.62917 -3.908289,0.9586 -0.522286,0.1171 -1.039614,0.28127 -1.56993,0.35037 1.963117,-1.20998 3.947825,-2.41091 5.940206,-3.58738 v 0.91932 c -1.098549,-0.074 -2.192996,0.30097 -3.01532,1.04645 -0.129645,0.11748 -0.106697,0.32706 0.04703,0.41031 0.07329,0.0395 0.162355,0.0418 0.235644,0.003 1.100401,-0.58667 2.709992,-0.58452 3.908289,-0.0233 1.198297,-0.56127 2.716685,-0.56342 3.816821,0.0233 0.07355,0.0392 0.16262,0.0368 0.235645,-0.003 0.153723,-0.0832 0.176671,-0.29283 0.04702,-0.41031 -0.822324,-0.74557 -1.916771,-1.12055 -3.015319,-1.04645 z m 0.438732,3.09955 c 2.365561,0.54309 4.718769,1.14183 7.076054,1.72031 0.656648,-0.0392 0.616334,0.51484 0.550354,1.0263 -0.711758,2.50645 -1.52333,4.9903 -2.276863,7.48688 -0.0534,0.1452 -0.09072,0.30018 -0.182935,0.42788 -1.782349,-3.14099 -3.471463,-6.33429 -5.201233,-9.50485 z m -3.135725,0.032 0.03359,1.13637 c -1.434938,2.69773 -2.92956,5.36576 -4.376994,8.05739 -0.273324,0.50571 -0.552535,1.00875 -0.819071,1.51825 -0.540849,-1.61269 -0.996975,-3.25392 -1.502751,-4.87825 -0.319696,-1.33287 -1.018068,-2.60916 -0.963248,-4.00596 2.549962,-0.5774 5.078329,-1.25245 7.628475,-1.8278 z m 3.05356,2.72852 c 1.549149,2.83454 3.086948,5.67586 4.614705,8.52196 l -0.01344,0.0305 -0.10697,0.0232 c -1.582745,0.0441 -3.166337,0.0478 -4.750097,0.045 z m -2.971912,0.0165 0.255282,8.60257 c -0.675463,-0.003 -1.350996,-0.006 -2.026233,-0.003 -0.942551,-0.04 -1.947158,0.0785 -2.849955,-0.0946 1.52536,-2.84309 3.069199,-5.67649 4.620906,-8.50542 z m -7.692037,2.91506 c 0.697281,1.92692 1.238336,3.91366 1.820561,5.87923 -0.595394,0.31934 -1.207654,0.61678 -1.83348,0.87126 -0.0518,-2.24862 -0.04857,-4.50216 0.01292,-6.75049 z m 18.349785,0.0305 c 0.05852,1.10745 0.03679,2.21766 0.04599,3.32641 -6.8e-4,0.82733 5.54e-4,1.65474 -0.01034,2.48202 0.334664,1.56734 -1.183008,0.32395 -1.841231,-0.0543 0.615455,-1.91368 1.153644,-3.85292 1.805575,-5.75417 z m -10.379729,6.42958 0.150379,5.07515 c -1.610639,-1.66044 -3.213178,-3.32907 -4.788855,-5.02244 1.545418,-0.0356 3.091935,-0.0486 4.638476,-0.0527 z m 2.415357,0.002 c 1.54772,0.006 3.095622,0.016 4.642611,0.031 -0.942119,1.08484 -1.969306,2.09579 -2.951241,3.14554 -0.614202,0.64304 -1.228535,1.28603 -1.842782,1.92908 z m -8.175728,0.16795 c 1.375457,1.29073 2.646553,2.69094 3.947045,4.05712 0.151817,0.16879 0.317067,0.32777 0.441834,0.51883 -1.80567,-1.05131 -3.586168,-2.14703 -5.372799,-3.23081 -1.544319,-0.49478 0.339742,-1.04705 0.98392,-1.34514 z m 13.952636,0.13436 c 0.54916,-0.0469 1.180577,0.38089 1.736328,0.73122 -1.27447,0.84812 -2.618446,1.58919 -3.919657,2.39624 -0.73445,0.42543 -1.444565,0.90805 -2.200382,1.29139 1.112571,-1.27635 2.338387,-2.47789 3.518131,-3.70313 0.236123,-0.48874 0.536086,-0.68759 0.86558,-0.71572 z" />
    </g>
  </g>
</svg>
