<?xml version="1.0" encoding="UTF-8" standalone="no"?>
<!-- Created with Inkscape (http://www.inkscape.org/) -->

<svg
   width="33.896038mm"
   height="33.843342mm"
   viewBox="0 0 33.896038 33.843342"
   version="1.1"
   id="svg1"
   inkscape:version="1.3 (0e150ed6c4, 2023-07-21)"
   sodipodi:docname="rpg-game-master.svg"
   xmlns:inkscape="http://www.inkscape.org/namespaces/inkscape"
   xmlns:sodipodi="http://sodipodi.sourceforge.net/DTD/sodipodi-0.dtd"
   xmlns="http://www.w3.org/2000/svg"
   xmlns:svg="http://www.w3.org/2000/svg">
  <sodipodi:namedview
     id="namedview1"
     pagecolor="#ffffff"
     bordercolor="#000000"
     borderopacity="0.25"
     inkscape:showpageshadow="2"
     inkscape:pageopacity="0.0"
     inkscape:pagecheckerboard="0"
     inkscape:deskcolor="#d1d1d1"
     inkscape:document-units="mm"
     inkscape:zoom="3.9156336"
     inkscape:cx="61.803536"
     inkscape:cy="67.549733"
     inkscape:window-width="1920"
     inkscape:window-height="991"
     inkscape:window-x="-9"
     inkscape:window-y="-9"
     inkscape:window-maximized="1"
     inkscape:current-layer="layer1" />
  <defs
     id="defs1" />
  <g
     inkscape:label="Layer 1"
     inkscape:groupmode="layer"
     id="layer1"
     transform="translate(-88.106248,-131.49792)">
    <g
       id="g1756"
       transform="translate(4.885432,-94.294942)"
       style="stroke-width:0.08;stroke-dasharray:none">
      <path
         style="fill:#bfbfbf;stroke:#cc0000;stroke-width:0.08;stroke-dasharray:none"
         d="m 100.17012,225.84944 -2.083077,2.08256 0.95291,0.95291 v 2.42879 c -0.51648,0.30053 -1.03056,0.60525 -1.54357,0.91209 -0.51301,0.30684 -1.02495,0.61575 -1.53634,0.92553 -1.02279,0.61954 -2.0442,1.24162 -3.07165,1.8526 -0.10429,0.081 -0.21502,0.15682 -0.33021,0.22944 -0.11519,0.0726 -0.2347,0.14226 -0.35657,0.20981 -0.24373,0.13509 -0.49696,0.26316 -0.74207,0.3979 -0.12256,0.0674 -0.2431,0.1365 -0.35967,0.20878 -0.11656,0.0723 -0.22902,0.1479 -0.33538,0.22841 -0.0942,0.0713 -0.18106,0.14822 -0.26407,0.22841 -0.0425,-0.0417 -0.0934,-0.077 -0.14521,-0.11162 -0.0518,-0.0346 -0.10435,-0.0684 -0.14934,-0.10801 -0.0893,-10e-4 -0.17673,0.009 -0.26252,0.0269 -0.0858,0.0178 -0.16976,0.043 -0.25321,0.0724 -0.16691,0.0584 -0.3305,0.13241 -0.49506,0.19172 -0.16185,0.0688 -0.31978,0.14725 -0.47233,0.23513 -0.15255,0.0879 -0.29974,0.1852 -0.43925,0.29249 -10e-4,-0.0468 0.0122,-0.0815 0.0346,-0.10904 0.0225,-0.0276 0.0538,-0.048 0.0894,-0.0651 0.0712,-0.0343 0.15829,-0.0565 0.21859,-0.1018 0.14363,-0.0765 0.28267,-0.16136 0.41651,-0.25374 0.13383,-0.0924 0.26262,-0.19253 0.38551,-0.2992 0.12288,-0.10668 0.2401,-0.21961 0.35088,-0.339 0.11078,-0.11939 0.21512,-0.24517 0.31264,-0.37569 0.0975,-0.13052 0.1882,-0.2661 0.2713,-0.40617 0.0831,-0.14008 0.1583,-0.28449 0.22583,-0.43254 0.0675,-0.14804 0.12696,-0.2998 0.17777,-0.45423 0.0508,-0.15444 0.0932,-0.31153 0.12609,-0.47077 0.0367,-0.2136 0.0657,-0.43082 0.0837,-0.64906 0.018,-0.21824 0.025,-0.43774 0.0181,-0.65629 -0.003,-0.10928 -0.0104,-0.21805 -0.0212,-0.3266 -0.0108,-0.10854 -0.026,-0.21674 -0.045,-0.32401 -0.019,-0.10726 -0.0419,-0.2134 -0.0698,-0.31884 -0.0279,-0.10545 -0.0606,-0.21008 -0.0982,-0.31316 -0.0173,-0.0465 -0.04,-0.0916 -0.0677,-0.13333 -0.0277,-0.0417 -0.0602,-0.0803 -0.0971,-0.11265 -0.037,-0.0324 -0.0783,-0.0588 -0.12351,-0.0775 -0.0452,-0.0187 -0.0944,-0.0294 -0.14676,-0.03 -0.0304,-0.003 -0.061,-0.0131 -0.0915,-0.0207 -0.0305,-0.008 -0.0609,-0.0129 -0.0915,-0.006 -0.11626,0.0331 -0.22873,0.0764 -0.33796,0.12661 -0.10923,0.0502 -0.21526,0.10752 -0.31936,0.16898 -0.20821,0.12291 -0.40804,0.26231 -0.6072,0.39481 -0.13667,0.0966 -0.26756,0.20096 -0.39222,0.31264 -0.12466,0.11168 -0.24316,0.23054 -0.3545,0.35553 -0.11134,0.12499 -0.21542,0.25619 -0.31213,0.39275 -0.0967,0.13657 -0.18588,0.27838 -0.26665,0.42478 -0.0808,0.1464 -0.15352,0.29766 -0.21704,0.45216 -0.0635,0.1545 -0.11782,0.3125 -0.16278,0.47336 -0.045,0.16085 -0.0803,0.32441 -0.10542,0.48989 -0.0251,0.16548 -0.04,0.3329 -0.0439,0.50126 -0.0114,0.0461 -0.003,0.14601 0.001,0.22738 0.002,0.0407 0.003,0.0768 -5.2e-4,0.0992 -0.002,0.0112 -0.005,0.019 -0.009,0.0222 -0.004,0.003 -0.009,0.002 -0.0165,-0.005 -0.091,-0.13665 -0.18878,-0.27048 -0.29352,-0.39894 -0.10475,-0.12846 -0.2165,-0.25164 -0.33538,-0.36691 -0.11888,-0.11525 -0.24491,-0.22282 -0.37827,-0.31987 -0.13337,-0.0971 -0.27399,-0.18351 -0.4222,-0.25735 -0.0714,-0.0246 -0.14534,-0.0331 -0.21807,-0.0279 -0.0727,0.005 -0.1444,0.0238 -0.21032,0.0548 -0.0659,0.031 -0.12633,0.0739 -0.17725,0.12661 -0.0509,0.0527 -0.0921,0.11553 -0.11989,0.18603 -0.0504,0.13205 -0.0881,0.26726 -0.11679,0.40463 -0.0287,0.13737 -0.0481,0.27662 -0.0615,0.41703 -0.0267,0.28082 -0.0294,0.56571 -0.0336,0.84491 6.2e-4,0.10258 0.006,0.20497 0.0145,0.30696 0.009,0.10199 0.0214,0.20346 0.0382,0.30437 0.0336,0.20183 0.0828,0.40119 0.14625,0.59583 0.0634,0.19464 0.14128,0.38486 0.23202,0.56844 0.0907,0.18358 0.19452,0.36049 0.31006,0.52917 -0.17315,-0.0912 -0.35224,-0.17409 -0.53433,-0.24857 -0.1821,-0.0745 -0.36719,-0.14058 -0.55242,-0.19843 -0.0685,0.0185 -0.15207,0.009 -0.22996,0.01 -0.0389,5.2e-4 -0.0766,0.004 -0.11007,0.0145 -0.0334,0.0108 -0.0626,0.0291 -0.0853,0.0599 -0.0538,0.0712 -0.11593,0.13953 -0.16175,0.21446 -0.0229,0.0375 -0.0414,0.0765 -0.0532,0.11833 -0.0118,0.0419 -0.0167,0.0868 -0.0114,0.1354 -0.0193,0.14014 -0.0327,0.28124 -0.0403,0.42323 -0.008,0.14199 -0.009,0.28489 -0.005,0.42736 0.004,0.14247 0.0143,0.28475 0.031,0.42633 0.0167,0.14159 0.0399,0.28235 0.0692,0.42168 0.0293,0.13934 0.0648,0.27718 0.10697,0.4129 0.0422,0.13572 0.0909,0.26923 0.14625,0.39997 0.0553,0.13074 0.11679,0.25854 0.18551,0.38292 0.0687,0.12439 0.14443,0.24558 0.22686,0.36226 0.0646,0.0888 0.13313,0.17434 0.20516,0.25683 0.072,0.0825 0.14763,0.16172 0.22634,0.23771 0.0787,0.076 0.16079,0.14873 0.24547,0.21807 0.0847,0.0693 0.17205,0.13538 0.26199,0.19792 0.0899,0.0625 0.18198,0.12166 0.27647,0.17725 0.0945,0.0556 0.19106,0.10757 0.28939,0.15607 0.19665,0.097 0.40047,0.17988 0.60823,0.24753 0.0171,0.25311 0.0351,0.50624 0.061,0.75861 -0.0929,-0.0691 -0.18848,-0.13279 -0.2868,-0.19172 -0.0983,-0.0589 -0.1994,-0.11317 -0.30231,-0.16278 -0.1029,-0.0496 -0.20804,-0.0947 -0.31471,-0.13591 -0.10667,-0.0412 -0.21493,-0.0785 -0.32453,-0.11214 -0.21922,-0.0673 -0.44322,-0.12037 -0.66921,-0.16278 -0.226,-0.0424 -0.45389,-0.0741 -0.68006,-0.0987 -0.0509,-0.007 -0.10225,-0.008 -0.15244,-0.004 -0.0502,0.004 -0.099,0.0142 -0.14573,0.0305 -0.0467,0.0163 -0.0909,0.0387 -0.13126,0.0677 -0.0404,0.029 -0.0772,0.0649 -0.10852,0.10749 -0.0287,0.0256 -0.0518,0.0535 -0.0713,0.0832 -0.0195,0.0297 -0.0347,0.0616 -0.0465,0.0946 -0.0236,0.0658 -0.0334,0.13709 -0.0341,0.21033 -6.7e-4,0.0732 0.008,0.14824 0.0191,0.22169 0.0113,0.0735 0.0253,0.1449 0.0377,0.21135 0.0426,0.20347 0.0976,0.40484 0.16485,0.60203 0.0673,0.19721 0.1469,0.39065 0.23978,0.57671 0.0929,0.18605 0.19885,0.36483 0.31833,0.53485 0.0597,0.085 0.12255,0.16795 0.18913,0.24805 0.0666,0.0801 0.1368,0.15798 0.21033,0.23255 0.0902,0.0932 0.18483,0.18333 0.28318,0.27026 0.0983,0.0869 0.20023,0.17009 0.30593,0.24908 0.1057,0.079 0.21487,0.15388 0.32711,0.22325 0.11225,0.0694 0.22773,0.13364 0.34572,0.19172 0.11799,0.0581 0.23881,0.10991 0.36173,0.15502 0.12293,0.0451 0.24812,0.0832 0.37517,0.11369 0.12706,0.0305 0.25563,0.0535 0.38602,0.0677 0.13038,0.0142 0.26242,0.0194 0.39533,0.0155 0.0404,-0.0167 0.0697,-0.0159 0.0915,-0.005 0.0218,0.0115 0.0361,0.0338 0.0475,0.0615 0.0229,0.0554 0.0333,0.13128 0.0641,0.1788 0.0875,0.21365 0.18075,0.42441 0.27853,0.63355 -0.18169,-0.046 -0.36572,-0.081 -0.55087,-0.10645 -0.18516,-0.0255 -0.37157,-0.0418 -0.55862,-0.0512 -0.18704,-0.009 -0.37436,-0.0119 -0.56172,-0.009 -0.18736,0.002 -0.3746,0.009 -0.56069,0.0186 -0.10399,0.0104 -0.20757,0.0287 -0.30334,0.0646 -0.0479,0.0179 -0.094,0.0403 -0.13695,0.0682 -0.0429,0.0279 -0.0828,0.0615 -0.11885,0.1018 -0.0427,0.0173 -0.0716,0.0411 -0.0915,0.0698 -0.0198,0.0287 -0.0306,0.0624 -0.0362,0.0982 -0.0112,0.0716 -0.002,0.15313 -0.008,0.22737 -0.004,0.0538 0.003,0.10503 0.0186,0.15452 0.0153,0.0495 0.0385,0.0969 0.0641,0.14417 0.0511,0.0945 0.11294,0.18685 0.14779,0.28474 0.0736,0.14177 0.15593,0.27795 0.24598,0.40824 0.0901,0.1303 0.1879,0.2546 0.29249,0.37311 0.10458,0.11851 0.21611,0.23104 0.33332,0.33745 0.1172,0.10641 0.23999,0.20676 0.36793,0.30075 0.12793,0.094 0.26063,0.18178 0.39739,0.26304 0.13676,0.0813 0.2775,0.15607 0.42117,0.22427 0.14368,0.0682 0.29056,0.12965 0.43925,0.18449 0.14869,0.0548 0.29933,0.10302 0.45113,0.14417 0.0833,0.0155 0.1577,0.0292 0.18294,0.0481 0.0126,0.009 0.0128,0.0206 -0.004,0.0336 -0.017,0.013 -0.0513,0.0281 -0.108,0.0465 -0.073,0.0421 -0.15313,0.0821 -0.23306,0.12454 -0.0799,0.0425 -0.15957,0.0873 -0.23255,0.13849 -0.073,0.0512 -0.13904,0.109 -0.1912,0.17725 -0.0261,0.0341 -0.0489,0.0706 -0.0672,0.11059 -0.0183,0.04 -0.0321,0.0834 -0.0408,0.13023 -0.009,0.0405 -0.0122,0.0802 -0.0114,0.11885 8.1e-4,0.0387 0.006,0.0761 0.015,0.11266 0.0181,0.0731 0.0513,0.14179 0.0951,0.20464 0.0438,0.0628 0.0982,0.12022 0.15813,0.17053 0.0599,0.0503 0.1253,0.0937 0.19172,0.12919 0.1146,0.0754 0.23296,0.14663 0.3545,0.21291 0.12155,0.0663 0.24635,0.12752 0.37362,0.18345 0.12727,0.0559 0.25684,0.10608 0.38861,0.15038 0.13177,0.0443 0.26545,0.0828 0.40049,0.1142 0.13505,0.0314 0.27167,0.0562 0.40876,0.0734 0.13709,0.0172 0.27498,0.0266 0.41289,0.0284 0.13791,0.002 0.2759,-0.004 0.41341,-0.0191 0.13751,-0.0149 0.27444,-0.0384 0.41032,-0.0713 0.094,-0.0246 0.18617,-0.0551 0.27646,-0.0904 0.0903,-0.0353 0.17865,-0.0756 0.2651,-0.11989 0.1729,-0.0885 0.33798,-0.19305 0.49455,-0.30645 0.26389,0.19277 0.53332,0.37817 0.80822,0.55501 0.27491,0.17685 0.55519,0.34507 0.84077,0.50384 0.28558,0.15878 0.57641,0.30791 0.8723,0.44649 0.29589,0.13858 0.59693,0.26669 0.90279,0.38292 0.21592,0.083 0.43355,0.16193 0.65319,0.23461 -0.1627,0.0375 -0.32925,0.0741 -0.49506,0.11576 -0.1658,0.0417 -0.33098,0.0884 -0.49144,0.14521 -0.16045,0.0568 -0.31587,0.12377 -0.46251,0.2067 -0.0733,0.0415 -0.14463,0.0869 -0.21291,0.13695 -0.0683,0.05 -0.13367,0.10484 -0.19585,0.16484 -0.0572,0.0487 -0.10878,0.10613 -0.15141,0.1695 -0.0426,0.0634 -0.076,0.13283 -0.0977,0.20464 -0.0217,0.0718 -0.0316,0.14613 -0.0258,0.22014 0.003,0.037 0.01,0.0737 0.0207,0.11007 0.011,0.0364 0.0262,0.0725 0.046,0.10749 0.0274,0.0427 0.0585,0.0805 0.0925,0.11421 0.034,0.0337 0.0708,0.0633 0.11007,0.0894 0.0786,0.0522 0.16697,0.0906 0.25941,0.12092 0.0924,0.0303 0.18892,0.0525 0.28526,0.0723 0.0963,0.02 0.19236,0.0378 0.28267,0.0589 0.38209,0.0698 0.76684,0.12471 1.1529,0.1695 0.38606,0.0448 0.77342,0.0795 1.16013,0.10903 0.0631,-0.002 0.12396,-0.015 0.18087,-0.0382 0.0569,-0.0232 0.10988,-0.0564 0.15658,-0.0966 0.0467,-0.0403 0.0874,-0.0879 0.11989,-0.14056 0.0325,-0.0527 0.0566,-0.11011 0.0708,-0.17053 0.061,-0.0842 0.1307,-0.1591 0.20722,-0.22531 0.0765,-0.0662 0.15967,-0.12411 0.24753,-0.17467 0.0879,-0.0505 0.18044,-0.0934 0.27543,-0.13074 0.095,-0.0373 0.19252,-0.0686 0.29043,-0.0951 0.17092,-0.0491 0.34414,-0.0944 0.51728,-0.13849 0.0105,0.0675 0.0185,0.13535 0.03,0.20257 0.0323,0.18845 0.0691,0.37608 0.11007,0.56276 0.0413,0.18669 0.0864,0.37246 0.13643,0.55707 0.0497,0.18462 0.10431,0.36812 0.16278,0.55036 0.0585,0.18224 0.12116,0.36305 0.1881,0.5426 0.0669,0.17955 0.138267,0.35776 0.213937,0.53433 0.0754,-0.17657 0.147,-0.35478 0.21394,-0.53433 0.0669,-0.17955 0.12964,-0.36036 0.1881,-0.5426 0.0585,-0.18224 0.11253,-0.36574 0.16227,-0.55036 0.05,-0.18461 0.0957,-0.37038 0.13694,-0.55707 0.041,-0.18668 0.0778,-0.37431 0.11007,-0.56276 0.0118,-0.0689 0.0199,-0.13856 0.0305,-0.20774 0.15843,0.0383 0.31599,0.0813 0.47129,0.13023 0.15531,0.0489 0.30834,0.10379 0.45888,0.16536 0.0674,0.0281 0.13477,0.0595 0.19948,0.0951 0.0647,0.0356 0.12679,0.0755 0.18448,0.1204 0.0577,0.0449 0.1108,0.0947 0.1571,0.1509 0.0463,0.0562 0.0857,0.11876 0.11627,0.1881 0.0216,0.0375 0.0461,0.0712 0.0734,0.1018 0.0273,0.0306 0.0574,0.058 0.0894,0.0822 0.0641,0.0484 0.13681,0.0846 0.21394,0.10955 0.0771,0.025 0.1585,0.0391 0.24081,0.0439 0.0823,0.005 0.16535,2.6e-4 0.24495,-0.0119 0.37756,-0.034 0.75594,-0.0695 1.13275,-0.11524 0.18841,-0.0229 0.37635,-0.0485 0.56379,-0.0775 0.18743,-0.029 0.37422,-0.0614 0.56017,-0.0987 0.0811,-0.0195 0.1662,-0.0441 0.24908,-0.0754 0.0829,-0.0314 0.16341,-0.0698 0.23616,-0.11731 0.0727,-0.0475 0.13746,-0.10429 0.1881,-0.17208 0.0253,-0.0339 0.047,-0.0703 0.0646,-0.11007 0.0175,-0.0397 0.031,-0.0825 0.0393,-0.12867 0.007,-0.0425 0.009,-0.0839 0.006,-0.12403 -0.003,-0.0401 -0.0101,-0.0791 -0.0212,-0.11679 -0.0221,-0.0754 -0.0596,-0.14561 -0.10646,-0.21135 -0.0469,-0.0657 -0.10314,-0.12679 -0.1633,-0.18294 -0.0602,-0.0562 -0.12405,-0.1074 -0.18603,-0.15399 -0.12331,-0.0845 -0.25324,-0.15603 -0.38757,-0.21756 -0.13433,-0.0615 -0.27301,-0.11327 -0.41445,-0.15813 -0.14144,-0.0448 -0.2853,-0.0828 -0.42995,-0.11731 -0.14465,-0.0345 -0.29013,-0.0652 -0.43408,-0.0956 0.17022,-0.0543 0.33917,-0.11268 0.50643,-0.17466 0.16725,-0.062 0.33284,-0.12778 0.49713,-0.19689 0.32859,-0.13821 0.65107,-0.29011 0.9679,-0.45372 0.31683,-0.16361 0.62808,-0.33862 0.93327,-0.52348 0.30519,-0.18485 0.60448,-0.37941 0.89814,-0.58136 0.0298,-0.01 0.0598,-0.031 0.0899,-0.0548 0.0301,-0.0238 0.0604,-0.0506 0.0904,-0.0723 0.03,-0.0217 0.0598,-0.038 0.0894,-0.0419 0.0148,-0.002 0.0298,-8e-4 0.0444,0.005 0.0147,0.006 0.0289,0.0154 0.0434,0.0305 0.1206,0.0855 0.24723,0.16099 0.37827,0.22634 0.13104,0.0654 0.26631,0.12036 0.40514,0.16588 0.13885,0.0455 0.28128,0.0814 0.4253,0.10749 0.14401,0.026 0.29012,0.0422 0.43667,0.0491 0.14656,0.007 0.29331,0.005 0.43976,-0.007 0.14646,-0.0119 0.29243,-0.0333 0.43615,-0.0636 0.14372,-0.0303 0.28539,-0.0695 0.42375,-0.11782 0.13835,-0.0483 0.27324,-0.10553 0.40359,-0.17157 0.20348,-0.0987 0.4119,-0.19747 0.61082,-0.31006 0.0994,-0.0563 0.19646,-0.1157 0.28939,-0.18086 0.0929,-0.0652 0.18176,-0.1358 0.26458,-0.21343 0.0196,-0.0681 0.0715,-0.13455 0.1111,-0.20154 0.0198,-0.0335 0.0368,-0.0672 0.045,-0.10128 0.008,-0.0341 0.007,-0.0686 -0.007,-0.10387 -0.0333,-0.0818 -0.0586,-0.1723 -0.0997,-0.2496 -0.0206,-0.0387 -0.0451,-0.074 -0.0765,-0.10335 -0.0314,-0.0293 -0.0697,-0.0526 -0.11782,-0.0672 -0.25456,-0.12018 -0.50496,-0.24977 -0.76378,-0.3607 0.13032,-0.0276 0.25969,-0.0605 0.38757,-0.0982 0.12788,-0.0377 0.25459,-0.0802 0.37931,-0.12764 0.12471,-0.0475 0.24763,-0.0998 0.36845,-0.15658 0.12082,-0.0568 0.23935,-0.11816 0.35554,-0.18397 0.1162,-0.0658 0.2297,-0.13643 0.34054,-0.21084 0.11084,-0.0744 0.21874,-0.15301 0.3235,-0.23564 0.10475,-0.0826 0.20643,-0.16896 0.30437,-0.25942 0.0979,-0.0905 0.19228,-0.18476 0.28267,-0.28267 0.0729,-0.0941 0.14412,-0.19076 0.21188,-0.2899 0.0678,-0.0991 0.13224,-0.20059 0.19172,-0.30489 0.0595,-0.1043 0.11417,-0.21132 0.16226,-0.32091 0.0481,-0.10959 0.0894,-0.22192 0.12299,-0.33693 0.0121,-0.0525 0.0171,-0.10718 0.014,-0.16123 -0.003,-0.054 -0.0139,-0.1078 -0.0326,-0.15762 -0.0187,-0.0498 -0.0453,-0.0961 -0.0801,-0.13591 -0.0348,-0.0399 -0.0779,-0.0731 -0.12919,-0.0971 -0.0514,-0.0466 -0.10909,-0.077 -0.17054,-0.0966 -0.0614,-0.0197 -0.12645,-0.0284 -0.19327,-0.0326 -0.13364,-0.008 -0.27352,0.003 -0.40049,-0.0124 -0.31811,0.003 -0.64152,-0.0127 -0.96221,-0.004 -0.16034,0.004 -0.31997,0.0153 -0.47801,0.0372 -0.15805,0.022 -0.3144,0.0554 -0.46819,0.10542 0.13354,-0.28563 0.25431,-0.58225 0.36277,-0.87488 0.13769,0.0116 0.27456,0.0123 0.40979,0.003 0.13523,-0.009 0.26915,-0.0276 0.40101,-0.0553 0.13186,-0.0277 0.26156,-0.0642 0.38913,-0.10852 0.12758,-0.0443 0.25279,-0.0967 0.37517,-0.15555 0.12239,-0.0588 0.24185,-0.12452 0.35812,-0.19585 0.11628,-0.0713 0.22922,-0.14818 0.33848,-0.22996 0.10927,-0.0818 0.21492,-0.1682 0.31626,-0.25839 0.10134,-0.0902 0.19843,-0.18406 0.29093,-0.2806 0.0839,-0.0852 0.16425,-0.17406 0.24082,-0.26613 0.0766,-0.0921 0.1495,-0.18755 0.21807,-0.28577 0.0686,-0.0982 0.13287,-0.19917 0.19275,-0.30283 0.0599,-0.10365 0.11536,-0.20993 0.16589,-0.31832 0.0505,-0.10839 0.0964,-0.21884 0.13694,-0.33125 0.0405,-0.11241 0.0756,-0.22689 0.10542,-0.34261 0.0298,-0.11572 0.0544,-0.23256 0.0729,-0.35089 0.0185,-0.11832 0.0308,-0.2379 0.0372,-0.35811 0.0125,-0.0467 0.0146,-0.0922 0.009,-0.13695 -0.005,-0.0448 -0.0169,-0.0891 -0.0315,-0.13281 -0.0293,-0.0875 -0.07,-0.17362 -0.091,-0.26199 -0.096,-0.0356 -0.19019,-0.087 -0.28681,-0.12041 -0.0483,-0.0167 -0.0971,-0.0291 -0.14727,-0.0326 -0.0501,-0.003 -0.10144,0.002 -0.15452,0.0202 -0.22512,0.0228 -0.45079,0.055 -0.67437,0.0992 -0.22358,0.0442 -0.4452,0.10033 -0.66146,0.17053 -0.10812,0.0351 -0.21468,0.0738 -0.31988,0.11627 -0.10521,0.0425 -0.20901,0.0885 -0.31058,0.13901 -0.10156,0.0505 -0.20097,0.10529 -0.29817,0.16433 -0.0972,0.059 -0.19211,0.12249 -0.28422,0.19069 0.0247,-0.25268 0.0406,-0.50629 0.0563,-0.75965 0.11313,-0.039 0.22573,-0.0821 0.33693,-0.12867 0.11119,-0.0466 0.2212,-0.097 0.32918,-0.15141 0.10799,-0.0544 0.21378,-0.1123 0.31729,-0.17467 0.1035,-0.0624 0.20456,-0.12895 0.30231,-0.19947 0.0978,-0.0705 0.19244,-0.14543 0.28318,-0.22428 0.0907,-0.0788 0.17749,-0.16173 0.25994,-0.24908 0.0825,-0.0873 0.16067,-0.17888 0.23357,-0.27492 0.0729,-0.096 0.1405,-0.19638 0.20258,-0.30127 0.0717,-0.11654 0.1367,-0.23642 0.19533,-0.35915 0.0586,-0.12273 0.11114,-0.24846 0.1571,-0.3762 0.046,-0.12776 0.0857,-0.25751 0.11937,-0.38913 0.0337,-0.13162 0.0614,-0.26513 0.0832,-0.39946 0.0218,-0.13432 0.0377,-0.26978 0.0481,-0.40566 0.0103,-0.13587 0.0147,-0.27197 0.0139,-0.40824 -7.2e-4,-0.13627 -0.007,-0.27275 -0.0181,-0.40824 -0.0114,-0.1355 -0.028,-0.27003 -0.0496,-0.4036 -0.007,-0.0469 -0.0232,-0.0888 -0.045,-0.12764 -0.0217,-0.0389 -0.0487,-0.0746 -0.0785,-0.10904 -0.0597,-0.0688 -0.12924,-0.13245 -0.1819,-0.20515 -0.10569,-0.004 -0.21244,-0.0123 -0.31626,-0.005 -0.0519,0.003 -0.10291,0.0106 -0.15296,0.0243 -0.05,0.0137 -0.099,0.034 -0.14625,0.063 -0.1346,0.0537 -0.26917,0.10777 -0.40204,0.16589 -0.13288,0.0581 -0.26404,0.12024 -0.39119,0.19016 0.0627,-0.0916 0.12212,-0.18563 0.17777,-0.28163 0.0557,-0.096 0.10777,-0.19419 0.15606,-0.29404 0.0483,-0.0998 0.0927,-0.20123 0.13332,-0.30437 0.0406,-0.10315 0.077,-0.20779 0.10956,-0.31368 0.0326,-0.10589 0.0615,-0.21335 0.0858,-0.32143 0.0243,-0.10807 0.0443,-0.21689 0.0599,-0.32659 0.0156,-0.10971 0.0264,-0.21995 0.0331,-0.33073 0.007,-0.11078 0.009,-0.22202 0.006,-0.33332 -0.004,-0.13035 -0.007,-0.26304 -0.0129,-0.39584 -0.006,-0.13279 -0.0156,-0.26586 -0.0326,-0.39739 -0.0169,-0.13153 -0.0413,-0.26152 -0.077,-0.38809 -0.0356,-0.12656 -0.0828,-0.24953 -0.14521,-0.36742 -0.0206,-0.0378 -0.045,-0.0722 -0.0729,-0.10335 -0.0279,-0.0311 -0.0594,-0.0592 -0.093,-0.0832 -0.0336,-0.0241 -0.0697,-0.0443 -0.10749,-0.061 -0.0377,-0.0166 -0.077,-0.0294 -0.1173,-0.0382 -0.0403,-0.009 -0.0812,-0.0137 -0.12248,-0.0145 -0.0412,-7.6e-4 -0.0829,0.003 -0.1235,0.0103 -0.0406,0.008 -0.0805,0.0197 -0.11886,0.0362 -0.0384,0.0165 -0.075,0.0374 -0.10955,0.0631 -0.12988,0.0854 -0.25301,0.17981 -0.37001,0.28112 -0.11701,0.1013 -0.22782,0.20915 -0.33383,0.32246 -0.10602,0.1133 -0.20694,0.23211 -0.30385,0.35346 -0.0969,0.12136 -0.18989,0.24559 -0.27957,0.37104 0.0115,-0.15092 0.0145,-0.30204 0.008,-0.45269 -0.006,-0.15064 -0.0204,-0.30074 -0.0429,-0.44958 -0.0225,-0.14884 -0.053,-0.29631 -0.0915,-0.44183 -0.0385,-0.14552 -0.0848,-0.28928 -0.1385,-0.42995 -0.0537,-0.14068 -0.11473,-0.27859 -0.18293,-0.4129 -0.0682,-0.13431 -0.14385,-0.26476 -0.22583,-0.39119 -0.082,-0.12642 -0.17055,-0.24885 -0.26561,-0.36587 -0.0951,-0.11701 -0.19643,-0.22877 -0.30386,-0.33486 -0.12154,-0.12206 -0.24891,-0.23835 -0.38137,-0.34882 -0.13246,-0.11047 -0.27,-0.21539 -0.41187,-0.31367 -0.14187,-0.0983 -0.28793,-0.18994 -0.43769,-0.27544 -0.14977,-0.0855 -0.30327,-0.16456 -0.45941,-0.23667 -0.0429,-0.0175 -0.0866,-0.0296 -0.13074,-0.0362 -0.0442,-0.007 -0.0889,-0.008 -0.13281,-0.004 -0.0439,0.003 -0.0871,0.0113 -0.12919,0.0238 -0.0421,0.0125 -0.0831,0.0294 -0.12196,0.0501 -0.0389,0.0207 -0.0759,0.0454 -0.11007,0.0734 -0.0342,0.028 -0.0656,0.0592 -0.0935,0.0935 -0.0279,0.0343 -0.0521,0.0718 -0.0724,0.11162 -0.0202,0.0398 -0.0364,0.0822 -0.0475,0.12661 -0.0518,0.17176 -0.0937,0.34618 -0.12557,0.52245 -0.0319,0.17626 -0.054,0.35414 -0.0661,0.53278 -0.0123,0.17865 -0.0146,0.35801 -0.007,0.53692 0.007,0.17891 0.0237,0.35728 0.0501,0.53433 0.0264,0.17705 0.0625,0.353 0.10801,0.52607 0.0455,0.17307 0.10054,0.34359 0.16484,0.51056 0.0643,0.16697 0.13773,0.33011 0.22066,0.48886 0.0829,0.15875 0.17512,0.31307 0.27647,0.46147 0.0565,0.0857 0.11644,0.16881 0.17932,0.2496 0.0629,0.0808 0.12864,0.15949 0.1974,0.23513 0.13751,0.15127 0.28626,0.29169 0.44442,0.42116 0.15817,0.12947 0.32572,0.2479 0.50074,0.35398 0.17501,0.10609 0.35764,0.2 0.54571,0.28112 0.0235,0.0625 0.0283,0.0943 0.0207,0.10646 -0.008,0.0121 -0.0279,0.004 -0.0543,-0.0129 -0.0527,-0.0345 -0.13012,-0.10659 -0.18242,-0.13229 -0.11625,-0.0771 -0.23652,-0.14933 -0.36019,-0.21549 -0.12367,-0.0662 -0.25077,-0.12607 -0.38033,-0.17984 -0.12956,-0.0538 -0.26141,-0.10116 -0.39533,-0.14108 -0.13393,-0.0399 -0.26992,-0.072 -0.40669,-0.0966 -0.0659,0.0262 -0.15016,0.0258 -0.22738,0.0357 -0.0386,0.005 -0.0755,0.0124 -0.10749,0.0269 -0.032,0.0145 -0.059,0.0361 -0.078,0.0692 -0.002,0.003 -0.004,0.007 -0.006,0.0103 -0.0336,-0.0153 -0.0623,-0.033 -0.10335,-0.0444 -1.40476,-0.85174 -2.80772,-1.70824 -4.21422,-2.5585 -0.70325,-0.42513 -1.40728,-0.84851 -2.11305,-1.26918 -0.70576,-0.42067 -1.41318,-0.83862 -2.12286,-1.25212 v -2.4231 l 0.95291,-0.95292 z"
         id="path1736" />
      <path
         id="path1-0"
         style="fill:#000000;fill-opacity:1;stroke-width:0.08;stroke-dasharray:none"
         d="m 100.16908,225.90869 -2.083077,2.08256 0.952913,0.95292 v 2.42879 c -2.065913,1.20211 -4.096673,2.46826 -6.151562,3.69021 -0.834319,0.64822 -2.085006,0.9743 -2.671155,1.82986 -0.07101,2.51778 -0.0454,5.03751 -0.04082,7.55665 -0.06189,-0.17084 -0.129619,-0.34256 -0.210323,-0.5147 -1.396796,0.96303 -1.927982,2.32293 -1.622123,3.7822 -0.438663,-0.97742 -0.713896,-1.93049 -0.873848,-2.78329 1.86883,-0.73373 2.490713,-2.69744 2.109948,-4.47467 -1.198887,0.44977 -2.164346,1.32595 -2.2965,2.92851 -0.05954,-0.95487 -0.0337,-1.9126 0.03566,-2.79776 2.1446,-0.4354 3.028232,-2.16913 2.840137,-3.80081 -0.821725,0.19366 -2.041361,0.65518 -2.646867,2.07585 0.145572,-1.00785 0.313793,-1.78828 0.400493,-2.15956 2.04056,-0.70429 3.1957,-3.09601 2.376599,-5.42706 -2.839724,1.26202 -3.204656,3.575 -2.550749,5.36401 -0.130847,0.4295 -0.256061,0.9054 -0.367936,1.418 0.01865,-2.01765 -1.232697,-3.26647 -2.053105,-3.73 -0.645738,1.53747 -0.192454,3.93653 1.825212,4.9506 -0.08537,0.54924 -0.152231,1.12585 -0.192753,1.72186 -0.361467,-1.5139 -1.405834,-2.30216 -2.842204,-2.73265 -0.376842,2.3245 0.718164,4.03529 2.805513,4.53512 0.02355,0.79392 0.101603,1.60351 0.250114,2.41019 -0.703228,-1.1304 -1.895265,-1.63997 -3.44165,-1.73064 0,2.30029 2.4013,3.99925 3.899504,3.53312 0.272494,0.82302 0.633578,1.62843 1.100708,2.3952 -0.909066,-0.66075 -2.092654,-0.88738 -3.520199,-0.64957 0.446841,1.85085 3.235418,3.19448 4.851383,2.40088 l 0.04134,0.045 c 0.331043,0.34936 0.671275,0.67585 1.018025,0.98237 -0.883221,-0.41119 -2.139191,-0.53864 -3.528466,0.43357 1.570824,1.19431 3.263786,1.28406 4.302062,0.2098 1.521099,1.18712 3.16042,1.99509 4.710307,2.42983 0.577907,0.16213 1.143334,0.28229 1.694987,0.38964 -2.072539,0.25132 -3.873398,0.52592 -4.012158,1.22008 0.06445,0.32156 3.025138,0.5147 3.025138,0.5147 0.178535,-0.65458 0.922292,-0.96893 1.960604,-1.20665 0.0037,0.0316 0.0054,0.0635 0.0093,0.0951 0.02381,0.18991 0.05195,0.37947 0.08423,0.56792 0.03228,0.18845 0.06906,0.37608 0.11007,0.56276 0.04127,0.18669 0.08642,0.37246 0.136426,0.55707 0.04974,0.18462 0.104308,0.36811 0.162781,0.55035 0.05847,0.18224 0.121162,0.36306 0.188102,0.54261 0.0669,0.17955 0.138269,0.35776 0.213939,0.53433 0.0754,-0.17657 0.147,-0.35478 0.21394,-0.53433 0.0669,-0.17955 0.12963,-0.36037 0.1881,-0.54261 0.0585,-0.18224 0.11253,-0.36573 0.16227,-0.55035 0.05,-0.18461 0.0957,-0.37038 0.13694,-0.55707 0.041,-0.18668 0.0778,-0.37431 0.11007,-0.56276 0.0323,-0.18845 0.0602,-0.37801 0.0837,-0.56792 0.004,-0.0314 0.006,-0.0631 0.009,-0.0946 1.03818,0.23769 1.78157,0.55162 1.96008,1.20613 0,0 2.96121,-0.19314 3.02566,-0.5147 -0.13877,-0.69422 -1.93992,-0.96874 -4.01268,-1.22008 0.55162,-0.10735 1.11664,-0.22751 1.69447,-0.38964 1.55022,-0.43474 3.18907,-1.24271 4.71083,-2.42983 1.03763,1.07426 2.7309,0.98451 4.30206,-0.2098 -1.3896,-0.97221 -2.64525,-0.84476 -3.52847,-0.43357 0.34641,-0.30652 0.68646,-0.63301 1.01751,-0.98237 l 0.0419,-0.045 c 1.61597,0.7936 4.40403,-0.55003 4.85087,-2.40088 -1.42788,-0.23781 -2.61113,-0.0111 -3.5202,0.64957 0.46713,-0.76677 0.82821,-1.57218 1.10071,-2.3952 1.4982,0.46613 3.90053,-1.23283 3.90053,-3.53312 -1.54661,0.0906 -2.73885,0.60012 -3.44216,1.73064 0.14818,-0.80668 0.22655,-1.61627 0.25011,-2.41019 2.08768,-0.49983 3.18269,-2.21062 2.80551,-4.53512 -1.43635,0.43049 -2.48125,1.21875 -2.84272,2.73265 -0.0402,-0.59601 -0.10685,-1.17262 -0.19223,-1.72186 2.018,-1.01407 2.4701,-3.41313 1.82469,-4.9506 -0.82074,0.46353 -2.07156,1.71235 -2.05259,3.73 -0.11221,-0.5126 -0.23741,-0.9885 -0.36793,-1.418 0.65359,-1.78901 0.28897,-4.10199 -2.55075,-5.36401 -0.81878,2.33105 0.33538,4.72277 2.3766,5.42706 0.0861,0.37128 0.2546,1.15171 0.40049,2.15956 -0.60549,-1.42067 -1.82514,-1.88219 -2.64687,-2.07585 -0.009,0.0788 -0.0135,0.15808 -0.0176,0.2372 -0.0107,-0.25877 -0.0819,-0.48758 -0.41237,-0.57929 -2.80954,-1.70349 -5.61144,-3.42578 -8.45013,-5.0798 v -2.4231 l 0.95291,-0.95292 z m 1.12965,6.39393 c 1.97204,1.15168 3.91468,2.3546 5.87509,3.5264 l 0.003,0.0176 c -1.81718,-0.35872 -3.61349,-0.83584 -5.41466,-1.28313 l 0.002,-0.0512 c -0.12303,0.0104 -0.24546,0.0261 -0.36638,0.0465 -0.12091,0.0204 -0.24014,0.0457 -0.35761,0.076 -0.11774,0.0302 -0.2335,0.0651 -0.34674,0.10491 -0.1135,0.0398 -0.22459,0.0847 -0.3328,0.13384 l -0.016,14.65182 c 0,0.28857 -0.008,0.57622 -0.016,0.86144 -0.008,0.28522 -0.0211,0.56826 -0.0346,0.84801 -0.0159,0.27975 -0.0323,0.55622 -0.0532,0.82838 -0.0212,0.27217 -0.0446,0.54006 -0.0718,0.80253 -0.0272,-0.26247 -0.0522,-0.53036 -0.0734,-0.80253 -0.0212,-0.27216 -0.0384,-0.54863 -0.0532,-0.82838 -0.0159,-0.27975 -0.0264,-0.56279 -0.0346,-0.84801 -0.008,-0.28522 -0.0129,-0.57287 -0.0155,-0.86144 l -0.01602,-14.69161 c -0.105838,-0.0445 -0.215434,-0.0848 -0.328145,-0.12092 -0.112977,-0.0361 -0.228745,-0.0683 -0.346749,-0.0956 -0.118004,-0.0273 -0.238225,-0.05 -0.359668,-0.0682 -0.121202,-0.0181 -0.243858,-0.0316 -0.366902,-0.0403 l 0.0026,0.0806 c -1.300184,0.32597 -2.608901,0.62917 -3.908288,0.9586 -0.522286,0.1171 -1.039616,0.28126 -1.56993,0.35036 1.963113,-1.20998 3.947829,-2.41091 5.940206,-3.58738 v 0.91933 c -1.098547,-0.074 -2.192998,0.30097 -3.01532,1.04645 -0.129645,0.11748 -0.106701,0.32706 0.04703,0.41031 0.07329,0.0395 0.162355,0.0419 0.235644,0.003 1.100399,-0.58667 2.709998,-0.58448 3.908282,-0.0233 1.1983,-0.56127 2.71669,-0.56346 3.81682,0.0233 0.0735,0.0392 0.16262,0.0367 0.23565,-0.003 0.15372,-0.0832 0.17669,-0.29283 0.047,-0.41031 -0.82233,-0.74557 -1.91677,-1.12055 -3.01532,-1.04645 z m 0.43873,3.09955 c 2.36556,0.54309 4.71878,1.14183 7.07605,1.72031 0.65665,-0.0392 0.61634,0.51483 0.55036,1.02629 -0.71176,2.50645 -1.52334,4.99032 -2.27687,7.48688 -0.0534,0.1452 -0.0907,0.30018 -0.18293,0.42788 -1.78235,-3.14097 -3.47148,-6.3343 -5.20123,-9.50484 z m -3.135727,0.032 0.03359,1.13636 c -1.434934,2.69773 -2.929562,5.36576 -4.376994,8.05739 -0.273322,0.50571 -0.552535,1.00876 -0.819071,1.51826 -0.540849,-1.61269 -0.996975,-3.25393 -1.502751,-4.87826 -0.319696,-1.33287 -1.018067,-2.60916 -0.963249,-4.00596 2.549958,-0.5774 5.078335,-1.25244 7.628475,-1.82779 z m 11.560017,1.99419 c 0.0818,1.42173 0.99129,2.78285 2.85667,3.16157 0.069,0.88516 0.0961,1.84289 0.0362,2.79776 -0.13215,-1.60256 -1.09793,-2.47874 -2.2965,-2.92851 -0.38109,1.77723 0.24079,3.74094 2.10995,4.47467 -0.16029,0.8528 -0.435,1.80587 -0.87334,2.78329 0.30552,-1.45927 -0.22617,-2.81917 -1.62264,-3.7822 -0.0793,0.16919 -0.14608,0.33798 -0.20722,0.50591 0.003,-2.26761 -0.0145,-4.53577 -0.005,-6.8032 -0.005,-0.0661 -1.4e-4,-0.13859 0.002,-0.20929 z m -8.50646,0.73432 c 1.54915,2.83454 3.08696,5.67588 4.61471,8.52196 l -0.0134,0.0305 -0.10697,0.0233 c -1.58274,0.0441 -3.16635,0.0478 -4.75009,0.045 z m -2.971908,0.0165 0.255282,8.60258 c -0.675463,-0.003 -1.350998,-0.006 -2.026233,-0.003 -0.942549,-0.04 -1.94716,0.0785 -2.849955,-0.0946 1.525285,-2.84296 3.069276,-5.67611 4.620906,-8.50491 z m -7.692037,2.91507 c 0.697281,1.92692 1.238338,3.91366 1.820561,5.87923 -0.40014,0.21461 -0.810358,0.41307 -1.224732,0.60151 -0.0623,-0.11813 -0.130353,-0.23731 -0.206188,-0.35708 -0.149911,0.10798 -0.284928,0.22501 -0.407211,0.34829 -0.0453,-2.15617 -0.04138,-4.31642 0.01757,-6.47195 z m 18.349785,0.0305 c 0.0585,1.10745 0.0368,2.21766 0.046,3.32641 -6.8e-4,0.82733 5.3e-4,1.65474 -0.0103,2.48202 0.0689,0.32285 0.0563,0.52174 -0.008,0.6382 -0.12357,-0.12518 -0.26043,-0.24398 -0.41238,-0.35346 -0.0799,0.12614 -0.1506,0.25137 -0.21549,0.37568 -0.40607,-0.17962 -0.89772,-0.53804 -1.20509,-0.71468 0.61544,-1.91368 1.15364,-3.85294 1.80557,-5.75417 z m -10.379729,6.42958 0.150379,5.07514 c -1.610637,-1.66044 -3.213182,-3.32906 -4.788855,-5.02243 1.545414,-0.0356 3.091939,-0.0486 4.638476,-0.0527 z m 2.415359,0.002 c 1.54772,0.006 3.09562,0.016 4.64261,0.031 -0.94212,1.08484 -1.9693,2.0958 -2.95124,3.14555 -0.6142,0.64304 -1.22853,1.28603 -1.84278,1.92908 z m 8.76019,0.0382 c 0.23437,0.5691 0.60883,1.08171 1.12499,1.50791 -0.36016,0.58619 -0.78839,1.16866 -1.29346,1.73065 0.28754,-0.6788 0.32923,-1.43941 0.0956,-2.13682 0.0185,-0.0196 0.04,-0.0368 0.0579,-0.0568 0.008,-0.34825 0.009,-0.69658 0.015,-1.04489 z m -19.962092,0.061 c 0.005,0.34304 0.03667,0.67655 0.114721,0.99271 -0.252084,0.71039 -0.215422,1.49045 0.07855,2.18488 -0.505071,-0.56199 -0.932652,-1.14446 -1.293461,-1.73065 0.497997,-0.41093 0.864249,-0.90226 1.100192,-1.44694 z m 3.026171,0.0687 c 1.375455,1.29073 2.646558,2.69094 3.947046,4.05712 0.151817,0.16879 0.317067,0.32777 0.441834,0.51883 -1.805666,-1.05131 -3.586172,-2.14703 -5.372799,-3.23081 -0.06679,-0.0214 -0.118775,-0.043 -0.173116,-0.0646 -0.02565,-0.22267 -0.07348,-0.45178 -0.146761,-0.68627 0.35976,-0.23517 0.983958,-0.44627 1.303796,-0.59428 z m 13.952641,0.13436 c 0.4059,-0.0347 0.8568,0.19063 1.28881,0.45165 -0.0708,0.22486 -0.11881,0.4448 -0.14573,0.65888 -1.09482,0.69369 -2.22477,1.33366 -3.32641,2.01693 -0.73445,0.42543 -1.44457,0.90805 -2.20039,1.29139 1.11257,-1.27633 2.3384,-2.47789 3.51814,-3.70313 0.23612,-0.48874 0.53609,-0.68759 0.86558,-0.71572 z m -15.123628,2.03037 c 0.14201,0.088 0.282495,0.17852 0.42478,0.26613 -0.499623,0.94163 -0.308918,1.9698 0.132291,2.61741 -0.524044,-0.36014 -0.999211,-0.7413 -1.42937,-1.13843 0.435477,-0.44117 0.764442,-1.04276 0.872299,-1.74511 z m 16.281178,0.0258 c 0.11183,0.69123 0.43731,1.28352 0.86713,1.71927 -0.42984,0.39713 -0.90418,0.77829 -1.42885,1.13843 0.44136,-0.64785 0.63266,-1.67653 0.13229,-2.61844 0.14227,-0.0802 0.28573,-0.15995 0.42943,-0.23926 z m -14.975832,0.77669 c 1.93721,1.17936 3.890314,2.33371 5.823417,3.51969 l 0.02739,0.92035 c 0.0014,0.0516 0.0061,0.10296 0.0083,0.15452 -0.821812,-0.12391 -1.591772,-0.27134 -2.212785,-0.47181 -1.99542,-0.64377 -2.792627,-1.02988 -3.881933,-1.70636 0.553878,-0.54426 0.593416,-1.53477 0.235644,-2.41639 z m 13.663252,0.009 c -0.35376,0.87932 -0.31322,1.8647 0.23874,2.40708 -1.08898,0.67648 -1.88669,1.06259 -3.88245,1.70636 -0.62062,0.20039 -1.38989,0.34739 -2.21123,0.47129 0.002,-0.0514 0.007,-0.10257 0.008,-0.154 l 0.0279,-0.93999 c 1.95341,-1.13861 3.87194,-2.34013 5.81877,-3.49074 z" />
    </g>
  </g>
</svg>
