<?xml version="1.0" encoding="UTF-8" standalone="no"?>
<!-- Created with Inkscape (http://www.inkscape.org/) -->

<svg
   width="25.079927mm"
   height="22.408718mm"
   viewBox="0 0 25.079927 22.408718"
   version="1.1"
   id="svg1"
   inkscape:version="1.3 (0e150ed6c4, 2023-07-21)"
   sodipodi:docname="tcg-player.svg"
   xmlns:inkscape="http://www.inkscape.org/namespaces/inkscape"
   xmlns:sodipodi="http://sodipodi.sourceforge.net/DTD/sodipodi-0.dtd"
   xmlns="http://www.w3.org/2000/svg"
   xmlns:svg="http://www.w3.org/2000/svg">
  <sodipodi:namedview
     id="namedview1"
     pagecolor="#ffffff"
     bordercolor="#000000"
     borderopacity="0.25"
     inkscape:showpageshadow="2"
     inkscape:pageopacity="0.0"
     inkscape:pagecheckerboard="0"
     inkscape:deskcolor="#d1d1d1"
     inkscape:document-units="mm"
     inkscape:zoom="0.69219276"
     inkscape:cx="47.674581"
     inkscape:cy="42.618186"
     inkscape:window-width="1920"
     inkscape:window-height="991"
     inkscape:window-x="-9"
     inkscape:window-y="-9"
     inkscape:window-maximized="1"
     inkscape:current-layer="layer1" />
  <defs
     id="defs1" />
  <g
     inkscape:label="Layer 1"
     inkscape:groupmode="layer"
     id="layer1"
     transform="translate(-92.604163,-137.31875)">
    <g
       id="g1767"
       transform="translate(-16.220649,-96.817689)">
      <path
         id="path1767"
         style="fill:#bfbfbf;fill-opacity:1;fill-rule:nonzero;stroke:#cc0000;stroke-width:0.08;stroke-dasharray:none"
         d="m 122.93595,234.17647 c -0.56422,0 -1.07786,0.26933 -1.39991,0.70487 l -1.56787,-0.27957 c -0.18222,-0.0323 -0.36669,-0.0362 -0.5488,-0.0114 -0.55877,0.0785 -1.03,0.41673 -1.28829,0.89297 l -1.59164,-0.0589 c -0.18494,-0.006 -0.36839,0.016 -0.54519,0.0661 -0.54229,0.15536 -0.96192,0.55601 -1.15135,1.0635 l -1.58388,0.16279 c -0.18415,0.0189 -0.3628,0.0668 -0.53072,0.14159 -0.51536,0.22947 -0.87515,0.68457 -0.99218,1.21336 l -1.54616,0.38189 c -0.1797,0.0444 -0.34997,0.11596 -0.50591,0.21342 -0.64061,0.40028 -0.9492,1.16219 -0.76792,1.89601 l 3.61064,14.6172 c 0.23052,0.93273 1.17709,1.50435 2.10994,1.27382 l 8.6,-2.12442 0.73225,-0.0754 0.73587,0.0274 0.72502,0.1292 1.46658,0.48007 c 0.17602,0.0573 0.35855,0.0868 0.5426,0.0868 0.7553,0 1.42062,-0.48268 1.65572,-1.20096 l 4.68343,-14.30921 c 0.29898,-0.91317 -0.20098,-1.89951 -1.11414,-2.19831 v 10e-4 l -9.186,-3.00705 c -0.17593,-0.0573 -0.35819,-0.0868 -0.54209,-0.0868 z" />
      <path
         id="path166"
         style="fill:#000000;fill-opacity:1;fill-rule:nonzero;stroke:none;stroke-width:0.0565032"
         d="m 122.93565,234.1764 c -0.56422,0 -1.07787,0.26933 -1.39992,0.70487 l -1.56734,-0.27957 c -0.18222,-0.0324 -0.36721,-0.0362 -0.54932,-0.0114 -0.55877,0.0785 -1.03,0.41673 -1.2883,0.89297 l -1.59111,-0.0589 c -0.18494,-0.006 -0.36838,0.0161 -0.54519,0.0662 -0.54229,0.15536 -0.96193,0.55599 -1.15135,1.0635 l -1.5844,0.16278 c -0.18414,0.0189 -0.3628,0.0668 -0.53072,0.14159 -0.51537,0.22947 -0.87514,0.68457 -0.99218,1.21336 l -1.54616,0.38189 c -0.17969,0.0444 -0.34946,0.11597 -0.5054,0.21343 -0.6406,0.40028 -0.94919,1.16218 -0.76791,1.896 l 3.61063,14.6172 c 0.23053,0.93273 1.17657,1.50435 2.10943,1.27382 l 8.6,-2.12441 0.73277,-0.0754 0.73535,0.0274 0.72502,0.12919 1.4671,0.48007 c 0.17602,0.0573 0.35803,0.0868 0.54208,0.0868 0.7553,0 1.42114,-0.48268 1.65623,-1.20096 l 4.68292,-14.30921 c 0.29898,-0.91317 -0.20047,-1.89951 -1.11363,-2.19831 v 0.001 l -9.186,-3.00705 c -0.17593,-0.0573 -0.35869,-0.0868 -0.5426,-0.0868 z m 0,0.55759 c 0.12221,0 0.2466,0.0194 0.36897,0.0594 l 9.186,3.00654 c 0.62188,0.20362 0.96102,0.87295 0.75758,1.49499 l -4.68344,14.30921 c -0.16345,0.49947 -0.62766,0.81649 -1.12603,0.81649 -0.12221,0 -0.24603,-0.0191 -0.36845,-0.0589 l -9.18652,-3.00654 c -0.62194,-0.20344 -0.96112,-0.87312 -0.75758,-1.495 l 4.68344,-14.3092 c 0.1635,-0.49965 0.6275,-0.81701 1.12603,-0.81701 z m -3.25458,0.39791 c 0.0624,0.001 0.12574,0.007 0.18913,0.0191 v -5.2e-4 l 1.40198,0.25012 -0.21084,0.6444 -1.26452,-0.22582 c -0.34979,-0.0623 -0.68429,0.17023 -0.74672,0.51986 l -2.29857,12.87312 -0.15503,0.47439 c -0.0849,0.25934 -0.10332,0.52397 -0.0682,0.77773 l -0.0791,0.44183 c -0.0625,0.34978 0.17014,0.68439 0.51987,0.74673 l 0.38705,0.0692 c 0.10972,0.066 0.22732,0.12139 0.35399,0.16278 l 3.91139,1.28055 -4.8147,-0.8599 c -0.64428,-0.11483 -1.07306,-0.73069 -0.95808,-1.37511 l 2.64635,-14.82183 c 0.0924,-0.51746 0.5078,-0.89583 1.00149,-0.96532 0.0605,-0.008 0.12209,-0.0125 0.18449,-0.0114 z m -3.1626,0.85008 h 5.2e-4 l 1.42316,0.0532 -0.11937,0.66714 -1.28364,-0.0475 c -0.35508,-0.0128 -0.65346,0.26351 -0.66663,0.61856 l -0.48472,13.06742 -0.0878,0.49196 c -0.048,0.26857 -0.0294,0.53286 0.0403,0.77928 l -0.0165,0.44907 c -0.0128,0.35504 0.264,0.65351 0.61908,0.66663 l 0.39274,0.0139 c 0.11772,0.05 0.24187,0.0893 0.37311,0.11265 l 4.05143,0.72296 -4.88756,-0.18087 c -0.65396,-0.0242 -1.16427,-0.57434 -1.13998,-1.22835 l 0.55811,-15.04611 c 0.0194,-0.52532 0.37757,-0.95812 0.85679,-1.09554 0.1174,-0.0336 0.24234,-0.0491 0.37104,-0.0444 z m -1.78594,1.14463 -0.0253,0.67696 -1.27796,0.13178 c -0.35346,0.0364 -0.61051,0.35243 -0.57412,0.7059 l 1.33893,13.00747 -0.0186,0.4992 c -0.01,0.2726 0.045,0.53218 0.14883,0.76636 l 0.046,0.44648 c 0.0362,0.35345 0.35255,0.61063 0.7059,0.57413 l 0.39067,-0.0398 c 0.12365,0.033 0.2523,0.0541 0.38551,0.0589 l 4.11241,0.15244 -4.86482,0.50075 c -0.65098,0.0668 -1.2332,-0.40641 -1.30018,-1.0573 l -1.54099,-14.97738 c -0.0538,-0.52285 0.24072,-1.00131 0.69608,-1.20406 0.11164,-0.0497 0.23302,-0.0832 0.36122,-0.0961 z m -3.02617,1.52756 0.0692,0.67386 -1.24696,0.30799 c -0.34496,0.0852 -0.55596,0.43438 -0.47077,0.77928 l 3.13624,12.69432 0.0512,0.49712 c 0.0282,0.27138 0.11848,0.52103 0.25374,0.73846 l 0.108,0.43563 c 0.0852,0.34491 0.43387,0.55547 0.77876,0.47026 l 0.38137,-0.0946 c 0.12701,0.016 0.25754,0.0189 0.39016,0.005 l 4.09381,-0.42117 -4.74855,1.17306 c -0.63509,0.15693 -1.27737,-0.23107 -1.43454,-0.8661 l -3.61063,-14.61719 c -0.12605,-0.51028 0.0991,-1.0251 0.52193,-1.28933 0.10363,-0.0647 0.21912,-0.11414 0.34417,-0.14521 z m 15.505,0.88366 c -0.53138,0.004 -2.07534,1.1317 -2.33629,1.36529 -0.77667,0.69464 1.01117,2.31245 0.0941,2.70888 -0.91985,0.38648 -0.84828,-2.02378 -1.88723,-1.94458 -0.37254,0.0284 -2.49046,0.40457 -2.65617,0.81649 -0.16573,0.41193 1.10114,2.1499 1.35031,2.42827 0.69429,0.77751 2.31278,-1.01132 2.70836,-0.0946 0.38732,0.92022 -2.02329,0.84979 -1.94407,1.88878 0.0287,0.37168 0.40457,2.48992 0.81649,2.65565 0.4119,0.16572 2.15025,-1.102 2.42828,-1.3503 0.77749,-0.69432 -1.01117,-2.31328 -0.0946,-2.70888 0.92019,-0.38731 0.84947,2.02412 1.88877,1.94406 0.37166,-0.0287 2.48942,-0.40507 2.65514,-0.817 0.16573,-0.41192 -1.10148,-2.14972 -1.34979,-2.42776 -0.69464,-0.77668 -2.31348,1.01107 -2.7094,0.0951 -0.38698,-0.92105 2.02409,-0.84944 1.94407,-1.88878 -0.0283,-0.3724 -0.40422,-2.48926 -0.81597,-2.65617 h -5.2e-4 c -0.0256,-0.0102 -0.0562,-0.0147 -0.0915,-0.0145 z m -3.29748,1.15394 c -0.0624,0.002 -0.12114,0.0418 -0.14107,0.10645 -2.9e-4,0.001 -0.001,0.002 -0.001,0.002 l -0.002,-5.2e-4 c -0.088,-0.0442 -0.19465,0.007 -0.21755,0.10284 -0.13225,0.54282 0.32032,1.14485 1.02836,1.79575 0.0204,-0.9607 -0.10025,-1.70487 -0.58343,-1.9854 -0.0265,-0.0156 -0.0553,-0.0223 -0.0837,-0.0212 z m 2.70113,0.21187 c 0.056,-0.002 0.10344,0.003 0.13798,0.0171 0.27712,0.11148 0.74103,1.181 0.65732,1.38907 -0.15087,0.37485 -1.13414,0.77657 -1.61695,0.99632 -0.19613,-0.49291 -0.6278,-1.46378 -0.47698,-1.83865 0.0733,-0.18206 0.90635,-0.54935 1.29863,-0.56379 z m -3.48041,1.46348 c 0.0193,0.001 0.0356,0.004 0.0486,0.009 0.37484,0.15088 0.77625,1.13548 0.99632,1.61747 -0.49288,0.19612 -1.46432,0.62779 -1.83916,0.47698 -0.20807,-0.0836 -0.65771,-1.15946 -0.54622,-1.43661 0.1042,-0.25902 1.05109,-0.68402 1.34048,-0.66714 z m 5.54333,0.28939 c -0.48743,0.008 -1.02033,0.43228 -1.58956,1.05109 0.96153,0.0208 1.70487,-0.10023 1.98541,-0.58342 0.0498,-0.0848 0.008,-0.19579 -0.0858,-0.22479 l -0.002,-5.2e-4 c 0,0 1.4e-4,-10e-4 5.2e-4,-0.002 0.0442,-0.088 -0.007,-0.19446 -0.10335,-0.21756 -0.0678,-0.0165 -0.13604,-0.0239 -0.20568,-0.0227 z m -2.97656,0.87746 c -0.0333,0.16568 -0.005,0.47163 0.10129,0.72089 0.10716,0.24959 0.30714,0.48275 0.4501,0.57257 -0.16567,-0.0333 -0.47098,-0.005 -0.7214,0.10232 -0.24925,0.1062 -0.48159,0.3066 -0.57258,0.4501 0.0346,-0.16619 0.005,-0.47214 -0.10128,-0.7214 -0.10667,-0.25043 -0.30696,-0.48245 -0.44959,-0.57309 0.16534,0.0341 0.47083,0.005 0.72089,-0.10129 0.24925,-0.10619 0.48273,-0.30712 0.57257,-0.4501 z m -0.19895,0.49351 c -0.1038,0.0345 -0.20564,0.073 -0.30593,0.11576 -0.10027,0.0427 -0.19831,0.0895 -0.29507,0.14056 0.0346,0.10392 0.0727,0.20632 0.11576,0.30592 0.0425,0.10126 0.0892,0.19969 0.14056,0.29559 0.10357,-0.0336 0.20602,-0.0718 0.30592,-0.11575 0.10009,-0.0418 0.19897,-0.0892 0.29507,-0.14056 -0.0338,-0.1036 -0.073,-0.2055 -0.11575,-0.30593 -0.042,-0.10007 -0.0895,-0.19869 -0.14056,-0.29559 z m 2.65151,0.38499 c 0.0634,0.002 0.12006,0.0122 0.16692,0.031 0.20806,0.0838 0.65737,1.1603 0.54622,1.4366 -0.11148,0.27714 -1.181,0.74103 -1.38906,0.65733 -0.37486,-0.15088 -0.77739,-1.13496 -0.99632,-1.61748 0.43026,-0.17115 1.22828,-0.52314 1.67224,-0.50746 z m -4.75939,0.79065 c -0.87501,-0.002 -1.54497,0.1333 -1.80765,0.58549 -0.0502,0.0856 -0.009,0.19611 0.0853,0.22531 l 0.002,5.2e-4 c -1.5e-4,5.1e-4 -2.3e-4,8.2e-4 -5.2e-4,0.002 -0.044,0.088 0.008,0.19499 0.10284,0.21859 0.54283,0.13226 1.14538,-0.32134 1.79627,-1.02939 -0.0601,-10e-4 -0.11943,-0.002 -0.17776,-0.002 z m 1.47226,0.40514 c 0.19611,0.49291 0.62777,1.46431 0.47697,1.83917 -0.0838,0.20807 -1.15948,0.65823 -1.4366,0.54674 -0.27632,-0.11115 -0.74155,-1.18101 -0.65785,-1.38907 0.15088,-0.37487 1.13464,-0.77711 1.61748,-0.99684 z m 1.21233,0.60617 c -0.0208,0.96156 0.10056,1.70624 0.58291,1.98644 0.0859,0.0494 0.19682,0.008 0.22582,-0.0863 2.9e-4,-10e-4 1.4e-4,-10e-4 5.2e-4,-0.002 l 0.002,0.001 c 0.088,0.0442 0.19487,-0.007 0.21807,-0.10336 0.1319,-0.54198 -0.32084,-1.14483 -1.02887,-1.79575 z" />
    </g>
  </g>
</svg>
